G04 #@! TF.GenerationSoftware,KiCad,Pcbnew,(6.0.6-0)*
G04 #@! TF.CreationDate,2022-09-01T16:52:26+01:00*
G04 #@! TF.ProjectId,gnss_ring_patch_pcb,676e7373-5f72-4696-9e67-5f7061746368,1.0*
G04 #@! TF.SameCoordinates,Original*
G04 #@! TF.FileFunction,Legend,Top*
G04 #@! TF.FilePolarity,Positive*
%FSLAX46Y46*%
G04 Gerber Fmt 4.6, Leading zero omitted, Abs format (unit mm)*
G04 Created by KiCad (PCBNEW (6.0.6-0)) date 2022-09-01 16:52:26*
%MOMM*%
%LPD*%
G01*
G04 APERTURE LIST*
%ADD10C,0.300000*%
%ADD11C,0.150000*%
%ADD12C,0.010000*%
%ADD13C,0.120000*%
%ADD14C,3.200000*%
%ADD15C,1.500000*%
G04 APERTURE END LIST*
D10*
X134362142Y-147578571D02*
X134362142Y-148650000D01*
X134290714Y-148864285D01*
X134147857Y-149007142D01*
X133933571Y-149078571D01*
X133790714Y-149078571D01*
X135790714Y-149078571D02*
X135076428Y-149078571D01*
X135076428Y-147578571D01*
X137147857Y-148935714D02*
X137076428Y-149007142D01*
X136862142Y-149078571D01*
X136719285Y-149078571D01*
X136505000Y-149007142D01*
X136362142Y-148864285D01*
X136290714Y-148721428D01*
X136219285Y-148435714D01*
X136219285Y-148221428D01*
X136290714Y-147935714D01*
X136362142Y-147792857D01*
X136505000Y-147650000D01*
X136719285Y-147578571D01*
X136862142Y-147578571D01*
X137076428Y-147650000D01*
X137147857Y-147721428D01*
X138219285Y-147578571D02*
X138219285Y-148650000D01*
X138147857Y-148864285D01*
X138005000Y-149007142D01*
X137790714Y-149078571D01*
X137647857Y-149078571D01*
X139647857Y-149078571D02*
X138933571Y-149078571D01*
X138933571Y-147578571D01*
X141005000Y-148935714D02*
X140933571Y-149007142D01*
X140719285Y-149078571D01*
X140576428Y-149078571D01*
X140362142Y-149007142D01*
X140219285Y-148864285D01*
X140147857Y-148721428D01*
X140076428Y-148435714D01*
X140076428Y-148221428D01*
X140147857Y-147935714D01*
X140219285Y-147792857D01*
X140362142Y-147650000D01*
X140576428Y-147578571D01*
X140719285Y-147578571D01*
X140933571Y-147650000D01*
X141005000Y-147721428D01*
X142076428Y-147578571D02*
X142076428Y-148650000D01*
X142005000Y-148864285D01*
X141862142Y-149007142D01*
X141647857Y-149078571D01*
X141505000Y-149078571D01*
X143505000Y-149078571D02*
X142790714Y-149078571D01*
X142790714Y-147578571D01*
X144862142Y-148935714D02*
X144790714Y-149007142D01*
X144576428Y-149078571D01*
X144433571Y-149078571D01*
X144219285Y-149007142D01*
X144076428Y-148864285D01*
X144005000Y-148721428D01*
X143933571Y-148435714D01*
X143933571Y-148221428D01*
X144005000Y-147935714D01*
X144076428Y-147792857D01*
X144219285Y-147650000D01*
X144433571Y-147578571D01*
X144576428Y-147578571D01*
X144790714Y-147650000D01*
X144862142Y-147721428D01*
X145933571Y-147578571D02*
X145933571Y-148650000D01*
X145862142Y-148864285D01*
X145719285Y-149007142D01*
X145505000Y-149078571D01*
X145362142Y-149078571D01*
X147362142Y-149078571D02*
X146647857Y-149078571D01*
X146647857Y-147578571D01*
X148719285Y-148935714D02*
X148647857Y-149007142D01*
X148433571Y-149078571D01*
X148290714Y-149078571D01*
X148076428Y-149007142D01*
X147933571Y-148864285D01*
X147862142Y-148721428D01*
X147790714Y-148435714D01*
X147790714Y-148221428D01*
X147862142Y-147935714D01*
X147933571Y-147792857D01*
X148076428Y-147650000D01*
X148290714Y-147578571D01*
X148433571Y-147578571D01*
X148647857Y-147650000D01*
X148719285Y-147721428D01*
X86357142Y-143750000D02*
X86214285Y-143678571D01*
X85999999Y-143678571D01*
X85785714Y-143750000D01*
X85642857Y-143892857D01*
X85571428Y-144035714D01*
X85499999Y-144321428D01*
X85499999Y-144535714D01*
X85571428Y-144821428D01*
X85642857Y-144964285D01*
X85785714Y-145107142D01*
X85999999Y-145178571D01*
X86142857Y-145178571D01*
X86357142Y-145107142D01*
X86428571Y-145035714D01*
X86428571Y-144535714D01*
X86142857Y-144535714D01*
X87071428Y-145178571D02*
X87071428Y-143678571D01*
X87928571Y-145178571D01*
X87928571Y-143678571D01*
X88571428Y-145107142D02*
X88785714Y-145178571D01*
X89142857Y-145178571D01*
X89285714Y-145107142D01*
X89357142Y-145035714D01*
X89428571Y-144892857D01*
X89428571Y-144750000D01*
X89357142Y-144607142D01*
X89285714Y-144535714D01*
X89142857Y-144464285D01*
X88857142Y-144392857D01*
X88714285Y-144321428D01*
X88642857Y-144250000D01*
X88571428Y-144107142D01*
X88571428Y-143964285D01*
X88642857Y-143821428D01*
X88714285Y-143750000D01*
X88857142Y-143678571D01*
X89214285Y-143678571D01*
X89428571Y-143750000D01*
X89999999Y-145107142D02*
X90214285Y-145178571D01*
X90571428Y-145178571D01*
X90714285Y-145107142D01*
X90785714Y-145035714D01*
X90857142Y-144892857D01*
X90857142Y-144750000D01*
X90785714Y-144607142D01*
X90714285Y-144535714D01*
X90571428Y-144464285D01*
X90285714Y-144392857D01*
X90142857Y-144321428D01*
X90071428Y-144250000D01*
X89999999Y-144107142D01*
X89999999Y-143964285D01*
X90071428Y-143821428D01*
X90142857Y-143750000D01*
X90285714Y-143678571D01*
X90642857Y-143678571D01*
X90857142Y-143750000D01*
X93071428Y-145750000D02*
X92999999Y-145678571D01*
X92857142Y-145464285D01*
X92785714Y-145321428D01*
X92714285Y-145107142D01*
X92642857Y-144750000D01*
X92642857Y-144464285D01*
X92714285Y-144107142D01*
X92785714Y-143892857D01*
X92857142Y-143750000D01*
X92999999Y-143535714D01*
X93071428Y-143464285D01*
X94357142Y-145178571D02*
X93642857Y-145178571D01*
X93642857Y-143678571D01*
X95642857Y-145178571D02*
X94785714Y-145178571D01*
X95214285Y-145178571D02*
X95214285Y-143678571D01*
X95071428Y-143892857D01*
X94928571Y-144035714D01*
X94785714Y-144107142D01*
X96142857Y-145750000D02*
X96214285Y-145678571D01*
X96357142Y-145464285D01*
X96428571Y-145321428D01*
X96499999Y-145107142D01*
X96571428Y-144750000D01*
X96571428Y-144464285D01*
X96499999Y-144107142D01*
X96428571Y-143892857D01*
X96357142Y-143750000D01*
X96214285Y-143535714D01*
X96142857Y-143464285D01*
X99071428Y-145178571D02*
X99071428Y-144392857D01*
X98999999Y-144250000D01*
X98857142Y-144178571D01*
X98571428Y-144178571D01*
X98428571Y-144250000D01*
X99071428Y-145107142D02*
X98928571Y-145178571D01*
X98571428Y-145178571D01*
X98428571Y-145107142D01*
X98357142Y-144964285D01*
X98357142Y-144821428D01*
X98428571Y-144678571D01*
X98571428Y-144607142D01*
X98928571Y-144607142D01*
X99071428Y-144535714D01*
X100428571Y-145107142D02*
X100285714Y-145178571D01*
X99999999Y-145178571D01*
X99857142Y-145107142D01*
X99785714Y-145035714D01*
X99714285Y-144892857D01*
X99714285Y-144464285D01*
X99785714Y-144321428D01*
X99857142Y-144250000D01*
X99999999Y-144178571D01*
X100285714Y-144178571D01*
X100428571Y-144250000D01*
X100857142Y-144178571D02*
X101428571Y-144178571D01*
X101071428Y-143678571D02*
X101071428Y-144964285D01*
X101142857Y-145107142D01*
X101285714Y-145178571D01*
X101428571Y-145178571D01*
X101928571Y-145178571D02*
X101928571Y-144178571D01*
X101928571Y-143678571D02*
X101857142Y-143750000D01*
X101928571Y-143821428D01*
X101999999Y-143750000D01*
X101928571Y-143678571D01*
X101928571Y-143821428D01*
X102499999Y-144178571D02*
X102857142Y-145178571D01*
X103214285Y-144178571D01*
X104357142Y-145107142D02*
X104214285Y-145178571D01*
X103928571Y-145178571D01*
X103785714Y-145107142D01*
X103714285Y-144964285D01*
X103714285Y-144392857D01*
X103785714Y-144250000D01*
X103928571Y-144178571D01*
X104214285Y-144178571D01*
X104357142Y-144250000D01*
X104428571Y-144392857D01*
X104428571Y-144535714D01*
X103714285Y-144678571D01*
X106857142Y-145178571D02*
X106857142Y-144392857D01*
X106785714Y-144250000D01*
X106642857Y-144178571D01*
X106357142Y-144178571D01*
X106214285Y-144250000D01*
X106857142Y-145107142D02*
X106714285Y-145178571D01*
X106357142Y-145178571D01*
X106214285Y-145107142D01*
X106142857Y-144964285D01*
X106142857Y-144821428D01*
X106214285Y-144678571D01*
X106357142Y-144607142D01*
X106714285Y-144607142D01*
X106857142Y-144535714D01*
X107571428Y-144178571D02*
X107571428Y-145178571D01*
X107571428Y-144321428D02*
X107642857Y-144250000D01*
X107785714Y-144178571D01*
X107999999Y-144178571D01*
X108142857Y-144250000D01*
X108214285Y-144392857D01*
X108214285Y-145178571D01*
X108714285Y-144178571D02*
X109285714Y-144178571D01*
X108928571Y-143678571D02*
X108928571Y-144964285D01*
X108999999Y-145107142D01*
X109142857Y-145178571D01*
X109285714Y-145178571D01*
X110357142Y-145107142D02*
X110214285Y-145178571D01*
X109928571Y-145178571D01*
X109785714Y-145107142D01*
X109714285Y-144964285D01*
X109714285Y-144392857D01*
X109785714Y-144250000D01*
X109928571Y-144178571D01*
X110214285Y-144178571D01*
X110357142Y-144250000D01*
X110428571Y-144392857D01*
X110428571Y-144535714D01*
X109714285Y-144678571D01*
X111071428Y-144178571D02*
X111071428Y-145178571D01*
X111071428Y-144321428D02*
X111142857Y-144250000D01*
X111285714Y-144178571D01*
X111499999Y-144178571D01*
X111642857Y-144250000D01*
X111714285Y-144392857D01*
X111714285Y-145178571D01*
X112428571Y-144178571D02*
X112428571Y-145178571D01*
X112428571Y-144321428D02*
X112499999Y-144250000D01*
X112642857Y-144178571D01*
X112857142Y-144178571D01*
X112999999Y-144250000D01*
X113071428Y-144392857D01*
X113071428Y-145178571D01*
X114428571Y-145178571D02*
X114428571Y-144392857D01*
X114357142Y-144250000D01*
X114214285Y-144178571D01*
X113928571Y-144178571D01*
X113785714Y-144250000D01*
X114428571Y-145107142D02*
X114285714Y-145178571D01*
X113928571Y-145178571D01*
X113785714Y-145107142D01*
X113714285Y-144964285D01*
X113714285Y-144821428D01*
X113785714Y-144678571D01*
X113928571Y-144607142D01*
X114285714Y-144607142D01*
X114428571Y-144535714D01*
D11*
X91939042Y-93237020D02*
X92415232Y-93237020D01*
X91843804Y-93522734D02*
X92177137Y-92522734D01*
X92510470Y-93522734D01*
X92843804Y-92998925D02*
X93177137Y-92998925D01*
X93319994Y-93522734D02*
X92843804Y-93522734D01*
X92843804Y-92522734D01*
X93319994Y-92522734D01*
X94272375Y-93522734D02*
X93700947Y-93522734D01*
X93986661Y-93522734D02*
X93986661Y-92522734D01*
X93891423Y-92665592D01*
X93796185Y-92760830D01*
X93700947Y-92808449D01*
G36*
X124510525Y-71757540D02*
G01*
X124572837Y-71776218D01*
X124592925Y-71817255D01*
X124593770Y-71835782D01*
X124597375Y-71887383D01*
X124622200Y-71895484D01*
X124689263Y-71860108D01*
X124729098Y-71835937D01*
X124854773Y-71784175D01*
X125004877Y-71758581D01*
X125162263Y-71756613D01*
X125309786Y-71775729D01*
X125430300Y-71813387D01*
X125506660Y-71867044D01*
X125521719Y-71934158D01*
X125514119Y-71952333D01*
X125458718Y-72027777D01*
X125372810Y-72120568D01*
X125357272Y-72135568D01*
X125275388Y-72204540D01*
X125204737Y-72226825D01*
X125105932Y-72211272D01*
X125066348Y-72200938D01*
X124943172Y-72176116D01*
X124856564Y-72187278D01*
X124783424Y-72226646D01*
X124716426Y-72279479D01*
X124667082Y-72345924D01*
X124632791Y-72438652D01*
X124610952Y-72570334D01*
X124598966Y-72753641D01*
X124594231Y-73001246D01*
X124593770Y-73150744D01*
X124593770Y-73793443D01*
X124177377Y-73793443D01*
X124177377Y-71753115D01*
X124385574Y-71753115D01*
X124510525Y-71757540D01*
G37*
D12*
X124510525Y-71757540D02*
X124572837Y-71776218D01*
X124592925Y-71817255D01*
X124593770Y-71835782D01*
X124597375Y-71887383D01*
X124622200Y-71895484D01*
X124689263Y-71860108D01*
X124729098Y-71835937D01*
X124854773Y-71784175D01*
X125004877Y-71758581D01*
X125162263Y-71756613D01*
X125309786Y-71775729D01*
X125430300Y-71813387D01*
X125506660Y-71867044D01*
X125521719Y-71934158D01*
X125514119Y-71952333D01*
X125458718Y-72027777D01*
X125372810Y-72120568D01*
X125357272Y-72135568D01*
X125275388Y-72204540D01*
X125204737Y-72226825D01*
X125105932Y-72211272D01*
X125066348Y-72200938D01*
X124943172Y-72176116D01*
X124856564Y-72187278D01*
X124783424Y-72226646D01*
X124716426Y-72279479D01*
X124667082Y-72345924D01*
X124632791Y-72438652D01*
X124610952Y-72570334D01*
X124598966Y-72753641D01*
X124594231Y-73001246D01*
X124593770Y-73150744D01*
X124593770Y-73793443D01*
X124177377Y-73793443D01*
X124177377Y-71753115D01*
X124385574Y-71753115D01*
X124510525Y-71757540D01*
G36*
X133215107Y-71752460D02*
G01*
X133375182Y-71784017D01*
X133466312Y-71830743D01*
X133562179Y-71908370D01*
X133425787Y-72080579D01*
X133341694Y-72184867D01*
X133284592Y-72235746D01*
X133227844Y-72243519D01*
X133144811Y-72218488D01*
X133105833Y-72204327D01*
X132946926Y-72183433D01*
X132801399Y-72228220D01*
X132694560Y-72329399D01*
X132677205Y-72361659D01*
X132658303Y-72447115D01*
X132643716Y-72604606D01*
X132634126Y-72822969D01*
X132630219Y-73091038D01*
X132630164Y-73129172D01*
X132630164Y-73793443D01*
X132172131Y-73793443D01*
X132172131Y-71753115D01*
X132401148Y-71753115D01*
X132533199Y-71756563D01*
X132601992Y-71771907D01*
X132627430Y-71806648D01*
X132630164Y-71839416D01*
X132630164Y-71925717D01*
X132739878Y-71839416D01*
X132865680Y-71780538D01*
X133034681Y-71751426D01*
X133215107Y-71752460D01*
G37*
X133215107Y-71752460D02*
X133375182Y-71784017D01*
X133466312Y-71830743D01*
X133562179Y-71908370D01*
X133425787Y-72080579D01*
X133341694Y-72184867D01*
X133284592Y-72235746D01*
X133227844Y-72243519D01*
X133144811Y-72218488D01*
X133105833Y-72204327D01*
X132946926Y-72183433D01*
X132801399Y-72228220D01*
X132694560Y-72329399D01*
X132677205Y-72361659D01*
X132658303Y-72447115D01*
X132643716Y-72604606D01*
X132634126Y-72822969D01*
X132630219Y-73091038D01*
X132630164Y-73129172D01*
X132630164Y-73793443D01*
X132172131Y-73793443D01*
X132172131Y-71753115D01*
X132401148Y-71753115D01*
X132533199Y-71756563D01*
X132601992Y-71771907D01*
X132627430Y-71806648D01*
X132630164Y-71839416D01*
X132630164Y-71925717D01*
X132739878Y-71839416D01*
X132865680Y-71780538D01*
X133034681Y-71751426D01*
X133215107Y-71752460D01*
G36*
X133641624Y-72181175D02*
G01*
X133762210Y-71983525D01*
X133933834Y-71848702D01*
X134157998Y-71774626D01*
X134279438Y-71760360D01*
X134530842Y-71763999D01*
X134729876Y-71815746D01*
X134896561Y-71922544D01*
X134977269Y-72002326D01*
X135109568Y-72190931D01*
X135185390Y-72409720D01*
X135211438Y-72678668D01*
X135211571Y-72700410D01*
X135211803Y-72919017D01*
X133953595Y-72919017D01*
X133980415Y-73033525D01*
X134028841Y-73137232D01*
X134113596Y-73245290D01*
X134131323Y-73262541D01*
X134283680Y-73355904D01*
X134457424Y-73371738D01*
X134657411Y-73310313D01*
X134691311Y-73293771D01*
X134795288Y-73243484D01*
X134864931Y-73214834D01*
X134877083Y-73212184D01*
X134919501Y-73237913D01*
X135000399Y-73300861D01*
X135041465Y-73335259D01*
X135126560Y-73414276D01*
X135154503Y-73466451D01*
X135135110Y-73514446D01*
X135124743Y-73527570D01*
X135054531Y-73585008D01*
X134938674Y-73654813D01*
X134857869Y-73695564D01*
X134628501Y-73767362D01*
X134374564Y-73790625D01*
X134134074Y-73763059D01*
X134066721Y-73743321D01*
X133858262Y-73631612D01*
X133703746Y-73459721D01*
X133602278Y-73225979D01*
X133552965Y-72928716D01*
X133547551Y-72773279D01*
X133563359Y-72546973D01*
X133962623Y-72546973D01*
X134001240Y-72563702D01*
X134105042Y-72576829D01*
X134255956Y-72584575D01*
X134358197Y-72585902D01*
X134542101Y-72584623D01*
X134658174Y-72578638D01*
X134721852Y-72564724D01*
X134748567Y-72539655D01*
X134753770Y-72503280D01*
X134718073Y-72391229D01*
X134628196Y-72280488D01*
X134509966Y-72195489D01*
X134391690Y-72160718D01*
X134231044Y-72191563D01*
X134091978Y-72280732D01*
X133995557Y-72409263D01*
X133962623Y-72546973D01*
X133563359Y-72546973D01*
X133570572Y-72443733D01*
X133641624Y-72181175D01*
G37*
X133641624Y-72181175D02*
X133762210Y-71983525D01*
X133933834Y-71848702D01*
X134157998Y-71774626D01*
X134279438Y-71760360D01*
X134530842Y-71763999D01*
X134729876Y-71815746D01*
X134896561Y-71922544D01*
X134977269Y-72002326D01*
X135109568Y-72190931D01*
X135185390Y-72409720D01*
X135211438Y-72678668D01*
X135211571Y-72700410D01*
X135211803Y-72919017D01*
X133953595Y-72919017D01*
X133980415Y-73033525D01*
X134028841Y-73137232D01*
X134113596Y-73245290D01*
X134131323Y-73262541D01*
X134283680Y-73355904D01*
X134457424Y-73371738D01*
X134657411Y-73310313D01*
X134691311Y-73293771D01*
X134795288Y-73243484D01*
X134864931Y-73214834D01*
X134877083Y-73212184D01*
X134919501Y-73237913D01*
X135000399Y-73300861D01*
X135041465Y-73335259D01*
X135126560Y-73414276D01*
X135154503Y-73466451D01*
X135135110Y-73514446D01*
X135124743Y-73527570D01*
X135054531Y-73585008D01*
X134938674Y-73654813D01*
X134857869Y-73695564D01*
X134628501Y-73767362D01*
X134374564Y-73790625D01*
X134134074Y-73763059D01*
X134066721Y-73743321D01*
X133858262Y-73631612D01*
X133703746Y-73459721D01*
X133602278Y-73225979D01*
X133552965Y-72928716D01*
X133547551Y-72773279D01*
X133563359Y-72546973D01*
X133962623Y-72546973D01*
X134001240Y-72563702D01*
X134105042Y-72576829D01*
X134255956Y-72584575D01*
X134358197Y-72585902D01*
X134542101Y-72584623D01*
X134658174Y-72578638D01*
X134721852Y-72564724D01*
X134748567Y-72539655D01*
X134753770Y-72503280D01*
X134718073Y-72391229D01*
X134628196Y-72280488D01*
X134509966Y-72195489D01*
X134391690Y-72160718D01*
X134231044Y-72191563D01*
X134091978Y-72280732D01*
X133995557Y-72409263D01*
X133962623Y-72546973D01*
X133563359Y-72546973D01*
X133570572Y-72443733D01*
X133641624Y-72181175D01*
G36*
X135842572Y-68979780D02*
G01*
X135994911Y-68796284D01*
X136187374Y-68671209D01*
X136413742Y-68611229D01*
X136667792Y-68623019D01*
X136774414Y-68648922D01*
X136978830Y-68743772D01*
X137153625Y-68888633D01*
X137274597Y-69062320D01*
X137291217Y-69101317D01*
X137314016Y-69203465D01*
X137329975Y-69354573D01*
X137335410Y-69507301D01*
X137335410Y-69796066D01*
X136731639Y-69796066D01*
X136482619Y-69797007D01*
X136307189Y-69802723D01*
X136195665Y-69817550D01*
X136138360Y-69845827D01*
X136125588Y-69891890D01*
X136147662Y-69960077D01*
X136187205Y-70039863D01*
X136297509Y-70173017D01*
X136450792Y-70239355D01*
X136638141Y-70237194D01*
X136850363Y-70164991D01*
X137033773Y-70075883D01*
X137185962Y-70196220D01*
X137338151Y-70316558D01*
X137194974Y-70448843D01*
X137003828Y-70573832D01*
X136768753Y-70649189D01*
X136515898Y-70670278D01*
X136271413Y-70632460D01*
X136231967Y-70619628D01*
X136017090Y-70507414D01*
X135857250Y-70340118D01*
X135749080Y-70112748D01*
X135689210Y-69820308D01*
X135688513Y-69814040D01*
X135683152Y-69495332D01*
X135704823Y-69381632D01*
X136127869Y-69381632D01*
X136166722Y-69399116D01*
X136272205Y-69412508D01*
X136427707Y-69420155D01*
X136526249Y-69421312D01*
X136710013Y-69420588D01*
X136824914Y-69415983D01*
X136885366Y-69403848D01*
X136905783Y-69380530D01*
X136900581Y-69342382D01*
X136896217Y-69327623D01*
X136821724Y-69188944D01*
X136704566Y-69077179D01*
X136601173Y-69028066D01*
X136463816Y-69031032D01*
X136324629Y-69092278D01*
X136207874Y-69193683D01*
X136137810Y-69317122D01*
X136127869Y-69381632D01*
X135704823Y-69381632D01*
X135736579Y-69215020D01*
X135842572Y-68979780D01*
G37*
X135842572Y-68979780D02*
X135994911Y-68796284D01*
X136187374Y-68671209D01*
X136413742Y-68611229D01*
X136667792Y-68623019D01*
X136774414Y-68648922D01*
X136978830Y-68743772D01*
X137153625Y-68888633D01*
X137274597Y-69062320D01*
X137291217Y-69101317D01*
X137314016Y-69203465D01*
X137329975Y-69354573D01*
X137335410Y-69507301D01*
X137335410Y-69796066D01*
X136731639Y-69796066D01*
X136482619Y-69797007D01*
X136307189Y-69802723D01*
X136195665Y-69817550D01*
X136138360Y-69845827D01*
X136125588Y-69891890D01*
X136147662Y-69960077D01*
X136187205Y-70039863D01*
X136297509Y-70173017D01*
X136450792Y-70239355D01*
X136638141Y-70237194D01*
X136850363Y-70164991D01*
X137033773Y-70075883D01*
X137185962Y-70196220D01*
X137338151Y-70316558D01*
X137194974Y-70448843D01*
X137003828Y-70573832D01*
X136768753Y-70649189D01*
X136515898Y-70670278D01*
X136271413Y-70632460D01*
X136231967Y-70619628D01*
X136017090Y-70507414D01*
X135857250Y-70340118D01*
X135749080Y-70112748D01*
X135689210Y-69820308D01*
X135688513Y-69814040D01*
X135683152Y-69495332D01*
X135704823Y-69381632D01*
X136127869Y-69381632D01*
X136166722Y-69399116D01*
X136272205Y-69412508D01*
X136427707Y-69420155D01*
X136526249Y-69421312D01*
X136710013Y-69420588D01*
X136824914Y-69415983D01*
X136885366Y-69403848D01*
X136905783Y-69380530D01*
X136900581Y-69342382D01*
X136896217Y-69327623D01*
X136821724Y-69188944D01*
X136704566Y-69077179D01*
X136601173Y-69028066D01*
X136463816Y-69031032D01*
X136324629Y-69092278D01*
X136207874Y-69193683D01*
X136137810Y-69317122D01*
X136127869Y-69381632D01*
X135704823Y-69381632D01*
X135736579Y-69215020D01*
X135842572Y-68979780D01*
G36*
X130239440Y-72857692D02*
G01*
X130341968Y-72729656D01*
X130404065Y-72674302D01*
X130464855Y-72637924D01*
X130543952Y-72615744D01*
X130660971Y-72602982D01*
X130835527Y-72594857D01*
X130904763Y-72592521D01*
X131339344Y-72578321D01*
X131338707Y-72446784D01*
X131321876Y-72308519D01*
X131261026Y-72224917D01*
X131138095Y-72171507D01*
X131134797Y-72170555D01*
X130960504Y-72149555D01*
X130789952Y-72176985D01*
X130663200Y-72243689D01*
X130612342Y-72276625D01*
X130557565Y-72272068D01*
X130473272Y-72224349D01*
X130423773Y-72190671D01*
X130326955Y-72118716D01*
X130266982Y-72064779D01*
X130257359Y-72049337D01*
X130296985Y-71969424D01*
X130414064Y-71873989D01*
X130464918Y-71841789D01*
X130611113Y-71786332D01*
X130808137Y-71754913D01*
X131026989Y-71747855D01*
X131238670Y-71765480D01*
X131414179Y-71808109D01*
X131464912Y-71830693D01*
X131563254Y-71889847D01*
X131638727Y-71956472D01*
X131694571Y-72042135D01*
X131734026Y-72158405D01*
X131760332Y-72316848D01*
X131776729Y-72529034D01*
X131786457Y-72806529D01*
X131790151Y-72991885D01*
X131803745Y-73793443D01*
X131571544Y-73793443D01*
X131430677Y-73787536D01*
X131358102Y-73767350D01*
X131339344Y-73733453D01*
X131329441Y-73696799D01*
X131285166Y-73703807D01*
X131224836Y-73733197D01*
X131073803Y-73778246D01*
X130879693Y-73790385D01*
X130675531Y-73770529D01*
X130494340Y-73719592D01*
X130478089Y-73712522D01*
X130312491Y-73596188D01*
X130203324Y-73434467D01*
X130153091Y-73245430D01*
X130156928Y-73177515D01*
X130566763Y-73177515D01*
X130602875Y-73268914D01*
X130709942Y-73334411D01*
X130882684Y-73369563D01*
X130975000Y-73374231D01*
X131128850Y-73362282D01*
X131231115Y-73315844D01*
X131256066Y-73293771D01*
X131323661Y-73173681D01*
X131339344Y-73064754D01*
X131339344Y-72919017D01*
X131136352Y-72919017D01*
X130900387Y-72931043D01*
X130734881Y-72968871D01*
X130630305Y-73035121D01*
X130606891Y-73064656D01*
X130566763Y-73177515D01*
X130156928Y-73177515D01*
X130164295Y-73047148D01*
X130239440Y-72857692D01*
G37*
X130239440Y-72857692D02*
X130341968Y-72729656D01*
X130404065Y-72674302D01*
X130464855Y-72637924D01*
X130543952Y-72615744D01*
X130660971Y-72602982D01*
X130835527Y-72594857D01*
X130904763Y-72592521D01*
X131339344Y-72578321D01*
X131338707Y-72446784D01*
X131321876Y-72308519D01*
X131261026Y-72224917D01*
X131138095Y-72171507D01*
X131134797Y-72170555D01*
X130960504Y-72149555D01*
X130789952Y-72176985D01*
X130663200Y-72243689D01*
X130612342Y-72276625D01*
X130557565Y-72272068D01*
X130473272Y-72224349D01*
X130423773Y-72190671D01*
X130326955Y-72118716D01*
X130266982Y-72064779D01*
X130257359Y-72049337D01*
X130296985Y-71969424D01*
X130414064Y-71873989D01*
X130464918Y-71841789D01*
X130611113Y-71786332D01*
X130808137Y-71754913D01*
X131026989Y-71747855D01*
X131238670Y-71765480D01*
X131414179Y-71808109D01*
X131464912Y-71830693D01*
X131563254Y-71889847D01*
X131638727Y-71956472D01*
X131694571Y-72042135D01*
X131734026Y-72158405D01*
X131760332Y-72316848D01*
X131776729Y-72529034D01*
X131786457Y-72806529D01*
X131790151Y-72991885D01*
X131803745Y-73793443D01*
X131571544Y-73793443D01*
X131430677Y-73787536D01*
X131358102Y-73767350D01*
X131339344Y-73733453D01*
X131329441Y-73696799D01*
X131285166Y-73703807D01*
X131224836Y-73733197D01*
X131073803Y-73778246D01*
X130879693Y-73790385D01*
X130675531Y-73770529D01*
X130494340Y-73719592D01*
X130478089Y-73712522D01*
X130312491Y-73596188D01*
X130203324Y-73434467D01*
X130153091Y-73245430D01*
X130156928Y-73177515D01*
X130566763Y-73177515D01*
X130602875Y-73268914D01*
X130709942Y-73334411D01*
X130882684Y-73369563D01*
X130975000Y-73374231D01*
X131128850Y-73362282D01*
X131231115Y-73315844D01*
X131256066Y-73293771D01*
X131323661Y-73173681D01*
X131339344Y-73064754D01*
X131339344Y-72919017D01*
X131136352Y-72919017D01*
X130900387Y-72931043D01*
X130734881Y-72968871D01*
X130630305Y-73035121D01*
X130606891Y-73064656D01*
X130566763Y-73177515D01*
X130156928Y-73177515D01*
X130164295Y-73047148D01*
X130239440Y-72857692D01*
G36*
X131089508Y-69278311D02*
G01*
X131093444Y-69583698D01*
X131107823Y-69815660D01*
X131136504Y-69983786D01*
X131183348Y-70097671D01*
X131252211Y-70166905D01*
X131346954Y-70201080D01*
X131464262Y-70209811D01*
X131587123Y-70200028D01*
X131680444Y-70164287D01*
X131748084Y-70092995D01*
X131793901Y-69976561D01*
X131821755Y-69805391D01*
X131835504Y-69569896D01*
X131839016Y-69278311D01*
X131839016Y-68630164D01*
X132297049Y-68630164D01*
X132297049Y-70628853D01*
X132068033Y-70628853D01*
X131929971Y-70623258D01*
X131858878Y-70603611D01*
X131839016Y-70566313D01*
X131827054Y-70533094D01*
X131779447Y-70540121D01*
X131683485Y-70587132D01*
X131463548Y-70659654D01*
X131230274Y-70654516D01*
X131006755Y-70575766D01*
X130900313Y-70513558D01*
X130819122Y-70446204D01*
X130759808Y-70361928D01*
X130718996Y-70248957D01*
X130693312Y-70095515D01*
X130679381Y-69889827D01*
X130673829Y-69620118D01*
X130673115Y-69411551D01*
X130673115Y-68630164D01*
X131089508Y-68630164D01*
X131089508Y-69278311D01*
G37*
X131089508Y-69278311D02*
X131093444Y-69583698D01*
X131107823Y-69815660D01*
X131136504Y-69983786D01*
X131183348Y-70097671D01*
X131252211Y-70166905D01*
X131346954Y-70201080D01*
X131464262Y-70209811D01*
X131587123Y-70200028D01*
X131680444Y-70164287D01*
X131748084Y-70092995D01*
X131793901Y-69976561D01*
X131821755Y-69805391D01*
X131835504Y-69569896D01*
X131839016Y-69278311D01*
X131839016Y-68630164D01*
X132297049Y-68630164D01*
X132297049Y-70628853D01*
X132068033Y-70628853D01*
X131929971Y-70623258D01*
X131858878Y-70603611D01*
X131839016Y-70566313D01*
X131827054Y-70533094D01*
X131779447Y-70540121D01*
X131683485Y-70587132D01*
X131463548Y-70659654D01*
X131230274Y-70654516D01*
X131006755Y-70575766D01*
X130900313Y-70513558D01*
X130819122Y-70446204D01*
X130759808Y-70361928D01*
X130718996Y-70248957D01*
X130693312Y-70095515D01*
X130679381Y-69889827D01*
X130673829Y-69620118D01*
X130673115Y-69411551D01*
X130673115Y-68630164D01*
X131089508Y-68630164D01*
X131089508Y-69278311D01*
G36*
X122282955Y-68965983D02*
G01*
X122389689Y-68835557D01*
X122587020Y-68694131D01*
X122818985Y-68618556D01*
X123065712Y-68611724D01*
X123307325Y-68676526D01*
X123348819Y-68696061D01*
X123492434Y-68801263D01*
X123628236Y-68954793D01*
X123729638Y-69123845D01*
X123758480Y-69201567D01*
X123784794Y-69340398D01*
X123800485Y-69508177D01*
X123802391Y-69577459D01*
X123802623Y-69796066D01*
X122544415Y-69796066D01*
X122571234Y-69910574D01*
X122637066Y-70046004D01*
X122752161Y-70163046D01*
X122889087Y-70238442D01*
X122976342Y-70254098D01*
X123094672Y-70235099D01*
X123235851Y-70187446D01*
X123283811Y-70165521D01*
X123461171Y-70076944D01*
X123612530Y-70192391D01*
X123699869Y-70270474D01*
X123746342Y-70334922D01*
X123748695Y-70353837D01*
X123707178Y-70399681D01*
X123616190Y-70469349D01*
X123533605Y-70523700D01*
X123310751Y-70621405D01*
X123060913Y-70665628D01*
X122813290Y-70654130D01*
X122615902Y-70594029D01*
X122412424Y-70465284D01*
X122267821Y-70295774D01*
X122177361Y-70076462D01*
X122136311Y-69798309D01*
X122132671Y-69671034D01*
X122147239Y-69379375D01*
X122149028Y-69370891D01*
X122565941Y-69370891D01*
X122577423Y-69398242D01*
X122624616Y-69413324D01*
X122721951Y-69419788D01*
X122883864Y-69421285D01*
X122946210Y-69421312D01*
X123135897Y-69419052D01*
X123256189Y-69410844D01*
X123320884Y-69394550D01*
X123343780Y-69368027D01*
X123344590Y-69359510D01*
X123318460Y-69291825D01*
X123253063Y-69197005D01*
X123224948Y-69163805D01*
X123120574Y-69069906D01*
X123011775Y-69032988D01*
X122953157Y-69029902D01*
X122794574Y-69068493D01*
X122661587Y-69172155D01*
X122577228Y-69322717D01*
X122575733Y-69327623D01*
X122565941Y-69370891D01*
X122149028Y-69370891D01*
X122195684Y-69149722D01*
X122282955Y-68965983D01*
G37*
X122282955Y-68965983D02*
X122389689Y-68835557D01*
X122587020Y-68694131D01*
X122818985Y-68618556D01*
X123065712Y-68611724D01*
X123307325Y-68676526D01*
X123348819Y-68696061D01*
X123492434Y-68801263D01*
X123628236Y-68954793D01*
X123729638Y-69123845D01*
X123758480Y-69201567D01*
X123784794Y-69340398D01*
X123800485Y-69508177D01*
X123802391Y-69577459D01*
X123802623Y-69796066D01*
X122544415Y-69796066D01*
X122571234Y-69910574D01*
X122637066Y-70046004D01*
X122752161Y-70163046D01*
X122889087Y-70238442D01*
X122976342Y-70254098D01*
X123094672Y-70235099D01*
X123235851Y-70187446D01*
X123283811Y-70165521D01*
X123461171Y-70076944D01*
X123612530Y-70192391D01*
X123699869Y-70270474D01*
X123746342Y-70334922D01*
X123748695Y-70353837D01*
X123707178Y-70399681D01*
X123616190Y-70469349D01*
X123533605Y-70523700D01*
X123310751Y-70621405D01*
X123060913Y-70665628D01*
X122813290Y-70654130D01*
X122615902Y-70594029D01*
X122412424Y-70465284D01*
X122267821Y-70295774D01*
X122177361Y-70076462D01*
X122136311Y-69798309D01*
X122132671Y-69671034D01*
X122147239Y-69379375D01*
X122149028Y-69370891D01*
X122565941Y-69370891D01*
X122577423Y-69398242D01*
X122624616Y-69413324D01*
X122721951Y-69419788D01*
X122883864Y-69421285D01*
X122946210Y-69421312D01*
X123135897Y-69419052D01*
X123256189Y-69410844D01*
X123320884Y-69394550D01*
X123343780Y-69368027D01*
X123344590Y-69359510D01*
X123318460Y-69291825D01*
X123253063Y-69197005D01*
X123224948Y-69163805D01*
X123120574Y-69069906D01*
X123011775Y-69032988D01*
X122953157Y-69029902D01*
X122794574Y-69068493D01*
X122661587Y-69172155D01*
X122577228Y-69322717D01*
X122575733Y-69327623D01*
X122565941Y-69370891D01*
X122149028Y-69370891D01*
X122195684Y-69149722D01*
X122282955Y-68965983D01*
G36*
X135142288Y-68647602D02*
G01*
X135383543Y-68750090D01*
X135459531Y-68799981D01*
X135556648Y-68876651D01*
X135617612Y-68936936D01*
X135628197Y-68956571D01*
X135598308Y-69000142D01*
X135521819Y-69074077D01*
X135460582Y-69125679D01*
X135292967Y-69260378D01*
X135160614Y-69149010D01*
X135058336Y-69077113D01*
X134958610Y-69052296D01*
X134844475Y-69058357D01*
X134663234Y-69103418D01*
X134538475Y-69196949D01*
X134462658Y-69348154D01*
X134428240Y-69566236D01*
X134428231Y-69566373D01*
X134431208Y-69810124D01*
X134477467Y-69988966D01*
X134569742Y-70110730D01*
X134632650Y-70151964D01*
X134799717Y-70203311D01*
X134978162Y-70203342D01*
X135133415Y-70153522D01*
X135170164Y-70129180D01*
X135262330Y-70067004D01*
X135334387Y-70056813D01*
X135412102Y-70103092D01*
X135498018Y-70186212D01*
X135634011Y-70326521D01*
X135483023Y-70450978D01*
X135249740Y-70591443D01*
X134986673Y-70660666D01*
X134711760Y-70655653D01*
X134531216Y-70609755D01*
X134320194Y-70496249D01*
X134151426Y-70317685D01*
X134074753Y-70191639D01*
X134012654Y-70010791D01*
X133981581Y-69781745D01*
X133981342Y-69533510D01*
X134011743Y-69295093D01*
X134072592Y-69095503D01*
X134082176Y-69075039D01*
X134224102Y-68874341D01*
X134416259Y-68728217D01*
X134643464Y-68639698D01*
X134890535Y-68611815D01*
X135142288Y-68647602D01*
G37*
X135142288Y-68647602D02*
X135383543Y-68750090D01*
X135459531Y-68799981D01*
X135556648Y-68876651D01*
X135617612Y-68936936D01*
X135628197Y-68956571D01*
X135598308Y-69000142D01*
X135521819Y-69074077D01*
X135460582Y-69125679D01*
X135292967Y-69260378D01*
X135160614Y-69149010D01*
X135058336Y-69077113D01*
X134958610Y-69052296D01*
X134844475Y-69058357D01*
X134663234Y-69103418D01*
X134538475Y-69196949D01*
X134462658Y-69348154D01*
X134428240Y-69566236D01*
X134428231Y-69566373D01*
X134431208Y-69810124D01*
X134477467Y-69988966D01*
X134569742Y-70110730D01*
X134632650Y-70151964D01*
X134799717Y-70203311D01*
X134978162Y-70203342D01*
X135133415Y-70153522D01*
X135170164Y-70129180D01*
X135262330Y-70067004D01*
X135334387Y-70056813D01*
X135412102Y-70103092D01*
X135498018Y-70186212D01*
X135634011Y-70326521D01*
X135483023Y-70450978D01*
X135249740Y-70591443D01*
X134986673Y-70660666D01*
X134711760Y-70655653D01*
X134531216Y-70609755D01*
X134320194Y-70496249D01*
X134151426Y-70317685D01*
X134074753Y-70191639D01*
X134012654Y-70010791D01*
X133981581Y-69781745D01*
X133981342Y-69533510D01*
X134011743Y-69295093D01*
X134072592Y-69095503D01*
X134082176Y-69075039D01*
X134224102Y-68874341D01*
X134416259Y-68728217D01*
X134643464Y-68639698D01*
X134890535Y-68611815D01*
X135142288Y-68647602D01*
G36*
X122234369Y-72819946D02*
G01*
X122379286Y-72680206D01*
X122399317Y-72667495D01*
X122485390Y-72626105D01*
X122591927Y-72601041D01*
X122740859Y-72588858D01*
X122917787Y-72586057D01*
X123302951Y-72585902D01*
X123302951Y-72424443D01*
X123286613Y-72299168D01*
X123244922Y-72215241D01*
X123240041Y-72210773D01*
X123147264Y-72174059D01*
X123007216Y-72159828D01*
X122852445Y-72166821D01*
X122715501Y-72193780D01*
X122634241Y-72234212D01*
X122590210Y-72266601D01*
X122543715Y-72272784D01*
X122479549Y-72246248D01*
X122382505Y-72180479D01*
X122237374Y-72068963D01*
X122224053Y-72058516D01*
X122230879Y-72019862D01*
X122287822Y-71955572D01*
X122374370Y-71884131D01*
X122470008Y-71824021D01*
X122500056Y-71809827D01*
X122609659Y-71781503D01*
X122770265Y-71761300D01*
X122949698Y-71753196D01*
X122958089Y-71753180D01*
X123216221Y-71769247D01*
X123412111Y-71821514D01*
X123561233Y-71916253D01*
X123666465Y-72040338D01*
X123699179Y-72093296D01*
X123723331Y-72148768D01*
X123740216Y-72219730D01*
X123751127Y-72319154D01*
X123757360Y-72460016D01*
X123760209Y-72655289D01*
X123760968Y-72917948D01*
X123760984Y-72987633D01*
X123760984Y-73793443D01*
X123561115Y-73793443D01*
X123433630Y-73784515D01*
X123339366Y-73761896D01*
X123315749Y-73747946D01*
X123251185Y-73723870D01*
X123185241Y-73747946D01*
X123076668Y-73778003D01*
X122918958Y-73790100D01*
X122744156Y-73784851D01*
X122584307Y-73762869D01*
X122490984Y-73734663D01*
X122310391Y-73618731D01*
X122197530Y-73457847D01*
X122146791Y-73243936D01*
X122146320Y-73238443D01*
X122150773Y-73143547D01*
X122553443Y-73143547D01*
X122588646Y-73251484D01*
X122645986Y-73312229D01*
X122761087Y-73358172D01*
X122913014Y-73376512D01*
X123067939Y-73367485D01*
X123192036Y-73331332D01*
X123226803Y-73308137D01*
X123287556Y-73200960D01*
X123302951Y-73079120D01*
X123302951Y-72919017D01*
X123072597Y-72919017D01*
X122853759Y-72935863D01*
X122687863Y-72983593D01*
X122584662Y-73057986D01*
X122553443Y-73143547D01*
X122150773Y-73143547D01*
X122157287Y-73004731D01*
X122234369Y-72819946D01*
G37*
X122234369Y-72819946D02*
X122379286Y-72680206D01*
X122399317Y-72667495D01*
X122485390Y-72626105D01*
X122591927Y-72601041D01*
X122740859Y-72588858D01*
X122917787Y-72586057D01*
X123302951Y-72585902D01*
X123302951Y-72424443D01*
X123286613Y-72299168D01*
X123244922Y-72215241D01*
X123240041Y-72210773D01*
X123147264Y-72174059D01*
X123007216Y-72159828D01*
X122852445Y-72166821D01*
X122715501Y-72193780D01*
X122634241Y-72234212D01*
X122590210Y-72266601D01*
X122543715Y-72272784D01*
X122479549Y-72246248D01*
X122382505Y-72180479D01*
X122237374Y-72068963D01*
X122224053Y-72058516D01*
X122230879Y-72019862D01*
X122287822Y-71955572D01*
X122374370Y-71884131D01*
X122470008Y-71824021D01*
X122500056Y-71809827D01*
X122609659Y-71781503D01*
X122770265Y-71761300D01*
X122949698Y-71753196D01*
X122958089Y-71753180D01*
X123216221Y-71769247D01*
X123412111Y-71821514D01*
X123561233Y-71916253D01*
X123666465Y-72040338D01*
X123699179Y-72093296D01*
X123723331Y-72148768D01*
X123740216Y-72219730D01*
X123751127Y-72319154D01*
X123757360Y-72460016D01*
X123760209Y-72655289D01*
X123760968Y-72917948D01*
X123760984Y-72987633D01*
X123760984Y-73793443D01*
X123561115Y-73793443D01*
X123433630Y-73784515D01*
X123339366Y-73761896D01*
X123315749Y-73747946D01*
X123251185Y-73723870D01*
X123185241Y-73747946D01*
X123076668Y-73778003D01*
X122918958Y-73790100D01*
X122744156Y-73784851D01*
X122584307Y-73762869D01*
X122490984Y-73734663D01*
X122310391Y-73618731D01*
X122197530Y-73457847D01*
X122146791Y-73243936D01*
X122146320Y-73238443D01*
X122150773Y-73143547D01*
X122553443Y-73143547D01*
X122588646Y-73251484D01*
X122645986Y-73312229D01*
X122761087Y-73358172D01*
X122913014Y-73376512D01*
X123067939Y-73367485D01*
X123192036Y-73331332D01*
X123226803Y-73308137D01*
X123287556Y-73200960D01*
X123302951Y-73079120D01*
X123302951Y-72919017D01*
X123072597Y-72919017D01*
X122853759Y-72935863D01*
X122687863Y-72983593D01*
X122584662Y-73057986D01*
X122553443Y-73143547D01*
X122150773Y-73143547D01*
X122157287Y-73004731D01*
X122234369Y-72819946D01*
G36*
X125516194Y-72617010D02*
G01*
X125536558Y-72346856D01*
X125578883Y-72144024D01*
X125649294Y-71994077D01*
X125753912Y-71882579D01*
X125855479Y-71817127D01*
X125997384Y-71771117D01*
X126173879Y-71755336D01*
X126354607Y-71768190D01*
X126509213Y-71808081D01*
X126590899Y-71855801D01*
X126675738Y-71932579D01*
X126675738Y-70961967D01*
X127133770Y-70961967D01*
X127133770Y-73793443D01*
X126904754Y-73793443D01*
X126771825Y-73789546D01*
X126702595Y-73773407D01*
X126677668Y-73738354D01*
X126675738Y-73714653D01*
X126671534Y-73667123D01*
X126645026Y-73658008D01*
X126575367Y-73687308D01*
X126521196Y-73714653D01*
X126313223Y-73779451D01*
X126087147Y-73783201D01*
X125903345Y-73734873D01*
X125732187Y-73618118D01*
X125601716Y-73445781D01*
X125530273Y-73242506D01*
X125528454Y-73231141D01*
X125517839Y-73107136D01*
X125512560Y-72929117D01*
X125512984Y-72794480D01*
X125967828Y-72794480D01*
X125978365Y-72973428D01*
X126002334Y-73120924D01*
X126034783Y-73204217D01*
X126157544Y-73318041D01*
X126303299Y-73358845D01*
X126453607Y-73325848D01*
X126582049Y-73227422D01*
X126630692Y-73161224D01*
X126659134Y-73082231D01*
X126672456Y-72966926D01*
X126675738Y-72793736D01*
X126669865Y-72622229D01*
X126654353Y-72471540D01*
X126632362Y-72370698D01*
X126628697Y-72361659D01*
X126540012Y-72254195D01*
X126410572Y-72195195D01*
X126265743Y-72185669D01*
X126130891Y-72226626D01*
X126031383Y-72319076D01*
X126021060Y-72337473D01*
X125988750Y-72449646D01*
X125971148Y-72610934D01*
X125967828Y-72794480D01*
X125512984Y-72794480D01*
X125513200Y-72726212D01*
X125516194Y-72617010D01*
G37*
X125516194Y-72617010D02*
X125536558Y-72346856D01*
X125578883Y-72144024D01*
X125649294Y-71994077D01*
X125753912Y-71882579D01*
X125855479Y-71817127D01*
X125997384Y-71771117D01*
X126173879Y-71755336D01*
X126354607Y-71768190D01*
X126509213Y-71808081D01*
X126590899Y-71855801D01*
X126675738Y-71932579D01*
X126675738Y-70961967D01*
X127133770Y-70961967D01*
X127133770Y-73793443D01*
X126904754Y-73793443D01*
X126771825Y-73789546D01*
X126702595Y-73773407D01*
X126677668Y-73738354D01*
X126675738Y-73714653D01*
X126671534Y-73667123D01*
X126645026Y-73658008D01*
X126575367Y-73687308D01*
X126521196Y-73714653D01*
X126313223Y-73779451D01*
X126087147Y-73783201D01*
X125903345Y-73734873D01*
X125732187Y-73618118D01*
X125601716Y-73445781D01*
X125530273Y-73242506D01*
X125528454Y-73231141D01*
X125517839Y-73107136D01*
X125512560Y-72929117D01*
X125512984Y-72794480D01*
X125967828Y-72794480D01*
X125978365Y-72973428D01*
X126002334Y-73120924D01*
X126034783Y-73204217D01*
X126157544Y-73318041D01*
X126303299Y-73358845D01*
X126453607Y-73325848D01*
X126582049Y-73227422D01*
X126630692Y-73161224D01*
X126659134Y-73082231D01*
X126672456Y-72966926D01*
X126675738Y-72793736D01*
X126669865Y-72622229D01*
X126654353Y-72471540D01*
X126632362Y-72370698D01*
X126628697Y-72361659D01*
X126540012Y-72254195D01*
X126410572Y-72195195D01*
X126265743Y-72185669D01*
X126130891Y-72226626D01*
X126031383Y-72319076D01*
X126021060Y-72337473D01*
X125988750Y-72449646D01*
X125971148Y-72610934D01*
X125967828Y-72794480D01*
X125512984Y-72794480D01*
X125513200Y-72726212D01*
X125516194Y-72617010D01*
G36*
X118316107Y-69290610D02*
G01*
X118341228Y-69144745D01*
X118386532Y-69029641D01*
X118455464Y-68927986D01*
X118481022Y-68897802D01*
X118640825Y-68747412D01*
X118812231Y-68659566D01*
X119021849Y-68622762D01*
X119124064Y-68619754D01*
X119394610Y-68651802D01*
X119612447Y-68748108D01*
X119777816Y-68908919D01*
X119890957Y-69134482D01*
X119952112Y-69425042D01*
X119956495Y-69470408D01*
X119959930Y-69790256D01*
X119915398Y-70070614D01*
X119825609Y-70297847D01*
X119777529Y-70370941D01*
X119610055Y-70525643D01*
X119396768Y-70625838D01*
X119158154Y-70667418D01*
X118914697Y-70646272D01*
X118729630Y-70581145D01*
X118570479Y-70471393D01*
X118440404Y-70327496D01*
X118438154Y-70324130D01*
X118385330Y-70235314D01*
X118351001Y-70146005D01*
X118330212Y-70033294D01*
X118318009Y-69874273D01*
X118312633Y-69743868D01*
X118310395Y-69625611D01*
X118726706Y-69625611D01*
X118730775Y-69743335D01*
X118745545Y-69900049D01*
X118771602Y-70000621D01*
X118818593Y-70072173D01*
X118862603Y-70113971D01*
X119018623Y-70201484D01*
X119181869Y-70213179D01*
X119333904Y-70150212D01*
X119409920Y-70079653D01*
X119464697Y-70008550D01*
X119496737Y-69940512D01*
X119510800Y-69851967D01*
X119511642Y-69719339D01*
X119507309Y-69597195D01*
X119497989Y-69422710D01*
X119483212Y-69309538D01*
X119456580Y-69235721D01*
X119411691Y-69179298D01*
X119376120Y-69147050D01*
X119227329Y-69062340D01*
X119066813Y-69058117D01*
X118932220Y-69108292D01*
X118817400Y-69213075D01*
X118748996Y-69385198D01*
X118726706Y-69625611D01*
X118310395Y-69625611D01*
X118307724Y-69484548D01*
X118316107Y-69290610D01*
G37*
X118316107Y-69290610D02*
X118341228Y-69144745D01*
X118386532Y-69029641D01*
X118455464Y-68927986D01*
X118481022Y-68897802D01*
X118640825Y-68747412D01*
X118812231Y-68659566D01*
X119021849Y-68622762D01*
X119124064Y-68619754D01*
X119394610Y-68651802D01*
X119612447Y-68748108D01*
X119777816Y-68908919D01*
X119890957Y-69134482D01*
X119952112Y-69425042D01*
X119956495Y-69470408D01*
X119959930Y-69790256D01*
X119915398Y-70070614D01*
X119825609Y-70297847D01*
X119777529Y-70370941D01*
X119610055Y-70525643D01*
X119396768Y-70625838D01*
X119158154Y-70667418D01*
X118914697Y-70646272D01*
X118729630Y-70581145D01*
X118570479Y-70471393D01*
X118440404Y-70327496D01*
X118438154Y-70324130D01*
X118385330Y-70235314D01*
X118351001Y-70146005D01*
X118330212Y-70033294D01*
X118318009Y-69874273D01*
X118312633Y-69743868D01*
X118310395Y-69625611D01*
X118726706Y-69625611D01*
X118730775Y-69743335D01*
X118745545Y-69900049D01*
X118771602Y-70000621D01*
X118818593Y-70072173D01*
X118862603Y-70113971D01*
X119018623Y-70201484D01*
X119181869Y-70213179D01*
X119333904Y-70150212D01*
X119409920Y-70079653D01*
X119464697Y-70008550D01*
X119496737Y-69940512D01*
X119510800Y-69851967D01*
X119511642Y-69719339D01*
X119507309Y-69597195D01*
X119497989Y-69422710D01*
X119483212Y-69309538D01*
X119456580Y-69235721D01*
X119411691Y-69179298D01*
X119376120Y-69147050D01*
X119227329Y-69062340D01*
X119066813Y-69058117D01*
X118932220Y-69108292D01*
X118817400Y-69213075D01*
X118748996Y-69385198D01*
X118726706Y-69625611D01*
X118310395Y-69625611D01*
X118307724Y-69484548D01*
X118316107Y-69290610D01*
G36*
X128896942Y-71773935D02*
G01*
X129112248Y-72419344D01*
X129327555Y-73064754D01*
X129395064Y-72835738D01*
X129435691Y-72694204D01*
X129489133Y-72502936D01*
X129546842Y-72292693D01*
X129577355Y-72179918D01*
X129692136Y-71753115D01*
X130165687Y-71753115D01*
X130024139Y-72200738D01*
X129954433Y-72420903D01*
X129870223Y-72686471D01*
X129782281Y-72963492D01*
X129703772Y-73210492D01*
X129524952Y-73772623D01*
X129331882Y-73785185D01*
X129138811Y-73797746D01*
X129034118Y-73452070D01*
X128969553Y-73237335D01*
X128899092Y-73000604D01*
X128837511Y-72791526D01*
X128835081Y-72783205D01*
X128789085Y-72641537D01*
X128748503Y-72544874D01*
X128720080Y-72508321D01*
X128714239Y-72512549D01*
X128693738Y-72569217D01*
X128654785Y-72690605D01*
X128602122Y-72861448D01*
X128540491Y-73066482D01*
X128507143Y-73179262D01*
X128326546Y-73793443D01*
X127943267Y-73793443D01*
X127636867Y-72825328D01*
X127550791Y-72553759D01*
X127472380Y-72307138D01*
X127405339Y-72097048D01*
X127353369Y-71935076D01*
X127320174Y-71832808D01*
X127310084Y-71802928D01*
X127318072Y-71772334D01*
X127380792Y-71758935D01*
X127511315Y-71760275D01*
X127531747Y-71761288D01*
X127773792Y-71773935D01*
X127932317Y-72356885D01*
X127990585Y-72569486D01*
X128042655Y-72756377D01*
X128083944Y-72901331D01*
X128109866Y-72988120D01*
X128114656Y-73002269D01*
X128134504Y-72985998D01*
X128174530Y-72901697D01*
X128230138Y-72760842D01*
X128296731Y-72574911D01*
X128353024Y-72406956D01*
X128567578Y-71749209D01*
X128896942Y-71773935D01*
G37*
X128896942Y-71773935D02*
X129112248Y-72419344D01*
X129327555Y-73064754D01*
X129395064Y-72835738D01*
X129435691Y-72694204D01*
X129489133Y-72502936D01*
X129546842Y-72292693D01*
X129577355Y-72179918D01*
X129692136Y-71753115D01*
X130165687Y-71753115D01*
X130024139Y-72200738D01*
X129954433Y-72420903D01*
X129870223Y-72686471D01*
X129782281Y-72963492D01*
X129703772Y-73210492D01*
X129524952Y-73772623D01*
X129331882Y-73785185D01*
X129138811Y-73797746D01*
X129034118Y-73452070D01*
X128969553Y-73237335D01*
X128899092Y-73000604D01*
X128837511Y-72791526D01*
X128835081Y-72783205D01*
X128789085Y-72641537D01*
X128748503Y-72544874D01*
X128720080Y-72508321D01*
X128714239Y-72512549D01*
X128693738Y-72569217D01*
X128654785Y-72690605D01*
X128602122Y-72861448D01*
X128540491Y-73066482D01*
X128507143Y-73179262D01*
X128326546Y-73793443D01*
X127943267Y-73793443D01*
X127636867Y-72825328D01*
X127550791Y-72553759D01*
X127472380Y-72307138D01*
X127405339Y-72097048D01*
X127353369Y-71935076D01*
X127320174Y-71832808D01*
X127310084Y-71802928D01*
X127318072Y-71772334D01*
X127380792Y-71758935D01*
X127511315Y-71760275D01*
X127531747Y-71761288D01*
X127773792Y-71773935D01*
X127932317Y-72356885D01*
X127990585Y-72569486D01*
X128042655Y-72756377D01*
X128083944Y-72901331D01*
X128109866Y-72988120D01*
X128114656Y-73002269D01*
X128134504Y-72985998D01*
X128174530Y-72901697D01*
X128230138Y-72760842D01*
X128296731Y-72574911D01*
X128353024Y-72406956D01*
X128567578Y-71749209D01*
X128896942Y-71773935D01*
G36*
X120492295Y-68630164D02*
G01*
X120629794Y-68635602D01*
X120700733Y-68654909D01*
X120721303Y-68692576D01*
X120721311Y-68693692D01*
X120730855Y-68730581D01*
X120772949Y-68726393D01*
X120856639Y-68685859D01*
X121051646Y-68623850D01*
X121271046Y-68617332D01*
X121479192Y-68665166D01*
X121566985Y-68708540D01*
X121675249Y-68784122D01*
X121754155Y-68866542D01*
X121808195Y-68970037D01*
X121841859Y-69108843D01*
X121859637Y-69297194D01*
X121866020Y-69549328D01*
X121866393Y-69657724D01*
X121865304Y-69895287D01*
X121860778Y-70065068D01*
X121850932Y-70182550D01*
X121833882Y-70263215D01*
X121807741Y-70322545D01*
X121780542Y-70363020D01*
X121606920Y-70535225D01*
X121402462Y-70638806D01*
X121181896Y-70669960D01*
X120959954Y-70624885D01*
X120889640Y-70593009D01*
X120721311Y-70505271D01*
X120721311Y-71880172D01*
X120844162Y-71816643D01*
X121006033Y-71767491D01*
X121204995Y-71754900D01*
X121403672Y-71778147D01*
X121553710Y-71830370D01*
X121678159Y-71929826D01*
X121784492Y-72072143D01*
X121792487Y-72086755D01*
X121826207Y-72155582D01*
X121850834Y-72224956D01*
X121867786Y-72308996D01*
X121878481Y-72421816D01*
X121884338Y-72577533D01*
X121886773Y-72790265D01*
X121887213Y-73029664D01*
X121887213Y-73793443D01*
X121429180Y-73793443D01*
X121429180Y-72385108D01*
X121301067Y-72277308D01*
X121167982Y-72191079D01*
X121041952Y-72175401D01*
X120915222Y-72215747D01*
X120847683Y-72255254D01*
X120797414Y-72311527D01*
X120761662Y-72396572D01*
X120737672Y-72522394D01*
X120722689Y-72700998D01*
X120713960Y-72944391D01*
X120710886Y-73106394D01*
X120700492Y-73772623D01*
X120481885Y-73785209D01*
X120263279Y-73797795D01*
X120263279Y-69663464D01*
X120721311Y-69663464D01*
X120732989Y-69893953D01*
X120772338Y-70053950D01*
X120845834Y-70153497D01*
X120959951Y-70202639D01*
X121075246Y-70212459D01*
X121205762Y-70201175D01*
X121292383Y-70156764D01*
X121346549Y-70098081D01*
X121389190Y-70034962D01*
X121414574Y-69964645D01*
X121425869Y-69866123D01*
X121426240Y-69718387D01*
X121422440Y-69594683D01*
X121413712Y-69408328D01*
X121400720Y-69285982D01*
X121378841Y-69208377D01*
X121343454Y-69156245D01*
X121310059Y-69126111D01*
X121170525Y-69060399D01*
X121005381Y-69049787D01*
X120910554Y-69072423D01*
X120816666Y-69152881D01*
X120754474Y-69309392D01*
X120724331Y-69540852D01*
X120721311Y-69663464D01*
X120263279Y-69663464D01*
X120263279Y-68630164D01*
X120492295Y-68630164D01*
G37*
X120492295Y-68630164D02*
X120629794Y-68635602D01*
X120700733Y-68654909D01*
X120721303Y-68692576D01*
X120721311Y-68693692D01*
X120730855Y-68730581D01*
X120772949Y-68726393D01*
X120856639Y-68685859D01*
X121051646Y-68623850D01*
X121271046Y-68617332D01*
X121479192Y-68665166D01*
X121566985Y-68708540D01*
X121675249Y-68784122D01*
X121754155Y-68866542D01*
X121808195Y-68970037D01*
X121841859Y-69108843D01*
X121859637Y-69297194D01*
X121866020Y-69549328D01*
X121866393Y-69657724D01*
X121865304Y-69895287D01*
X121860778Y-70065068D01*
X121850932Y-70182550D01*
X121833882Y-70263215D01*
X121807741Y-70322545D01*
X121780542Y-70363020D01*
X121606920Y-70535225D01*
X121402462Y-70638806D01*
X121181896Y-70669960D01*
X120959954Y-70624885D01*
X120889640Y-70593009D01*
X120721311Y-70505271D01*
X120721311Y-71880172D01*
X120844162Y-71816643D01*
X121006033Y-71767491D01*
X121204995Y-71754900D01*
X121403672Y-71778147D01*
X121553710Y-71830370D01*
X121678159Y-71929826D01*
X121784492Y-72072143D01*
X121792487Y-72086755D01*
X121826207Y-72155582D01*
X121850834Y-72224956D01*
X121867786Y-72308996D01*
X121878481Y-72421816D01*
X121884338Y-72577533D01*
X121886773Y-72790265D01*
X121887213Y-73029664D01*
X121887213Y-73793443D01*
X121429180Y-73793443D01*
X121429180Y-72385108D01*
X121301067Y-72277308D01*
X121167982Y-72191079D01*
X121041952Y-72175401D01*
X120915222Y-72215747D01*
X120847683Y-72255254D01*
X120797414Y-72311527D01*
X120761662Y-72396572D01*
X120737672Y-72522394D01*
X120722689Y-72700998D01*
X120713960Y-72944391D01*
X120710886Y-73106394D01*
X120700492Y-73772623D01*
X120481885Y-73785209D01*
X120263279Y-73797795D01*
X120263279Y-69663464D01*
X120721311Y-69663464D01*
X120732989Y-69893953D01*
X120772338Y-70053950D01*
X120845834Y-70153497D01*
X120959951Y-70202639D01*
X121075246Y-70212459D01*
X121205762Y-70201175D01*
X121292383Y-70156764D01*
X121346549Y-70098081D01*
X121389190Y-70034962D01*
X121414574Y-69964645D01*
X121425869Y-69866123D01*
X121426240Y-69718387D01*
X121422440Y-69594683D01*
X121413712Y-69408328D01*
X121400720Y-69285982D01*
X121378841Y-69208377D01*
X121343454Y-69156245D01*
X121310059Y-69126111D01*
X121170525Y-69060399D01*
X121005381Y-69049787D01*
X120910554Y-69072423D01*
X120816666Y-69152881D01*
X120754474Y-69309392D01*
X120724331Y-69540852D01*
X120721311Y-69663464D01*
X120263279Y-69663464D01*
X120263279Y-68630164D01*
X120492295Y-68630164D01*
G36*
X128745056Y-69133134D02*
G01*
X128856457Y-68908049D01*
X129021993Y-68746230D01*
X129241670Y-68647666D01*
X129288842Y-68636236D01*
X129572336Y-68609406D01*
X129822521Y-68654805D01*
X130033136Y-68769505D01*
X130197915Y-68950574D01*
X130275554Y-69097838D01*
X130308886Y-69227907D01*
X130330483Y-69413333D01*
X130339739Y-69626939D01*
X130336045Y-69841550D01*
X130318794Y-70029991D01*
X130298643Y-70130637D01*
X130230667Y-70268323D01*
X130112942Y-70414566D01*
X129971065Y-70542452D01*
X129830632Y-70625063D01*
X129827207Y-70626373D01*
X129652945Y-70662472D01*
X129446427Y-70663365D01*
X129250174Y-70630501D01*
X129174396Y-70604161D01*
X128979221Y-70493484D01*
X128839438Y-70348478D01*
X128747599Y-70156503D01*
X128696254Y-69904920D01*
X128684637Y-69773142D01*
X128686119Y-69607553D01*
X129132459Y-69607553D01*
X129147494Y-69849177D01*
X129190772Y-70033303D01*
X129259551Y-70150949D01*
X129308550Y-70184590D01*
X129434093Y-70208050D01*
X129583318Y-70201104D01*
X129712333Y-70167345D01*
X129746166Y-70148772D01*
X129835428Y-70040599D01*
X129894345Y-69875051D01*
X129919424Y-69673581D01*
X129907174Y-69457646D01*
X129879796Y-69327690D01*
X129801191Y-69177191D01*
X129677104Y-69083114D01*
X129527661Y-69050587D01*
X129372987Y-69084738D01*
X129254174Y-69168273D01*
X129191735Y-69237193D01*
X129155293Y-69305126D01*
X129137923Y-69397064D01*
X129132699Y-69537999D01*
X129132459Y-69607553D01*
X128686119Y-69607553D01*
X128687785Y-69421495D01*
X128745056Y-69133134D01*
G37*
X128745056Y-69133134D02*
X128856457Y-68908049D01*
X129021993Y-68746230D01*
X129241670Y-68647666D01*
X129288842Y-68636236D01*
X129572336Y-68609406D01*
X129822521Y-68654805D01*
X130033136Y-68769505D01*
X130197915Y-68950574D01*
X130275554Y-69097838D01*
X130308886Y-69227907D01*
X130330483Y-69413333D01*
X130339739Y-69626939D01*
X130336045Y-69841550D01*
X130318794Y-70029991D01*
X130298643Y-70130637D01*
X130230667Y-70268323D01*
X130112942Y-70414566D01*
X129971065Y-70542452D01*
X129830632Y-70625063D01*
X129827207Y-70626373D01*
X129652945Y-70662472D01*
X129446427Y-70663365D01*
X129250174Y-70630501D01*
X129174396Y-70604161D01*
X128979221Y-70493484D01*
X128839438Y-70348478D01*
X128747599Y-70156503D01*
X128696254Y-69904920D01*
X128684637Y-69773142D01*
X128686119Y-69607553D01*
X129132459Y-69607553D01*
X129147494Y-69849177D01*
X129190772Y-70033303D01*
X129259551Y-70150949D01*
X129308550Y-70184590D01*
X129434093Y-70208050D01*
X129583318Y-70201104D01*
X129712333Y-70167345D01*
X129746166Y-70148772D01*
X129835428Y-70040599D01*
X129894345Y-69875051D01*
X129919424Y-69673581D01*
X129907174Y-69457646D01*
X129879796Y-69327690D01*
X129801191Y-69177191D01*
X129677104Y-69083114D01*
X129527661Y-69050587D01*
X129372987Y-69084738D01*
X129254174Y-69168273D01*
X129191735Y-69237193D01*
X129155293Y-69305126D01*
X129137923Y-69397064D01*
X129132699Y-69537999D01*
X129132459Y-69607553D01*
X128686119Y-69607553D01*
X128687785Y-69421495D01*
X128745056Y-69133134D01*
G36*
X125303108Y-68664563D02*
G01*
X125406740Y-68714062D01*
X125507106Y-68785561D01*
X125583568Y-68867853D01*
X125639262Y-68972811D01*
X125677323Y-69112313D01*
X125700885Y-69298233D01*
X125713085Y-69542448D01*
X125717056Y-69856833D01*
X125717118Y-69889754D01*
X125718033Y-70628853D01*
X125260000Y-70628853D01*
X125260000Y-69947481D01*
X125259674Y-69695050D01*
X125257419Y-69512093D01*
X125251319Y-69384807D01*
X125239459Y-69299386D01*
X125219924Y-69242026D01*
X125190797Y-69198924D01*
X125150224Y-69156334D01*
X125008269Y-69064824D01*
X124853306Y-69047843D01*
X124705677Y-69105701D01*
X124654337Y-69148763D01*
X124616647Y-69189249D01*
X124589587Y-69232607D01*
X124571397Y-69292463D01*
X124560316Y-69382441D01*
X124554586Y-69516168D01*
X124552444Y-69707270D01*
X124552131Y-69939911D01*
X124552131Y-70628853D01*
X124094098Y-70628853D01*
X124094098Y-68630164D01*
X124323115Y-68630164D01*
X124460614Y-68635602D01*
X124531553Y-68654909D01*
X124552122Y-68692576D01*
X124552131Y-68693692D01*
X124561675Y-68730581D01*
X124603767Y-68726395D01*
X124687459Y-68685861D01*
X124877273Y-68626224D01*
X125094401Y-68619591D01*
X125303108Y-68664563D01*
G37*
X125303108Y-68664563D02*
X125406740Y-68714062D01*
X125507106Y-68785561D01*
X125583568Y-68867853D01*
X125639262Y-68972811D01*
X125677323Y-69112313D01*
X125700885Y-69298233D01*
X125713085Y-69542448D01*
X125717056Y-69856833D01*
X125717118Y-69889754D01*
X125718033Y-70628853D01*
X125260000Y-70628853D01*
X125260000Y-69947481D01*
X125259674Y-69695050D01*
X125257419Y-69512093D01*
X125251319Y-69384807D01*
X125239459Y-69299386D01*
X125219924Y-69242026D01*
X125190797Y-69198924D01*
X125150224Y-69156334D01*
X125008269Y-69064824D01*
X124853306Y-69047843D01*
X124705677Y-69105701D01*
X124654337Y-69148763D01*
X124616647Y-69189249D01*
X124589587Y-69232607D01*
X124571397Y-69292463D01*
X124560316Y-69382441D01*
X124554586Y-69516168D01*
X124552444Y-69707270D01*
X124552131Y-69939911D01*
X124552131Y-70628853D01*
X124094098Y-70628853D01*
X124094098Y-68630164D01*
X124323115Y-68630164D01*
X124460614Y-68635602D01*
X124531553Y-68654909D01*
X124552122Y-68692576D01*
X124552131Y-68693692D01*
X124561675Y-68730581D01*
X124603767Y-68726395D01*
X124687459Y-68685861D01*
X124877273Y-68626224D01*
X125094401Y-68619591D01*
X125303108Y-68664563D01*
G36*
X133758869Y-68628231D02*
G01*
X133902092Y-68671989D01*
X133994306Y-68727280D01*
X134024344Y-68771004D01*
X134016076Y-68822834D01*
X133962427Y-68904259D01*
X133917063Y-68961927D01*
X133823546Y-69066182D01*
X133753287Y-69110045D01*
X133693393Y-69107182D01*
X133515720Y-69061967D01*
X133385234Y-69064020D01*
X133279273Y-69115261D01*
X133243700Y-69145252D01*
X133129836Y-69250778D01*
X133129836Y-70628853D01*
X132671803Y-70628853D01*
X132671803Y-68630164D01*
X132900820Y-68630164D01*
X133038318Y-68635602D01*
X133109258Y-68654909D01*
X133129827Y-68692576D01*
X133129836Y-68693692D01*
X133139550Y-68733146D01*
X133183478Y-68728000D01*
X133244344Y-68699536D01*
X133370054Y-68646569D01*
X133472134Y-68614703D01*
X133603480Y-68606533D01*
X133758869Y-68628231D01*
G37*
X133758869Y-68628231D02*
X133902092Y-68671989D01*
X133994306Y-68727280D01*
X134024344Y-68771004D01*
X134016076Y-68822834D01*
X133962427Y-68904259D01*
X133917063Y-68961927D01*
X133823546Y-69066182D01*
X133753287Y-69110045D01*
X133693393Y-69107182D01*
X133515720Y-69061967D01*
X133385234Y-69064020D01*
X133279273Y-69115261D01*
X133243700Y-69145252D01*
X133129836Y-69250778D01*
X133129836Y-70628853D01*
X132671803Y-70628853D01*
X132671803Y-68630164D01*
X132900820Y-68630164D01*
X133038318Y-68635602D01*
X133109258Y-68654909D01*
X133129827Y-68692576D01*
X133129836Y-68693692D01*
X133139550Y-68733146D01*
X133183478Y-68728000D01*
X133244344Y-68699536D01*
X133370054Y-68646569D01*
X133472134Y-68614703D01*
X133603480Y-68606533D01*
X133758869Y-68628231D01*
G36*
X129048305Y-54825960D02*
G01*
X129236557Y-55824542D01*
X129931183Y-56110889D01*
X130625808Y-56397237D01*
X131459128Y-55830586D01*
X131692501Y-55672811D01*
X131903457Y-55531939D01*
X132082153Y-55414401D01*
X132218744Y-55326629D01*
X132303386Y-55275055D01*
X132326437Y-55263935D01*
X132367963Y-55292535D01*
X132456698Y-55371604D01*
X132582697Y-55491041D01*
X132736014Y-55640744D01*
X132906702Y-55810615D01*
X133084814Y-55990551D01*
X133260406Y-56170454D01*
X133423530Y-56340222D01*
X133564241Y-56489754D01*
X133672592Y-56608952D01*
X133738637Y-56687713D01*
X133754426Y-56714072D01*
X133731703Y-56762666D01*
X133667999Y-56869126D01*
X133570013Y-57023039D01*
X133444441Y-57213991D01*
X133297982Y-57431569D01*
X133213115Y-57555671D01*
X133058426Y-57782279D01*
X132920970Y-57986770D01*
X132807414Y-58158965D01*
X132724428Y-58288685D01*
X132678678Y-58365751D01*
X132671803Y-58381947D01*
X132687388Y-58427975D01*
X132729868Y-58535250D01*
X132792835Y-58688687D01*
X132869879Y-58873206D01*
X132954590Y-59073721D01*
X133040558Y-59275152D01*
X133121373Y-59462415D01*
X133190627Y-59620428D01*
X133241908Y-59734107D01*
X133268809Y-59788370D01*
X133270396Y-59790506D01*
X133312635Y-59800867D01*
X133425126Y-59823982D01*
X133596209Y-59857579D01*
X133814223Y-59899385D01*
X134067509Y-59947127D01*
X134215288Y-59974659D01*
X134485938Y-60026190D01*
X134730397Y-60075225D01*
X134936300Y-60119081D01*
X135091277Y-60155074D01*
X135182962Y-60180521D01*
X135201393Y-60188595D01*
X135219445Y-60243242D01*
X135234010Y-60366662D01*
X135245098Y-60544423D01*
X135252719Y-60762091D01*
X135256884Y-61005235D01*
X135257602Y-61259423D01*
X135254882Y-61510220D01*
X135248735Y-61743196D01*
X135239171Y-61943918D01*
X135226199Y-62097954D01*
X135209829Y-62190870D01*
X135200011Y-62210213D01*
X135141323Y-62233398D01*
X135016966Y-62266544D01*
X134843390Y-62305758D01*
X134637042Y-62347145D01*
X134565011Y-62360534D01*
X134217719Y-62424147D01*
X133943383Y-62475378D01*
X133732939Y-62516261D01*
X133577322Y-62548834D01*
X133467467Y-62575132D01*
X133394311Y-62597192D01*
X133348787Y-62617049D01*
X133321833Y-62636741D01*
X133318061Y-62640632D01*
X133280415Y-62703324D01*
X133222986Y-62825331D01*
X133151508Y-62991712D01*
X133071715Y-63187529D01*
X132989343Y-63397840D01*
X132910125Y-63607708D01*
X132839796Y-63802191D01*
X132784089Y-63966350D01*
X132748741Y-64085245D01*
X132739484Y-64143936D01*
X132740256Y-64145992D01*
X132771620Y-64193964D01*
X132842774Y-64299516D01*
X132946240Y-64451660D01*
X133074540Y-64639410D01*
X133220199Y-64851780D01*
X133261680Y-64912130D01*
X133409587Y-65130929D01*
X133539739Y-65330562D01*
X133645045Y-65499565D01*
X133718416Y-65626475D01*
X133752763Y-65699829D01*
X133754426Y-65708841D01*
X133725569Y-65756207D01*
X133645831Y-65850042D01*
X133525462Y-65980261D01*
X133374713Y-66136779D01*
X133203836Y-66309510D01*
X133023079Y-66488371D01*
X132842694Y-66663276D01*
X132672932Y-66824140D01*
X132524042Y-66960878D01*
X132406276Y-67063407D01*
X132329883Y-67121640D01*
X132308750Y-67131148D01*
X132259560Y-67108754D01*
X132158847Y-67048356D01*
X132023017Y-66960129D01*
X131918510Y-66889115D01*
X131729149Y-66758811D01*
X131504899Y-66605384D01*
X131279964Y-66452201D01*
X131159032Y-66370218D01*
X130749704Y-66093353D01*
X130406102Y-66279136D01*
X130249565Y-66360523D01*
X130116454Y-66423784D01*
X130026389Y-66459865D01*
X130003463Y-66464885D01*
X129975895Y-66427817D01*
X129921508Y-66323069D01*
X129844363Y-66160303D01*
X129748518Y-65949181D01*
X129638034Y-65699365D01*
X129516971Y-65420517D01*
X129389389Y-65122299D01*
X129259347Y-64814374D01*
X129130906Y-64506404D01*
X129008126Y-64208050D01*
X128895067Y-63928975D01*
X128795788Y-63678841D01*
X128714349Y-63467310D01*
X128654811Y-63304043D01*
X128621234Y-63198705D01*
X128615834Y-63162527D01*
X128658634Y-63116381D01*
X128752344Y-63041472D01*
X128877373Y-62953364D01*
X128887867Y-62946394D01*
X129211020Y-62687721D01*
X129471587Y-62385938D01*
X129667310Y-62050695D01*
X129795932Y-61691642D01*
X129855195Y-61318426D01*
X129842839Y-60940700D01*
X129756607Y-60568111D01*
X129594241Y-60210310D01*
X129546472Y-60132027D01*
X129298009Y-59815919D01*
X129004481Y-59562079D01*
X128676047Y-59371827D01*
X128322865Y-59246485D01*
X127955095Y-59187372D01*
X127582897Y-59195807D01*
X127216429Y-59273112D01*
X126865851Y-59420606D01*
X126541323Y-59639610D01*
X126440936Y-59728498D01*
X126185449Y-60006744D01*
X125999278Y-60299656D01*
X125871570Y-60627986D01*
X125800444Y-60953133D01*
X125782886Y-61318702D01*
X125841434Y-61686086D01*
X125970142Y-62042866D01*
X126163062Y-62376626D01*
X126414248Y-62674947D01*
X126717752Y-62925411D01*
X126757640Y-62951813D01*
X126884009Y-63038272D01*
X126980073Y-63113184D01*
X127026000Y-63161015D01*
X127026668Y-63162527D01*
X127016808Y-63214267D01*
X126977722Y-63331696D01*
X126913472Y-63505154D01*
X126828120Y-63724979D01*
X126725727Y-63981513D01*
X126610354Y-64265096D01*
X126486063Y-64566067D01*
X126356916Y-64874767D01*
X126226974Y-65181536D01*
X126100298Y-65476714D01*
X125980951Y-65750640D01*
X125872994Y-65993656D01*
X125780488Y-66196101D01*
X125707496Y-66348315D01*
X125658077Y-66440638D01*
X125638177Y-66464885D01*
X125577366Y-66446004D01*
X125463582Y-66395364D01*
X125316445Y-66322017D01*
X125235538Y-66279136D01*
X124891935Y-66093353D01*
X124482607Y-66370218D01*
X124273654Y-66512054D01*
X124044887Y-66668141D01*
X123830509Y-66815109D01*
X123723129Y-66889115D01*
X123572102Y-66990531D01*
X123444218Y-67070898D01*
X123356158Y-67120041D01*
X123327555Y-67130429D01*
X123285924Y-67102405D01*
X123193789Y-67024172D01*
X123060082Y-66903852D01*
X122893735Y-66749568D01*
X122703680Y-66569443D01*
X122583479Y-66453790D01*
X122373185Y-66247167D01*
X122191444Y-66062358D01*
X122045603Y-65907270D01*
X121943009Y-65789807D01*
X121891009Y-65717875D01*
X121886020Y-65703278D01*
X121909171Y-65647753D01*
X121973146Y-65535484D01*
X122070847Y-65377837D01*
X122195180Y-65186179D01*
X122339046Y-64971876D01*
X122379959Y-64912130D01*
X122529033Y-64694982D01*
X122662775Y-64499475D01*
X122773709Y-64336599D01*
X122854356Y-64217337D01*
X122897241Y-64152678D01*
X122901383Y-64145992D01*
X122895188Y-64094462D01*
X122862300Y-63981166D01*
X122808455Y-63821042D01*
X122739387Y-63629032D01*
X122660831Y-63420074D01*
X122578520Y-63209109D01*
X122498189Y-63011076D01*
X122425572Y-62840916D01*
X122366405Y-62713567D01*
X122326420Y-62643971D01*
X122323578Y-62640632D01*
X122299127Y-62620742D01*
X122257831Y-62601073D01*
X122190623Y-62579589D01*
X122088441Y-62554253D01*
X121942219Y-62523029D01*
X121742893Y-62483882D01*
X121481397Y-62434775D01*
X121148669Y-62373672D01*
X121076628Y-62360534D01*
X120863115Y-62319282D01*
X120676978Y-62278926D01*
X120534666Y-62243361D01*
X120452629Y-62216480D01*
X120441628Y-62210213D01*
X120423502Y-62154654D01*
X120408767Y-62030495D01*
X120397436Y-61852169D01*
X120389516Y-61634109D01*
X120385019Y-61390746D01*
X120383954Y-61136514D01*
X120386330Y-60885845D01*
X120392159Y-60653171D01*
X120401449Y-60452924D01*
X120414211Y-60299538D01*
X120430454Y-60207444D01*
X120440246Y-60188595D01*
X120494761Y-60169582D01*
X120618896Y-60138650D01*
X120800285Y-60098482D01*
X121026560Y-60051762D01*
X121285353Y-60001173D01*
X121426351Y-59974659D01*
X121693873Y-59924650D01*
X121932438Y-59879346D01*
X122130386Y-59841021D01*
X122276057Y-59811947D01*
X122357791Y-59794397D01*
X122371243Y-59790506D01*
X122393979Y-59746638D01*
X122442040Y-59640976D01*
X122509019Y-59488613D01*
X122588510Y-59304646D01*
X122674108Y-59104170D01*
X122759405Y-58902281D01*
X122837995Y-58714073D01*
X122903473Y-58554642D01*
X122949431Y-58439084D01*
X122969463Y-58382494D01*
X122969836Y-58380021D01*
X122947126Y-58335379D01*
X122883459Y-58232647D01*
X122785525Y-58082037D01*
X122660017Y-57893757D01*
X122513626Y-57678018D01*
X122428525Y-57554098D01*
X122273455Y-57326883D01*
X122135725Y-57120595D01*
X122022053Y-56945671D01*
X121939161Y-56812545D01*
X121893769Y-56731653D01*
X121887213Y-56713520D01*
X121915395Y-56671312D01*
X121993304Y-56581191D01*
X122110990Y-56453254D01*
X122258500Y-56297596D01*
X122425881Y-56124315D01*
X122603181Y-55943507D01*
X122780448Y-55765267D01*
X122947730Y-55599693D01*
X123095075Y-55456880D01*
X123212530Y-55346925D01*
X123290143Y-55279924D01*
X123316108Y-55263935D01*
X123358384Y-55286419D01*
X123459501Y-55349585D01*
X123609627Y-55447003D01*
X123798930Y-55572243D01*
X124017579Y-55718875D01*
X124182511Y-55830586D01*
X125015831Y-56397237D01*
X125710456Y-56110889D01*
X126405082Y-55824542D01*
X126593334Y-54825960D01*
X126781587Y-53827377D01*
X128860052Y-53827377D01*
X129048305Y-54825960D01*
G37*
X129048305Y-54825960D02*
X129236557Y-55824542D01*
X129931183Y-56110889D01*
X130625808Y-56397237D01*
X131459128Y-55830586D01*
X131692501Y-55672811D01*
X131903457Y-55531939D01*
X132082153Y-55414401D01*
X132218744Y-55326629D01*
X132303386Y-55275055D01*
X132326437Y-55263935D01*
X132367963Y-55292535D01*
X132456698Y-55371604D01*
X132582697Y-55491041D01*
X132736014Y-55640744D01*
X132906702Y-55810615D01*
X133084814Y-55990551D01*
X133260406Y-56170454D01*
X133423530Y-56340222D01*
X133564241Y-56489754D01*
X133672592Y-56608952D01*
X133738637Y-56687713D01*
X133754426Y-56714072D01*
X133731703Y-56762666D01*
X133667999Y-56869126D01*
X133570013Y-57023039D01*
X133444441Y-57213991D01*
X133297982Y-57431569D01*
X133213115Y-57555671D01*
X133058426Y-57782279D01*
X132920970Y-57986770D01*
X132807414Y-58158965D01*
X132724428Y-58288685D01*
X132678678Y-58365751D01*
X132671803Y-58381947D01*
X132687388Y-58427975D01*
X132729868Y-58535250D01*
X132792835Y-58688687D01*
X132869879Y-58873206D01*
X132954590Y-59073721D01*
X133040558Y-59275152D01*
X133121373Y-59462415D01*
X133190627Y-59620428D01*
X133241908Y-59734107D01*
X133268809Y-59788370D01*
X133270396Y-59790506D01*
X133312635Y-59800867D01*
X133425126Y-59823982D01*
X133596209Y-59857579D01*
X133814223Y-59899385D01*
X134067509Y-59947127D01*
X134215288Y-59974659D01*
X134485938Y-60026190D01*
X134730397Y-60075225D01*
X134936300Y-60119081D01*
X135091277Y-60155074D01*
X135182962Y-60180521D01*
X135201393Y-60188595D01*
X135219445Y-60243242D01*
X135234010Y-60366662D01*
X135245098Y-60544423D01*
X135252719Y-60762091D01*
X135256884Y-61005235D01*
X135257602Y-61259423D01*
X135254882Y-61510220D01*
X135248735Y-61743196D01*
X135239171Y-61943918D01*
X135226199Y-62097954D01*
X135209829Y-62190870D01*
X135200011Y-62210213D01*
X135141323Y-62233398D01*
X135016966Y-62266544D01*
X134843390Y-62305758D01*
X134637042Y-62347145D01*
X134565011Y-62360534D01*
X134217719Y-62424147D01*
X133943383Y-62475378D01*
X133732939Y-62516261D01*
X133577322Y-62548834D01*
X133467467Y-62575132D01*
X133394311Y-62597192D01*
X133348787Y-62617049D01*
X133321833Y-62636741D01*
X133318061Y-62640632D01*
X133280415Y-62703324D01*
X133222986Y-62825331D01*
X133151508Y-62991712D01*
X133071715Y-63187529D01*
X132989343Y-63397840D01*
X132910125Y-63607708D01*
X132839796Y-63802191D01*
X132784089Y-63966350D01*
X132748741Y-64085245D01*
X132739484Y-64143936D01*
X132740256Y-64145992D01*
X132771620Y-64193964D01*
X132842774Y-64299516D01*
X132946240Y-64451660D01*
X133074540Y-64639410D01*
X133220199Y-64851780D01*
X133261680Y-64912130D01*
X133409587Y-65130929D01*
X133539739Y-65330562D01*
X133645045Y-65499565D01*
X133718416Y-65626475D01*
X133752763Y-65699829D01*
X133754426Y-65708841D01*
X133725569Y-65756207D01*
X133645831Y-65850042D01*
X133525462Y-65980261D01*
X133374713Y-66136779D01*
X133203836Y-66309510D01*
X133023079Y-66488371D01*
X132842694Y-66663276D01*
X132672932Y-66824140D01*
X132524042Y-66960878D01*
X132406276Y-67063407D01*
X132329883Y-67121640D01*
X132308750Y-67131148D01*
X132259560Y-67108754D01*
X132158847Y-67048356D01*
X132023017Y-66960129D01*
X131918510Y-66889115D01*
X131729149Y-66758811D01*
X131504899Y-66605384D01*
X131279964Y-66452201D01*
X131159032Y-66370218D01*
X130749704Y-66093353D01*
X130406102Y-66279136D01*
X130249565Y-66360523D01*
X130116454Y-66423784D01*
X130026389Y-66459865D01*
X130003463Y-66464885D01*
X129975895Y-66427817D01*
X129921508Y-66323069D01*
X129844363Y-66160303D01*
X129748518Y-65949181D01*
X129638034Y-65699365D01*
X129516971Y-65420517D01*
X129389389Y-65122299D01*
X129259347Y-64814374D01*
X129130906Y-64506404D01*
X129008126Y-64208050D01*
X128895067Y-63928975D01*
X128795788Y-63678841D01*
X128714349Y-63467310D01*
X128654811Y-63304043D01*
X128621234Y-63198705D01*
X128615834Y-63162527D01*
X128658634Y-63116381D01*
X128752344Y-63041472D01*
X128877373Y-62953364D01*
X128887867Y-62946394D01*
X129211020Y-62687721D01*
X129471587Y-62385938D01*
X129667310Y-62050695D01*
X129795932Y-61691642D01*
X129855195Y-61318426D01*
X129842839Y-60940700D01*
X129756607Y-60568111D01*
X129594241Y-60210310D01*
X129546472Y-60132027D01*
X129298009Y-59815919D01*
X129004481Y-59562079D01*
X128676047Y-59371827D01*
X128322865Y-59246485D01*
X127955095Y-59187372D01*
X127582897Y-59195807D01*
X127216429Y-59273112D01*
X126865851Y-59420606D01*
X126541323Y-59639610D01*
X126440936Y-59728498D01*
X126185449Y-60006744D01*
X125999278Y-60299656D01*
X125871570Y-60627986D01*
X125800444Y-60953133D01*
X125782886Y-61318702D01*
X125841434Y-61686086D01*
X125970142Y-62042866D01*
X126163062Y-62376626D01*
X126414248Y-62674947D01*
X126717752Y-62925411D01*
X126757640Y-62951813D01*
X126884009Y-63038272D01*
X126980073Y-63113184D01*
X127026000Y-63161015D01*
X127026668Y-63162527D01*
X127016808Y-63214267D01*
X126977722Y-63331696D01*
X126913472Y-63505154D01*
X126828120Y-63724979D01*
X126725727Y-63981513D01*
X126610354Y-64265096D01*
X126486063Y-64566067D01*
X126356916Y-64874767D01*
X126226974Y-65181536D01*
X126100298Y-65476714D01*
X125980951Y-65750640D01*
X125872994Y-65993656D01*
X125780488Y-66196101D01*
X125707496Y-66348315D01*
X125658077Y-66440638D01*
X125638177Y-66464885D01*
X125577366Y-66446004D01*
X125463582Y-66395364D01*
X125316445Y-66322017D01*
X125235538Y-66279136D01*
X124891935Y-66093353D01*
X124482607Y-66370218D01*
X124273654Y-66512054D01*
X124044887Y-66668141D01*
X123830509Y-66815109D01*
X123723129Y-66889115D01*
X123572102Y-66990531D01*
X123444218Y-67070898D01*
X123356158Y-67120041D01*
X123327555Y-67130429D01*
X123285924Y-67102405D01*
X123193789Y-67024172D01*
X123060082Y-66903852D01*
X122893735Y-66749568D01*
X122703680Y-66569443D01*
X122583479Y-66453790D01*
X122373185Y-66247167D01*
X122191444Y-66062358D01*
X122045603Y-65907270D01*
X121943009Y-65789807D01*
X121891009Y-65717875D01*
X121886020Y-65703278D01*
X121909171Y-65647753D01*
X121973146Y-65535484D01*
X122070847Y-65377837D01*
X122195180Y-65186179D01*
X122339046Y-64971876D01*
X122379959Y-64912130D01*
X122529033Y-64694982D01*
X122662775Y-64499475D01*
X122773709Y-64336599D01*
X122854356Y-64217337D01*
X122897241Y-64152678D01*
X122901383Y-64145992D01*
X122895188Y-64094462D01*
X122862300Y-63981166D01*
X122808455Y-63821042D01*
X122739387Y-63629032D01*
X122660831Y-63420074D01*
X122578520Y-63209109D01*
X122498189Y-63011076D01*
X122425572Y-62840916D01*
X122366405Y-62713567D01*
X122326420Y-62643971D01*
X122323578Y-62640632D01*
X122299127Y-62620742D01*
X122257831Y-62601073D01*
X122190623Y-62579589D01*
X122088441Y-62554253D01*
X121942219Y-62523029D01*
X121742893Y-62483882D01*
X121481397Y-62434775D01*
X121148669Y-62373672D01*
X121076628Y-62360534D01*
X120863115Y-62319282D01*
X120676978Y-62278926D01*
X120534666Y-62243361D01*
X120452629Y-62216480D01*
X120441628Y-62210213D01*
X120423502Y-62154654D01*
X120408767Y-62030495D01*
X120397436Y-61852169D01*
X120389516Y-61634109D01*
X120385019Y-61390746D01*
X120383954Y-61136514D01*
X120386330Y-60885845D01*
X120392159Y-60653171D01*
X120401449Y-60452924D01*
X120414211Y-60299538D01*
X120430454Y-60207444D01*
X120440246Y-60188595D01*
X120494761Y-60169582D01*
X120618896Y-60138650D01*
X120800285Y-60098482D01*
X121026560Y-60051762D01*
X121285353Y-60001173D01*
X121426351Y-59974659D01*
X121693873Y-59924650D01*
X121932438Y-59879346D01*
X122130386Y-59841021D01*
X122276057Y-59811947D01*
X122357791Y-59794397D01*
X122371243Y-59790506D01*
X122393979Y-59746638D01*
X122442040Y-59640976D01*
X122509019Y-59488613D01*
X122588510Y-59304646D01*
X122674108Y-59104170D01*
X122759405Y-58902281D01*
X122837995Y-58714073D01*
X122903473Y-58554642D01*
X122949431Y-58439084D01*
X122969463Y-58382494D01*
X122969836Y-58380021D01*
X122947126Y-58335379D01*
X122883459Y-58232647D01*
X122785525Y-58082037D01*
X122660017Y-57893757D01*
X122513626Y-57678018D01*
X122428525Y-57554098D01*
X122273455Y-57326883D01*
X122135725Y-57120595D01*
X122022053Y-56945671D01*
X121939161Y-56812545D01*
X121893769Y-56731653D01*
X121887213Y-56713520D01*
X121915395Y-56671312D01*
X121993304Y-56581191D01*
X122110990Y-56453254D01*
X122258500Y-56297596D01*
X122425881Y-56124315D01*
X122603181Y-55943507D01*
X122780448Y-55765267D01*
X122947730Y-55599693D01*
X123095075Y-55456880D01*
X123212530Y-55346925D01*
X123290143Y-55279924D01*
X123316108Y-55263935D01*
X123358384Y-55286419D01*
X123459501Y-55349585D01*
X123609627Y-55447003D01*
X123798930Y-55572243D01*
X124017579Y-55718875D01*
X124182511Y-55830586D01*
X125015831Y-56397237D01*
X125710456Y-56110889D01*
X126405082Y-55824542D01*
X126593334Y-54825960D01*
X126781587Y-53827377D01*
X128860052Y-53827377D01*
X129048305Y-54825960D01*
G36*
X127846418Y-68623003D02*
G01*
X128004100Y-68652907D01*
X128167685Y-68715452D01*
X128185164Y-68723426D01*
X128309217Y-68788656D01*
X128395129Y-68849274D01*
X128422898Y-68888106D01*
X128396453Y-68951437D01*
X128332220Y-69044881D01*
X128303708Y-69079762D01*
X128186211Y-69217066D01*
X128034732Y-69127691D01*
X127890570Y-69068152D01*
X127724000Y-69036326D01*
X127564262Y-69034316D01*
X127440594Y-69064221D01*
X127410916Y-69082886D01*
X127354398Y-69168466D01*
X127347529Y-69267049D01*
X127389820Y-69344062D01*
X127414836Y-69358998D01*
X127489796Y-69377547D01*
X127621561Y-69399348D01*
X127783991Y-69420180D01*
X127813956Y-69423447D01*
X128074840Y-69468575D01*
X128264055Y-69545230D01*
X128389543Y-69660491D01*
X128459243Y-69821435D01*
X128480956Y-70018015D01*
X128450961Y-70241473D01*
X128353559Y-70416949D01*
X128188361Y-70544758D01*
X127954977Y-70625218D01*
X127695902Y-70656962D01*
X127484633Y-70656580D01*
X127313265Y-70627749D01*
X127196230Y-70587944D01*
X127048350Y-70518587D01*
X126911687Y-70438097D01*
X126863115Y-70402670D01*
X126738197Y-70300705D01*
X127039509Y-69995813D01*
X127210796Y-70109165D01*
X127382594Y-70194300D01*
X127566048Y-70238830D01*
X127742397Y-70243528D01*
X127892881Y-70209170D01*
X127998740Y-70136529D01*
X128032921Y-70075238D01*
X128027794Y-69976941D01*
X127942857Y-69901773D01*
X127778343Y-69849866D01*
X127598101Y-69825875D01*
X127320709Y-69780104D01*
X127114635Y-69693748D01*
X126977122Y-69564280D01*
X126905413Y-69389172D01*
X126895479Y-69181565D01*
X126944548Y-68964714D01*
X127056420Y-68800805D01*
X127232097Y-68689088D01*
X127472581Y-68628814D01*
X127650743Y-68616999D01*
X127846418Y-68623003D01*
G37*
X127846418Y-68623003D02*
X128004100Y-68652907D01*
X128167685Y-68715452D01*
X128185164Y-68723426D01*
X128309217Y-68788656D01*
X128395129Y-68849274D01*
X128422898Y-68888106D01*
X128396453Y-68951437D01*
X128332220Y-69044881D01*
X128303708Y-69079762D01*
X128186211Y-69217066D01*
X128034732Y-69127691D01*
X127890570Y-69068152D01*
X127724000Y-69036326D01*
X127564262Y-69034316D01*
X127440594Y-69064221D01*
X127410916Y-69082886D01*
X127354398Y-69168466D01*
X127347529Y-69267049D01*
X127389820Y-69344062D01*
X127414836Y-69358998D01*
X127489796Y-69377547D01*
X127621561Y-69399348D01*
X127783991Y-69420180D01*
X127813956Y-69423447D01*
X128074840Y-69468575D01*
X128264055Y-69545230D01*
X128389543Y-69660491D01*
X128459243Y-69821435D01*
X128480956Y-70018015D01*
X128450961Y-70241473D01*
X128353559Y-70416949D01*
X128188361Y-70544758D01*
X127954977Y-70625218D01*
X127695902Y-70656962D01*
X127484633Y-70656580D01*
X127313265Y-70627749D01*
X127196230Y-70587944D01*
X127048350Y-70518587D01*
X126911687Y-70438097D01*
X126863115Y-70402670D01*
X126738197Y-70300705D01*
X127039509Y-69995813D01*
X127210796Y-70109165D01*
X127382594Y-70194300D01*
X127566048Y-70238830D01*
X127742397Y-70243528D01*
X127892881Y-70209170D01*
X127998740Y-70136529D01*
X128032921Y-70075238D01*
X128027794Y-69976941D01*
X127942857Y-69901773D01*
X127778343Y-69849866D01*
X127598101Y-69825875D01*
X127320709Y-69780104D01*
X127114635Y-69693748D01*
X126977122Y-69564280D01*
X126905413Y-69389172D01*
X126895479Y-69181565D01*
X126944548Y-68964714D01*
X127056420Y-68800805D01*
X127232097Y-68689088D01*
X127472581Y-68628814D01*
X127650743Y-68616999D01*
X127846418Y-68623003D01*
D13*
X141250000Y-100000000D02*
G75*
G03*
X141250000Y-100000000I-41250000J0D01*
G01*
X116250000Y-100000000D02*
G75*
G03*
X116250000Y-100000000I-16250000J0D01*
G01*
%LPC*%
D14*
X57500000Y-142500000D03*
X100000000Y-100000000D03*
X142500000Y-57500000D03*
D15*
X112197592Y-112197592D03*
X112197592Y-87802408D03*
D14*
X142500000Y-142500000D03*
X57500000Y-57500000D03*
M02*
