G04 #@! TF.GenerationSoftware,KiCad,Pcbnew,(6.0.6-0)*
G04 #@! TF.CreationDate,2023-01-18T22:34:25+00:00*
G04 #@! TF.ProjectId,gnss_antenna_pcb,676e7373-5f61-46e7-9465-6e6e615f7063,rev?*
G04 #@! TF.SameCoordinates,Original*
G04 #@! TF.FileFunction,Paste,Top*
G04 #@! TF.FilePolarity,Positive*
%FSLAX46Y46*%
G04 Gerber Fmt 4.6, Leading zero omitted, Abs format (unit mm)*
G04 Created by KiCad (PCBNEW (6.0.6-0)) date 2023-01-18 22:34:25*
%MOMM*%
%LPD*%
G01*
G04 APERTURE LIST*
G04 Aperture macros list*
%AMRoundRect*
0 Rectangle with rounded corners*
0 $1 Rounding radius*
0 $2 $3 $4 $5 $6 $7 $8 $9 X,Y pos of 4 corners*
0 Add a 4 corners polygon primitive as box body*
4,1,4,$2,$3,$4,$5,$6,$7,$8,$9,$2,$3,0*
0 Add four circle primitives for the rounded corners*
1,1,$1+$1,$2,$3*
1,1,$1+$1,$4,$5*
1,1,$1+$1,$6,$7*
1,1,$1+$1,$8,$9*
0 Add four rect primitives between the rounded corners*
20,1,$1+$1,$2,$3,$4,$5,0*
20,1,$1+$1,$4,$5,$6,$7,0*
20,1,$1+$1,$6,$7,$8,$9,0*
20,1,$1+$1,$8,$9,$2,$3,0*%
G04 Aperture macros list end*
%ADD10RoundRect,0.200000X0.200000X0.275000X-0.200000X0.275000X-0.200000X-0.275000X0.200000X-0.275000X0*%
%ADD11RoundRect,0.155000X0.212500X0.155000X-0.212500X0.155000X-0.212500X-0.155000X0.212500X-0.155000X0*%
%ADD12RoundRect,0.160000X0.160000X-0.197500X0.160000X0.197500X-0.160000X0.197500X-0.160000X-0.197500X0*%
%ADD13RoundRect,0.150000X-0.512500X-0.150000X0.512500X-0.150000X0.512500X0.150000X-0.512500X0.150000X0*%
%ADD14R,0.350000X0.450000*%
%ADD15RoundRect,0.237500X-0.237500X0.300000X-0.237500X-0.300000X0.237500X-0.300000X0.237500X0.300000X0*%
%ADD16RoundRect,0.160000X0.222500X0.160000X-0.222500X0.160000X-0.222500X-0.160000X0.222500X-0.160000X0*%
%ADD17R,0.800000X1.360000*%
%ADD18RoundRect,0.160000X-0.197500X-0.160000X0.197500X-0.160000X0.197500X0.160000X-0.197500X0.160000X0*%
%ADD19RoundRect,0.237500X-0.300000X-0.237500X0.300000X-0.237500X0.300000X0.237500X-0.300000X0.237500X0*%
%ADD20RoundRect,0.160000X-0.160000X0.197500X-0.160000X-0.197500X0.160000X-0.197500X0.160000X0.197500X0*%
%ADD21RoundRect,0.147500X-0.172500X0.147500X-0.172500X-0.147500X0.172500X-0.147500X0.172500X0.147500X0*%
%ADD22R,5.080000X2.290000*%
%ADD23R,5.080000X2.420000*%
%ADD24R,0.200000X0.100000*%
%ADD25R,1.000000X1.050000*%
%ADD26R,1.050000X2.200000*%
%ADD27RoundRect,0.155000X-0.212500X-0.155000X0.212500X-0.155000X0.212500X0.155000X-0.212500X0.155000X0*%
%ADD28RoundRect,0.200000X-0.200000X-0.275000X0.200000X-0.275000X0.200000X0.275000X-0.200000X0.275000X0*%
G04 APERTURE END LIST*
D10*
X62150000Y-90300000D03*
X60500000Y-90300000D03*
D11*
X75442500Y-87500000D03*
X74307500Y-87500000D03*
D12*
X68150000Y-101422500D03*
X68150000Y-100227500D03*
D13*
X57437500Y-80500000D03*
X57437500Y-81450000D03*
X57437500Y-82400000D03*
X59712500Y-82400000D03*
X59712500Y-80500000D03*
D14*
X71200000Y-99037500D03*
X70200000Y-99037500D03*
X70200000Y-99937500D03*
X71200000Y-99937500D03*
D15*
X54950000Y-80562500D03*
X54950000Y-82287500D03*
D12*
X64050000Y-81672500D03*
X64050000Y-80477500D03*
D16*
X66572500Y-100000000D03*
X65427500Y-100000000D03*
D17*
X110275000Y-112500000D03*
X110225000Y-87500000D03*
X76175000Y-112500000D03*
X76175000Y-87500000D03*
D18*
X74127500Y-112975000D03*
X75322500Y-112975000D03*
D19*
X64387500Y-93100000D03*
X66112500Y-93100000D03*
D20*
X65275000Y-80452500D03*
X65275000Y-81647500D03*
D10*
X62150000Y-93150000D03*
X60500000Y-93150000D03*
D21*
X73550000Y-97640000D03*
X73550000Y-98610000D03*
D22*
X52880000Y-100000000D03*
D23*
X52880000Y-104380000D03*
X52880000Y-95620000D03*
D10*
X66075000Y-90300000D03*
X64425000Y-90300000D03*
D12*
X63675000Y-101422500D03*
X63675000Y-100227500D03*
D24*
X70200000Y-98787500D03*
D25*
X74950000Y-83575000D03*
D26*
X73475000Y-82050000D03*
X76425000Y-82050000D03*
D27*
X64532500Y-87275000D03*
X65667500Y-87275000D03*
D11*
X62217500Y-100000000D03*
X61082500Y-100000000D03*
D21*
X68150000Y-97915000D03*
X68150000Y-98885000D03*
D28*
X60500000Y-95850000D03*
X62150000Y-95850000D03*
D21*
X58500000Y-98665000D03*
X58500000Y-99635000D03*
D19*
X60512500Y-87300000D03*
X62237500Y-87300000D03*
D15*
X62125000Y-80525000D03*
X62125000Y-82250000D03*
D18*
X74127500Y-111975000D03*
X75322500Y-111975000D03*
D24*
X71200000Y-100187500D03*
M02*
