G04 #@! TF.GenerationSoftware,KiCad,Pcbnew,(6.0.6-0)*
G04 #@! TF.CreationDate,2022-09-01T17:00:11+01:00*
G04 #@! TF.ProjectId,gnss_antenna_pcb,676e7373-5f61-46e7-9465-6e6e615f7063,rev?*
G04 #@! TF.SameCoordinates,Original*
G04 #@! TF.FileFunction,Legend,Top*
G04 #@! TF.FilePolarity,Positive*
%FSLAX46Y46*%
G04 Gerber Fmt 4.6, Leading zero omitted, Abs format (unit mm)*
G04 Created by KiCad (PCBNEW (6.0.6-0)) date 2022-09-01 17:00:11*
%MOMM*%
%LPD*%
G01*
G04 APERTURE LIST*
G04 Aperture macros list*
%AMRoundRect*
0 Rectangle with rounded corners*
0 $1 Rounding radius*
0 $2 $3 $4 $5 $6 $7 $8 $9 X,Y pos of 4 corners*
0 Add a 4 corners polygon primitive as box body*
4,1,4,$2,$3,$4,$5,$6,$7,$8,$9,$2,$3,0*
0 Add four circle primitives for the rounded corners*
1,1,$1+$1,$2,$3*
1,1,$1+$1,$4,$5*
1,1,$1+$1,$6,$7*
1,1,$1+$1,$8,$9*
0 Add four rect primitives between the rounded corners*
20,1,$1+$1,$2,$3,$4,$5,0*
20,1,$1+$1,$4,$5,$6,$7,0*
20,1,$1+$1,$6,$7,$8,$9,0*
20,1,$1+$1,$8,$9,$2,$3,0*%
G04 Aperture macros list end*
%ADD10C,0.300000*%
%ADD11C,0.200000*%
%ADD12C,0.130000*%
%ADD13C,0.150000*%
%ADD14C,0.254000*%
%ADD15C,0.010000*%
%ADD16C,0.120000*%
%ADD17C,0.100000*%
%ADD18C,3.200000*%
%ADD19RoundRect,0.200000X-0.275000X0.200000X-0.275000X-0.200000X0.275000X-0.200000X0.275000X0.200000X0*%
%ADD20RoundRect,0.155000X0.212500X0.155000X-0.212500X0.155000X-0.212500X-0.155000X0.212500X-0.155000X0*%
%ADD21RoundRect,0.160000X0.160000X-0.197500X0.160000X0.197500X-0.160000X0.197500X-0.160000X-0.197500X0*%
%ADD22RoundRect,0.150000X-0.150000X0.512500X-0.150000X-0.512500X0.150000X-0.512500X0.150000X0.512500X0*%
%ADD23R,0.350000X0.450000*%
%ADD24C,1.500000*%
%ADD25RoundRect,0.237500X-0.300000X-0.237500X0.300000X-0.237500X0.300000X0.237500X-0.300000X0.237500X0*%
%ADD26RoundRect,0.160000X-0.160000X0.197500X-0.160000X-0.197500X0.160000X-0.197500X0.160000X0.197500X0*%
%ADD27RoundRect,0.160000X0.222500X0.160000X-0.222500X0.160000X-0.222500X-0.160000X0.222500X-0.160000X0*%
%ADD28R,0.800000X1.360000*%
%ADD29RoundRect,0.160000X-0.197500X-0.160000X0.197500X-0.160000X0.197500X0.160000X-0.197500X0.160000X0*%
%ADD30RoundRect,0.237500X0.237500X-0.300000X0.237500X0.300000X-0.237500X0.300000X-0.237500X-0.300000X0*%
%ADD31RoundRect,0.147500X0.147500X0.172500X-0.147500X0.172500X-0.147500X-0.172500X0.147500X-0.172500X0*%
%ADD32R,5.080000X2.290000*%
%ADD33R,5.080000X2.420000*%
%ADD34R,0.200000X0.100000*%
%ADD35C,0.300000*%
%ADD36R,1.700000X1.700000*%
%ADD37O,1.700000X1.700000*%
%ADD38R,1.000000X1.050000*%
%ADD39R,1.050000X2.200000*%
%ADD40R,1.000000X1.000000*%
%ADD41RoundRect,0.155000X0.155000X-0.212500X0.155000X0.212500X-0.155000X0.212500X-0.155000X-0.212500X0*%
%ADD42RoundRect,0.200000X0.200000X0.275000X-0.200000X0.275000X-0.200000X-0.275000X0.200000X-0.275000X0*%
%ADD43RoundRect,0.147500X0.172500X-0.147500X0.172500X0.147500X-0.172500X0.147500X-0.172500X-0.147500X0*%
%ADD44RoundRect,0.237500X0.300000X0.237500X-0.300000X0.237500X-0.300000X-0.237500X0.300000X-0.237500X0*%
G04 APERTURE END LIST*
D10*
X86357142Y-143250000D02*
X86214285Y-143178571D01*
X85999999Y-143178571D01*
X85785714Y-143250000D01*
X85642857Y-143392857D01*
X85571428Y-143535714D01*
X85499999Y-143821428D01*
X85499999Y-144035714D01*
X85571428Y-144321428D01*
X85642857Y-144464285D01*
X85785714Y-144607142D01*
X85999999Y-144678571D01*
X86142857Y-144678571D01*
X86357142Y-144607142D01*
X86428571Y-144535714D01*
X86428571Y-144035714D01*
X86142857Y-144035714D01*
X87071428Y-144678571D02*
X87071428Y-143178571D01*
X87928571Y-144678571D01*
X87928571Y-143178571D01*
X88571428Y-144607142D02*
X88785714Y-144678571D01*
X89142857Y-144678571D01*
X89285714Y-144607142D01*
X89357142Y-144535714D01*
X89428571Y-144392857D01*
X89428571Y-144250000D01*
X89357142Y-144107142D01*
X89285714Y-144035714D01*
X89142857Y-143964285D01*
X88857142Y-143892857D01*
X88714285Y-143821428D01*
X88642857Y-143750000D01*
X88571428Y-143607142D01*
X88571428Y-143464285D01*
X88642857Y-143321428D01*
X88714285Y-143250000D01*
X88857142Y-143178571D01*
X89214285Y-143178571D01*
X89428571Y-143250000D01*
X89999999Y-144607142D02*
X90214285Y-144678571D01*
X90571428Y-144678571D01*
X90714285Y-144607142D01*
X90785714Y-144535714D01*
X90857142Y-144392857D01*
X90857142Y-144250000D01*
X90785714Y-144107142D01*
X90714285Y-144035714D01*
X90571428Y-143964285D01*
X90285714Y-143892857D01*
X90142857Y-143821428D01*
X90071428Y-143750000D01*
X89999999Y-143607142D01*
X89999999Y-143464285D01*
X90071428Y-143321428D01*
X90142857Y-143250000D01*
X90285714Y-143178571D01*
X90642857Y-143178571D01*
X90857142Y-143250000D01*
X93071428Y-145250000D02*
X92999999Y-145178571D01*
X92857142Y-144964285D01*
X92785714Y-144821428D01*
X92714285Y-144607142D01*
X92642857Y-144250000D01*
X92642857Y-143964285D01*
X92714285Y-143607142D01*
X92785714Y-143392857D01*
X92857142Y-143250000D01*
X92999999Y-143035714D01*
X93071428Y-142964285D01*
X94357142Y-144678571D02*
X93642857Y-144678571D01*
X93642857Y-143178571D01*
X95642857Y-144678571D02*
X94785714Y-144678571D01*
X95214285Y-144678571D02*
X95214285Y-143178571D01*
X95071428Y-143392857D01*
X94928571Y-143535714D01*
X94785714Y-143607142D01*
X96142857Y-145250000D02*
X96214285Y-145178571D01*
X96357142Y-144964285D01*
X96428571Y-144821428D01*
X96499999Y-144607142D01*
X96571428Y-144250000D01*
X96571428Y-143964285D01*
X96499999Y-143607142D01*
X96428571Y-143392857D01*
X96357142Y-143250000D01*
X96214285Y-143035714D01*
X96142857Y-142964285D01*
X99071428Y-144678571D02*
X99071428Y-143892857D01*
X98999999Y-143750000D01*
X98857142Y-143678571D01*
X98571428Y-143678571D01*
X98428571Y-143750000D01*
X99071428Y-144607142D02*
X98928571Y-144678571D01*
X98571428Y-144678571D01*
X98428571Y-144607142D01*
X98357142Y-144464285D01*
X98357142Y-144321428D01*
X98428571Y-144178571D01*
X98571428Y-144107142D01*
X98928571Y-144107142D01*
X99071428Y-144035714D01*
X100428571Y-144607142D02*
X100285714Y-144678571D01*
X99999999Y-144678571D01*
X99857142Y-144607142D01*
X99785714Y-144535714D01*
X99714285Y-144392857D01*
X99714285Y-143964285D01*
X99785714Y-143821428D01*
X99857142Y-143750000D01*
X99999999Y-143678571D01*
X100285714Y-143678571D01*
X100428571Y-143750000D01*
X100857142Y-143678571D02*
X101428571Y-143678571D01*
X101071428Y-143178571D02*
X101071428Y-144464285D01*
X101142857Y-144607142D01*
X101285714Y-144678571D01*
X101428571Y-144678571D01*
X101928571Y-144678571D02*
X101928571Y-143678571D01*
X101928571Y-143178571D02*
X101857142Y-143250000D01*
X101928571Y-143321428D01*
X101999999Y-143250000D01*
X101928571Y-143178571D01*
X101928571Y-143321428D01*
X102499999Y-143678571D02*
X102857142Y-144678571D01*
X103214285Y-143678571D01*
X104357142Y-144607142D02*
X104214285Y-144678571D01*
X103928571Y-144678571D01*
X103785714Y-144607142D01*
X103714285Y-144464285D01*
X103714285Y-143892857D01*
X103785714Y-143750000D01*
X103928571Y-143678571D01*
X104214285Y-143678571D01*
X104357142Y-143750000D01*
X104428571Y-143892857D01*
X104428571Y-144035714D01*
X103714285Y-144178571D01*
X106857142Y-144678571D02*
X106857142Y-143892857D01*
X106785714Y-143750000D01*
X106642857Y-143678571D01*
X106357142Y-143678571D01*
X106214285Y-143750000D01*
X106857142Y-144607142D02*
X106714285Y-144678571D01*
X106357142Y-144678571D01*
X106214285Y-144607142D01*
X106142857Y-144464285D01*
X106142857Y-144321428D01*
X106214285Y-144178571D01*
X106357142Y-144107142D01*
X106714285Y-144107142D01*
X106857142Y-144035714D01*
X107571428Y-143678571D02*
X107571428Y-144678571D01*
X107571428Y-143821428D02*
X107642857Y-143750000D01*
X107785714Y-143678571D01*
X107999999Y-143678571D01*
X108142857Y-143750000D01*
X108214285Y-143892857D01*
X108214285Y-144678571D01*
X108714285Y-143678571D02*
X109285714Y-143678571D01*
X108928571Y-143178571D02*
X108928571Y-144464285D01*
X108999999Y-144607142D01*
X109142857Y-144678571D01*
X109285714Y-144678571D01*
X110357142Y-144607142D02*
X110214285Y-144678571D01*
X109928571Y-144678571D01*
X109785714Y-144607142D01*
X109714285Y-144464285D01*
X109714285Y-143892857D01*
X109785714Y-143750000D01*
X109928571Y-143678571D01*
X110214285Y-143678571D01*
X110357142Y-143750000D01*
X110428571Y-143892857D01*
X110428571Y-144035714D01*
X109714285Y-144178571D01*
X111071428Y-143678571D02*
X111071428Y-144678571D01*
X111071428Y-143821428D02*
X111142857Y-143750000D01*
X111285714Y-143678571D01*
X111499999Y-143678571D01*
X111642857Y-143750000D01*
X111714285Y-143892857D01*
X111714285Y-144678571D01*
X112428571Y-143678571D02*
X112428571Y-144678571D01*
X112428571Y-143821428D02*
X112499999Y-143750000D01*
X112642857Y-143678571D01*
X112857142Y-143678571D01*
X112999999Y-143750000D01*
X113071428Y-143892857D01*
X113071428Y-144678571D01*
X114428571Y-144678571D02*
X114428571Y-143892857D01*
X114357142Y-143750000D01*
X114214285Y-143678571D01*
X113928571Y-143678571D01*
X113785714Y-143750000D01*
X114428571Y-144607142D02*
X114285714Y-144678571D01*
X113928571Y-144678571D01*
X113785714Y-144607142D01*
X113714285Y-144464285D01*
X113714285Y-144321428D01*
X113785714Y-144178571D01*
X113928571Y-144107142D01*
X114285714Y-144107142D01*
X114428571Y-144035714D01*
X64137857Y-53556071D02*
X64995000Y-53556071D01*
X64566428Y-55056071D02*
X64566428Y-53556071D01*
X65495000Y-55056071D02*
X65495000Y-53556071D01*
X66137857Y-55056071D02*
X66137857Y-54270357D01*
X66066428Y-54127500D01*
X65923571Y-54056071D01*
X65709285Y-54056071D01*
X65566428Y-54127500D01*
X65495000Y-54198928D01*
X67423571Y-54984642D02*
X67280714Y-55056071D01*
X66995000Y-55056071D01*
X66852142Y-54984642D01*
X66780714Y-54841785D01*
X66780714Y-54270357D01*
X66852142Y-54127500D01*
X66995000Y-54056071D01*
X67280714Y-54056071D01*
X67423571Y-54127500D01*
X67495000Y-54270357D01*
X67495000Y-54413214D01*
X66780714Y-54556071D01*
X69495000Y-55056071D02*
X69352142Y-54984642D01*
X69280714Y-54841785D01*
X69280714Y-53556071D01*
X70066428Y-55056071D02*
X70066428Y-54056071D01*
X70066428Y-53556071D02*
X69995000Y-53627500D01*
X70066428Y-53698928D01*
X70137857Y-53627500D01*
X70066428Y-53556071D01*
X70066428Y-53698928D01*
X70780714Y-54056071D02*
X70780714Y-55056071D01*
X70780714Y-54198928D02*
X70852142Y-54127500D01*
X70995000Y-54056071D01*
X71209285Y-54056071D01*
X71352142Y-54127500D01*
X71423571Y-54270357D01*
X71423571Y-55056071D01*
X72709285Y-54984642D02*
X72566428Y-55056071D01*
X72280714Y-55056071D01*
X72137857Y-54984642D01*
X72066428Y-54841785D01*
X72066428Y-54270357D01*
X72137857Y-54127500D01*
X72280714Y-54056071D01*
X72566428Y-54056071D01*
X72709285Y-54127500D01*
X72780714Y-54270357D01*
X72780714Y-54413214D01*
X72066428Y-54556071D01*
X73352142Y-54984642D02*
X73495000Y-55056071D01*
X73780714Y-55056071D01*
X73923571Y-54984642D01*
X73995000Y-54841785D01*
X73995000Y-54770357D01*
X73923571Y-54627500D01*
X73780714Y-54556071D01*
X73566428Y-54556071D01*
X73423571Y-54484642D01*
X73352142Y-54341785D01*
X73352142Y-54270357D01*
X73423571Y-54127500D01*
X73566428Y-54056071D01*
X73780714Y-54056071D01*
X73923571Y-54127500D01*
X75995000Y-55056071D02*
X75852142Y-54984642D01*
X75780714Y-54913214D01*
X75709285Y-54770357D01*
X75709285Y-54341785D01*
X75780714Y-54198928D01*
X75852142Y-54127500D01*
X75995000Y-54056071D01*
X76209285Y-54056071D01*
X76352142Y-54127500D01*
X76423571Y-54198928D01*
X76495000Y-54341785D01*
X76495000Y-54770357D01*
X76423571Y-54913214D01*
X76352142Y-54984642D01*
X76209285Y-55056071D01*
X75995000Y-55056071D01*
X76923571Y-54056071D02*
X77495000Y-54056071D01*
X77137857Y-55056071D02*
X77137857Y-53770357D01*
X77209285Y-53627500D01*
X77352142Y-53556071D01*
X77495000Y-53556071D01*
X78923571Y-54056071D02*
X79495000Y-54056071D01*
X79137857Y-53556071D02*
X79137857Y-54841785D01*
X79209285Y-54984642D01*
X79352142Y-55056071D01*
X79495000Y-55056071D01*
X79995000Y-55056071D02*
X79995000Y-53556071D01*
X80637857Y-55056071D02*
X80637857Y-54270357D01*
X80566428Y-54127500D01*
X80423571Y-54056071D01*
X80209285Y-54056071D01*
X80066428Y-54127500D01*
X79995000Y-54198928D01*
X81923571Y-54984642D02*
X81780714Y-55056071D01*
X81495000Y-55056071D01*
X81352142Y-54984642D01*
X81280714Y-54841785D01*
X81280714Y-54270357D01*
X81352142Y-54127500D01*
X81495000Y-54056071D01*
X81780714Y-54056071D01*
X81923571Y-54127500D01*
X81995000Y-54270357D01*
X81995000Y-54413214D01*
X81280714Y-54556071D01*
X84423571Y-54984642D02*
X84280714Y-55056071D01*
X83995000Y-55056071D01*
X83852142Y-54984642D01*
X83780714Y-54913214D01*
X83709285Y-54770357D01*
X83709285Y-54341785D01*
X83780714Y-54198928D01*
X83852142Y-54127500D01*
X83995000Y-54056071D01*
X84280714Y-54056071D01*
X84423571Y-54127500D01*
X85280714Y-55056071D02*
X85137857Y-54984642D01*
X85066428Y-54913214D01*
X84995000Y-54770357D01*
X84995000Y-54341785D01*
X85066428Y-54198928D01*
X85137857Y-54127500D01*
X85280714Y-54056071D01*
X85495000Y-54056071D01*
X85637857Y-54127500D01*
X85709285Y-54198928D01*
X85780714Y-54341785D01*
X85780714Y-54770357D01*
X85709285Y-54913214D01*
X85637857Y-54984642D01*
X85495000Y-55056071D01*
X85280714Y-55056071D01*
X87066428Y-54056071D02*
X87066428Y-55056071D01*
X86423571Y-54056071D02*
X86423571Y-54841785D01*
X86495000Y-54984642D01*
X86637857Y-55056071D01*
X86852142Y-55056071D01*
X86995000Y-54984642D01*
X87066428Y-54913214D01*
X87780714Y-54056071D02*
X87780714Y-55556071D01*
X87780714Y-54127500D02*
X87923571Y-54056071D01*
X88209285Y-54056071D01*
X88352142Y-54127500D01*
X88423571Y-54198928D01*
X88495000Y-54341785D01*
X88495000Y-54770357D01*
X88423571Y-54913214D01*
X88352142Y-54984642D01*
X88209285Y-55056071D01*
X87923571Y-55056071D01*
X87780714Y-54984642D01*
X89352142Y-55056071D02*
X89209285Y-54984642D01*
X89137857Y-54841785D01*
X89137857Y-53556071D01*
X90495000Y-54984642D02*
X90352142Y-55056071D01*
X90066428Y-55056071D01*
X89923571Y-54984642D01*
X89852142Y-54841785D01*
X89852142Y-54270357D01*
X89923571Y-54127500D01*
X90066428Y-54056071D01*
X90352142Y-54056071D01*
X90495000Y-54127500D01*
X90566428Y-54270357D01*
X90566428Y-54413214D01*
X89852142Y-54556071D01*
X91209285Y-55056071D02*
X91209285Y-54056071D01*
X91209285Y-54341785D02*
X91280714Y-54198928D01*
X91352142Y-54127500D01*
X91495000Y-54056071D01*
X91637857Y-54056071D01*
X93923571Y-55056071D02*
X93923571Y-54270357D01*
X93852142Y-54127500D01*
X93709285Y-54056071D01*
X93423571Y-54056071D01*
X93280714Y-54127500D01*
X93923571Y-54984642D02*
X93780714Y-55056071D01*
X93423571Y-55056071D01*
X93280714Y-54984642D01*
X93209285Y-54841785D01*
X93209285Y-54698928D01*
X93280714Y-54556071D01*
X93423571Y-54484642D01*
X93780714Y-54484642D01*
X93923571Y-54413214D01*
X94637857Y-54056071D02*
X94637857Y-55056071D01*
X94637857Y-54198928D02*
X94709285Y-54127500D01*
X94852142Y-54056071D01*
X95066428Y-54056071D01*
X95209285Y-54127500D01*
X95280714Y-54270357D01*
X95280714Y-55056071D01*
X96637857Y-55056071D02*
X96637857Y-53556071D01*
X96637857Y-54984642D02*
X96495000Y-55056071D01*
X96209285Y-55056071D01*
X96066428Y-54984642D01*
X95995000Y-54913214D01*
X95923571Y-54770357D01*
X95923571Y-54341785D01*
X95995000Y-54198928D01*
X96066428Y-54127500D01*
X96209285Y-54056071D01*
X96495000Y-54056071D01*
X96637857Y-54127500D01*
X98495000Y-55056071D02*
X98495000Y-54056071D01*
X98495000Y-54198928D02*
X98566428Y-54127500D01*
X98709285Y-54056071D01*
X98923571Y-54056071D01*
X99066428Y-54127500D01*
X99137857Y-54270357D01*
X99137857Y-55056071D01*
X99137857Y-54270357D02*
X99209285Y-54127500D01*
X99352142Y-54056071D01*
X99566428Y-54056071D01*
X99709285Y-54127500D01*
X99780714Y-54270357D01*
X99780714Y-55056071D01*
X101137857Y-55056071D02*
X101137857Y-54270357D01*
X101066428Y-54127500D01*
X100923571Y-54056071D01*
X100637857Y-54056071D01*
X100495000Y-54127500D01*
X101137857Y-54984642D02*
X100995000Y-55056071D01*
X100637857Y-55056071D01*
X100495000Y-54984642D01*
X100423571Y-54841785D01*
X100423571Y-54698928D01*
X100495000Y-54556071D01*
X100637857Y-54484642D01*
X100995000Y-54484642D01*
X101137857Y-54413214D01*
X101637857Y-54056071D02*
X102209285Y-54056071D01*
X101852142Y-53556071D02*
X101852142Y-54841785D01*
X101923571Y-54984642D01*
X102066428Y-55056071D01*
X102209285Y-55056071D01*
X103352142Y-54984642D02*
X103209285Y-55056071D01*
X102923571Y-55056071D01*
X102780714Y-54984642D01*
X102709285Y-54913214D01*
X102637857Y-54770357D01*
X102637857Y-54341785D01*
X102709285Y-54198928D01*
X102780714Y-54127500D01*
X102923571Y-54056071D01*
X103209285Y-54056071D01*
X103352142Y-54127500D01*
X103995000Y-55056071D02*
X103995000Y-53556071D01*
X104637857Y-55056071D02*
X104637857Y-54270357D01*
X104566428Y-54127500D01*
X104423571Y-54056071D01*
X104209285Y-54056071D01*
X104066428Y-54127500D01*
X103995000Y-54198928D01*
X105352142Y-55056071D02*
X105352142Y-54056071D01*
X105352142Y-53556071D02*
X105280714Y-53627500D01*
X105352142Y-53698928D01*
X105423571Y-53627500D01*
X105352142Y-53556071D01*
X105352142Y-53698928D01*
X106066428Y-54056071D02*
X106066428Y-55056071D01*
X106066428Y-54198928D02*
X106137857Y-54127500D01*
X106280714Y-54056071D01*
X106495000Y-54056071D01*
X106637857Y-54127500D01*
X106709285Y-54270357D01*
X106709285Y-55056071D01*
X108066428Y-54056071D02*
X108066428Y-55270357D01*
X107995000Y-55413214D01*
X107923571Y-55484642D01*
X107780714Y-55556071D01*
X107566428Y-55556071D01*
X107423571Y-55484642D01*
X108066428Y-54984642D02*
X107923571Y-55056071D01*
X107637857Y-55056071D01*
X107495000Y-54984642D01*
X107423571Y-54913214D01*
X107352142Y-54770357D01*
X107352142Y-54341785D01*
X107423571Y-54198928D01*
X107495000Y-54127500D01*
X107637857Y-54056071D01*
X107923571Y-54056071D01*
X108066428Y-54127500D01*
X110137857Y-55056071D02*
X109995000Y-54984642D01*
X109923571Y-54913214D01*
X109852142Y-54770357D01*
X109852142Y-54341785D01*
X109923571Y-54198928D01*
X109995000Y-54127500D01*
X110137857Y-54056071D01*
X110352142Y-54056071D01*
X110495000Y-54127500D01*
X110566428Y-54198928D01*
X110637857Y-54341785D01*
X110637857Y-54770357D01*
X110566428Y-54913214D01*
X110495000Y-54984642D01*
X110352142Y-55056071D01*
X110137857Y-55056071D01*
X111066428Y-54056071D02*
X111637857Y-54056071D01*
X111280714Y-55056071D02*
X111280714Y-53770357D01*
X111352142Y-53627500D01*
X111495000Y-53556071D01*
X111637857Y-53556071D01*
X113066428Y-54056071D02*
X113637857Y-54056071D01*
X113280714Y-53556071D02*
X113280714Y-54841785D01*
X113352142Y-54984642D01*
X113495000Y-55056071D01*
X113637857Y-55056071D01*
X114137857Y-55056071D02*
X114137857Y-53556071D01*
X114780714Y-55056071D02*
X114780714Y-54270357D01*
X114709285Y-54127500D01*
X114566428Y-54056071D01*
X114352142Y-54056071D01*
X114209285Y-54127500D01*
X114137857Y-54198928D01*
X116066428Y-54984642D02*
X115923571Y-55056071D01*
X115637857Y-55056071D01*
X115495000Y-54984642D01*
X115423571Y-54841785D01*
X115423571Y-54270357D01*
X115495000Y-54127500D01*
X115637857Y-54056071D01*
X115923571Y-54056071D01*
X116066428Y-54127500D01*
X116137857Y-54270357D01*
X116137857Y-54413214D01*
X115423571Y-54556071D01*
X118637857Y-55056071D02*
X117923571Y-55056071D01*
X117923571Y-53556071D01*
X119137857Y-55056071D02*
X119137857Y-53556071D01*
X119995000Y-55056071D01*
X119995000Y-53556071D01*
X120637857Y-54627500D02*
X121352142Y-54627500D01*
X120495000Y-55056071D02*
X120995000Y-53556071D01*
X121495000Y-55056071D01*
X122995000Y-54056071D02*
X123280714Y-55056071D01*
X123566428Y-54341785D01*
X123852142Y-55056071D01*
X124137857Y-54056071D01*
X125280714Y-54984642D02*
X125137857Y-55056071D01*
X124852142Y-55056071D01*
X124709285Y-54984642D01*
X124637857Y-54841785D01*
X124637857Y-54270357D01*
X124709285Y-54127500D01*
X124852142Y-54056071D01*
X125137857Y-54056071D01*
X125280714Y-54127500D01*
X125352142Y-54270357D01*
X125352142Y-54413214D01*
X124637857Y-54556071D01*
X125995000Y-55056071D02*
X125995000Y-54056071D01*
X125995000Y-54341785D02*
X126066428Y-54198928D01*
X126137857Y-54127500D01*
X126280714Y-54056071D01*
X126423571Y-54056071D01*
X127495000Y-54984642D02*
X127352142Y-55056071D01*
X127066428Y-55056071D01*
X126923571Y-54984642D01*
X126852142Y-54841785D01*
X126852142Y-54270357D01*
X126923571Y-54127500D01*
X127066428Y-54056071D01*
X127352142Y-54056071D01*
X127495000Y-54127500D01*
X127566428Y-54270357D01*
X127566428Y-54413214D01*
X126852142Y-54556071D01*
X64995000Y-57471071D02*
X64995000Y-55971071D01*
X64995000Y-57399642D02*
X64852142Y-57471071D01*
X64566428Y-57471071D01*
X64423571Y-57399642D01*
X64352142Y-57328214D01*
X64280714Y-57185357D01*
X64280714Y-56756785D01*
X64352142Y-56613928D01*
X64423571Y-56542500D01*
X64566428Y-56471071D01*
X64852142Y-56471071D01*
X64995000Y-56542500D01*
X66280714Y-57399642D02*
X66137857Y-57471071D01*
X65852142Y-57471071D01*
X65709285Y-57399642D01*
X65637857Y-57256785D01*
X65637857Y-56685357D01*
X65709285Y-56542500D01*
X65852142Y-56471071D01*
X66137857Y-56471071D01*
X66280714Y-56542500D01*
X66352142Y-56685357D01*
X66352142Y-56828214D01*
X65637857Y-56971071D01*
X66923571Y-57399642D02*
X67066428Y-57471071D01*
X67352142Y-57471071D01*
X67495000Y-57399642D01*
X67566428Y-57256785D01*
X67566428Y-57185357D01*
X67495000Y-57042500D01*
X67352142Y-56971071D01*
X67137857Y-56971071D01*
X66995000Y-56899642D01*
X66923571Y-56756785D01*
X66923571Y-56685357D01*
X66995000Y-56542500D01*
X67137857Y-56471071D01*
X67352142Y-56471071D01*
X67495000Y-56542500D01*
X68209285Y-57471071D02*
X68209285Y-56471071D01*
X68209285Y-55971071D02*
X68137857Y-56042500D01*
X68209285Y-56113928D01*
X68280714Y-56042500D01*
X68209285Y-55971071D01*
X68209285Y-56113928D01*
X69566428Y-56471071D02*
X69566428Y-57685357D01*
X69495000Y-57828214D01*
X69423571Y-57899642D01*
X69280714Y-57971071D01*
X69066428Y-57971071D01*
X68923571Y-57899642D01*
X69566428Y-57399642D02*
X69423571Y-57471071D01*
X69137857Y-57471071D01*
X68995000Y-57399642D01*
X68923571Y-57328214D01*
X68852142Y-57185357D01*
X68852142Y-56756785D01*
X68923571Y-56613928D01*
X68995000Y-56542500D01*
X69137857Y-56471071D01*
X69423571Y-56471071D01*
X69566428Y-56542500D01*
X70280714Y-56471071D02*
X70280714Y-57471071D01*
X70280714Y-56613928D02*
X70352142Y-56542500D01*
X70495000Y-56471071D01*
X70709285Y-56471071D01*
X70852142Y-56542500D01*
X70923571Y-56685357D01*
X70923571Y-57471071D01*
X72209285Y-57399642D02*
X72066428Y-57471071D01*
X71780714Y-57471071D01*
X71637857Y-57399642D01*
X71566428Y-57256785D01*
X71566428Y-56685357D01*
X71637857Y-56542500D01*
X71780714Y-56471071D01*
X72066428Y-56471071D01*
X72209285Y-56542500D01*
X72280714Y-56685357D01*
X72280714Y-56828214D01*
X71566428Y-56971071D01*
X73566428Y-57471071D02*
X73566428Y-55971071D01*
X73566428Y-57399642D02*
X73423571Y-57471071D01*
X73137857Y-57471071D01*
X72995000Y-57399642D01*
X72923571Y-57328214D01*
X72852142Y-57185357D01*
X72852142Y-56756785D01*
X72923571Y-56613928D01*
X72995000Y-56542500D01*
X73137857Y-56471071D01*
X73423571Y-56471071D01*
X73566428Y-56542500D01*
X75209285Y-56471071D02*
X75780714Y-56471071D01*
X75423571Y-57471071D02*
X75423571Y-56185357D01*
X75495000Y-56042500D01*
X75637857Y-55971071D01*
X75780714Y-55971071D01*
X76495000Y-57471071D02*
X76352142Y-57399642D01*
X76280714Y-57328214D01*
X76209285Y-57185357D01*
X76209285Y-56756785D01*
X76280714Y-56613928D01*
X76352142Y-56542500D01*
X76495000Y-56471071D01*
X76709285Y-56471071D01*
X76852142Y-56542500D01*
X76923571Y-56613928D01*
X76995000Y-56756785D01*
X76995000Y-57185357D01*
X76923571Y-57328214D01*
X76852142Y-57399642D01*
X76709285Y-57471071D01*
X76495000Y-57471071D01*
X77637857Y-57471071D02*
X77637857Y-56471071D01*
X77637857Y-56756785D02*
X77709285Y-56613928D01*
X77780714Y-56542500D01*
X77923571Y-56471071D01*
X78066428Y-56471071D01*
X80352142Y-57471071D02*
X80352142Y-56685357D01*
X80280714Y-56542500D01*
X80137857Y-56471071D01*
X79852142Y-56471071D01*
X79709285Y-56542500D01*
X80352142Y-57399642D02*
X80209285Y-57471071D01*
X79852142Y-57471071D01*
X79709285Y-57399642D01*
X79637857Y-57256785D01*
X79637857Y-57113928D01*
X79709285Y-56971071D01*
X79852142Y-56899642D01*
X80209285Y-56899642D01*
X80352142Y-56828214D01*
X82709285Y-56685357D02*
X82209285Y-56685357D01*
X82209285Y-57471071D02*
X82209285Y-55971071D01*
X82923571Y-55971071D01*
X84352142Y-57471071D02*
X83852142Y-56756785D01*
X83495000Y-57471071D02*
X83495000Y-55971071D01*
X84066428Y-55971071D01*
X84209285Y-56042500D01*
X84280714Y-56113928D01*
X84352142Y-56256785D01*
X84352142Y-56471071D01*
X84280714Y-56613928D01*
X84209285Y-56685357D01*
X84066428Y-56756785D01*
X83495000Y-56756785D01*
X84995000Y-56899642D02*
X86137857Y-56899642D01*
X87495000Y-56471071D02*
X87495000Y-57471071D01*
X87137857Y-55899642D02*
X86780714Y-56971071D01*
X87709285Y-56971071D01*
X89352142Y-57399642D02*
X89495000Y-57471071D01*
X89780714Y-57471071D01*
X89923571Y-57399642D01*
X89995000Y-57256785D01*
X89995000Y-57185357D01*
X89923571Y-57042500D01*
X89780714Y-56971071D01*
X89566428Y-56971071D01*
X89423571Y-56899642D01*
X89352142Y-56756785D01*
X89352142Y-56685357D01*
X89423571Y-56542500D01*
X89566428Y-56471071D01*
X89780714Y-56471071D01*
X89923571Y-56542500D01*
X91280714Y-56471071D02*
X91280714Y-57471071D01*
X90637857Y-56471071D02*
X90637857Y-57256785D01*
X90709285Y-57399642D01*
X90852142Y-57471071D01*
X91066428Y-57471071D01*
X91209285Y-57399642D01*
X91280714Y-57328214D01*
X91995000Y-57471071D02*
X91995000Y-55971071D01*
X91995000Y-56542500D02*
X92137857Y-56471071D01*
X92423571Y-56471071D01*
X92566428Y-56542500D01*
X92637857Y-56613928D01*
X92709285Y-56756785D01*
X92709285Y-57185357D01*
X92637857Y-57328214D01*
X92566428Y-57399642D01*
X92423571Y-57471071D01*
X92137857Y-57471071D01*
X91995000Y-57399642D01*
X93280714Y-57399642D02*
X93423571Y-57471071D01*
X93709285Y-57471071D01*
X93852142Y-57399642D01*
X93923571Y-57256785D01*
X93923571Y-57185357D01*
X93852142Y-57042500D01*
X93709285Y-56971071D01*
X93495000Y-56971071D01*
X93352142Y-56899642D01*
X93280714Y-56756785D01*
X93280714Y-56685357D01*
X93352142Y-56542500D01*
X93495000Y-56471071D01*
X93709285Y-56471071D01*
X93852142Y-56542500D01*
X94352142Y-56471071D02*
X94923571Y-56471071D01*
X94566428Y-55971071D02*
X94566428Y-57256785D01*
X94637857Y-57399642D01*
X94780714Y-57471071D01*
X94923571Y-57471071D01*
X95423571Y-57471071D02*
X95423571Y-56471071D01*
X95423571Y-56756785D02*
X95495000Y-56613928D01*
X95566428Y-56542500D01*
X95709285Y-56471071D01*
X95852142Y-56471071D01*
X96995000Y-57471071D02*
X96995000Y-56685357D01*
X96923571Y-56542500D01*
X96780714Y-56471071D01*
X96495000Y-56471071D01*
X96352142Y-56542500D01*
X96995000Y-57399642D02*
X96852142Y-57471071D01*
X96495000Y-57471071D01*
X96352142Y-57399642D01*
X96280714Y-57256785D01*
X96280714Y-57113928D01*
X96352142Y-56971071D01*
X96495000Y-56899642D01*
X96852142Y-56899642D01*
X96995000Y-56828214D01*
X97495000Y-56471071D02*
X98066428Y-56471071D01*
X97709285Y-55971071D02*
X97709285Y-57256785D01*
X97780714Y-57399642D01*
X97923571Y-57471071D01*
X98066428Y-57471071D01*
X99137857Y-57399642D02*
X98995000Y-57471071D01*
X98709285Y-57471071D01*
X98566428Y-57399642D01*
X98495000Y-57256785D01*
X98495000Y-56685357D01*
X98566428Y-56542500D01*
X98709285Y-56471071D01*
X98995000Y-56471071D01*
X99137857Y-56542500D01*
X99209285Y-56685357D01*
X99209285Y-56828214D01*
X98495000Y-56971071D01*
X100852142Y-56471071D02*
X101137857Y-57471071D01*
X101423571Y-56756785D01*
X101709285Y-57471071D01*
X101995000Y-56471071D01*
X102566428Y-57471071D02*
X102566428Y-56471071D01*
X102566428Y-55971071D02*
X102495000Y-56042500D01*
X102566428Y-56113928D01*
X102637857Y-56042500D01*
X102566428Y-55971071D01*
X102566428Y-56113928D01*
X103066428Y-56471071D02*
X103637857Y-56471071D01*
X103280714Y-55971071D02*
X103280714Y-57256785D01*
X103352142Y-57399642D01*
X103495000Y-57471071D01*
X103637857Y-57471071D01*
X104137857Y-57471071D02*
X104137857Y-55971071D01*
X104780714Y-57471071D02*
X104780714Y-56685357D01*
X104709285Y-56542500D01*
X104566428Y-56471071D01*
X104352142Y-56471071D01*
X104209285Y-56542500D01*
X104137857Y-56613928D01*
X106923571Y-55971071D02*
X107066428Y-55971071D01*
X107209285Y-56042500D01*
X107280714Y-56113928D01*
X107352142Y-56256785D01*
X107423571Y-56542500D01*
X107423571Y-56899642D01*
X107352142Y-57185357D01*
X107280714Y-57328214D01*
X107209285Y-57399642D01*
X107066428Y-57471071D01*
X106923571Y-57471071D01*
X106780714Y-57399642D01*
X106709285Y-57328214D01*
X106637857Y-57185357D01*
X106566428Y-56899642D01*
X106566428Y-56542500D01*
X106637857Y-56256785D01*
X106709285Y-56113928D01*
X106780714Y-56042500D01*
X106923571Y-55971071D01*
X108066428Y-57328214D02*
X108137857Y-57399642D01*
X108066428Y-57471071D01*
X107995000Y-57399642D01*
X108066428Y-57328214D01*
X108066428Y-57471071D01*
X108995000Y-56613928D02*
X108852142Y-56542500D01*
X108780714Y-56471071D01*
X108709285Y-56328214D01*
X108709285Y-56256785D01*
X108780714Y-56113928D01*
X108852142Y-56042500D01*
X108995000Y-55971071D01*
X109280714Y-55971071D01*
X109423571Y-56042500D01*
X109495000Y-56113928D01*
X109566428Y-56256785D01*
X109566428Y-56328214D01*
X109495000Y-56471071D01*
X109423571Y-56542500D01*
X109280714Y-56613928D01*
X108995000Y-56613928D01*
X108852142Y-56685357D01*
X108780714Y-56756785D01*
X108709285Y-56899642D01*
X108709285Y-57185357D01*
X108780714Y-57328214D01*
X108852142Y-57399642D01*
X108995000Y-57471071D01*
X109280714Y-57471071D01*
X109423571Y-57399642D01*
X109495000Y-57328214D01*
X109566428Y-57185357D01*
X109566428Y-56899642D01*
X109495000Y-56756785D01*
X109423571Y-56685357D01*
X109280714Y-56613928D01*
X111352142Y-57471071D02*
X111352142Y-56471071D01*
X111352142Y-56613928D02*
X111423571Y-56542500D01*
X111566428Y-56471071D01*
X111780714Y-56471071D01*
X111923571Y-56542500D01*
X111995000Y-56685357D01*
X111995000Y-57471071D01*
X111995000Y-56685357D02*
X112066428Y-56542500D01*
X112209285Y-56471071D01*
X112423571Y-56471071D01*
X112566428Y-56542500D01*
X112637857Y-56685357D01*
X112637857Y-57471071D01*
X113352142Y-57471071D02*
X113352142Y-56471071D01*
X113352142Y-56613928D02*
X113423571Y-56542500D01*
X113566428Y-56471071D01*
X113780714Y-56471071D01*
X113923571Y-56542500D01*
X113995000Y-56685357D01*
X113995000Y-57471071D01*
X113995000Y-56685357D02*
X114066428Y-56542500D01*
X114209285Y-56471071D01*
X114423571Y-56471071D01*
X114566428Y-56542500D01*
X114637857Y-56685357D01*
X114637857Y-57471071D01*
X116280714Y-56471071D02*
X116852142Y-56471071D01*
X116495000Y-55971071D02*
X116495000Y-57256785D01*
X116566428Y-57399642D01*
X116709285Y-57471071D01*
X116852142Y-57471071D01*
X117352142Y-57471071D02*
X117352142Y-55971071D01*
X117995000Y-57471071D02*
X117995000Y-56685357D01*
X117923571Y-56542500D01*
X117780714Y-56471071D01*
X117566428Y-56471071D01*
X117423571Y-56542500D01*
X117352142Y-56613928D01*
X118709285Y-57471071D02*
X118709285Y-56471071D01*
X118709285Y-55971071D02*
X118637857Y-56042500D01*
X118709285Y-56113928D01*
X118780714Y-56042500D01*
X118709285Y-55971071D01*
X118709285Y-56113928D01*
X120066428Y-57399642D02*
X119923571Y-57471071D01*
X119637857Y-57471071D01*
X119495000Y-57399642D01*
X119423571Y-57328214D01*
X119352142Y-57185357D01*
X119352142Y-56756785D01*
X119423571Y-56613928D01*
X119495000Y-56542500D01*
X119637857Y-56471071D01*
X119923571Y-56471071D01*
X120066428Y-56542500D01*
X120709285Y-57471071D02*
X120709285Y-55971071D01*
X120852142Y-56899642D02*
X121280714Y-57471071D01*
X121280714Y-56471071D02*
X120709285Y-57042500D01*
X121923571Y-56471071D02*
X121923571Y-57471071D01*
X121923571Y-56613928D02*
X121995000Y-56542500D01*
X122137857Y-56471071D01*
X122352142Y-56471071D01*
X122495000Y-56542500D01*
X122566428Y-56685357D01*
X122566428Y-57471071D01*
X123852142Y-57399642D02*
X123709285Y-57471071D01*
X123423571Y-57471071D01*
X123280714Y-57399642D01*
X123209285Y-57256785D01*
X123209285Y-56685357D01*
X123280714Y-56542500D01*
X123423571Y-56471071D01*
X123709285Y-56471071D01*
X123852142Y-56542500D01*
X123923571Y-56685357D01*
X123923571Y-56828214D01*
X123209285Y-56971071D01*
X124495000Y-57399642D02*
X124637857Y-57471071D01*
X124923571Y-57471071D01*
X125066428Y-57399642D01*
X125137857Y-57256785D01*
X125137857Y-57185357D01*
X125066428Y-57042500D01*
X124923571Y-56971071D01*
X124709285Y-56971071D01*
X124566428Y-56899642D01*
X124495000Y-56756785D01*
X124495000Y-56685357D01*
X124566428Y-56542500D01*
X124709285Y-56471071D01*
X124923571Y-56471071D01*
X125066428Y-56542500D01*
X125709285Y-57399642D02*
X125852142Y-57471071D01*
X126137857Y-57471071D01*
X126280714Y-57399642D01*
X126352142Y-57256785D01*
X126352142Y-57185357D01*
X126280714Y-57042500D01*
X126137857Y-56971071D01*
X125923571Y-56971071D01*
X125780714Y-56899642D01*
X125709285Y-56756785D01*
X125709285Y-56685357D01*
X125780714Y-56542500D01*
X125923571Y-56471071D01*
X126137857Y-56471071D01*
X126280714Y-56542500D01*
X126995000Y-57328214D02*
X127066428Y-57399642D01*
X126995000Y-57471071D01*
X126923571Y-57399642D01*
X126995000Y-57328214D01*
X126995000Y-57471071D01*
X64137857Y-58386071D02*
X64995000Y-58386071D01*
X64566428Y-59886071D02*
X64566428Y-58386071D01*
X65495000Y-59886071D02*
X65495000Y-58386071D01*
X66137857Y-59886071D02*
X66137857Y-59100357D01*
X66066428Y-58957500D01*
X65923571Y-58886071D01*
X65709285Y-58886071D01*
X65566428Y-58957500D01*
X65495000Y-59028928D01*
X67423571Y-59814642D02*
X67280714Y-59886071D01*
X66995000Y-59886071D01*
X66852142Y-59814642D01*
X66780714Y-59671785D01*
X66780714Y-59100357D01*
X66852142Y-58957500D01*
X66995000Y-58886071D01*
X67280714Y-58886071D01*
X67423571Y-58957500D01*
X67495000Y-59100357D01*
X67495000Y-59243214D01*
X66780714Y-59386071D01*
X69280714Y-59886071D02*
X69280714Y-58886071D01*
X69280714Y-59171785D02*
X69352142Y-59028928D01*
X69423571Y-58957500D01*
X69566428Y-58886071D01*
X69709285Y-58886071D01*
X70209285Y-59886071D02*
X70209285Y-58886071D01*
X70209285Y-58386071D02*
X70137857Y-58457500D01*
X70209285Y-58528928D01*
X70280714Y-58457500D01*
X70209285Y-58386071D01*
X70209285Y-58528928D01*
X70923571Y-58886071D02*
X70923571Y-59886071D01*
X70923571Y-59028928D02*
X70995000Y-58957500D01*
X71137857Y-58886071D01*
X71352142Y-58886071D01*
X71495000Y-58957500D01*
X71566428Y-59100357D01*
X71566428Y-59886071D01*
X72923571Y-58886071D02*
X72923571Y-60100357D01*
X72852142Y-60243214D01*
X72780714Y-60314642D01*
X72637857Y-60386071D01*
X72423571Y-60386071D01*
X72280714Y-60314642D01*
X72923571Y-59814642D02*
X72780714Y-59886071D01*
X72495000Y-59886071D01*
X72352142Y-59814642D01*
X72280714Y-59743214D01*
X72209285Y-59600357D01*
X72209285Y-59171785D01*
X72280714Y-59028928D01*
X72352142Y-58957500D01*
X72495000Y-58886071D01*
X72780714Y-58886071D01*
X72923571Y-58957500D01*
X75423571Y-59886071D02*
X75423571Y-59100357D01*
X75352142Y-58957500D01*
X75209285Y-58886071D01*
X74923571Y-58886071D01*
X74780714Y-58957500D01*
X75423571Y-59814642D02*
X75280714Y-59886071D01*
X74923571Y-59886071D01*
X74780714Y-59814642D01*
X74709285Y-59671785D01*
X74709285Y-59528928D01*
X74780714Y-59386071D01*
X74923571Y-59314642D01*
X75280714Y-59314642D01*
X75423571Y-59243214D01*
X76137857Y-58886071D02*
X76137857Y-59886071D01*
X76137857Y-59028928D02*
X76209285Y-58957500D01*
X76352142Y-58886071D01*
X76566428Y-58886071D01*
X76709285Y-58957500D01*
X76780714Y-59100357D01*
X76780714Y-59886071D01*
X77280714Y-58886071D02*
X77852142Y-58886071D01*
X77495000Y-58386071D02*
X77495000Y-59671785D01*
X77566428Y-59814642D01*
X77709285Y-59886071D01*
X77852142Y-59886071D01*
X78923571Y-59814642D02*
X78780714Y-59886071D01*
X78495000Y-59886071D01*
X78352142Y-59814642D01*
X78280714Y-59671785D01*
X78280714Y-59100357D01*
X78352142Y-58957500D01*
X78495000Y-58886071D01*
X78780714Y-58886071D01*
X78923571Y-58957500D01*
X78995000Y-59100357D01*
X78995000Y-59243214D01*
X78280714Y-59386071D01*
X79637857Y-58886071D02*
X79637857Y-59886071D01*
X79637857Y-59028928D02*
X79709285Y-58957500D01*
X79852142Y-58886071D01*
X80066428Y-58886071D01*
X80209285Y-58957500D01*
X80280714Y-59100357D01*
X80280714Y-59886071D01*
X80995000Y-58886071D02*
X80995000Y-59886071D01*
X80995000Y-59028928D02*
X81066428Y-58957500D01*
X81209285Y-58886071D01*
X81423571Y-58886071D01*
X81566428Y-58957500D01*
X81637857Y-59100357D01*
X81637857Y-59886071D01*
X82995000Y-59886071D02*
X82995000Y-59100357D01*
X82923571Y-58957500D01*
X82780714Y-58886071D01*
X82495000Y-58886071D01*
X82352142Y-58957500D01*
X82995000Y-59814642D02*
X82852142Y-59886071D01*
X82495000Y-59886071D01*
X82352142Y-59814642D01*
X82280714Y-59671785D01*
X82280714Y-59528928D01*
X82352142Y-59386071D01*
X82495000Y-59314642D01*
X82852142Y-59314642D01*
X82995000Y-59243214D01*
X84709285Y-58886071D02*
X84995000Y-59886071D01*
X85280714Y-59171785D01*
X85566428Y-59886071D01*
X85852142Y-58886071D01*
X87066428Y-59886071D02*
X87066428Y-59100357D01*
X86995000Y-58957500D01*
X86852142Y-58886071D01*
X86566428Y-58886071D01*
X86423571Y-58957500D01*
X87066428Y-59814642D02*
X86923571Y-59886071D01*
X86566428Y-59886071D01*
X86423571Y-59814642D01*
X86352142Y-59671785D01*
X86352142Y-59528928D01*
X86423571Y-59386071D01*
X86566428Y-59314642D01*
X86923571Y-59314642D01*
X87066428Y-59243214D01*
X87709285Y-59814642D02*
X87852142Y-59886071D01*
X88137857Y-59886071D01*
X88280714Y-59814642D01*
X88352142Y-59671785D01*
X88352142Y-59600357D01*
X88280714Y-59457500D01*
X88137857Y-59386071D01*
X87923571Y-59386071D01*
X87780714Y-59314642D01*
X87709285Y-59171785D01*
X87709285Y-59100357D01*
X87780714Y-58957500D01*
X87923571Y-58886071D01*
X88137857Y-58886071D01*
X88280714Y-58957500D01*
X90780714Y-59886071D02*
X90780714Y-58386071D01*
X90780714Y-59814642D02*
X90637857Y-59886071D01*
X90352142Y-59886071D01*
X90209285Y-59814642D01*
X90137857Y-59743214D01*
X90066428Y-59600357D01*
X90066428Y-59171785D01*
X90137857Y-59028928D01*
X90209285Y-58957500D01*
X90352142Y-58886071D01*
X90637857Y-58886071D01*
X90780714Y-58957500D01*
X92066428Y-59814642D02*
X91923571Y-59886071D01*
X91637857Y-59886071D01*
X91495000Y-59814642D01*
X91423571Y-59671785D01*
X91423571Y-59100357D01*
X91495000Y-58957500D01*
X91637857Y-58886071D01*
X91923571Y-58886071D01*
X92066428Y-58957500D01*
X92137857Y-59100357D01*
X92137857Y-59243214D01*
X91423571Y-59386071D01*
X92709285Y-59814642D02*
X92852142Y-59886071D01*
X93137857Y-59886071D01*
X93280714Y-59814642D01*
X93352142Y-59671785D01*
X93352142Y-59600357D01*
X93280714Y-59457500D01*
X93137857Y-59386071D01*
X92923571Y-59386071D01*
X92780714Y-59314642D01*
X92709285Y-59171785D01*
X92709285Y-59100357D01*
X92780714Y-58957500D01*
X92923571Y-58886071D01*
X93137857Y-58886071D01*
X93280714Y-58957500D01*
X93995000Y-59886071D02*
X93995000Y-58886071D01*
X93995000Y-58386071D02*
X93923571Y-58457500D01*
X93995000Y-58528928D01*
X94066428Y-58457500D01*
X93995000Y-58386071D01*
X93995000Y-58528928D01*
X95352142Y-58886071D02*
X95352142Y-60100357D01*
X95280714Y-60243214D01*
X95209285Y-60314642D01*
X95066428Y-60386071D01*
X94852142Y-60386071D01*
X94709285Y-60314642D01*
X95352142Y-59814642D02*
X95209285Y-59886071D01*
X94923571Y-59886071D01*
X94780714Y-59814642D01*
X94709285Y-59743214D01*
X94637857Y-59600357D01*
X94637857Y-59171785D01*
X94709285Y-59028928D01*
X94780714Y-58957500D01*
X94923571Y-58886071D01*
X95209285Y-58886071D01*
X95352142Y-58957500D01*
X96066428Y-58886071D02*
X96066428Y-59886071D01*
X96066428Y-59028928D02*
X96137857Y-58957500D01*
X96280714Y-58886071D01*
X96495000Y-58886071D01*
X96637857Y-58957500D01*
X96709285Y-59100357D01*
X96709285Y-59886071D01*
X97995000Y-59814642D02*
X97852142Y-59886071D01*
X97566428Y-59886071D01*
X97423571Y-59814642D01*
X97352142Y-59671785D01*
X97352142Y-59100357D01*
X97423571Y-58957500D01*
X97566428Y-58886071D01*
X97852142Y-58886071D01*
X97995000Y-58957500D01*
X98066428Y-59100357D01*
X98066428Y-59243214D01*
X97352142Y-59386071D01*
X99352142Y-59886071D02*
X99352142Y-58386071D01*
X99352142Y-59814642D02*
X99209285Y-59886071D01*
X98923571Y-59886071D01*
X98780714Y-59814642D01*
X98709285Y-59743214D01*
X98637857Y-59600357D01*
X98637857Y-59171785D01*
X98709285Y-59028928D01*
X98780714Y-58957500D01*
X98923571Y-58886071D01*
X99209285Y-58886071D01*
X99352142Y-58957500D01*
X100995000Y-58886071D02*
X101566428Y-58886071D01*
X101209285Y-58386071D02*
X101209285Y-59671785D01*
X101280714Y-59814642D01*
X101423571Y-59886071D01*
X101566428Y-59886071D01*
X102280714Y-59886071D02*
X102137857Y-59814642D01*
X102066428Y-59743214D01*
X101995000Y-59600357D01*
X101995000Y-59171785D01*
X102066428Y-59028928D01*
X102137857Y-58957500D01*
X102280714Y-58886071D01*
X102495000Y-58886071D01*
X102637857Y-58957500D01*
X102709285Y-59028928D01*
X102780714Y-59171785D01*
X102780714Y-59600357D01*
X102709285Y-59743214D01*
X102637857Y-59814642D01*
X102495000Y-59886071D01*
X102280714Y-59886071D01*
X104566428Y-59886071D02*
X104566428Y-58386071D01*
X104566428Y-58957500D02*
X104709285Y-58886071D01*
X104995000Y-58886071D01*
X105137857Y-58957500D01*
X105209285Y-59028928D01*
X105280714Y-59171785D01*
X105280714Y-59600357D01*
X105209285Y-59743214D01*
X105137857Y-59814642D01*
X104995000Y-59886071D01*
X104709285Y-59886071D01*
X104566428Y-59814642D01*
X106495000Y-59814642D02*
X106352142Y-59886071D01*
X106066428Y-59886071D01*
X105923571Y-59814642D01*
X105852142Y-59671785D01*
X105852142Y-59100357D01*
X105923571Y-58957500D01*
X106066428Y-58886071D01*
X106352142Y-58886071D01*
X106495000Y-58957500D01*
X106566428Y-59100357D01*
X106566428Y-59243214D01*
X105852142Y-59386071D01*
X108352142Y-58886071D02*
X108352142Y-60386071D01*
X108352142Y-58957500D02*
X108495000Y-58886071D01*
X108780714Y-58886071D01*
X108923571Y-58957500D01*
X108995000Y-59028928D01*
X109066428Y-59171785D01*
X109066428Y-59600357D01*
X108995000Y-59743214D01*
X108923571Y-59814642D01*
X108780714Y-59886071D01*
X108495000Y-59886071D01*
X108352142Y-59814642D01*
X109923571Y-59886071D02*
X109780714Y-59814642D01*
X109709285Y-59671785D01*
X109709285Y-58386071D01*
X111137857Y-59886071D02*
X111137857Y-59100357D01*
X111066428Y-58957500D01*
X110923571Y-58886071D01*
X110637857Y-58886071D01*
X110495000Y-58957500D01*
X111137857Y-59814642D02*
X110995000Y-59886071D01*
X110637857Y-59886071D01*
X110495000Y-59814642D01*
X110423571Y-59671785D01*
X110423571Y-59528928D01*
X110495000Y-59386071D01*
X110637857Y-59314642D01*
X110995000Y-59314642D01*
X111137857Y-59243214D01*
X112495000Y-59814642D02*
X112352142Y-59886071D01*
X112066428Y-59886071D01*
X111923571Y-59814642D01*
X111852142Y-59743214D01*
X111780714Y-59600357D01*
X111780714Y-59171785D01*
X111852142Y-59028928D01*
X111923571Y-58957500D01*
X112066428Y-58886071D01*
X112352142Y-58886071D01*
X112495000Y-58957500D01*
X113709285Y-59814642D02*
X113566428Y-59886071D01*
X113280714Y-59886071D01*
X113137857Y-59814642D01*
X113066428Y-59671785D01*
X113066428Y-59100357D01*
X113137857Y-58957500D01*
X113280714Y-58886071D01*
X113566428Y-58886071D01*
X113709285Y-58957500D01*
X113780714Y-59100357D01*
X113780714Y-59243214D01*
X113066428Y-59386071D01*
X115066428Y-59886071D02*
X115066428Y-58386071D01*
X115066428Y-59814642D02*
X114923571Y-59886071D01*
X114637857Y-59886071D01*
X114494999Y-59814642D01*
X114423571Y-59743214D01*
X114352142Y-59600357D01*
X114352142Y-59171785D01*
X114423571Y-59028928D01*
X114494999Y-58957500D01*
X114637857Y-58886071D01*
X114923571Y-58886071D01*
X115066428Y-58957500D01*
X117566428Y-59886071D02*
X117566428Y-59100357D01*
X117494999Y-58957500D01*
X117352142Y-58886071D01*
X117066428Y-58886071D01*
X116923571Y-58957500D01*
X117566428Y-59814642D02*
X117423571Y-59886071D01*
X117066428Y-59886071D01*
X116923571Y-59814642D01*
X116852142Y-59671785D01*
X116852142Y-59528928D01*
X116923571Y-59386071D01*
X117066428Y-59314642D01*
X117423571Y-59314642D01*
X117566428Y-59243214D01*
X118066428Y-58886071D02*
X118637857Y-58886071D01*
X118280714Y-58386071D02*
X118280714Y-59671785D01*
X118352142Y-59814642D01*
X118495000Y-59886071D01*
X118637857Y-59886071D01*
X120923571Y-59886071D02*
X120923571Y-59100357D01*
X120852142Y-58957500D01*
X120709285Y-58886071D01*
X120423571Y-58886071D01*
X120280714Y-58957500D01*
X120923571Y-59814642D02*
X120780714Y-59886071D01*
X120423571Y-59886071D01*
X120280714Y-59814642D01*
X120209285Y-59671785D01*
X120209285Y-59528928D01*
X120280714Y-59386071D01*
X120423571Y-59314642D01*
X120780714Y-59314642D01*
X120923571Y-59243214D01*
X123423571Y-59886071D02*
X123423571Y-58386071D01*
X123423571Y-59814642D02*
X123280714Y-59886071D01*
X122995000Y-59886071D01*
X122852142Y-59814642D01*
X122780714Y-59743214D01*
X122709285Y-59600357D01*
X122709285Y-59171785D01*
X122780714Y-59028928D01*
X122852142Y-58957500D01*
X122995000Y-58886071D01*
X123280714Y-58886071D01*
X123423571Y-58957500D01*
X124137857Y-59886071D02*
X124137857Y-58886071D01*
X124137857Y-58386071D02*
X124066428Y-58457500D01*
X124137857Y-58528928D01*
X124209285Y-58457500D01*
X124137857Y-58386071D01*
X124137857Y-58528928D01*
X124780714Y-59814642D02*
X124923571Y-59886071D01*
X125209285Y-59886071D01*
X125352142Y-59814642D01*
X125423571Y-59671785D01*
X125423571Y-59600357D01*
X125352142Y-59457500D01*
X125209285Y-59386071D01*
X124995000Y-59386071D01*
X124852142Y-59314642D01*
X124780714Y-59171785D01*
X124780714Y-59100357D01*
X124852142Y-58957500D01*
X124995000Y-58886071D01*
X125209285Y-58886071D01*
X125352142Y-58957500D01*
X125852142Y-58886071D02*
X126423571Y-58886071D01*
X126066428Y-58386071D02*
X126066428Y-59671785D01*
X126137857Y-59814642D01*
X126280714Y-59886071D01*
X126423571Y-59886071D01*
X127566428Y-59886071D02*
X127566428Y-59100357D01*
X127495000Y-58957500D01*
X127352142Y-58886071D01*
X127066428Y-58886071D01*
X126923571Y-58957500D01*
X127566428Y-59814642D02*
X127423571Y-59886071D01*
X127066428Y-59886071D01*
X126923571Y-59814642D01*
X126852142Y-59671785D01*
X126852142Y-59528928D01*
X126923571Y-59386071D01*
X127066428Y-59314642D01*
X127423571Y-59314642D01*
X127566428Y-59243214D01*
X128280714Y-58886071D02*
X128280714Y-59886071D01*
X128280714Y-59028928D02*
X128352142Y-58957500D01*
X128495000Y-58886071D01*
X128709285Y-58886071D01*
X128852142Y-58957500D01*
X128923571Y-59100357D01*
X128923571Y-59886071D01*
X130280714Y-59814642D02*
X130137857Y-59886071D01*
X129852142Y-59886071D01*
X129709285Y-59814642D01*
X129637857Y-59743214D01*
X129566428Y-59600357D01*
X129566428Y-59171785D01*
X129637857Y-59028928D01*
X129709285Y-58957500D01*
X129852142Y-58886071D01*
X130137857Y-58886071D01*
X130280714Y-58957500D01*
X131495000Y-59814642D02*
X131352142Y-59886071D01*
X131066428Y-59886071D01*
X130923571Y-59814642D01*
X130852142Y-59671785D01*
X130852142Y-59100357D01*
X130923571Y-58957500D01*
X131066428Y-58886071D01*
X131352142Y-58886071D01*
X131495000Y-58957500D01*
X131566428Y-59100357D01*
X131566428Y-59243214D01*
X130852142Y-59386071D01*
X64566428Y-62301071D02*
X64423571Y-62229642D01*
X64352142Y-62158214D01*
X64280714Y-62015357D01*
X64280714Y-61586785D01*
X64352142Y-61443928D01*
X64423571Y-61372500D01*
X64566428Y-61301071D01*
X64780714Y-61301071D01*
X64923571Y-61372500D01*
X64995000Y-61443928D01*
X65066428Y-61586785D01*
X65066428Y-62015357D01*
X64995000Y-62158214D01*
X64923571Y-62229642D01*
X64780714Y-62301071D01*
X64566428Y-62301071D01*
X65495000Y-61301071D02*
X66066428Y-61301071D01*
X65709285Y-62301071D02*
X65709285Y-61015357D01*
X65780714Y-60872500D01*
X65923571Y-60801071D01*
X66066428Y-60801071D01*
X68495000Y-62301071D02*
X67637857Y-62301071D01*
X68066428Y-62301071D02*
X68066428Y-60801071D01*
X67923571Y-61015357D01*
X67780714Y-61158214D01*
X67637857Y-61229642D01*
X69423571Y-60801071D02*
X69566428Y-60801071D01*
X69709285Y-60872500D01*
X69780714Y-60943928D01*
X69852142Y-61086785D01*
X69923571Y-61372500D01*
X69923571Y-61729642D01*
X69852142Y-62015357D01*
X69780714Y-62158214D01*
X69709285Y-62229642D01*
X69566428Y-62301071D01*
X69423571Y-62301071D01*
X69280714Y-62229642D01*
X69209285Y-62158214D01*
X69137857Y-62015357D01*
X69066428Y-61729642D01*
X69066428Y-61372500D01*
X69137857Y-61086785D01*
X69209285Y-60943928D01*
X69280714Y-60872500D01*
X69423571Y-60801071D01*
X71709285Y-62301071D02*
X71709285Y-61301071D01*
X71709285Y-61443928D02*
X71780714Y-61372500D01*
X71923571Y-61301071D01*
X72137857Y-61301071D01*
X72280714Y-61372500D01*
X72352142Y-61515357D01*
X72352142Y-62301071D01*
X72352142Y-61515357D02*
X72423571Y-61372500D01*
X72566428Y-61301071D01*
X72780714Y-61301071D01*
X72923571Y-61372500D01*
X72995000Y-61515357D01*
X72995000Y-62301071D01*
X73709285Y-62301071D02*
X73709285Y-61301071D01*
X73709285Y-61443928D02*
X73780714Y-61372500D01*
X73923571Y-61301071D01*
X74137857Y-61301071D01*
X74280714Y-61372500D01*
X74352142Y-61515357D01*
X74352142Y-62301071D01*
X74352142Y-61515357D02*
X74423571Y-61372500D01*
X74566428Y-61301071D01*
X74780714Y-61301071D01*
X74923571Y-61372500D01*
X74995000Y-61515357D01*
X74995000Y-62301071D01*
X76637857Y-61301071D02*
X77209285Y-61301071D01*
X76852142Y-62301071D02*
X76852142Y-61015357D01*
X76923571Y-60872500D01*
X77066428Y-60801071D01*
X77209285Y-60801071D01*
X77709285Y-62301071D02*
X77709285Y-61301071D01*
X77709285Y-61586785D02*
X77780714Y-61443928D01*
X77852142Y-61372500D01*
X77995000Y-61301071D01*
X78137857Y-61301071D01*
X78852142Y-62301071D02*
X78709285Y-62229642D01*
X78637857Y-62158214D01*
X78566428Y-62015357D01*
X78566428Y-61586785D01*
X78637857Y-61443928D01*
X78709285Y-61372500D01*
X78852142Y-61301071D01*
X79066428Y-61301071D01*
X79209285Y-61372500D01*
X79280714Y-61443928D01*
X79352142Y-61586785D01*
X79352142Y-62015357D01*
X79280714Y-62158214D01*
X79209285Y-62229642D01*
X79066428Y-62301071D01*
X78852142Y-62301071D01*
X79995000Y-62301071D02*
X79995000Y-61301071D01*
X79995000Y-61443928D02*
X80066428Y-61372500D01*
X80209285Y-61301071D01*
X80423571Y-61301071D01*
X80566428Y-61372500D01*
X80637857Y-61515357D01*
X80637857Y-62301071D01*
X80637857Y-61515357D02*
X80709285Y-61372500D01*
X80852142Y-61301071D01*
X81066428Y-61301071D01*
X81209285Y-61372500D01*
X81280714Y-61515357D01*
X81280714Y-62301071D01*
X82923571Y-61301071D02*
X83495000Y-61301071D01*
X83137857Y-60801071D02*
X83137857Y-62086785D01*
X83209285Y-62229642D01*
X83352142Y-62301071D01*
X83495000Y-62301071D01*
X83995000Y-62301071D02*
X83995000Y-60801071D01*
X84637857Y-62301071D02*
X84637857Y-61515357D01*
X84566428Y-61372500D01*
X84423571Y-61301071D01*
X84209285Y-61301071D01*
X84066428Y-61372500D01*
X83995000Y-61443928D01*
X85923571Y-62229642D02*
X85780714Y-62301071D01*
X85495000Y-62301071D01*
X85352142Y-62229642D01*
X85280714Y-62086785D01*
X85280714Y-61515357D01*
X85352142Y-61372500D01*
X85495000Y-61301071D01*
X85780714Y-61301071D01*
X85923571Y-61372500D01*
X85995000Y-61515357D01*
X85995000Y-61658214D01*
X85280714Y-61801071D01*
X88423571Y-61301071D02*
X88423571Y-62515357D01*
X88352142Y-62658214D01*
X88280714Y-62729642D01*
X88137857Y-62801071D01*
X87923571Y-62801071D01*
X87780714Y-62729642D01*
X88423571Y-62229642D02*
X88280714Y-62301071D01*
X87995000Y-62301071D01*
X87852142Y-62229642D01*
X87780714Y-62158214D01*
X87709285Y-62015357D01*
X87709285Y-61586785D01*
X87780714Y-61443928D01*
X87852142Y-61372500D01*
X87995000Y-61301071D01*
X88280714Y-61301071D01*
X88423571Y-61372500D01*
X89137857Y-62301071D02*
X89137857Y-61301071D01*
X89137857Y-61586785D02*
X89209285Y-61443928D01*
X89280714Y-61372500D01*
X89423571Y-61301071D01*
X89566428Y-61301071D01*
X90280714Y-62301071D02*
X90137857Y-62229642D01*
X90066428Y-62158214D01*
X89995000Y-62015357D01*
X89995000Y-61586785D01*
X90066428Y-61443928D01*
X90137857Y-61372500D01*
X90280714Y-61301071D01*
X90495000Y-61301071D01*
X90637857Y-61372500D01*
X90709285Y-61443928D01*
X90780714Y-61586785D01*
X90780714Y-62015357D01*
X90709285Y-62158214D01*
X90637857Y-62229642D01*
X90495000Y-62301071D01*
X90280714Y-62301071D01*
X92066428Y-61301071D02*
X92066428Y-62301071D01*
X91423571Y-61301071D02*
X91423571Y-62086785D01*
X91495000Y-62229642D01*
X91637857Y-62301071D01*
X91852142Y-62301071D01*
X91995000Y-62229642D01*
X92066428Y-62158214D01*
X92780714Y-61301071D02*
X92780714Y-62301071D01*
X92780714Y-61443928D02*
X92852142Y-61372500D01*
X92995000Y-61301071D01*
X93209285Y-61301071D01*
X93352142Y-61372500D01*
X93423571Y-61515357D01*
X93423571Y-62301071D01*
X94780714Y-62301071D02*
X94780714Y-60801071D01*
X94780714Y-62229642D02*
X94637857Y-62301071D01*
X94352142Y-62301071D01*
X94209285Y-62229642D01*
X94137857Y-62158214D01*
X94066428Y-62015357D01*
X94066428Y-61586785D01*
X94137857Y-61443928D01*
X94209285Y-61372500D01*
X94352142Y-61301071D01*
X94637857Y-61301071D01*
X94780714Y-61372500D01*
X96637857Y-61301071D02*
X96637857Y-62801071D01*
X96637857Y-61372500D02*
X96780714Y-61301071D01*
X97066428Y-61301071D01*
X97209285Y-61372500D01*
X97280714Y-61443928D01*
X97352142Y-61586785D01*
X97352142Y-62015357D01*
X97280714Y-62158214D01*
X97209285Y-62229642D01*
X97066428Y-62301071D01*
X96780714Y-62301071D01*
X96637857Y-62229642D01*
X98209285Y-62301071D02*
X98066428Y-62229642D01*
X97995000Y-62086785D01*
X97995000Y-60801071D01*
X99423571Y-62301071D02*
X99423571Y-61515357D01*
X99352142Y-61372500D01*
X99209285Y-61301071D01*
X98923571Y-61301071D01*
X98780714Y-61372500D01*
X99423571Y-62229642D02*
X99280714Y-62301071D01*
X98923571Y-62301071D01*
X98780714Y-62229642D01*
X98709285Y-62086785D01*
X98709285Y-61943928D01*
X98780714Y-61801071D01*
X98923571Y-61729642D01*
X99280714Y-61729642D01*
X99423571Y-61658214D01*
X100137857Y-61301071D02*
X100137857Y-62301071D01*
X100137857Y-61443928D02*
X100209285Y-61372500D01*
X100352142Y-61301071D01*
X100566428Y-61301071D01*
X100709285Y-61372500D01*
X100780714Y-61515357D01*
X100780714Y-62301071D01*
X102066428Y-62229642D02*
X101923571Y-62301071D01*
X101637857Y-62301071D01*
X101495000Y-62229642D01*
X101423571Y-62086785D01*
X101423571Y-61515357D01*
X101495000Y-61372500D01*
X101637857Y-61301071D01*
X101923571Y-61301071D01*
X102066428Y-61372500D01*
X102137857Y-61515357D01*
X102137857Y-61658214D01*
X101423571Y-61801071D01*
X104137857Y-62301071D02*
X103995000Y-62229642D01*
X103923571Y-62158214D01*
X103852142Y-62015357D01*
X103852142Y-61586785D01*
X103923571Y-61443928D01*
X103995000Y-61372500D01*
X104137857Y-61301071D01*
X104352142Y-61301071D01*
X104495000Y-61372500D01*
X104566428Y-61443928D01*
X104637857Y-61586785D01*
X104637857Y-62015357D01*
X104566428Y-62158214D01*
X104495000Y-62229642D01*
X104352142Y-62301071D01*
X104137857Y-62301071D01*
X105066428Y-61301071D02*
X105637857Y-61301071D01*
X105280714Y-62301071D02*
X105280714Y-61015357D01*
X105352142Y-60872500D01*
X105495000Y-60801071D01*
X105637857Y-60801071D01*
X107066428Y-61301071D02*
X107637857Y-61301071D01*
X107280714Y-60801071D02*
X107280714Y-62086785D01*
X107352142Y-62229642D01*
X107495000Y-62301071D01*
X107637857Y-62301071D01*
X108137857Y-62301071D02*
X108137857Y-60801071D01*
X108780714Y-62301071D02*
X108780714Y-61515357D01*
X108709285Y-61372500D01*
X108566428Y-61301071D01*
X108352142Y-61301071D01*
X108209285Y-61372500D01*
X108137857Y-61443928D01*
X109495000Y-62301071D02*
X109495000Y-61301071D01*
X109495000Y-60801071D02*
X109423571Y-60872500D01*
X109495000Y-60943928D01*
X109566428Y-60872500D01*
X109495000Y-60801071D01*
X109495000Y-60943928D01*
X110137857Y-62229642D02*
X110280714Y-62301071D01*
X110566428Y-62301071D01*
X110709285Y-62229642D01*
X110780714Y-62086785D01*
X110780714Y-62015357D01*
X110709285Y-61872500D01*
X110566428Y-61801071D01*
X110352142Y-61801071D01*
X110209285Y-61729642D01*
X110137857Y-61586785D01*
X110137857Y-61515357D01*
X110209285Y-61372500D01*
X110352142Y-61301071D01*
X110566428Y-61301071D01*
X110709285Y-61372500D01*
X113280714Y-62301071D02*
X112566428Y-62301071D01*
X112566428Y-60801071D01*
X113780714Y-62301071D02*
X113780714Y-60801071D01*
X114637857Y-62301071D01*
X114637857Y-60801071D01*
X115280714Y-61872500D02*
X115995000Y-61872500D01*
X115137857Y-62301071D02*
X115637857Y-60801071D01*
X116137857Y-62301071D01*
X117780714Y-62301071D02*
X117780714Y-60801071D01*
X118352142Y-60801071D01*
X118495000Y-60872500D01*
X118566428Y-60943928D01*
X118637857Y-61086785D01*
X118637857Y-61301071D01*
X118566428Y-61443928D01*
X118495000Y-61515357D01*
X118352142Y-61586785D01*
X117780714Y-61586785D01*
X120137857Y-62158214D02*
X120066428Y-62229642D01*
X119852142Y-62301071D01*
X119709285Y-62301071D01*
X119495000Y-62229642D01*
X119352142Y-62086785D01*
X119280714Y-61943928D01*
X119209285Y-61658214D01*
X119209285Y-61443928D01*
X119280714Y-61158214D01*
X119352142Y-61015357D01*
X119495000Y-60872500D01*
X119709285Y-60801071D01*
X119852142Y-60801071D01*
X120066428Y-60872500D01*
X120137857Y-60943928D01*
X121280714Y-61515357D02*
X121495000Y-61586785D01*
X121566428Y-61658214D01*
X121637857Y-61801071D01*
X121637857Y-62015357D01*
X121566428Y-62158214D01*
X121495000Y-62229642D01*
X121352142Y-62301071D01*
X120780714Y-62301071D01*
X120780714Y-60801071D01*
X121280714Y-60801071D01*
X121423571Y-60872500D01*
X121495000Y-60943928D01*
X121566428Y-61086785D01*
X121566428Y-61229642D01*
X121495000Y-61372500D01*
X121423571Y-61443928D01*
X121280714Y-61515357D01*
X120780714Y-61515357D01*
X122280714Y-62158214D02*
X122352142Y-62229642D01*
X122280714Y-62301071D01*
X122209285Y-62229642D01*
X122280714Y-62158214D01*
X122280714Y-62301071D01*
D11*
X52415714Y-67176857D02*
X52415714Y-65976857D01*
X52872857Y-65976857D01*
X52987142Y-66034000D01*
X53044285Y-66091142D01*
X53101428Y-66205428D01*
X53101428Y-66376857D01*
X53044285Y-66491142D01*
X52987142Y-66548285D01*
X52872857Y-66605428D01*
X52415714Y-66605428D01*
X53787142Y-67176857D02*
X53672857Y-67119714D01*
X53615714Y-67005428D01*
X53615714Y-65976857D01*
X54701428Y-67119714D02*
X54587142Y-67176857D01*
X54358571Y-67176857D01*
X54244285Y-67119714D01*
X54187142Y-67005428D01*
X54187142Y-66548285D01*
X54244285Y-66434000D01*
X54358571Y-66376857D01*
X54587142Y-66376857D01*
X54701428Y-66434000D01*
X54758571Y-66548285D01*
X54758571Y-66662571D01*
X54187142Y-66776857D01*
X55787142Y-67176857D02*
X55787142Y-66548285D01*
X55730000Y-66434000D01*
X55615714Y-66376857D01*
X55387142Y-66376857D01*
X55272857Y-66434000D01*
X55787142Y-67119714D02*
X55672857Y-67176857D01*
X55387142Y-67176857D01*
X55272857Y-67119714D01*
X55215714Y-67005428D01*
X55215714Y-66891142D01*
X55272857Y-66776857D01*
X55387142Y-66719714D01*
X55672857Y-66719714D01*
X55787142Y-66662571D01*
X56301428Y-67119714D02*
X56415714Y-67176857D01*
X56644285Y-67176857D01*
X56758571Y-67119714D01*
X56815714Y-67005428D01*
X56815714Y-66948285D01*
X56758571Y-66834000D01*
X56644285Y-66776857D01*
X56472857Y-66776857D01*
X56358571Y-66719714D01*
X56301428Y-66605428D01*
X56301428Y-66548285D01*
X56358571Y-66434000D01*
X56472857Y-66376857D01*
X56644285Y-66376857D01*
X56758571Y-66434000D01*
X57787142Y-67119714D02*
X57672857Y-67176857D01*
X57444285Y-67176857D01*
X57330000Y-67119714D01*
X57272857Y-67005428D01*
X57272857Y-66548285D01*
X57330000Y-66434000D01*
X57444285Y-66376857D01*
X57672857Y-66376857D01*
X57787142Y-66434000D01*
X57844285Y-66548285D01*
X57844285Y-66662571D01*
X57272857Y-66776857D01*
X59787142Y-67119714D02*
X59672857Y-67176857D01*
X59444285Y-67176857D01*
X59330000Y-67119714D01*
X59272857Y-67062571D01*
X59215714Y-66948285D01*
X59215714Y-66605428D01*
X59272857Y-66491142D01*
X59330000Y-66434000D01*
X59444285Y-66376857D01*
X59672857Y-66376857D01*
X59787142Y-66434000D01*
X60301428Y-67176857D02*
X60301428Y-65976857D01*
X60815714Y-67176857D02*
X60815714Y-66548285D01*
X60758571Y-66434000D01*
X60644285Y-66376857D01*
X60472857Y-66376857D01*
X60358571Y-66434000D01*
X60301428Y-66491142D01*
X61844285Y-67119714D02*
X61730000Y-67176857D01*
X61501428Y-67176857D01*
X61387142Y-67119714D01*
X61330000Y-67005428D01*
X61330000Y-66548285D01*
X61387142Y-66434000D01*
X61501428Y-66376857D01*
X61730000Y-66376857D01*
X61844285Y-66434000D01*
X61901428Y-66548285D01*
X61901428Y-66662571D01*
X61330000Y-66776857D01*
X62930000Y-67119714D02*
X62815714Y-67176857D01*
X62587142Y-67176857D01*
X62472857Y-67119714D01*
X62415714Y-67062571D01*
X62358571Y-66948285D01*
X62358571Y-66605428D01*
X62415714Y-66491142D01*
X62472857Y-66434000D01*
X62587142Y-66376857D01*
X62815714Y-66376857D01*
X62930000Y-66434000D01*
X63444285Y-67176857D02*
X63444285Y-65976857D01*
X63558571Y-66719714D02*
X63901428Y-67176857D01*
X63901428Y-66376857D02*
X63444285Y-66834000D01*
X65501428Y-67176857D02*
X65387142Y-67119714D01*
X65330000Y-67062571D01*
X65272857Y-66948285D01*
X65272857Y-66605428D01*
X65330000Y-66491142D01*
X65387142Y-66434000D01*
X65501428Y-66376857D01*
X65672857Y-66376857D01*
X65787142Y-66434000D01*
X65844285Y-66491142D01*
X65901428Y-66605428D01*
X65901428Y-66948285D01*
X65844285Y-67062571D01*
X65787142Y-67119714D01*
X65672857Y-67176857D01*
X65501428Y-67176857D01*
X66930000Y-66376857D02*
X66930000Y-67176857D01*
X66415714Y-66376857D02*
X66415714Y-67005428D01*
X66472857Y-67119714D01*
X66587142Y-67176857D01*
X66758571Y-67176857D01*
X66872857Y-67119714D01*
X66930000Y-67062571D01*
X67330000Y-66376857D02*
X67787142Y-66376857D01*
X67501428Y-65976857D02*
X67501428Y-67005428D01*
X67558571Y-67119714D01*
X67672857Y-67176857D01*
X67787142Y-67176857D01*
X68930000Y-66376857D02*
X69387142Y-66376857D01*
X69101428Y-65976857D02*
X69101428Y-67005428D01*
X69158571Y-67119714D01*
X69272857Y-67176857D01*
X69387142Y-67176857D01*
X69787142Y-67176857D02*
X69787142Y-65976857D01*
X70301428Y-67176857D02*
X70301428Y-66548285D01*
X70244285Y-66434000D01*
X70130000Y-66376857D01*
X69958571Y-66376857D01*
X69844285Y-66434000D01*
X69787142Y-66491142D01*
X71330000Y-67119714D02*
X71215714Y-67176857D01*
X70987142Y-67176857D01*
X70872857Y-67119714D01*
X70815714Y-67005428D01*
X70815714Y-66548285D01*
X70872857Y-66434000D01*
X70987142Y-66376857D01*
X71215714Y-66376857D01*
X71330000Y-66434000D01*
X71387142Y-66548285D01*
X71387142Y-66662571D01*
X70815714Y-66776857D01*
X73444285Y-66034000D02*
X73330000Y-65976857D01*
X73158571Y-65976857D01*
X72987142Y-66034000D01*
X72872857Y-66148285D01*
X72815714Y-66262571D01*
X72758571Y-66491142D01*
X72758571Y-66662571D01*
X72815714Y-66891142D01*
X72872857Y-67005428D01*
X72987142Y-67119714D01*
X73158571Y-67176857D01*
X73272857Y-67176857D01*
X73444285Y-67119714D01*
X73501428Y-67062571D01*
X73501428Y-66662571D01*
X73272857Y-66662571D01*
X74015714Y-67176857D02*
X74015714Y-66376857D01*
X74015714Y-65976857D02*
X73958571Y-66034000D01*
X74015714Y-66091142D01*
X74072857Y-66034000D01*
X74015714Y-65976857D01*
X74015714Y-66091142D01*
X74415714Y-66376857D02*
X74872857Y-66376857D01*
X74587142Y-65976857D02*
X74587142Y-67005428D01*
X74644285Y-67119714D01*
X74758571Y-67176857D01*
X74872857Y-67176857D01*
X75272857Y-67176857D02*
X75272857Y-65976857D01*
X75272857Y-66548285D02*
X75958571Y-66548285D01*
X75958571Y-67176857D02*
X75958571Y-65976857D01*
X77044285Y-66376857D02*
X77044285Y-67176857D01*
X76530000Y-66376857D02*
X76530000Y-67005428D01*
X76587142Y-67119714D01*
X76701428Y-67176857D01*
X76872857Y-67176857D01*
X76987142Y-67119714D01*
X77044285Y-67062571D01*
X77615714Y-67176857D02*
X77615714Y-65976857D01*
X77615714Y-66434000D02*
X77730000Y-66376857D01*
X77958571Y-66376857D01*
X78072857Y-66434000D01*
X78130000Y-66491142D01*
X78187142Y-66605428D01*
X78187142Y-66948285D01*
X78130000Y-67062571D01*
X78072857Y-67119714D01*
X77958571Y-67176857D01*
X77730000Y-67176857D01*
X77615714Y-67119714D01*
X79615714Y-67176857D02*
X79615714Y-66376857D01*
X79615714Y-66605428D02*
X79672857Y-66491142D01*
X79730000Y-66434000D01*
X79844285Y-66376857D01*
X79958571Y-66376857D01*
X80815714Y-67119714D02*
X80701428Y-67176857D01*
X80472857Y-67176857D01*
X80358571Y-67119714D01*
X80301428Y-67005428D01*
X80301428Y-66548285D01*
X80358571Y-66434000D01*
X80472857Y-66376857D01*
X80701428Y-66376857D01*
X80815714Y-66434000D01*
X80872857Y-66548285D01*
X80872857Y-66662571D01*
X80301428Y-66776857D01*
X81387142Y-66376857D02*
X81387142Y-67576857D01*
X81387142Y-66434000D02*
X81501428Y-66376857D01*
X81730000Y-66376857D01*
X81844285Y-66434000D01*
X81901428Y-66491142D01*
X81958571Y-66605428D01*
X81958571Y-66948285D01*
X81901428Y-67062571D01*
X81844285Y-67119714D01*
X81730000Y-67176857D01*
X81501428Y-67176857D01*
X81387142Y-67119714D01*
X82644285Y-67176857D02*
X82530000Y-67119714D01*
X82472857Y-67062571D01*
X82415714Y-66948285D01*
X82415714Y-66605428D01*
X82472857Y-66491142D01*
X82530000Y-66434000D01*
X82644285Y-66376857D01*
X82815714Y-66376857D01*
X82930000Y-66434000D01*
X82987142Y-66491142D01*
X83044285Y-66605428D01*
X83044285Y-66948285D01*
X82987142Y-67062571D01*
X82930000Y-67119714D01*
X82815714Y-67176857D01*
X82644285Y-67176857D01*
X83501428Y-67119714D02*
X83615714Y-67176857D01*
X83844285Y-67176857D01*
X83958571Y-67119714D01*
X84015714Y-67005428D01*
X84015714Y-66948285D01*
X83958571Y-66834000D01*
X83844285Y-66776857D01*
X83672857Y-66776857D01*
X83558571Y-66719714D01*
X83501428Y-66605428D01*
X83501428Y-66548285D01*
X83558571Y-66434000D01*
X83672857Y-66376857D01*
X83844285Y-66376857D01*
X83958571Y-66434000D01*
X84530000Y-67176857D02*
X84530000Y-66376857D01*
X84530000Y-65976857D02*
X84472857Y-66034000D01*
X84530000Y-66091142D01*
X84587142Y-66034000D01*
X84530000Y-65976857D01*
X84530000Y-66091142D01*
X84930000Y-66376857D02*
X85387142Y-66376857D01*
X85101428Y-65976857D02*
X85101428Y-67005428D01*
X85158571Y-67119714D01*
X85272857Y-67176857D01*
X85387142Y-67176857D01*
X85958571Y-67176857D02*
X85844285Y-67119714D01*
X85787142Y-67062571D01*
X85730000Y-66948285D01*
X85730000Y-66605428D01*
X85787142Y-66491142D01*
X85844285Y-66434000D01*
X85958571Y-66376857D01*
X86130000Y-66376857D01*
X86244285Y-66434000D01*
X86301428Y-66491142D01*
X86358571Y-66605428D01*
X86358571Y-66948285D01*
X86301428Y-67062571D01*
X86244285Y-67119714D01*
X86130000Y-67176857D01*
X85958571Y-67176857D01*
X86872857Y-67176857D02*
X86872857Y-66376857D01*
X86872857Y-66605428D02*
X86930000Y-66491142D01*
X86987142Y-66434000D01*
X87101428Y-66376857D01*
X87215714Y-66376857D01*
X87501428Y-66376857D02*
X87787142Y-67176857D01*
X88072857Y-66376857D02*
X87787142Y-67176857D01*
X87672857Y-67462571D01*
X87615714Y-67519714D01*
X87501428Y-67576857D01*
X89272857Y-66376857D02*
X89730000Y-66376857D01*
X89444285Y-67176857D02*
X89444285Y-66148285D01*
X89501428Y-66034000D01*
X89615714Y-65976857D01*
X89730000Y-65976857D01*
X90301428Y-67176857D02*
X90187142Y-67119714D01*
X90130000Y-67062571D01*
X90072857Y-66948285D01*
X90072857Y-66605428D01*
X90130000Y-66491142D01*
X90187142Y-66434000D01*
X90301428Y-66376857D01*
X90472857Y-66376857D01*
X90587142Y-66434000D01*
X90644285Y-66491142D01*
X90701428Y-66605428D01*
X90701428Y-66948285D01*
X90644285Y-67062571D01*
X90587142Y-67119714D01*
X90472857Y-67176857D01*
X90301428Y-67176857D01*
X91215714Y-67176857D02*
X91215714Y-66376857D01*
X91215714Y-66605428D02*
X91272857Y-66491142D01*
X91330000Y-66434000D01*
X91444285Y-66376857D01*
X91558571Y-66376857D01*
X92872857Y-67176857D02*
X92872857Y-66376857D01*
X92872857Y-66491142D02*
X92930000Y-66434000D01*
X93044285Y-66376857D01*
X93215714Y-66376857D01*
X93330000Y-66434000D01*
X93387142Y-66548285D01*
X93387142Y-67176857D01*
X93387142Y-66548285D02*
X93444285Y-66434000D01*
X93558571Y-66376857D01*
X93730000Y-66376857D01*
X93844285Y-66434000D01*
X93901428Y-66548285D01*
X93901428Y-67176857D01*
X94644285Y-67176857D02*
X94530000Y-67119714D01*
X94472857Y-67062571D01*
X94415714Y-66948285D01*
X94415714Y-66605428D01*
X94472857Y-66491142D01*
X94530000Y-66434000D01*
X94644285Y-66376857D01*
X94815714Y-66376857D01*
X94930000Y-66434000D01*
X94987142Y-66491142D01*
X95044285Y-66605428D01*
X95044285Y-66948285D01*
X94987142Y-67062571D01*
X94930000Y-67119714D01*
X94815714Y-67176857D01*
X94644285Y-67176857D01*
X95558571Y-67176857D02*
X95558571Y-66376857D01*
X95558571Y-66605428D02*
X95615714Y-66491142D01*
X95672857Y-66434000D01*
X95787142Y-66376857D01*
X95901428Y-66376857D01*
X96758571Y-67119714D02*
X96644285Y-67176857D01*
X96415714Y-67176857D01*
X96301428Y-67119714D01*
X96244285Y-67005428D01*
X96244285Y-66548285D01*
X96301428Y-66434000D01*
X96415714Y-66376857D01*
X96644285Y-66376857D01*
X96758571Y-66434000D01*
X96815714Y-66548285D01*
X96815714Y-66662571D01*
X96244285Y-66776857D01*
X98758571Y-67176857D02*
X98758571Y-65976857D01*
X98758571Y-67119714D02*
X98644285Y-67176857D01*
X98415714Y-67176857D01*
X98301428Y-67119714D01*
X98244285Y-67062571D01*
X98187142Y-66948285D01*
X98187142Y-66605428D01*
X98244285Y-66491142D01*
X98301428Y-66434000D01*
X98415714Y-66376857D01*
X98644285Y-66376857D01*
X98758571Y-66434000D01*
X99787142Y-67119714D02*
X99672857Y-67176857D01*
X99444285Y-67176857D01*
X99330000Y-67119714D01*
X99272857Y-67005428D01*
X99272857Y-66548285D01*
X99330000Y-66434000D01*
X99444285Y-66376857D01*
X99672857Y-66376857D01*
X99787142Y-66434000D01*
X99844285Y-66548285D01*
X99844285Y-66662571D01*
X99272857Y-66776857D01*
X100187142Y-66376857D02*
X100644285Y-66376857D01*
X100358571Y-65976857D02*
X100358571Y-67005428D01*
X100415714Y-67119714D01*
X100530000Y-67176857D01*
X100644285Y-67176857D01*
X101558571Y-67176857D02*
X101558571Y-66548285D01*
X101501428Y-66434000D01*
X101387142Y-66376857D01*
X101158571Y-66376857D01*
X101044285Y-66434000D01*
X101558571Y-67119714D02*
X101444285Y-67176857D01*
X101158571Y-67176857D01*
X101044285Y-67119714D01*
X100987142Y-67005428D01*
X100987142Y-66891142D01*
X101044285Y-66776857D01*
X101158571Y-66719714D01*
X101444285Y-66719714D01*
X101558571Y-66662571D01*
X102130000Y-67176857D02*
X102130000Y-66376857D01*
X102130000Y-65976857D02*
X102072857Y-66034000D01*
X102130000Y-66091142D01*
X102187142Y-66034000D01*
X102130000Y-65976857D01*
X102130000Y-66091142D01*
X102872857Y-67176857D02*
X102758571Y-67119714D01*
X102701428Y-67005428D01*
X102701428Y-65976857D01*
X103272857Y-67119714D02*
X103387142Y-67176857D01*
X103615714Y-67176857D01*
X103730000Y-67119714D01*
X103787142Y-67005428D01*
X103787142Y-66948285D01*
X103730000Y-66834000D01*
X103615714Y-66776857D01*
X103444285Y-66776857D01*
X103330000Y-66719714D01*
X103272857Y-66605428D01*
X103272857Y-66548285D01*
X103330000Y-66434000D01*
X103444285Y-66376857D01*
X103615714Y-66376857D01*
X103730000Y-66434000D01*
X104301428Y-67062571D02*
X104358571Y-67119714D01*
X104301428Y-67176857D01*
X104244285Y-67119714D01*
X104301428Y-67062571D01*
X104301428Y-67176857D01*
X104301428Y-66434000D02*
X104358571Y-66491142D01*
X104301428Y-66548285D01*
X104244285Y-66491142D01*
X104301428Y-66434000D01*
X104301428Y-66548285D01*
X52415714Y-69108857D02*
X52415714Y-67908857D01*
X52930000Y-69108857D02*
X52930000Y-68480285D01*
X52872857Y-68366000D01*
X52758571Y-68308857D01*
X52587142Y-68308857D01*
X52472857Y-68366000D01*
X52415714Y-68423142D01*
X53330000Y-68308857D02*
X53787142Y-68308857D01*
X53501428Y-67908857D02*
X53501428Y-68937428D01*
X53558571Y-69051714D01*
X53672857Y-69108857D01*
X53787142Y-69108857D01*
X54015714Y-68308857D02*
X54472857Y-68308857D01*
X54187142Y-67908857D02*
X54187142Y-68937428D01*
X54244285Y-69051714D01*
X54358571Y-69108857D01*
X54472857Y-69108857D01*
X54872857Y-68308857D02*
X54872857Y-69508857D01*
X54872857Y-68366000D02*
X54987142Y-68308857D01*
X55215714Y-68308857D01*
X55330000Y-68366000D01*
X55387142Y-68423142D01*
X55444285Y-68537428D01*
X55444285Y-68880285D01*
X55387142Y-68994571D01*
X55330000Y-69051714D01*
X55215714Y-69108857D01*
X54987142Y-69108857D01*
X54872857Y-69051714D01*
X55901428Y-69051714D02*
X56015714Y-69108857D01*
X56244285Y-69108857D01*
X56358571Y-69051714D01*
X56415714Y-68937428D01*
X56415714Y-68880285D01*
X56358571Y-68766000D01*
X56244285Y-68708857D01*
X56072857Y-68708857D01*
X55958571Y-68651714D01*
X55901428Y-68537428D01*
X55901428Y-68480285D01*
X55958571Y-68366000D01*
X56072857Y-68308857D01*
X56244285Y-68308857D01*
X56358571Y-68366000D01*
X56930000Y-68994571D02*
X56987142Y-69051714D01*
X56930000Y-69108857D01*
X56872857Y-69051714D01*
X56930000Y-68994571D01*
X56930000Y-69108857D01*
X56930000Y-68366000D02*
X56987142Y-68423142D01*
X56930000Y-68480285D01*
X56872857Y-68423142D01*
X56930000Y-68366000D01*
X56930000Y-68480285D01*
X58358571Y-67851714D02*
X57330000Y-69394571D01*
X59615714Y-67851714D02*
X58587142Y-69394571D01*
X60530000Y-68308857D02*
X60530000Y-69280285D01*
X60472857Y-69394571D01*
X60415714Y-69451714D01*
X60301428Y-69508857D01*
X60130000Y-69508857D01*
X60015714Y-69451714D01*
X60530000Y-69051714D02*
X60415714Y-69108857D01*
X60187142Y-69108857D01*
X60072857Y-69051714D01*
X60015714Y-68994571D01*
X59958571Y-68880285D01*
X59958571Y-68537428D01*
X60015714Y-68423142D01*
X60072857Y-68366000D01*
X60187142Y-68308857D01*
X60415714Y-68308857D01*
X60530000Y-68366000D01*
X61101428Y-69108857D02*
X61101428Y-68308857D01*
X61101428Y-67908857D02*
X61044285Y-67966000D01*
X61101428Y-68023142D01*
X61158571Y-67966000D01*
X61101428Y-67908857D01*
X61101428Y-68023142D01*
X61501428Y-68308857D02*
X61958571Y-68308857D01*
X61672857Y-67908857D02*
X61672857Y-68937428D01*
X61730000Y-69051714D01*
X61844285Y-69108857D01*
X61958571Y-69108857D01*
X62358571Y-69108857D02*
X62358571Y-67908857D01*
X62872857Y-69108857D02*
X62872857Y-68480285D01*
X62815714Y-68366000D01*
X62701428Y-68308857D01*
X62530000Y-68308857D01*
X62415714Y-68366000D01*
X62358571Y-68423142D01*
X63958571Y-68308857D02*
X63958571Y-69108857D01*
X63444285Y-68308857D02*
X63444285Y-68937428D01*
X63501428Y-69051714D01*
X63615714Y-69108857D01*
X63787142Y-69108857D01*
X63901428Y-69051714D01*
X63958571Y-68994571D01*
X64530000Y-69108857D02*
X64530000Y-67908857D01*
X64530000Y-68366000D02*
X64644285Y-68308857D01*
X64872857Y-68308857D01*
X64987142Y-68366000D01*
X65044285Y-68423142D01*
X65101428Y-68537428D01*
X65101428Y-68880285D01*
X65044285Y-68994571D01*
X64987142Y-69051714D01*
X64872857Y-69108857D01*
X64644285Y-69108857D01*
X64530000Y-69051714D01*
X65615714Y-68994571D02*
X65672857Y-69051714D01*
X65615714Y-69108857D01*
X65558571Y-69051714D01*
X65615714Y-68994571D01*
X65615714Y-69108857D01*
X66701428Y-69051714D02*
X66587142Y-69108857D01*
X66358571Y-69108857D01*
X66244285Y-69051714D01*
X66187142Y-68994571D01*
X66130000Y-68880285D01*
X66130000Y-68537428D01*
X66187142Y-68423142D01*
X66244285Y-68366000D01*
X66358571Y-68308857D01*
X66587142Y-68308857D01*
X66701428Y-68366000D01*
X67387142Y-69108857D02*
X67272857Y-69051714D01*
X67215714Y-68994571D01*
X67158571Y-68880285D01*
X67158571Y-68537428D01*
X67215714Y-68423142D01*
X67272857Y-68366000D01*
X67387142Y-68308857D01*
X67558571Y-68308857D01*
X67672857Y-68366000D01*
X67730000Y-68423142D01*
X67787142Y-68537428D01*
X67787142Y-68880285D01*
X67730000Y-68994571D01*
X67672857Y-69051714D01*
X67558571Y-69108857D01*
X67387142Y-69108857D01*
X68301428Y-69108857D02*
X68301428Y-68308857D01*
X68301428Y-68423142D02*
X68358571Y-68366000D01*
X68472857Y-68308857D01*
X68644285Y-68308857D01*
X68758571Y-68366000D01*
X68815714Y-68480285D01*
X68815714Y-69108857D01*
X68815714Y-68480285D02*
X68872857Y-68366000D01*
X68987142Y-68308857D01*
X69158571Y-68308857D01*
X69272857Y-68366000D01*
X69330000Y-68480285D01*
X69330000Y-69108857D01*
X70758571Y-67851714D02*
X69730000Y-69394571D01*
X70987142Y-68308857D02*
X71444285Y-68308857D01*
X71158571Y-67908857D02*
X71158571Y-68937428D01*
X71215714Y-69051714D01*
X71330000Y-69108857D01*
X71444285Y-69108857D01*
X71844285Y-69108857D02*
X71844285Y-67908857D01*
X72358571Y-69108857D02*
X72358571Y-68480285D01*
X72301428Y-68366000D01*
X72187142Y-68308857D01*
X72015714Y-68308857D01*
X71901428Y-68366000D01*
X71844285Y-68423142D01*
X73387142Y-69051714D02*
X73272857Y-69108857D01*
X73044285Y-69108857D01*
X72930000Y-69051714D01*
X72872857Y-68937428D01*
X72872857Y-68480285D01*
X72930000Y-68366000D01*
X73044285Y-68308857D01*
X73272857Y-68308857D01*
X73387142Y-68366000D01*
X73444285Y-68480285D01*
X73444285Y-68594571D01*
X72872857Y-68708857D01*
X74472857Y-69108857D02*
X74472857Y-68480285D01*
X74415714Y-68366000D01*
X74301428Y-68308857D01*
X74072857Y-68308857D01*
X73958571Y-68366000D01*
X74472857Y-69051714D02*
X74358571Y-69108857D01*
X74072857Y-69108857D01*
X73958571Y-69051714D01*
X73901428Y-68937428D01*
X73901428Y-68823142D01*
X73958571Y-68708857D01*
X74072857Y-68651714D01*
X74358571Y-68651714D01*
X74472857Y-68594571D01*
X75044285Y-68308857D02*
X75044285Y-69108857D01*
X75044285Y-68423142D02*
X75101428Y-68366000D01*
X75215714Y-68308857D01*
X75387142Y-68308857D01*
X75501428Y-68366000D01*
X75558571Y-68480285D01*
X75558571Y-69108857D01*
X75958571Y-68308857D02*
X76415714Y-68308857D01*
X76130000Y-67908857D02*
X76130000Y-68937428D01*
X76187142Y-69051714D01*
X76301428Y-69108857D01*
X76415714Y-69108857D01*
X77272857Y-69051714D02*
X77158571Y-69108857D01*
X76930000Y-69108857D01*
X76815714Y-69051714D01*
X76758571Y-68937428D01*
X76758571Y-68480285D01*
X76815714Y-68366000D01*
X76930000Y-68308857D01*
X77158571Y-68308857D01*
X77272857Y-68366000D01*
X77330000Y-68480285D01*
X77330000Y-68594571D01*
X76758571Y-68708857D01*
X77844285Y-68308857D02*
X77844285Y-69108857D01*
X77844285Y-68423142D02*
X77901428Y-68366000D01*
X78015714Y-68308857D01*
X78187142Y-68308857D01*
X78301428Y-68366000D01*
X78358571Y-68480285D01*
X78358571Y-69108857D01*
X78930000Y-68308857D02*
X78930000Y-69108857D01*
X78930000Y-68423142D02*
X78987142Y-68366000D01*
X79101428Y-68308857D01*
X79272857Y-68308857D01*
X79387142Y-68366000D01*
X79444285Y-68480285D01*
X79444285Y-69108857D01*
X80530000Y-69108857D02*
X80530000Y-68480285D01*
X80472857Y-68366000D01*
X80358571Y-68308857D01*
X80130000Y-68308857D01*
X80015714Y-68366000D01*
X80530000Y-69051714D02*
X80415714Y-69108857D01*
X80130000Y-69108857D01*
X80015714Y-69051714D01*
X79958571Y-68937428D01*
X79958571Y-68823142D01*
X80015714Y-68708857D01*
X80130000Y-68651714D01*
X80415714Y-68651714D01*
X80530000Y-68594571D01*
X81615714Y-68308857D02*
X81615714Y-69280285D01*
X81558571Y-69394571D01*
X81501428Y-69451714D01*
X81387142Y-69508857D01*
X81215714Y-69508857D01*
X81101428Y-69451714D01*
X81615714Y-69051714D02*
X81501428Y-69108857D01*
X81272857Y-69108857D01*
X81158571Y-69051714D01*
X81101428Y-68994571D01*
X81044285Y-68880285D01*
X81044285Y-68537428D01*
X81101428Y-68423142D01*
X81158571Y-68366000D01*
X81272857Y-68308857D01*
X81501428Y-68308857D01*
X81615714Y-68366000D01*
X82701428Y-68308857D02*
X82701428Y-69108857D01*
X82187142Y-68308857D02*
X82187142Y-68937428D01*
X82244285Y-69051714D01*
X82358571Y-69108857D01*
X82530000Y-69108857D01*
X82644285Y-69051714D01*
X82701428Y-68994571D01*
X83158571Y-68308857D02*
X83444285Y-69108857D01*
X83730000Y-68308857D02*
X83444285Y-69108857D01*
X83330000Y-69394571D01*
X83272857Y-69451714D01*
X83158571Y-69508857D01*
X85044285Y-67851714D02*
X84015714Y-69394571D01*
X85958571Y-69108857D02*
X85958571Y-68480285D01*
X85901428Y-68366000D01*
X85787142Y-68308857D01*
X85558571Y-68308857D01*
X85444285Y-68366000D01*
X85958571Y-69051714D02*
X85844285Y-69108857D01*
X85558571Y-69108857D01*
X85444285Y-69051714D01*
X85387142Y-68937428D01*
X85387142Y-68823142D01*
X85444285Y-68708857D01*
X85558571Y-68651714D01*
X85844285Y-68651714D01*
X85958571Y-68594571D01*
X86530000Y-68308857D02*
X86530000Y-69108857D01*
X86530000Y-68423142D02*
X86587142Y-68366000D01*
X86701428Y-68308857D01*
X86872857Y-68308857D01*
X86987142Y-68366000D01*
X87044285Y-68480285D01*
X87044285Y-69108857D01*
X87444285Y-68308857D02*
X87901428Y-68308857D01*
X87615714Y-67908857D02*
X87615714Y-68937428D01*
X87672857Y-69051714D01*
X87787142Y-69108857D01*
X87901428Y-69108857D01*
X88758571Y-69051714D02*
X88644285Y-69108857D01*
X88415714Y-69108857D01*
X88301428Y-69051714D01*
X88244285Y-68937428D01*
X88244285Y-68480285D01*
X88301428Y-68366000D01*
X88415714Y-68308857D01*
X88644285Y-68308857D01*
X88758571Y-68366000D01*
X88815714Y-68480285D01*
X88815714Y-68594571D01*
X88244285Y-68708857D01*
X89330000Y-68308857D02*
X89330000Y-69108857D01*
X89330000Y-68423142D02*
X89387142Y-68366000D01*
X89501428Y-68308857D01*
X89672857Y-68308857D01*
X89787142Y-68366000D01*
X89844285Y-68480285D01*
X89844285Y-69108857D01*
X90415714Y-68308857D02*
X90415714Y-69108857D01*
X90415714Y-68423142D02*
X90472857Y-68366000D01*
X90587142Y-68308857D01*
X90758571Y-68308857D01*
X90872857Y-68366000D01*
X90930000Y-68480285D01*
X90930000Y-69108857D01*
X92015714Y-69108857D02*
X92015714Y-68480285D01*
X91958571Y-68366000D01*
X91844285Y-68308857D01*
X91615714Y-68308857D01*
X91501428Y-68366000D01*
X92015714Y-69051714D02*
X91901428Y-69108857D01*
X91615714Y-69108857D01*
X91501428Y-69051714D01*
X91444285Y-68937428D01*
X91444285Y-68823142D01*
X91501428Y-68708857D01*
X91615714Y-68651714D01*
X91901428Y-68651714D01*
X92015714Y-68594571D01*
X92587142Y-68651714D02*
X93501428Y-68651714D01*
X94072857Y-68308857D02*
X94072857Y-69508857D01*
X94072857Y-68366000D02*
X94187142Y-68308857D01*
X94415714Y-68308857D01*
X94530000Y-68366000D01*
X94587142Y-68423142D01*
X94644285Y-68537428D01*
X94644285Y-68880285D01*
X94587142Y-68994571D01*
X94530000Y-69051714D01*
X94415714Y-69108857D01*
X94187142Y-69108857D01*
X94072857Y-69051714D01*
X95158571Y-69108857D02*
X95158571Y-68308857D01*
X95158571Y-68537428D02*
X95215714Y-68423142D01*
X95272857Y-68366000D01*
X95387142Y-68308857D01*
X95501428Y-68308857D01*
X96072857Y-69108857D02*
X95958571Y-69051714D01*
X95901428Y-68994571D01*
X95844285Y-68880285D01*
X95844285Y-68537428D01*
X95901428Y-68423142D01*
X95958571Y-68366000D01*
X96072857Y-68308857D01*
X96244285Y-68308857D01*
X96358571Y-68366000D01*
X96415714Y-68423142D01*
X96472857Y-68537428D01*
X96472857Y-68880285D01*
X96415714Y-68994571D01*
X96358571Y-69051714D01*
X96244285Y-69108857D01*
X96072857Y-69108857D01*
X96987142Y-68308857D02*
X96987142Y-69337428D01*
X96930000Y-69451714D01*
X96815714Y-69508857D01*
X96758571Y-69508857D01*
X96987142Y-67908857D02*
X96930000Y-67966000D01*
X96987142Y-68023142D01*
X97044285Y-67966000D01*
X96987142Y-67908857D01*
X96987142Y-68023142D01*
X98015714Y-69051714D02*
X97901428Y-69108857D01*
X97672857Y-69108857D01*
X97558571Y-69051714D01*
X97501428Y-68937428D01*
X97501428Y-68480285D01*
X97558571Y-68366000D01*
X97672857Y-68308857D01*
X97901428Y-68308857D01*
X98015714Y-68366000D01*
X98072857Y-68480285D01*
X98072857Y-68594571D01*
X97501428Y-68708857D01*
X99101428Y-69051714D02*
X98987142Y-69108857D01*
X98758571Y-69108857D01*
X98644285Y-69051714D01*
X98587142Y-68994571D01*
X98530000Y-68880285D01*
X98530000Y-68537428D01*
X98587142Y-68423142D01*
X98644285Y-68366000D01*
X98758571Y-68308857D01*
X98987142Y-68308857D01*
X99101428Y-68366000D01*
X99444285Y-68308857D02*
X99901428Y-68308857D01*
X99615714Y-67908857D02*
X99615714Y-68937428D01*
X99672857Y-69051714D01*
X99787142Y-69108857D01*
X99901428Y-69108857D01*
X100244285Y-69051714D02*
X100358571Y-69108857D01*
X100587142Y-69108857D01*
X100701428Y-69051714D01*
X100758571Y-68937428D01*
X100758571Y-68880285D01*
X100701428Y-68766000D01*
X100587142Y-68708857D01*
X100415714Y-68708857D01*
X100301428Y-68651714D01*
X100244285Y-68537428D01*
X100244285Y-68480285D01*
X100301428Y-68366000D01*
X100415714Y-68308857D01*
X100587142Y-68308857D01*
X100701428Y-68366000D01*
X102130000Y-67851714D02*
X101101428Y-69394571D01*
X102358571Y-68308857D02*
X102815714Y-68308857D01*
X102530000Y-67908857D02*
X102530000Y-68937428D01*
X102587142Y-69051714D01*
X102701428Y-69108857D01*
X102815714Y-69108857D01*
X103215714Y-69108857D02*
X103215714Y-68308857D01*
X103215714Y-68537428D02*
X103272857Y-68423142D01*
X103330000Y-68366000D01*
X103444285Y-68308857D01*
X103558571Y-68308857D01*
X104415714Y-69051714D02*
X104301428Y-69108857D01*
X104072857Y-69108857D01*
X103958571Y-69051714D01*
X103901428Y-68937428D01*
X103901428Y-68480285D01*
X103958571Y-68366000D01*
X104072857Y-68308857D01*
X104301428Y-68308857D01*
X104415714Y-68366000D01*
X104472857Y-68480285D01*
X104472857Y-68594571D01*
X103901428Y-68708857D01*
X105444285Y-69051714D02*
X105329999Y-69108857D01*
X105101428Y-69108857D01*
X104987142Y-69051714D01*
X104929999Y-68937428D01*
X104929999Y-68480285D01*
X104987142Y-68366000D01*
X105101428Y-68308857D01*
X105329999Y-68308857D01*
X105444285Y-68366000D01*
X105501428Y-68480285D01*
X105501428Y-68594571D01*
X104929999Y-68708857D01*
X106872857Y-67851714D02*
X105844285Y-69394571D01*
X107272857Y-69108857D02*
X107272857Y-68308857D01*
X107272857Y-68423142D02*
X107329999Y-68366000D01*
X107444285Y-68308857D01*
X107615714Y-68308857D01*
X107729999Y-68366000D01*
X107787142Y-68480285D01*
X107787142Y-69108857D01*
X107787142Y-68480285D02*
X107844285Y-68366000D01*
X107958571Y-68308857D01*
X108129999Y-68308857D01*
X108244285Y-68366000D01*
X108301428Y-68480285D01*
X108301428Y-69108857D01*
X109387142Y-69108857D02*
X109387142Y-68480285D01*
X109329999Y-68366000D01*
X109215714Y-68308857D01*
X108987142Y-68308857D01*
X108872857Y-68366000D01*
X109387142Y-69051714D02*
X109272857Y-69108857D01*
X108987142Y-69108857D01*
X108872857Y-69051714D01*
X108815714Y-68937428D01*
X108815714Y-68823142D01*
X108872857Y-68708857D01*
X108987142Y-68651714D01*
X109272857Y-68651714D01*
X109387142Y-68594571D01*
X109958571Y-69108857D02*
X109958571Y-68308857D01*
X109958571Y-67908857D02*
X109901428Y-67966000D01*
X109958571Y-68023142D01*
X110015714Y-67966000D01*
X109958571Y-67908857D01*
X109958571Y-68023142D01*
X110529999Y-68308857D02*
X110529999Y-69108857D01*
X110529999Y-68423142D02*
X110587142Y-68366000D01*
X110701428Y-68308857D01*
X110872857Y-68308857D01*
X110987142Y-68366000D01*
X111044285Y-68480285D01*
X111044285Y-69108857D01*
X112472857Y-67851714D02*
X111444285Y-69394571D01*
X113501428Y-67966000D02*
X113387142Y-67908857D01*
X113215714Y-67908857D01*
X113044285Y-67966000D01*
X112929999Y-68080285D01*
X112872857Y-68194571D01*
X112815714Y-68423142D01*
X112815714Y-68594571D01*
X112872857Y-68823142D01*
X112929999Y-68937428D01*
X113044285Y-69051714D01*
X113215714Y-69108857D01*
X113329999Y-69108857D01*
X113501428Y-69051714D01*
X113558571Y-68994571D01*
X113558571Y-68594571D01*
X113329999Y-68594571D01*
X114072857Y-69108857D02*
X114072857Y-67908857D01*
X114758571Y-69108857D01*
X114758571Y-67908857D01*
X115272857Y-69051714D02*
X115444285Y-69108857D01*
X115729999Y-69108857D01*
X115844285Y-69051714D01*
X115901428Y-68994571D01*
X115958571Y-68880285D01*
X115958571Y-68766000D01*
X115901428Y-68651714D01*
X115844285Y-68594571D01*
X115729999Y-68537428D01*
X115501428Y-68480285D01*
X115387142Y-68423142D01*
X115329999Y-68366000D01*
X115272857Y-68251714D01*
X115272857Y-68137428D01*
X115329999Y-68023142D01*
X115387142Y-67966000D01*
X115501428Y-67908857D01*
X115787142Y-67908857D01*
X115958571Y-67966000D01*
X116415714Y-69051714D02*
X116587142Y-69108857D01*
X116872857Y-69108857D01*
X116987142Y-69051714D01*
X117044285Y-68994571D01*
X117101428Y-68880285D01*
X117101428Y-68766000D01*
X117044285Y-68651714D01*
X116987142Y-68594571D01*
X116872857Y-68537428D01*
X116644285Y-68480285D01*
X116529999Y-68423142D01*
X116472857Y-68366000D01*
X116415714Y-68251714D01*
X116415714Y-68137428D01*
X116472857Y-68023142D01*
X116529999Y-67966000D01*
X116644285Y-67908857D01*
X116929999Y-67908857D01*
X117101428Y-67966000D01*
X117329999Y-69223142D02*
X118244285Y-69223142D01*
X118529999Y-69108857D02*
X118529999Y-68308857D01*
X118529999Y-68423142D02*
X118587142Y-68366000D01*
X118701428Y-68308857D01*
X118872857Y-68308857D01*
X118987142Y-68366000D01*
X119044285Y-68480285D01*
X119044285Y-69108857D01*
X119044285Y-68480285D02*
X119101428Y-68366000D01*
X119215714Y-68308857D01*
X119387142Y-68308857D01*
X119501428Y-68366000D01*
X119558571Y-68480285D01*
X119558571Y-69108857D01*
X120129999Y-69108857D02*
X120129999Y-68308857D01*
X120129999Y-67908857D02*
X120072857Y-67966000D01*
X120129999Y-68023142D01*
X120187142Y-67966000D01*
X120129999Y-67908857D01*
X120129999Y-68023142D01*
X121215714Y-69051714D02*
X121101428Y-69108857D01*
X120872857Y-69108857D01*
X120758571Y-69051714D01*
X120701428Y-68994571D01*
X120644285Y-68880285D01*
X120644285Y-68537428D01*
X120701428Y-68423142D01*
X120758571Y-68366000D01*
X120872857Y-68308857D01*
X121101428Y-68308857D01*
X121215714Y-68366000D01*
X121729999Y-69108857D02*
X121729999Y-68308857D01*
X121729999Y-68537428D02*
X121787142Y-68423142D01*
X121844285Y-68366000D01*
X121958571Y-68308857D01*
X122072857Y-68308857D01*
X122644285Y-69108857D02*
X122530000Y-69051714D01*
X122472857Y-68994571D01*
X122415714Y-68880285D01*
X122415714Y-68537428D01*
X122472857Y-68423142D01*
X122530000Y-68366000D01*
X122644285Y-68308857D01*
X122815714Y-68308857D01*
X122930000Y-68366000D01*
X122987142Y-68423142D01*
X123044285Y-68537428D01*
X123044285Y-68880285D01*
X122987142Y-68994571D01*
X122930000Y-69051714D01*
X122815714Y-69108857D01*
X122644285Y-69108857D01*
X123501428Y-69051714D02*
X123615714Y-69108857D01*
X123844285Y-69108857D01*
X123958571Y-69051714D01*
X124015714Y-68937428D01*
X124015714Y-68880285D01*
X123958571Y-68766000D01*
X123844285Y-68708857D01*
X123672857Y-68708857D01*
X123558571Y-68651714D01*
X123501428Y-68537428D01*
X123501428Y-68480285D01*
X123558571Y-68366000D01*
X123672857Y-68308857D01*
X123844285Y-68308857D01*
X123958571Y-68366000D01*
X124358571Y-68308857D02*
X124815714Y-68308857D01*
X124529999Y-67908857D02*
X124529999Y-68937428D01*
X124587142Y-69051714D01*
X124701428Y-69108857D01*
X124815714Y-69108857D01*
X125215714Y-69108857D02*
X125215714Y-68308857D01*
X125215714Y-68537428D02*
X125272857Y-68423142D01*
X125329999Y-68366000D01*
X125444285Y-68308857D01*
X125558571Y-68308857D01*
X125958571Y-69108857D02*
X125958571Y-68308857D01*
X125958571Y-67908857D02*
X125901428Y-67966000D01*
X125958571Y-68023142D01*
X126015714Y-67966000D01*
X125958571Y-67908857D01*
X125958571Y-68023142D01*
X126529999Y-68308857D02*
X126529999Y-69508857D01*
X126529999Y-68366000D02*
X126644285Y-68308857D01*
X126872857Y-68308857D01*
X126987142Y-68366000D01*
X127044285Y-68423142D01*
X127101428Y-68537428D01*
X127101428Y-68880285D01*
X127044285Y-68994571D01*
X126987142Y-69051714D01*
X126872857Y-69108857D01*
X126644285Y-69108857D01*
X126529999Y-69051714D01*
X127329999Y-69223142D02*
X128244285Y-69223142D01*
X129044285Y-69108857D02*
X129044285Y-68480285D01*
X128987142Y-68366000D01*
X128872857Y-68308857D01*
X128644285Y-68308857D01*
X128529999Y-68366000D01*
X129044285Y-69051714D02*
X128929999Y-69108857D01*
X128644285Y-69108857D01*
X128529999Y-69051714D01*
X128472857Y-68937428D01*
X128472857Y-68823142D01*
X128529999Y-68708857D01*
X128644285Y-68651714D01*
X128929999Y-68651714D01*
X129044285Y-68594571D01*
X129615714Y-68308857D02*
X129615714Y-69108857D01*
X129615714Y-68423142D02*
X129672857Y-68366000D01*
X129787142Y-68308857D01*
X129958571Y-68308857D01*
X130072857Y-68366000D01*
X130129999Y-68480285D01*
X130129999Y-69108857D01*
X130529999Y-68308857D02*
X130987142Y-68308857D01*
X130701428Y-67908857D02*
X130701428Y-68937428D01*
X130758571Y-69051714D01*
X130872857Y-69108857D01*
X130987142Y-69108857D01*
X131844285Y-69051714D02*
X131729999Y-69108857D01*
X131501428Y-69108857D01*
X131387142Y-69051714D01*
X131329999Y-68937428D01*
X131329999Y-68480285D01*
X131387142Y-68366000D01*
X131501428Y-68308857D01*
X131729999Y-68308857D01*
X131844285Y-68366000D01*
X131901428Y-68480285D01*
X131901428Y-68594571D01*
X131329999Y-68708857D01*
X132415714Y-68308857D02*
X132415714Y-69108857D01*
X132415714Y-68423142D02*
X132472857Y-68366000D01*
X132587142Y-68308857D01*
X132758571Y-68308857D01*
X132872857Y-68366000D01*
X132929999Y-68480285D01*
X132929999Y-69108857D01*
X133501428Y-68308857D02*
X133501428Y-69108857D01*
X133501428Y-68423142D02*
X133558571Y-68366000D01*
X133672857Y-68308857D01*
X133844285Y-68308857D01*
X133958571Y-68366000D01*
X134015714Y-68480285D01*
X134015714Y-69108857D01*
X135101428Y-69108857D02*
X135101428Y-68480285D01*
X135044285Y-68366000D01*
X134930000Y-68308857D01*
X134701428Y-68308857D01*
X134587142Y-68366000D01*
X135101428Y-69051714D02*
X134987142Y-69108857D01*
X134701428Y-69108857D01*
X134587142Y-69051714D01*
X134530000Y-68937428D01*
X134530000Y-68823142D01*
X134587142Y-68708857D01*
X134701428Y-68651714D01*
X134987142Y-68651714D01*
X135101428Y-68594571D01*
D10*
X133962142Y-147178571D02*
X133962142Y-148250000D01*
X133890714Y-148464285D01*
X133747857Y-148607142D01*
X133533571Y-148678571D01*
X133390714Y-148678571D01*
X135390714Y-148678571D02*
X134676428Y-148678571D01*
X134676428Y-147178571D01*
X136747857Y-148535714D02*
X136676428Y-148607142D01*
X136462142Y-148678571D01*
X136319285Y-148678571D01*
X136105000Y-148607142D01*
X135962142Y-148464285D01*
X135890714Y-148321428D01*
X135819285Y-148035714D01*
X135819285Y-147821428D01*
X135890714Y-147535714D01*
X135962142Y-147392857D01*
X136105000Y-147250000D01*
X136319285Y-147178571D01*
X136462142Y-147178571D01*
X136676428Y-147250000D01*
X136747857Y-147321428D01*
X137819285Y-147178571D02*
X137819285Y-148250000D01*
X137747857Y-148464285D01*
X137605000Y-148607142D01*
X137390714Y-148678571D01*
X137247857Y-148678571D01*
X139247857Y-148678571D02*
X138533571Y-148678571D01*
X138533571Y-147178571D01*
X140605000Y-148535714D02*
X140533571Y-148607142D01*
X140319285Y-148678571D01*
X140176428Y-148678571D01*
X139962142Y-148607142D01*
X139819285Y-148464285D01*
X139747857Y-148321428D01*
X139676428Y-148035714D01*
X139676428Y-147821428D01*
X139747857Y-147535714D01*
X139819285Y-147392857D01*
X139962142Y-147250000D01*
X140176428Y-147178571D01*
X140319285Y-147178571D01*
X140533571Y-147250000D01*
X140605000Y-147321428D01*
X141676428Y-147178571D02*
X141676428Y-148250000D01*
X141605000Y-148464285D01*
X141462142Y-148607142D01*
X141247857Y-148678571D01*
X141105000Y-148678571D01*
X143105000Y-148678571D02*
X142390714Y-148678571D01*
X142390714Y-147178571D01*
X144462142Y-148535714D02*
X144390714Y-148607142D01*
X144176428Y-148678571D01*
X144033571Y-148678571D01*
X143819285Y-148607142D01*
X143676428Y-148464285D01*
X143605000Y-148321428D01*
X143533571Y-148035714D01*
X143533571Y-147821428D01*
X143605000Y-147535714D01*
X143676428Y-147392857D01*
X143819285Y-147250000D01*
X144033571Y-147178571D01*
X144176428Y-147178571D01*
X144390714Y-147250000D01*
X144462142Y-147321428D01*
X145533571Y-147178571D02*
X145533571Y-148250000D01*
X145462142Y-148464285D01*
X145319285Y-148607142D01*
X145105000Y-148678571D01*
X144962142Y-148678571D01*
X146962142Y-148678571D02*
X146247857Y-148678571D01*
X146247857Y-147178571D01*
X148319285Y-148535714D02*
X148247857Y-148607142D01*
X148033571Y-148678571D01*
X147890714Y-148678571D01*
X147676428Y-148607142D01*
X147533571Y-148464285D01*
X147462142Y-148321428D01*
X147390714Y-148035714D01*
X147390714Y-147821428D01*
X147462142Y-147535714D01*
X147533571Y-147392857D01*
X147676428Y-147250000D01*
X147890714Y-147178571D01*
X148033571Y-147178571D01*
X148247857Y-147250000D01*
X148319285Y-147321428D01*
D12*
X68366666Y-114811904D02*
X68100000Y-114430952D01*
X67909523Y-114811904D02*
X67909523Y-114011904D01*
X68214285Y-114011904D01*
X68290476Y-114050000D01*
X68328571Y-114088095D01*
X68366666Y-114164285D01*
X68366666Y-114278571D01*
X68328571Y-114354761D01*
X68290476Y-114392857D01*
X68214285Y-114430952D01*
X67909523Y-114430952D01*
X69090476Y-114011904D02*
X68709523Y-114011904D01*
X68671428Y-114392857D01*
X68709523Y-114354761D01*
X68785714Y-114316666D01*
X68976190Y-114316666D01*
X69052380Y-114354761D01*
X69090476Y-114392857D01*
X69128571Y-114469047D01*
X69128571Y-114659523D01*
X69090476Y-114735714D01*
X69052380Y-114773809D01*
X68976190Y-114811904D01*
X68785714Y-114811904D01*
X68709523Y-114773809D01*
X68671428Y-114735714D01*
D13*
X74633333Y-111607142D02*
X74585714Y-111654761D01*
X74442857Y-111702380D01*
X74347619Y-111702380D01*
X74204761Y-111654761D01*
X74109523Y-111559523D01*
X74061904Y-111464285D01*
X74014285Y-111273809D01*
X74014285Y-111130952D01*
X74061904Y-110940476D01*
X74109523Y-110845238D01*
X74204761Y-110750000D01*
X74347619Y-110702380D01*
X74442857Y-110702380D01*
X74585714Y-110750000D01*
X74633333Y-110797619D01*
X75585714Y-111702380D02*
X75014285Y-111702380D01*
X75300000Y-111702380D02*
X75300000Y-110702380D01*
X75204761Y-110845238D01*
X75109523Y-110940476D01*
X75014285Y-110988095D01*
D12*
X64109404Y-111483333D02*
X63728452Y-111750000D01*
X64109404Y-111940476D02*
X63309404Y-111940476D01*
X63309404Y-111635714D01*
X63347500Y-111559523D01*
X63385595Y-111521428D01*
X63461785Y-111483333D01*
X63576071Y-111483333D01*
X63652261Y-111521428D01*
X63690357Y-111559523D01*
X63728452Y-111635714D01*
X63728452Y-111940476D01*
X63309404Y-111216666D02*
X63309404Y-110683333D01*
X64109404Y-111026190D01*
D13*
X57332380Y-113421904D02*
X58141904Y-113421904D01*
X58237142Y-113374285D01*
X58284761Y-113326666D01*
X58332380Y-113231428D01*
X58332380Y-113040952D01*
X58284761Y-112945714D01*
X58237142Y-112898095D01*
X58141904Y-112850476D01*
X57332380Y-112850476D01*
X58332380Y-111850476D02*
X58332380Y-112421904D01*
X58332380Y-112136190D02*
X57332380Y-112136190D01*
X57475238Y-112231428D01*
X57570476Y-112326666D01*
X57618095Y-112421904D01*
D14*
X64979047Y-105065476D02*
X64858095Y-105005000D01*
X64737142Y-104884047D01*
X64555714Y-104702619D01*
X64434761Y-104642142D01*
X64313809Y-104642142D01*
X64374285Y-104944523D02*
X64253333Y-104884047D01*
X64132380Y-104763095D01*
X64071904Y-104521190D01*
X64071904Y-104097857D01*
X64132380Y-103855952D01*
X64253333Y-103735000D01*
X64374285Y-103674523D01*
X64616190Y-103674523D01*
X64737142Y-103735000D01*
X64858095Y-103855952D01*
X64918571Y-104097857D01*
X64918571Y-104521190D01*
X64858095Y-104763095D01*
X64737142Y-104884047D01*
X64616190Y-104944523D01*
X64374285Y-104944523D01*
X66128095Y-104944523D02*
X65402380Y-104944523D01*
X65765238Y-104944523D02*
X65765238Y-103674523D01*
X65644285Y-103855952D01*
X65523333Y-103976904D01*
X65402380Y-104037380D01*
D13*
X98666666Y-96702380D02*
X98333333Y-96226190D01*
X98095238Y-96702380D02*
X98095238Y-95702380D01*
X98476190Y-95702380D01*
X98571428Y-95750000D01*
X98619047Y-95797619D01*
X98666666Y-95892857D01*
X98666666Y-96035714D01*
X98619047Y-96130952D01*
X98571428Y-96178571D01*
X98476190Y-96226190D01*
X98095238Y-96226190D01*
X99095238Y-96178571D02*
X99428571Y-96178571D01*
X99571428Y-96702380D02*
X99095238Y-96702380D01*
X99095238Y-95702380D01*
X99571428Y-95702380D01*
X100333333Y-96178571D02*
X100000000Y-96178571D01*
X100000000Y-96702380D02*
X100000000Y-95702380D01*
X100476190Y-95702380D01*
X101000000Y-95702380D02*
X101000000Y-95940476D01*
X100761904Y-95845238D02*
X101000000Y-95940476D01*
X101238095Y-95845238D01*
X100857142Y-96130952D02*
X101000000Y-95940476D01*
X101142857Y-96130952D01*
X101761904Y-95702380D02*
X101761904Y-95940476D01*
X101523809Y-95845238D02*
X101761904Y-95940476D01*
X102000000Y-95845238D01*
X101619047Y-96130952D02*
X101761904Y-95940476D01*
X101904761Y-96130952D01*
X55233333Y-108077142D02*
X55185714Y-108124761D01*
X55042857Y-108172380D01*
X54947619Y-108172380D01*
X54804761Y-108124761D01*
X54709523Y-108029523D01*
X54661904Y-107934285D01*
X54614285Y-107743809D01*
X54614285Y-107600952D01*
X54661904Y-107410476D01*
X54709523Y-107315238D01*
X54804761Y-107220000D01*
X54947619Y-107172380D01*
X55042857Y-107172380D01*
X55185714Y-107220000D01*
X55233333Y-107267619D01*
X56090476Y-107172380D02*
X55900000Y-107172380D01*
X55804761Y-107220000D01*
X55757142Y-107267619D01*
X55661904Y-107410476D01*
X55614285Y-107600952D01*
X55614285Y-107981904D01*
X55661904Y-108077142D01*
X55709523Y-108124761D01*
X55804761Y-108172380D01*
X55995238Y-108172380D01*
X56090476Y-108124761D01*
X56138095Y-108077142D01*
X56185714Y-107981904D01*
X56185714Y-107743809D01*
X56138095Y-107648571D01*
X56090476Y-107600952D01*
X55995238Y-107553333D01*
X55804761Y-107553333D01*
X55709523Y-107600952D01*
X55661904Y-107648571D01*
X55614285Y-107743809D01*
D12*
X53211904Y-113833333D02*
X52830952Y-114100000D01*
X53211904Y-114290476D02*
X52411904Y-114290476D01*
X52411904Y-113985714D01*
X52450000Y-113909523D01*
X52488095Y-113871428D01*
X52564285Y-113833333D01*
X52678571Y-113833333D01*
X52754761Y-113871428D01*
X52792857Y-113909523D01*
X52830952Y-113985714D01*
X52830952Y-114290476D01*
X53211904Y-113452380D02*
X53211904Y-113300000D01*
X53173809Y-113223809D01*
X53135714Y-113185714D01*
X53021428Y-113109523D01*
X52869047Y-113071428D01*
X52564285Y-113071428D01*
X52488095Y-113109523D01*
X52450000Y-113147619D01*
X52411904Y-113223809D01*
X52411904Y-113376190D01*
X52450000Y-113452380D01*
X52488095Y-113490476D01*
X52564285Y-113528571D01*
X52754761Y-113528571D01*
X52830952Y-113490476D01*
X52869047Y-113452380D01*
X52907142Y-113376190D01*
X52907142Y-113223809D01*
X52869047Y-113147619D01*
X52830952Y-113109523D01*
X52754761Y-113071428D01*
X62589166Y-106986904D02*
X62208214Y-106986904D01*
X62208214Y-106186904D01*
X62779642Y-106186904D02*
X63274880Y-106186904D01*
X63008214Y-106491666D01*
X63122500Y-106491666D01*
X63198690Y-106529761D01*
X63236785Y-106567857D01*
X63274880Y-106644047D01*
X63274880Y-106834523D01*
X63236785Y-106910714D01*
X63198690Y-106948809D01*
X63122500Y-106986904D01*
X62893928Y-106986904D01*
X62817738Y-106948809D01*
X62779642Y-106910714D01*
D13*
X94730952Y-101772619D02*
X94730952Y-102772619D01*
X94397619Y-102058333D01*
X94064285Y-102772619D01*
X94064285Y-101772619D01*
X93683333Y-102772619D02*
X93445238Y-101772619D01*
X93254761Y-102486904D01*
X93064285Y-101772619D01*
X92826190Y-102772619D01*
X91921428Y-101772619D02*
X92492857Y-101772619D01*
X92207142Y-101772619D02*
X92207142Y-102772619D01*
X92302380Y-102629761D01*
X92397619Y-102534523D01*
X92492857Y-102486904D01*
X75433333Y-89702380D02*
X75100000Y-89226190D01*
X74861904Y-89702380D02*
X74861904Y-88702380D01*
X75242857Y-88702380D01*
X75338095Y-88750000D01*
X75385714Y-88797619D01*
X75433333Y-88892857D01*
X75433333Y-89035714D01*
X75385714Y-89130952D01*
X75338095Y-89178571D01*
X75242857Y-89226190D01*
X74861904Y-89226190D01*
X75814285Y-88797619D02*
X75861904Y-88750000D01*
X75957142Y-88702380D01*
X76195238Y-88702380D01*
X76290476Y-88750000D01*
X76338095Y-88797619D01*
X76385714Y-88892857D01*
X76385714Y-88988095D01*
X76338095Y-89130952D01*
X75766666Y-89702380D01*
X76385714Y-89702380D01*
D12*
X71065714Y-109023333D02*
X71103809Y-109061428D01*
X71141904Y-109175714D01*
X71141904Y-109251904D01*
X71103809Y-109366190D01*
X71027619Y-109442380D01*
X70951428Y-109480476D01*
X70799047Y-109518571D01*
X70684761Y-109518571D01*
X70532380Y-109480476D01*
X70456190Y-109442380D01*
X70380000Y-109366190D01*
X70341904Y-109251904D01*
X70341904Y-109175714D01*
X70380000Y-109061428D01*
X70418095Y-109023333D01*
X70418095Y-108718571D02*
X70380000Y-108680476D01*
X70341904Y-108604285D01*
X70341904Y-108413809D01*
X70380000Y-108337619D01*
X70418095Y-108299523D01*
X70494285Y-108261428D01*
X70570476Y-108261428D01*
X70684761Y-108299523D01*
X71141904Y-108756666D01*
X71141904Y-108261428D01*
X51911904Y-113864285D02*
X51530952Y-114130952D01*
X51911904Y-114321428D02*
X51111904Y-114321428D01*
X51111904Y-114016666D01*
X51150000Y-113940476D01*
X51188095Y-113902380D01*
X51264285Y-113864285D01*
X51378571Y-113864285D01*
X51454761Y-113902380D01*
X51492857Y-113940476D01*
X51530952Y-114016666D01*
X51530952Y-114321428D01*
X51911904Y-113102380D02*
X51911904Y-113559523D01*
X51911904Y-113330952D02*
X51111904Y-113330952D01*
X51226190Y-113407142D01*
X51302380Y-113483333D01*
X51340476Y-113559523D01*
X51111904Y-112607142D02*
X51111904Y-112530952D01*
X51150000Y-112454761D01*
X51188095Y-112416666D01*
X51264285Y-112378571D01*
X51416666Y-112340476D01*
X51607142Y-112340476D01*
X51759523Y-112378571D01*
X51835714Y-112416666D01*
X51873809Y-112454761D01*
X51911904Y-112530952D01*
X51911904Y-112607142D01*
X51873809Y-112683333D01*
X51835714Y-112721428D01*
X51759523Y-112759523D01*
X51607142Y-112797619D01*
X51416666Y-112797619D01*
X51264285Y-112759523D01*
X51188095Y-112721428D01*
X51150000Y-112683333D01*
X51111904Y-112607142D01*
X63516666Y-113161904D02*
X63250000Y-112780952D01*
X63059523Y-113161904D02*
X63059523Y-112361904D01*
X63364285Y-112361904D01*
X63440476Y-112400000D01*
X63478571Y-112438095D01*
X63516666Y-112514285D01*
X63516666Y-112628571D01*
X63478571Y-112704761D01*
X63440476Y-112742857D01*
X63364285Y-112780952D01*
X63059523Y-112780952D01*
X64202380Y-112628571D02*
X64202380Y-113161904D01*
X64011904Y-112323809D02*
X63821428Y-112895238D01*
X64316666Y-112895238D01*
X70316666Y-106971904D02*
X69935714Y-106971904D01*
X69935714Y-106171904D01*
X71002380Y-106971904D02*
X70545238Y-106971904D01*
X70773809Y-106971904D02*
X70773809Y-106171904D01*
X70697619Y-106286190D01*
X70621428Y-106362380D01*
X70545238Y-106400476D01*
D13*
X52766666Y-106452380D02*
X52766666Y-107166666D01*
X52719047Y-107309523D01*
X52623809Y-107404761D01*
X52480952Y-107452380D01*
X52385714Y-107452380D01*
X53195238Y-106547619D02*
X53242857Y-106500000D01*
X53338095Y-106452380D01*
X53576190Y-106452380D01*
X53671428Y-106500000D01*
X53719047Y-106547619D01*
X53766666Y-106642857D01*
X53766666Y-106738095D01*
X53719047Y-106880952D01*
X53147619Y-107452380D01*
X53766666Y-107452380D01*
D12*
X71721904Y-112523333D02*
X71340952Y-112790000D01*
X71721904Y-112980476D02*
X70921904Y-112980476D01*
X70921904Y-112675714D01*
X70960000Y-112599523D01*
X70998095Y-112561428D01*
X71074285Y-112523333D01*
X71188571Y-112523333D01*
X71264761Y-112561428D01*
X71302857Y-112599523D01*
X71340952Y-112675714D01*
X71340952Y-112980476D01*
X70921904Y-112256666D02*
X70921904Y-111761428D01*
X71226666Y-112028095D01*
X71226666Y-111913809D01*
X71264761Y-111837619D01*
X71302857Y-111799523D01*
X71379047Y-111761428D01*
X71569523Y-111761428D01*
X71645714Y-111799523D01*
X71683809Y-111837619D01*
X71721904Y-111913809D01*
X71721904Y-112142380D01*
X71683809Y-112218571D01*
X71645714Y-112256666D01*
X62959404Y-111483333D02*
X62578452Y-111750000D01*
X62959404Y-111940476D02*
X62159404Y-111940476D01*
X62159404Y-111635714D01*
X62197500Y-111559523D01*
X62235595Y-111521428D01*
X62311785Y-111483333D01*
X62426071Y-111483333D01*
X62502261Y-111521428D01*
X62540357Y-111559523D01*
X62578452Y-111635714D01*
X62578452Y-111940476D01*
X62502261Y-111026190D02*
X62464166Y-111102380D01*
X62426071Y-111140476D01*
X62349880Y-111178571D01*
X62311785Y-111178571D01*
X62235595Y-111140476D01*
X62197500Y-111102380D01*
X62159404Y-111026190D01*
X62159404Y-110873809D01*
X62197500Y-110797619D01*
X62235595Y-110759523D01*
X62311785Y-110721428D01*
X62349880Y-110721428D01*
X62426071Y-110759523D01*
X62464166Y-110797619D01*
X62502261Y-110873809D01*
X62502261Y-111026190D01*
X62540357Y-111102380D01*
X62578452Y-111140476D01*
X62654642Y-111178571D01*
X62807023Y-111178571D01*
X62883214Y-111140476D01*
X62921309Y-111102380D01*
X62959404Y-111026190D01*
X62959404Y-110873809D01*
X62921309Y-110797619D01*
X62883214Y-110759523D01*
X62807023Y-110721428D01*
X62654642Y-110721428D01*
X62578452Y-110759523D01*
X62540357Y-110797619D01*
X62502261Y-110873809D01*
D13*
X60366666Y-117207380D02*
X60366666Y-117921666D01*
X60319047Y-118064523D01*
X60223809Y-118159761D01*
X60080952Y-118207380D01*
X59985714Y-118207380D01*
X60842857Y-118207380D02*
X60842857Y-117207380D01*
X61223809Y-117207380D01*
X61319047Y-117255000D01*
X61366666Y-117302619D01*
X61414285Y-117397857D01*
X61414285Y-117540714D01*
X61366666Y-117635952D01*
X61319047Y-117683571D01*
X61223809Y-117731190D01*
X60842857Y-117731190D01*
X62366666Y-118207380D02*
X61795238Y-118207380D01*
X62080952Y-118207380D02*
X62080952Y-117207380D01*
X61985714Y-117350238D01*
X61890476Y-117445476D01*
X61795238Y-117493095D01*
X66106666Y-117207380D02*
X66106666Y-117921666D01*
X66059047Y-118064523D01*
X65963809Y-118159761D01*
X65820952Y-118207380D01*
X65725714Y-118207380D01*
X66582857Y-118207380D02*
X66582857Y-117207380D01*
X66963809Y-117207380D01*
X67059047Y-117255000D01*
X67106666Y-117302619D01*
X67154285Y-117397857D01*
X67154285Y-117540714D01*
X67106666Y-117635952D01*
X67059047Y-117683571D01*
X66963809Y-117731190D01*
X66582857Y-117731190D01*
X67535238Y-117302619D02*
X67582857Y-117255000D01*
X67678095Y-117207380D01*
X67916190Y-117207380D01*
X68011428Y-117255000D01*
X68059047Y-117302619D01*
X68106666Y-117397857D01*
X68106666Y-117493095D01*
X68059047Y-117635952D01*
X67487619Y-118207380D01*
X68106666Y-118207380D01*
X74516666Y-119752380D02*
X74516666Y-120466666D01*
X74469047Y-120609523D01*
X74373809Y-120704761D01*
X74230952Y-120752380D01*
X74135714Y-120752380D01*
X75516666Y-120752380D02*
X74945238Y-120752380D01*
X75230952Y-120752380D02*
X75230952Y-119752380D01*
X75135714Y-119895238D01*
X75040476Y-119990476D01*
X74945238Y-120038095D01*
X71238095Y-113477380D02*
X71809523Y-113477380D01*
X71523809Y-114477380D02*
X71523809Y-113477380D01*
X72142857Y-114477380D02*
X72142857Y-113477380D01*
X72523809Y-113477380D01*
X72619047Y-113525000D01*
X72666666Y-113572619D01*
X72714285Y-113667857D01*
X72714285Y-113810714D01*
X72666666Y-113905952D01*
X72619047Y-113953571D01*
X72523809Y-114001190D01*
X72142857Y-114001190D01*
X73666666Y-114477380D02*
X73095238Y-114477380D01*
X73380952Y-114477380D02*
X73380952Y-113477380D01*
X73285714Y-113620238D01*
X73190476Y-113715476D01*
X73095238Y-113763095D01*
D12*
X61816666Y-114095714D02*
X61778571Y-114133809D01*
X61664285Y-114171904D01*
X61588095Y-114171904D01*
X61473809Y-114133809D01*
X61397619Y-114057619D01*
X61359523Y-113981428D01*
X61321428Y-113829047D01*
X61321428Y-113714761D01*
X61359523Y-113562380D01*
X61397619Y-113486190D01*
X61473809Y-113410000D01*
X61588095Y-113371904D01*
X61664285Y-113371904D01*
X61778571Y-113410000D01*
X61816666Y-113448095D01*
X62083333Y-113371904D02*
X62578571Y-113371904D01*
X62311904Y-113676666D01*
X62426190Y-113676666D01*
X62502380Y-113714761D01*
X62540476Y-113752857D01*
X62578571Y-113829047D01*
X62578571Y-114019523D01*
X62540476Y-114095714D01*
X62502380Y-114133809D01*
X62426190Y-114171904D01*
X62197619Y-114171904D01*
X62121428Y-114133809D01*
X62083333Y-114095714D01*
X60315714Y-107223333D02*
X60353809Y-107261428D01*
X60391904Y-107375714D01*
X60391904Y-107451904D01*
X60353809Y-107566190D01*
X60277619Y-107642380D01*
X60201428Y-107680476D01*
X60049047Y-107718571D01*
X59934761Y-107718571D01*
X59782380Y-107680476D01*
X59706190Y-107642380D01*
X59630000Y-107566190D01*
X59591904Y-107451904D01*
X59591904Y-107375714D01*
X59630000Y-107261428D01*
X59668095Y-107223333D01*
X59591904Y-106499523D02*
X59591904Y-106880476D01*
X59972857Y-106918571D01*
X59934761Y-106880476D01*
X59896666Y-106804285D01*
X59896666Y-106613809D01*
X59934761Y-106537619D01*
X59972857Y-106499523D01*
X60049047Y-106461428D01*
X60239523Y-106461428D01*
X60315714Y-106499523D01*
X60353809Y-106537619D01*
X60391904Y-106613809D01*
X60391904Y-106804285D01*
X60353809Y-106880476D01*
X60315714Y-106918571D01*
X67716666Y-109736904D02*
X67335714Y-109736904D01*
X67335714Y-108936904D01*
X67945238Y-109013095D02*
X67983333Y-108975000D01*
X68059523Y-108936904D01*
X68250000Y-108936904D01*
X68326190Y-108975000D01*
X68364285Y-109013095D01*
X68402380Y-109089285D01*
X68402380Y-109165476D01*
X68364285Y-109279761D01*
X67907142Y-109736904D01*
X68402380Y-109736904D01*
X68266666Y-111611904D02*
X68000000Y-111230952D01*
X67809523Y-111611904D02*
X67809523Y-110811904D01*
X68114285Y-110811904D01*
X68190476Y-110850000D01*
X68228571Y-110888095D01*
X68266666Y-110964285D01*
X68266666Y-111078571D01*
X68228571Y-111154761D01*
X68190476Y-111192857D01*
X68114285Y-111230952D01*
X67809523Y-111230952D01*
X68952380Y-110811904D02*
X68800000Y-110811904D01*
X68723809Y-110850000D01*
X68685714Y-110888095D01*
X68609523Y-111002380D01*
X68571428Y-111154761D01*
X68571428Y-111459523D01*
X68609523Y-111535714D01*
X68647619Y-111573809D01*
X68723809Y-111611904D01*
X68876190Y-111611904D01*
X68952380Y-111573809D01*
X68990476Y-111535714D01*
X69028571Y-111459523D01*
X69028571Y-111269047D01*
X68990476Y-111192857D01*
X68952380Y-111154761D01*
X68876190Y-111116666D01*
X68723809Y-111116666D01*
X68647619Y-111154761D01*
X68609523Y-111192857D01*
X68571428Y-111269047D01*
X58811904Y-103993333D02*
X58811904Y-104374285D01*
X58011904Y-104374285D01*
X58278571Y-103383809D02*
X58811904Y-103383809D01*
X57973809Y-103574285D02*
X58545238Y-103764761D01*
X58545238Y-103269523D01*
X68506666Y-116505714D02*
X68468571Y-116543809D01*
X68354285Y-116581904D01*
X68278095Y-116581904D01*
X68163809Y-116543809D01*
X68087619Y-116467619D01*
X68049523Y-116391428D01*
X68011428Y-116239047D01*
X68011428Y-116124761D01*
X68049523Y-115972380D01*
X68087619Y-115896190D01*
X68163809Y-115820000D01*
X68278095Y-115781904D01*
X68354285Y-115781904D01*
X68468571Y-115820000D01*
X68506666Y-115858095D01*
X69192380Y-116048571D02*
X69192380Y-116581904D01*
X69001904Y-115743809D02*
X68811428Y-116315238D01*
X69306666Y-116315238D01*
D13*
X57883333Y-116357142D02*
X57835714Y-116404761D01*
X57692857Y-116452380D01*
X57597619Y-116452380D01*
X57454761Y-116404761D01*
X57359523Y-116309523D01*
X57311904Y-116214285D01*
X57264285Y-116023809D01*
X57264285Y-115880952D01*
X57311904Y-115690476D01*
X57359523Y-115595238D01*
X57454761Y-115500000D01*
X57597619Y-115452380D01*
X57692857Y-115452380D01*
X57835714Y-115500000D01*
X57883333Y-115547619D01*
X58216666Y-115452380D02*
X58883333Y-115452380D01*
X58454761Y-116452380D01*
X75433333Y-86282380D02*
X75100000Y-85806190D01*
X74861904Y-86282380D02*
X74861904Y-85282380D01*
X75242857Y-85282380D01*
X75338095Y-85330000D01*
X75385714Y-85377619D01*
X75433333Y-85472857D01*
X75433333Y-85615714D01*
X75385714Y-85710952D01*
X75338095Y-85758571D01*
X75242857Y-85806190D01*
X74861904Y-85806190D01*
X76385714Y-86282380D02*
X75814285Y-86282380D01*
X76100000Y-86282380D02*
X76100000Y-85282380D01*
X76004761Y-85425238D01*
X75909523Y-85520476D01*
X75814285Y-85568095D01*
G36*
X137442572Y-137179780D02*
G01*
X137594911Y-136996284D01*
X137787374Y-136871209D01*
X138013742Y-136811229D01*
X138267792Y-136823019D01*
X138374414Y-136848922D01*
X138578830Y-136943772D01*
X138753625Y-137088633D01*
X138874597Y-137262320D01*
X138891217Y-137301317D01*
X138914016Y-137403465D01*
X138929975Y-137554573D01*
X138935410Y-137707301D01*
X138935410Y-137996066D01*
X138331639Y-137996066D01*
X138082619Y-137997007D01*
X137907189Y-138002723D01*
X137795665Y-138017550D01*
X137738360Y-138045827D01*
X137725588Y-138091890D01*
X137747662Y-138160077D01*
X137787205Y-138239863D01*
X137897509Y-138373017D01*
X138050792Y-138439355D01*
X138238141Y-138437194D01*
X138450363Y-138364991D01*
X138633773Y-138275883D01*
X138785962Y-138396220D01*
X138938151Y-138516558D01*
X138794974Y-138648843D01*
X138603828Y-138773832D01*
X138368753Y-138849189D01*
X138115898Y-138870278D01*
X137871413Y-138832460D01*
X137831967Y-138819628D01*
X137617090Y-138707414D01*
X137457250Y-138540118D01*
X137349080Y-138312748D01*
X137289210Y-138020308D01*
X137288513Y-138014040D01*
X137283152Y-137695332D01*
X137304823Y-137581632D01*
X137727869Y-137581632D01*
X137766722Y-137599116D01*
X137872205Y-137612508D01*
X138027707Y-137620155D01*
X138126249Y-137621312D01*
X138310013Y-137620588D01*
X138424914Y-137615983D01*
X138485366Y-137603848D01*
X138505783Y-137580530D01*
X138500581Y-137542382D01*
X138496217Y-137527623D01*
X138421724Y-137388944D01*
X138304566Y-137277179D01*
X138201173Y-137228066D01*
X138063816Y-137231032D01*
X137924629Y-137292278D01*
X137807874Y-137393683D01*
X137737810Y-137517122D01*
X137727869Y-137581632D01*
X137304823Y-137581632D01*
X137336579Y-137415020D01*
X137442572Y-137179780D01*
G37*
D15*
X137442572Y-137179780D02*
X137594911Y-136996284D01*
X137787374Y-136871209D01*
X138013742Y-136811229D01*
X138267792Y-136823019D01*
X138374414Y-136848922D01*
X138578830Y-136943772D01*
X138753625Y-137088633D01*
X138874597Y-137262320D01*
X138891217Y-137301317D01*
X138914016Y-137403465D01*
X138929975Y-137554573D01*
X138935410Y-137707301D01*
X138935410Y-137996066D01*
X138331639Y-137996066D01*
X138082619Y-137997007D01*
X137907189Y-138002723D01*
X137795665Y-138017550D01*
X137738360Y-138045827D01*
X137725588Y-138091890D01*
X137747662Y-138160077D01*
X137787205Y-138239863D01*
X137897509Y-138373017D01*
X138050792Y-138439355D01*
X138238141Y-138437194D01*
X138450363Y-138364991D01*
X138633773Y-138275883D01*
X138785962Y-138396220D01*
X138938151Y-138516558D01*
X138794974Y-138648843D01*
X138603828Y-138773832D01*
X138368753Y-138849189D01*
X138115898Y-138870278D01*
X137871413Y-138832460D01*
X137831967Y-138819628D01*
X137617090Y-138707414D01*
X137457250Y-138540118D01*
X137349080Y-138312748D01*
X137289210Y-138020308D01*
X137288513Y-138014040D01*
X137283152Y-137695332D01*
X137304823Y-137581632D01*
X137727869Y-137581632D01*
X137766722Y-137599116D01*
X137872205Y-137612508D01*
X138027707Y-137620155D01*
X138126249Y-137621312D01*
X138310013Y-137620588D01*
X138424914Y-137615983D01*
X138485366Y-137603848D01*
X138505783Y-137580530D01*
X138500581Y-137542382D01*
X138496217Y-137527623D01*
X138421724Y-137388944D01*
X138304566Y-137277179D01*
X138201173Y-137228066D01*
X138063816Y-137231032D01*
X137924629Y-137292278D01*
X137807874Y-137393683D01*
X137737810Y-137517122D01*
X137727869Y-137581632D01*
X137304823Y-137581632D01*
X137336579Y-137415020D01*
X137442572Y-137179780D01*
G36*
X126903108Y-136864563D02*
G01*
X127006740Y-136914062D01*
X127107106Y-136985561D01*
X127183568Y-137067853D01*
X127239262Y-137172811D01*
X127277323Y-137312313D01*
X127300885Y-137498233D01*
X127313085Y-137742448D01*
X127317056Y-138056833D01*
X127317118Y-138089754D01*
X127318033Y-138828853D01*
X126860000Y-138828853D01*
X126860000Y-138147481D01*
X126859674Y-137895050D01*
X126857419Y-137712093D01*
X126851319Y-137584807D01*
X126839459Y-137499386D01*
X126819924Y-137442026D01*
X126790797Y-137398924D01*
X126750224Y-137356334D01*
X126608269Y-137264824D01*
X126453306Y-137247843D01*
X126305677Y-137305701D01*
X126254337Y-137348763D01*
X126216647Y-137389249D01*
X126189587Y-137432607D01*
X126171397Y-137492463D01*
X126160316Y-137582441D01*
X126154586Y-137716168D01*
X126152444Y-137907270D01*
X126152131Y-138139911D01*
X126152131Y-138828853D01*
X125694098Y-138828853D01*
X125694098Y-136830164D01*
X125923115Y-136830164D01*
X126060614Y-136835602D01*
X126131553Y-136854909D01*
X126152122Y-136892576D01*
X126152131Y-136893692D01*
X126161675Y-136930581D01*
X126203767Y-136926395D01*
X126287459Y-136885861D01*
X126477273Y-136826224D01*
X126694401Y-136819591D01*
X126903108Y-136864563D01*
G37*
X126903108Y-136864563D02*
X127006740Y-136914062D01*
X127107106Y-136985561D01*
X127183568Y-137067853D01*
X127239262Y-137172811D01*
X127277323Y-137312313D01*
X127300885Y-137498233D01*
X127313085Y-137742448D01*
X127317056Y-138056833D01*
X127317118Y-138089754D01*
X127318033Y-138828853D01*
X126860000Y-138828853D01*
X126860000Y-138147481D01*
X126859674Y-137895050D01*
X126857419Y-137712093D01*
X126851319Y-137584807D01*
X126839459Y-137499386D01*
X126819924Y-137442026D01*
X126790797Y-137398924D01*
X126750224Y-137356334D01*
X126608269Y-137264824D01*
X126453306Y-137247843D01*
X126305677Y-137305701D01*
X126254337Y-137348763D01*
X126216647Y-137389249D01*
X126189587Y-137432607D01*
X126171397Y-137492463D01*
X126160316Y-137582441D01*
X126154586Y-137716168D01*
X126152444Y-137907270D01*
X126152131Y-138139911D01*
X126152131Y-138828853D01*
X125694098Y-138828853D01*
X125694098Y-136830164D01*
X125923115Y-136830164D01*
X126060614Y-136835602D01*
X126131553Y-136854909D01*
X126152122Y-136892576D01*
X126152131Y-136893692D01*
X126161675Y-136930581D01*
X126203767Y-136926395D01*
X126287459Y-136885861D01*
X126477273Y-136826224D01*
X126694401Y-136819591D01*
X126903108Y-136864563D01*
G36*
X132689508Y-137478311D02*
G01*
X132693444Y-137783698D01*
X132707823Y-138015660D01*
X132736504Y-138183786D01*
X132783348Y-138297671D01*
X132852211Y-138366905D01*
X132946954Y-138401080D01*
X133064262Y-138409811D01*
X133187123Y-138400028D01*
X133280444Y-138364287D01*
X133348084Y-138292995D01*
X133393901Y-138176561D01*
X133421755Y-138005391D01*
X133435504Y-137769896D01*
X133439016Y-137478311D01*
X133439016Y-136830164D01*
X133897049Y-136830164D01*
X133897049Y-138828853D01*
X133668033Y-138828853D01*
X133529971Y-138823258D01*
X133458878Y-138803611D01*
X133439016Y-138766313D01*
X133427054Y-138733094D01*
X133379447Y-138740121D01*
X133283485Y-138787132D01*
X133063548Y-138859654D01*
X132830274Y-138854516D01*
X132606755Y-138775766D01*
X132500313Y-138713558D01*
X132419122Y-138646204D01*
X132359808Y-138561928D01*
X132318996Y-138448957D01*
X132293312Y-138295515D01*
X132279381Y-138089827D01*
X132273829Y-137820118D01*
X132273115Y-137611551D01*
X132273115Y-136830164D01*
X132689508Y-136830164D01*
X132689508Y-137478311D01*
G37*
X132689508Y-137478311D02*
X132693444Y-137783698D01*
X132707823Y-138015660D01*
X132736504Y-138183786D01*
X132783348Y-138297671D01*
X132852211Y-138366905D01*
X132946954Y-138401080D01*
X133064262Y-138409811D01*
X133187123Y-138400028D01*
X133280444Y-138364287D01*
X133348084Y-138292995D01*
X133393901Y-138176561D01*
X133421755Y-138005391D01*
X133435504Y-137769896D01*
X133439016Y-137478311D01*
X133439016Y-136830164D01*
X133897049Y-136830164D01*
X133897049Y-138828853D01*
X133668033Y-138828853D01*
X133529971Y-138823258D01*
X133458878Y-138803611D01*
X133439016Y-138766313D01*
X133427054Y-138733094D01*
X133379447Y-138740121D01*
X133283485Y-138787132D01*
X133063548Y-138859654D01*
X132830274Y-138854516D01*
X132606755Y-138775766D01*
X132500313Y-138713558D01*
X132419122Y-138646204D01*
X132359808Y-138561928D01*
X132318996Y-138448957D01*
X132293312Y-138295515D01*
X132279381Y-138089827D01*
X132273829Y-137820118D01*
X132273115Y-137611551D01*
X132273115Y-136830164D01*
X132689508Y-136830164D01*
X132689508Y-137478311D01*
G36*
X135358869Y-136828231D02*
G01*
X135502092Y-136871989D01*
X135594306Y-136927280D01*
X135624344Y-136971004D01*
X135616076Y-137022834D01*
X135562427Y-137104259D01*
X135517063Y-137161927D01*
X135423546Y-137266182D01*
X135353287Y-137310045D01*
X135293393Y-137307182D01*
X135115720Y-137261967D01*
X134985234Y-137264020D01*
X134879273Y-137315261D01*
X134843700Y-137345252D01*
X134729836Y-137450778D01*
X134729836Y-138828853D01*
X134271803Y-138828853D01*
X134271803Y-136830164D01*
X134500820Y-136830164D01*
X134638318Y-136835602D01*
X134709258Y-136854909D01*
X134729827Y-136892576D01*
X134729836Y-136893692D01*
X134739550Y-136933146D01*
X134783478Y-136928000D01*
X134844344Y-136899536D01*
X134970054Y-136846569D01*
X135072134Y-136814703D01*
X135203480Y-136806533D01*
X135358869Y-136828231D01*
G37*
X135358869Y-136828231D02*
X135502092Y-136871989D01*
X135594306Y-136927280D01*
X135624344Y-136971004D01*
X135616076Y-137022834D01*
X135562427Y-137104259D01*
X135517063Y-137161927D01*
X135423546Y-137266182D01*
X135353287Y-137310045D01*
X135293393Y-137307182D01*
X135115720Y-137261967D01*
X134985234Y-137264020D01*
X134879273Y-137315261D01*
X134843700Y-137345252D01*
X134729836Y-137450778D01*
X134729836Y-138828853D01*
X134271803Y-138828853D01*
X134271803Y-136830164D01*
X134500820Y-136830164D01*
X134638318Y-136835602D01*
X134709258Y-136854909D01*
X134729827Y-136892576D01*
X134729836Y-136893692D01*
X134739550Y-136933146D01*
X134783478Y-136928000D01*
X134844344Y-136899536D01*
X134970054Y-136846569D01*
X135072134Y-136814703D01*
X135203480Y-136806533D01*
X135358869Y-136828231D01*
G36*
X119916107Y-137490610D02*
G01*
X119941228Y-137344745D01*
X119986532Y-137229641D01*
X120055464Y-137127986D01*
X120081022Y-137097802D01*
X120240825Y-136947412D01*
X120412231Y-136859566D01*
X120621849Y-136822762D01*
X120724064Y-136819754D01*
X120994610Y-136851802D01*
X121212447Y-136948108D01*
X121377816Y-137108919D01*
X121490957Y-137334482D01*
X121552112Y-137625042D01*
X121556495Y-137670408D01*
X121559930Y-137990256D01*
X121515398Y-138270614D01*
X121425609Y-138497847D01*
X121377529Y-138570941D01*
X121210055Y-138725643D01*
X120996768Y-138825838D01*
X120758154Y-138867418D01*
X120514697Y-138846272D01*
X120329630Y-138781145D01*
X120170479Y-138671393D01*
X120040404Y-138527496D01*
X120038154Y-138524130D01*
X119985330Y-138435314D01*
X119951001Y-138346005D01*
X119930212Y-138233294D01*
X119918009Y-138074273D01*
X119912633Y-137943868D01*
X119910395Y-137825611D01*
X120326706Y-137825611D01*
X120330775Y-137943335D01*
X120345545Y-138100049D01*
X120371602Y-138200621D01*
X120418593Y-138272173D01*
X120462603Y-138313971D01*
X120618623Y-138401484D01*
X120781869Y-138413179D01*
X120933904Y-138350212D01*
X121009920Y-138279653D01*
X121064697Y-138208550D01*
X121096737Y-138140512D01*
X121110800Y-138051967D01*
X121111642Y-137919339D01*
X121107309Y-137797195D01*
X121097989Y-137622710D01*
X121083212Y-137509538D01*
X121056580Y-137435721D01*
X121011691Y-137379298D01*
X120976120Y-137347050D01*
X120827329Y-137262340D01*
X120666813Y-137258117D01*
X120532220Y-137308292D01*
X120417400Y-137413075D01*
X120348996Y-137585198D01*
X120326706Y-137825611D01*
X119910395Y-137825611D01*
X119907724Y-137684548D01*
X119916107Y-137490610D01*
G37*
X119916107Y-137490610D02*
X119941228Y-137344745D01*
X119986532Y-137229641D01*
X120055464Y-137127986D01*
X120081022Y-137097802D01*
X120240825Y-136947412D01*
X120412231Y-136859566D01*
X120621849Y-136822762D01*
X120724064Y-136819754D01*
X120994610Y-136851802D01*
X121212447Y-136948108D01*
X121377816Y-137108919D01*
X121490957Y-137334482D01*
X121552112Y-137625042D01*
X121556495Y-137670408D01*
X121559930Y-137990256D01*
X121515398Y-138270614D01*
X121425609Y-138497847D01*
X121377529Y-138570941D01*
X121210055Y-138725643D01*
X120996768Y-138825838D01*
X120758154Y-138867418D01*
X120514697Y-138846272D01*
X120329630Y-138781145D01*
X120170479Y-138671393D01*
X120040404Y-138527496D01*
X120038154Y-138524130D01*
X119985330Y-138435314D01*
X119951001Y-138346005D01*
X119930212Y-138233294D01*
X119918009Y-138074273D01*
X119912633Y-137943868D01*
X119910395Y-137825611D01*
X120326706Y-137825611D01*
X120330775Y-137943335D01*
X120345545Y-138100049D01*
X120371602Y-138200621D01*
X120418593Y-138272173D01*
X120462603Y-138313971D01*
X120618623Y-138401484D01*
X120781869Y-138413179D01*
X120933904Y-138350212D01*
X121009920Y-138279653D01*
X121064697Y-138208550D01*
X121096737Y-138140512D01*
X121110800Y-138051967D01*
X121111642Y-137919339D01*
X121107309Y-137797195D01*
X121097989Y-137622710D01*
X121083212Y-137509538D01*
X121056580Y-137435721D01*
X121011691Y-137379298D01*
X120976120Y-137347050D01*
X120827329Y-137262340D01*
X120666813Y-137258117D01*
X120532220Y-137308292D01*
X120417400Y-137413075D01*
X120348996Y-137585198D01*
X120326706Y-137825611D01*
X119910395Y-137825611D01*
X119907724Y-137684548D01*
X119916107Y-137490610D01*
G36*
X130345056Y-137333134D02*
G01*
X130456457Y-137108049D01*
X130621993Y-136946230D01*
X130841670Y-136847666D01*
X130888842Y-136836236D01*
X131172336Y-136809406D01*
X131422521Y-136854805D01*
X131633136Y-136969505D01*
X131797915Y-137150574D01*
X131875554Y-137297838D01*
X131908886Y-137427907D01*
X131930483Y-137613333D01*
X131939739Y-137826939D01*
X131936045Y-138041550D01*
X131918794Y-138229991D01*
X131898643Y-138330637D01*
X131830667Y-138468323D01*
X131712942Y-138614566D01*
X131571065Y-138742452D01*
X131430632Y-138825063D01*
X131427207Y-138826373D01*
X131252945Y-138862472D01*
X131046427Y-138863365D01*
X130850174Y-138830501D01*
X130774396Y-138804161D01*
X130579221Y-138693484D01*
X130439438Y-138548478D01*
X130347599Y-138356503D01*
X130296254Y-138104920D01*
X130284637Y-137973142D01*
X130286119Y-137807553D01*
X130732459Y-137807553D01*
X130747494Y-138049177D01*
X130790772Y-138233303D01*
X130859551Y-138350949D01*
X130908550Y-138384590D01*
X131034093Y-138408050D01*
X131183318Y-138401104D01*
X131312333Y-138367345D01*
X131346166Y-138348772D01*
X131435428Y-138240599D01*
X131494345Y-138075051D01*
X131519424Y-137873581D01*
X131507174Y-137657646D01*
X131479796Y-137527690D01*
X131401191Y-137377191D01*
X131277104Y-137283114D01*
X131127661Y-137250587D01*
X130972987Y-137284738D01*
X130854174Y-137368273D01*
X130791735Y-137437193D01*
X130755293Y-137505126D01*
X130737923Y-137597064D01*
X130732699Y-137737999D01*
X130732459Y-137807553D01*
X130286119Y-137807553D01*
X130287785Y-137621495D01*
X130345056Y-137333134D01*
G37*
X130345056Y-137333134D02*
X130456457Y-137108049D01*
X130621993Y-136946230D01*
X130841670Y-136847666D01*
X130888842Y-136836236D01*
X131172336Y-136809406D01*
X131422521Y-136854805D01*
X131633136Y-136969505D01*
X131797915Y-137150574D01*
X131875554Y-137297838D01*
X131908886Y-137427907D01*
X131930483Y-137613333D01*
X131939739Y-137826939D01*
X131936045Y-138041550D01*
X131918794Y-138229991D01*
X131898643Y-138330637D01*
X131830667Y-138468323D01*
X131712942Y-138614566D01*
X131571065Y-138742452D01*
X131430632Y-138825063D01*
X131427207Y-138826373D01*
X131252945Y-138862472D01*
X131046427Y-138863365D01*
X130850174Y-138830501D01*
X130774396Y-138804161D01*
X130579221Y-138693484D01*
X130439438Y-138548478D01*
X130347599Y-138356503D01*
X130296254Y-138104920D01*
X130284637Y-137973142D01*
X130286119Y-137807553D01*
X130732459Y-137807553D01*
X130747494Y-138049177D01*
X130790772Y-138233303D01*
X130859551Y-138350949D01*
X130908550Y-138384590D01*
X131034093Y-138408050D01*
X131183318Y-138401104D01*
X131312333Y-138367345D01*
X131346166Y-138348772D01*
X131435428Y-138240599D01*
X131494345Y-138075051D01*
X131519424Y-137873581D01*
X131507174Y-137657646D01*
X131479796Y-137527690D01*
X131401191Y-137377191D01*
X131277104Y-137283114D01*
X131127661Y-137250587D01*
X130972987Y-137284738D01*
X130854174Y-137368273D01*
X130791735Y-137437193D01*
X130755293Y-137505126D01*
X130737923Y-137597064D01*
X130732699Y-137737999D01*
X130732459Y-137807553D01*
X130286119Y-137807553D01*
X130287785Y-137621495D01*
X130345056Y-137333134D01*
G36*
X130648305Y-123025960D02*
G01*
X130836557Y-124024542D01*
X131531183Y-124310889D01*
X132225808Y-124597237D01*
X133059128Y-124030586D01*
X133292501Y-123872811D01*
X133503457Y-123731939D01*
X133682153Y-123614401D01*
X133818744Y-123526629D01*
X133903386Y-123475055D01*
X133926437Y-123463935D01*
X133967963Y-123492535D01*
X134056698Y-123571604D01*
X134182697Y-123691041D01*
X134336014Y-123840744D01*
X134506702Y-124010615D01*
X134684814Y-124190551D01*
X134860406Y-124370454D01*
X135023530Y-124540222D01*
X135164241Y-124689754D01*
X135272592Y-124808952D01*
X135338637Y-124887713D01*
X135354426Y-124914072D01*
X135331703Y-124962666D01*
X135267999Y-125069126D01*
X135170013Y-125223039D01*
X135044441Y-125413991D01*
X134897982Y-125631569D01*
X134813115Y-125755671D01*
X134658426Y-125982279D01*
X134520970Y-126186770D01*
X134407414Y-126358965D01*
X134324428Y-126488685D01*
X134278678Y-126565751D01*
X134271803Y-126581947D01*
X134287388Y-126627975D01*
X134329868Y-126735250D01*
X134392835Y-126888687D01*
X134469879Y-127073206D01*
X134554590Y-127273721D01*
X134640558Y-127475152D01*
X134721373Y-127662415D01*
X134790627Y-127820428D01*
X134841908Y-127934107D01*
X134868809Y-127988370D01*
X134870396Y-127990506D01*
X134912635Y-128000867D01*
X135025126Y-128023982D01*
X135196209Y-128057579D01*
X135414223Y-128099385D01*
X135667509Y-128147127D01*
X135815288Y-128174659D01*
X136085938Y-128226190D01*
X136330397Y-128275225D01*
X136536300Y-128319081D01*
X136691277Y-128355074D01*
X136782962Y-128380521D01*
X136801393Y-128388595D01*
X136819445Y-128443242D01*
X136834010Y-128566662D01*
X136845098Y-128744423D01*
X136852719Y-128962091D01*
X136856884Y-129205235D01*
X136857602Y-129459423D01*
X136854882Y-129710220D01*
X136848735Y-129943196D01*
X136839171Y-130143918D01*
X136826199Y-130297954D01*
X136809829Y-130390870D01*
X136800011Y-130410213D01*
X136741323Y-130433398D01*
X136616966Y-130466544D01*
X136443390Y-130505758D01*
X136237042Y-130547145D01*
X136165011Y-130560534D01*
X135817719Y-130624147D01*
X135543383Y-130675378D01*
X135332939Y-130716261D01*
X135177322Y-130748834D01*
X135067467Y-130775132D01*
X134994311Y-130797192D01*
X134948787Y-130817049D01*
X134921833Y-130836741D01*
X134918061Y-130840632D01*
X134880415Y-130903324D01*
X134822986Y-131025331D01*
X134751508Y-131191712D01*
X134671715Y-131387529D01*
X134589343Y-131597840D01*
X134510125Y-131807708D01*
X134439796Y-132002191D01*
X134384089Y-132166350D01*
X134348741Y-132285245D01*
X134339484Y-132343936D01*
X134340256Y-132345992D01*
X134371620Y-132393964D01*
X134442774Y-132499516D01*
X134546240Y-132651660D01*
X134674540Y-132839410D01*
X134820199Y-133051780D01*
X134861680Y-133112130D01*
X135009587Y-133330929D01*
X135139739Y-133530562D01*
X135245045Y-133699565D01*
X135318416Y-133826475D01*
X135352763Y-133899829D01*
X135354426Y-133908841D01*
X135325569Y-133956207D01*
X135245831Y-134050042D01*
X135125462Y-134180261D01*
X134974713Y-134336779D01*
X134803836Y-134509510D01*
X134623079Y-134688371D01*
X134442694Y-134863276D01*
X134272932Y-135024140D01*
X134124042Y-135160878D01*
X134006276Y-135263407D01*
X133929883Y-135321640D01*
X133908750Y-135331148D01*
X133859560Y-135308754D01*
X133758847Y-135248356D01*
X133623017Y-135160129D01*
X133518510Y-135089115D01*
X133329149Y-134958811D01*
X133104899Y-134805384D01*
X132879964Y-134652201D01*
X132759032Y-134570218D01*
X132349704Y-134293353D01*
X132006102Y-134479136D01*
X131849565Y-134560523D01*
X131716454Y-134623784D01*
X131626389Y-134659865D01*
X131603463Y-134664885D01*
X131575895Y-134627817D01*
X131521508Y-134523069D01*
X131444363Y-134360303D01*
X131348518Y-134149181D01*
X131238034Y-133899365D01*
X131116971Y-133620517D01*
X130989389Y-133322299D01*
X130859347Y-133014374D01*
X130730906Y-132706404D01*
X130608126Y-132408050D01*
X130495067Y-132128975D01*
X130395788Y-131878841D01*
X130314349Y-131667310D01*
X130254811Y-131504043D01*
X130221234Y-131398705D01*
X130215834Y-131362527D01*
X130258634Y-131316381D01*
X130352344Y-131241472D01*
X130477373Y-131153364D01*
X130487867Y-131146394D01*
X130811020Y-130887721D01*
X131071587Y-130585938D01*
X131267310Y-130250695D01*
X131395932Y-129891642D01*
X131455195Y-129518426D01*
X131442839Y-129140700D01*
X131356607Y-128768111D01*
X131194241Y-128410310D01*
X131146472Y-128332027D01*
X130898009Y-128015919D01*
X130604481Y-127762079D01*
X130276047Y-127571827D01*
X129922865Y-127446485D01*
X129555095Y-127387372D01*
X129182897Y-127395807D01*
X128816429Y-127473112D01*
X128465851Y-127620606D01*
X128141323Y-127839610D01*
X128040936Y-127928498D01*
X127785449Y-128206744D01*
X127599278Y-128499656D01*
X127471570Y-128827986D01*
X127400444Y-129153133D01*
X127382886Y-129518702D01*
X127441434Y-129886086D01*
X127570142Y-130242866D01*
X127763062Y-130576626D01*
X128014248Y-130874947D01*
X128317752Y-131125411D01*
X128357640Y-131151813D01*
X128484009Y-131238272D01*
X128580073Y-131313184D01*
X128626000Y-131361015D01*
X128626668Y-131362527D01*
X128616808Y-131414267D01*
X128577722Y-131531696D01*
X128513472Y-131705154D01*
X128428120Y-131924979D01*
X128325727Y-132181513D01*
X128210354Y-132465096D01*
X128086063Y-132766067D01*
X127956916Y-133074767D01*
X127826974Y-133381536D01*
X127700298Y-133676714D01*
X127580951Y-133950640D01*
X127472994Y-134193656D01*
X127380488Y-134396101D01*
X127307496Y-134548315D01*
X127258077Y-134640638D01*
X127238177Y-134664885D01*
X127177366Y-134646004D01*
X127063582Y-134595364D01*
X126916445Y-134522017D01*
X126835538Y-134479136D01*
X126491935Y-134293353D01*
X126082607Y-134570218D01*
X125873654Y-134712054D01*
X125644887Y-134868141D01*
X125430509Y-135015109D01*
X125323129Y-135089115D01*
X125172102Y-135190531D01*
X125044218Y-135270898D01*
X124956158Y-135320041D01*
X124927555Y-135330429D01*
X124885924Y-135302405D01*
X124793789Y-135224172D01*
X124660082Y-135103852D01*
X124493735Y-134949568D01*
X124303680Y-134769443D01*
X124183479Y-134653790D01*
X123973185Y-134447167D01*
X123791444Y-134262358D01*
X123645603Y-134107270D01*
X123543009Y-133989807D01*
X123491009Y-133917875D01*
X123486020Y-133903278D01*
X123509171Y-133847753D01*
X123573146Y-133735484D01*
X123670847Y-133577837D01*
X123795180Y-133386179D01*
X123939046Y-133171876D01*
X123979959Y-133112130D01*
X124129033Y-132894982D01*
X124262775Y-132699475D01*
X124373709Y-132536599D01*
X124454356Y-132417337D01*
X124497241Y-132352678D01*
X124501383Y-132345992D01*
X124495188Y-132294462D01*
X124462300Y-132181166D01*
X124408455Y-132021042D01*
X124339387Y-131829032D01*
X124260831Y-131620074D01*
X124178520Y-131409109D01*
X124098189Y-131211076D01*
X124025572Y-131040916D01*
X123966405Y-130913567D01*
X123926420Y-130843971D01*
X123923578Y-130840632D01*
X123899127Y-130820742D01*
X123857831Y-130801073D01*
X123790623Y-130779589D01*
X123688441Y-130754253D01*
X123542219Y-130723029D01*
X123342893Y-130683882D01*
X123081397Y-130634775D01*
X122748669Y-130573672D01*
X122676628Y-130560534D01*
X122463115Y-130519282D01*
X122276978Y-130478926D01*
X122134666Y-130443361D01*
X122052629Y-130416480D01*
X122041628Y-130410213D01*
X122023502Y-130354654D01*
X122008767Y-130230495D01*
X121997436Y-130052169D01*
X121989516Y-129834109D01*
X121985019Y-129590746D01*
X121983954Y-129336514D01*
X121986330Y-129085845D01*
X121992159Y-128853171D01*
X122001449Y-128652924D01*
X122014211Y-128499538D01*
X122030454Y-128407444D01*
X122040246Y-128388595D01*
X122094761Y-128369582D01*
X122218896Y-128338650D01*
X122400285Y-128298482D01*
X122626560Y-128251762D01*
X122885353Y-128201173D01*
X123026351Y-128174659D01*
X123293873Y-128124650D01*
X123532438Y-128079346D01*
X123730386Y-128041021D01*
X123876057Y-128011947D01*
X123957791Y-127994397D01*
X123971243Y-127990506D01*
X123993979Y-127946638D01*
X124042040Y-127840976D01*
X124109019Y-127688613D01*
X124188510Y-127504646D01*
X124274108Y-127304170D01*
X124359405Y-127102281D01*
X124437995Y-126914073D01*
X124503473Y-126754642D01*
X124549431Y-126639084D01*
X124569463Y-126582494D01*
X124569836Y-126580021D01*
X124547126Y-126535379D01*
X124483459Y-126432647D01*
X124385525Y-126282037D01*
X124260017Y-126093757D01*
X124113626Y-125878018D01*
X124028525Y-125754098D01*
X123873455Y-125526883D01*
X123735725Y-125320595D01*
X123622053Y-125145671D01*
X123539161Y-125012545D01*
X123493769Y-124931653D01*
X123487213Y-124913520D01*
X123515395Y-124871312D01*
X123593304Y-124781191D01*
X123710990Y-124653254D01*
X123858500Y-124497596D01*
X124025881Y-124324315D01*
X124203181Y-124143507D01*
X124380448Y-123965267D01*
X124547730Y-123799693D01*
X124695075Y-123656880D01*
X124812530Y-123546925D01*
X124890143Y-123479924D01*
X124916108Y-123463935D01*
X124958384Y-123486419D01*
X125059501Y-123549585D01*
X125209627Y-123647003D01*
X125398930Y-123772243D01*
X125617579Y-123918875D01*
X125782511Y-124030586D01*
X126615831Y-124597237D01*
X127310456Y-124310889D01*
X128005082Y-124024542D01*
X128193334Y-123025960D01*
X128381587Y-122027377D01*
X130460052Y-122027377D01*
X130648305Y-123025960D01*
G37*
X130648305Y-123025960D02*
X130836557Y-124024542D01*
X131531183Y-124310889D01*
X132225808Y-124597237D01*
X133059128Y-124030586D01*
X133292501Y-123872811D01*
X133503457Y-123731939D01*
X133682153Y-123614401D01*
X133818744Y-123526629D01*
X133903386Y-123475055D01*
X133926437Y-123463935D01*
X133967963Y-123492535D01*
X134056698Y-123571604D01*
X134182697Y-123691041D01*
X134336014Y-123840744D01*
X134506702Y-124010615D01*
X134684814Y-124190551D01*
X134860406Y-124370454D01*
X135023530Y-124540222D01*
X135164241Y-124689754D01*
X135272592Y-124808952D01*
X135338637Y-124887713D01*
X135354426Y-124914072D01*
X135331703Y-124962666D01*
X135267999Y-125069126D01*
X135170013Y-125223039D01*
X135044441Y-125413991D01*
X134897982Y-125631569D01*
X134813115Y-125755671D01*
X134658426Y-125982279D01*
X134520970Y-126186770D01*
X134407414Y-126358965D01*
X134324428Y-126488685D01*
X134278678Y-126565751D01*
X134271803Y-126581947D01*
X134287388Y-126627975D01*
X134329868Y-126735250D01*
X134392835Y-126888687D01*
X134469879Y-127073206D01*
X134554590Y-127273721D01*
X134640558Y-127475152D01*
X134721373Y-127662415D01*
X134790627Y-127820428D01*
X134841908Y-127934107D01*
X134868809Y-127988370D01*
X134870396Y-127990506D01*
X134912635Y-128000867D01*
X135025126Y-128023982D01*
X135196209Y-128057579D01*
X135414223Y-128099385D01*
X135667509Y-128147127D01*
X135815288Y-128174659D01*
X136085938Y-128226190D01*
X136330397Y-128275225D01*
X136536300Y-128319081D01*
X136691277Y-128355074D01*
X136782962Y-128380521D01*
X136801393Y-128388595D01*
X136819445Y-128443242D01*
X136834010Y-128566662D01*
X136845098Y-128744423D01*
X136852719Y-128962091D01*
X136856884Y-129205235D01*
X136857602Y-129459423D01*
X136854882Y-129710220D01*
X136848735Y-129943196D01*
X136839171Y-130143918D01*
X136826199Y-130297954D01*
X136809829Y-130390870D01*
X136800011Y-130410213D01*
X136741323Y-130433398D01*
X136616966Y-130466544D01*
X136443390Y-130505758D01*
X136237042Y-130547145D01*
X136165011Y-130560534D01*
X135817719Y-130624147D01*
X135543383Y-130675378D01*
X135332939Y-130716261D01*
X135177322Y-130748834D01*
X135067467Y-130775132D01*
X134994311Y-130797192D01*
X134948787Y-130817049D01*
X134921833Y-130836741D01*
X134918061Y-130840632D01*
X134880415Y-130903324D01*
X134822986Y-131025331D01*
X134751508Y-131191712D01*
X134671715Y-131387529D01*
X134589343Y-131597840D01*
X134510125Y-131807708D01*
X134439796Y-132002191D01*
X134384089Y-132166350D01*
X134348741Y-132285245D01*
X134339484Y-132343936D01*
X134340256Y-132345992D01*
X134371620Y-132393964D01*
X134442774Y-132499516D01*
X134546240Y-132651660D01*
X134674540Y-132839410D01*
X134820199Y-133051780D01*
X134861680Y-133112130D01*
X135009587Y-133330929D01*
X135139739Y-133530562D01*
X135245045Y-133699565D01*
X135318416Y-133826475D01*
X135352763Y-133899829D01*
X135354426Y-133908841D01*
X135325569Y-133956207D01*
X135245831Y-134050042D01*
X135125462Y-134180261D01*
X134974713Y-134336779D01*
X134803836Y-134509510D01*
X134623079Y-134688371D01*
X134442694Y-134863276D01*
X134272932Y-135024140D01*
X134124042Y-135160878D01*
X134006276Y-135263407D01*
X133929883Y-135321640D01*
X133908750Y-135331148D01*
X133859560Y-135308754D01*
X133758847Y-135248356D01*
X133623017Y-135160129D01*
X133518510Y-135089115D01*
X133329149Y-134958811D01*
X133104899Y-134805384D01*
X132879964Y-134652201D01*
X132759032Y-134570218D01*
X132349704Y-134293353D01*
X132006102Y-134479136D01*
X131849565Y-134560523D01*
X131716454Y-134623784D01*
X131626389Y-134659865D01*
X131603463Y-134664885D01*
X131575895Y-134627817D01*
X131521508Y-134523069D01*
X131444363Y-134360303D01*
X131348518Y-134149181D01*
X131238034Y-133899365D01*
X131116971Y-133620517D01*
X130989389Y-133322299D01*
X130859347Y-133014374D01*
X130730906Y-132706404D01*
X130608126Y-132408050D01*
X130495067Y-132128975D01*
X130395788Y-131878841D01*
X130314349Y-131667310D01*
X130254811Y-131504043D01*
X130221234Y-131398705D01*
X130215834Y-131362527D01*
X130258634Y-131316381D01*
X130352344Y-131241472D01*
X130477373Y-131153364D01*
X130487867Y-131146394D01*
X130811020Y-130887721D01*
X131071587Y-130585938D01*
X131267310Y-130250695D01*
X131395932Y-129891642D01*
X131455195Y-129518426D01*
X131442839Y-129140700D01*
X131356607Y-128768111D01*
X131194241Y-128410310D01*
X131146472Y-128332027D01*
X130898009Y-128015919D01*
X130604481Y-127762079D01*
X130276047Y-127571827D01*
X129922865Y-127446485D01*
X129555095Y-127387372D01*
X129182897Y-127395807D01*
X128816429Y-127473112D01*
X128465851Y-127620606D01*
X128141323Y-127839610D01*
X128040936Y-127928498D01*
X127785449Y-128206744D01*
X127599278Y-128499656D01*
X127471570Y-128827986D01*
X127400444Y-129153133D01*
X127382886Y-129518702D01*
X127441434Y-129886086D01*
X127570142Y-130242866D01*
X127763062Y-130576626D01*
X128014248Y-130874947D01*
X128317752Y-131125411D01*
X128357640Y-131151813D01*
X128484009Y-131238272D01*
X128580073Y-131313184D01*
X128626000Y-131361015D01*
X128626668Y-131362527D01*
X128616808Y-131414267D01*
X128577722Y-131531696D01*
X128513472Y-131705154D01*
X128428120Y-131924979D01*
X128325727Y-132181513D01*
X128210354Y-132465096D01*
X128086063Y-132766067D01*
X127956916Y-133074767D01*
X127826974Y-133381536D01*
X127700298Y-133676714D01*
X127580951Y-133950640D01*
X127472994Y-134193656D01*
X127380488Y-134396101D01*
X127307496Y-134548315D01*
X127258077Y-134640638D01*
X127238177Y-134664885D01*
X127177366Y-134646004D01*
X127063582Y-134595364D01*
X126916445Y-134522017D01*
X126835538Y-134479136D01*
X126491935Y-134293353D01*
X126082607Y-134570218D01*
X125873654Y-134712054D01*
X125644887Y-134868141D01*
X125430509Y-135015109D01*
X125323129Y-135089115D01*
X125172102Y-135190531D01*
X125044218Y-135270898D01*
X124956158Y-135320041D01*
X124927555Y-135330429D01*
X124885924Y-135302405D01*
X124793789Y-135224172D01*
X124660082Y-135103852D01*
X124493735Y-134949568D01*
X124303680Y-134769443D01*
X124183479Y-134653790D01*
X123973185Y-134447167D01*
X123791444Y-134262358D01*
X123645603Y-134107270D01*
X123543009Y-133989807D01*
X123491009Y-133917875D01*
X123486020Y-133903278D01*
X123509171Y-133847753D01*
X123573146Y-133735484D01*
X123670847Y-133577837D01*
X123795180Y-133386179D01*
X123939046Y-133171876D01*
X123979959Y-133112130D01*
X124129033Y-132894982D01*
X124262775Y-132699475D01*
X124373709Y-132536599D01*
X124454356Y-132417337D01*
X124497241Y-132352678D01*
X124501383Y-132345992D01*
X124495188Y-132294462D01*
X124462300Y-132181166D01*
X124408455Y-132021042D01*
X124339387Y-131829032D01*
X124260831Y-131620074D01*
X124178520Y-131409109D01*
X124098189Y-131211076D01*
X124025572Y-131040916D01*
X123966405Y-130913567D01*
X123926420Y-130843971D01*
X123923578Y-130840632D01*
X123899127Y-130820742D01*
X123857831Y-130801073D01*
X123790623Y-130779589D01*
X123688441Y-130754253D01*
X123542219Y-130723029D01*
X123342893Y-130683882D01*
X123081397Y-130634775D01*
X122748669Y-130573672D01*
X122676628Y-130560534D01*
X122463115Y-130519282D01*
X122276978Y-130478926D01*
X122134666Y-130443361D01*
X122052629Y-130416480D01*
X122041628Y-130410213D01*
X122023502Y-130354654D01*
X122008767Y-130230495D01*
X121997436Y-130052169D01*
X121989516Y-129834109D01*
X121985019Y-129590746D01*
X121983954Y-129336514D01*
X121986330Y-129085845D01*
X121992159Y-128853171D01*
X122001449Y-128652924D01*
X122014211Y-128499538D01*
X122030454Y-128407444D01*
X122040246Y-128388595D01*
X122094761Y-128369582D01*
X122218896Y-128338650D01*
X122400285Y-128298482D01*
X122626560Y-128251762D01*
X122885353Y-128201173D01*
X123026351Y-128174659D01*
X123293873Y-128124650D01*
X123532438Y-128079346D01*
X123730386Y-128041021D01*
X123876057Y-128011947D01*
X123957791Y-127994397D01*
X123971243Y-127990506D01*
X123993979Y-127946638D01*
X124042040Y-127840976D01*
X124109019Y-127688613D01*
X124188510Y-127504646D01*
X124274108Y-127304170D01*
X124359405Y-127102281D01*
X124437995Y-126914073D01*
X124503473Y-126754642D01*
X124549431Y-126639084D01*
X124569463Y-126582494D01*
X124569836Y-126580021D01*
X124547126Y-126535379D01*
X124483459Y-126432647D01*
X124385525Y-126282037D01*
X124260017Y-126093757D01*
X124113626Y-125878018D01*
X124028525Y-125754098D01*
X123873455Y-125526883D01*
X123735725Y-125320595D01*
X123622053Y-125145671D01*
X123539161Y-125012545D01*
X123493769Y-124931653D01*
X123487213Y-124913520D01*
X123515395Y-124871312D01*
X123593304Y-124781191D01*
X123710990Y-124653254D01*
X123858500Y-124497596D01*
X124025881Y-124324315D01*
X124203181Y-124143507D01*
X124380448Y-123965267D01*
X124547730Y-123799693D01*
X124695075Y-123656880D01*
X124812530Y-123546925D01*
X124890143Y-123479924D01*
X124916108Y-123463935D01*
X124958384Y-123486419D01*
X125059501Y-123549585D01*
X125209627Y-123647003D01*
X125398930Y-123772243D01*
X125617579Y-123918875D01*
X125782511Y-124030586D01*
X126615831Y-124597237D01*
X127310456Y-124310889D01*
X128005082Y-124024542D01*
X128193334Y-123025960D01*
X128381587Y-122027377D01*
X130460052Y-122027377D01*
X130648305Y-123025960D01*
G36*
X127116194Y-140817010D02*
G01*
X127136558Y-140546856D01*
X127178883Y-140344024D01*
X127249294Y-140194077D01*
X127353912Y-140082579D01*
X127455479Y-140017127D01*
X127597384Y-139971117D01*
X127773879Y-139955336D01*
X127954607Y-139968190D01*
X128109213Y-140008081D01*
X128190899Y-140055801D01*
X128275738Y-140132579D01*
X128275738Y-139161967D01*
X128733770Y-139161967D01*
X128733770Y-141993443D01*
X128504754Y-141993443D01*
X128371825Y-141989546D01*
X128302595Y-141973407D01*
X128277668Y-141938354D01*
X128275738Y-141914653D01*
X128271534Y-141867123D01*
X128245026Y-141858008D01*
X128175367Y-141887308D01*
X128121196Y-141914653D01*
X127913223Y-141979451D01*
X127687147Y-141983201D01*
X127503345Y-141934873D01*
X127332187Y-141818118D01*
X127201716Y-141645781D01*
X127130273Y-141442506D01*
X127128454Y-141431141D01*
X127117839Y-141307136D01*
X127112560Y-141129117D01*
X127112984Y-140994480D01*
X127567828Y-140994480D01*
X127578365Y-141173428D01*
X127602334Y-141320924D01*
X127634783Y-141404217D01*
X127757544Y-141518041D01*
X127903299Y-141558845D01*
X128053607Y-141525848D01*
X128182049Y-141427422D01*
X128230692Y-141361224D01*
X128259134Y-141282231D01*
X128272456Y-141166926D01*
X128275738Y-140993736D01*
X128269865Y-140822229D01*
X128254353Y-140671540D01*
X128232362Y-140570698D01*
X128228697Y-140561659D01*
X128140012Y-140454195D01*
X128010572Y-140395195D01*
X127865743Y-140385669D01*
X127730891Y-140426626D01*
X127631383Y-140519076D01*
X127621060Y-140537473D01*
X127588750Y-140649646D01*
X127571148Y-140810934D01*
X127567828Y-140994480D01*
X127112984Y-140994480D01*
X127113200Y-140926212D01*
X127116194Y-140817010D01*
G37*
X127116194Y-140817010D02*
X127136558Y-140546856D01*
X127178883Y-140344024D01*
X127249294Y-140194077D01*
X127353912Y-140082579D01*
X127455479Y-140017127D01*
X127597384Y-139971117D01*
X127773879Y-139955336D01*
X127954607Y-139968190D01*
X128109213Y-140008081D01*
X128190899Y-140055801D01*
X128275738Y-140132579D01*
X128275738Y-139161967D01*
X128733770Y-139161967D01*
X128733770Y-141993443D01*
X128504754Y-141993443D01*
X128371825Y-141989546D01*
X128302595Y-141973407D01*
X128277668Y-141938354D01*
X128275738Y-141914653D01*
X128271534Y-141867123D01*
X128245026Y-141858008D01*
X128175367Y-141887308D01*
X128121196Y-141914653D01*
X127913223Y-141979451D01*
X127687147Y-141983201D01*
X127503345Y-141934873D01*
X127332187Y-141818118D01*
X127201716Y-141645781D01*
X127130273Y-141442506D01*
X127128454Y-141431141D01*
X127117839Y-141307136D01*
X127112560Y-141129117D01*
X127112984Y-140994480D01*
X127567828Y-140994480D01*
X127578365Y-141173428D01*
X127602334Y-141320924D01*
X127634783Y-141404217D01*
X127757544Y-141518041D01*
X127903299Y-141558845D01*
X128053607Y-141525848D01*
X128182049Y-141427422D01*
X128230692Y-141361224D01*
X128259134Y-141282231D01*
X128272456Y-141166926D01*
X128275738Y-140993736D01*
X128269865Y-140822229D01*
X128254353Y-140671540D01*
X128232362Y-140570698D01*
X128228697Y-140561659D01*
X128140012Y-140454195D01*
X128010572Y-140395195D01*
X127865743Y-140385669D01*
X127730891Y-140426626D01*
X127631383Y-140519076D01*
X127621060Y-140537473D01*
X127588750Y-140649646D01*
X127571148Y-140810934D01*
X127567828Y-140994480D01*
X127112984Y-140994480D01*
X127113200Y-140926212D01*
X127116194Y-140817010D01*
G36*
X131839440Y-141057692D02*
G01*
X131941968Y-140929656D01*
X132004065Y-140874302D01*
X132064855Y-140837924D01*
X132143952Y-140815744D01*
X132260971Y-140802982D01*
X132435527Y-140794857D01*
X132504763Y-140792521D01*
X132939344Y-140778321D01*
X132938707Y-140646784D01*
X132921876Y-140508519D01*
X132861026Y-140424917D01*
X132738095Y-140371507D01*
X132734797Y-140370555D01*
X132560504Y-140349555D01*
X132389952Y-140376985D01*
X132263200Y-140443689D01*
X132212342Y-140476625D01*
X132157565Y-140472068D01*
X132073272Y-140424349D01*
X132023773Y-140390671D01*
X131926955Y-140318716D01*
X131866982Y-140264779D01*
X131857359Y-140249337D01*
X131896985Y-140169424D01*
X132014064Y-140073989D01*
X132064918Y-140041789D01*
X132211113Y-139986332D01*
X132408137Y-139954913D01*
X132626989Y-139947855D01*
X132838670Y-139965480D01*
X133014179Y-140008109D01*
X133064912Y-140030693D01*
X133163254Y-140089847D01*
X133238727Y-140156472D01*
X133294571Y-140242135D01*
X133334026Y-140358405D01*
X133360332Y-140516848D01*
X133376729Y-140729034D01*
X133386457Y-141006529D01*
X133390151Y-141191885D01*
X133403745Y-141993443D01*
X133171544Y-141993443D01*
X133030677Y-141987536D01*
X132958102Y-141967350D01*
X132939344Y-141933453D01*
X132929441Y-141896799D01*
X132885166Y-141903807D01*
X132824836Y-141933197D01*
X132673803Y-141978246D01*
X132479693Y-141990385D01*
X132275531Y-141970529D01*
X132094340Y-141919592D01*
X132078089Y-141912522D01*
X131912491Y-141796188D01*
X131803324Y-141634467D01*
X131753091Y-141445430D01*
X131756928Y-141377515D01*
X132166763Y-141377515D01*
X132202875Y-141468914D01*
X132309942Y-141534411D01*
X132482684Y-141569563D01*
X132575000Y-141574231D01*
X132728850Y-141562282D01*
X132831115Y-141515844D01*
X132856066Y-141493771D01*
X132923661Y-141373681D01*
X132939344Y-141264754D01*
X132939344Y-141119017D01*
X132736352Y-141119017D01*
X132500387Y-141131043D01*
X132334881Y-141168871D01*
X132230305Y-141235121D01*
X132206891Y-141264656D01*
X132166763Y-141377515D01*
X131756928Y-141377515D01*
X131764295Y-141247148D01*
X131839440Y-141057692D01*
G37*
X131839440Y-141057692D02*
X131941968Y-140929656D01*
X132004065Y-140874302D01*
X132064855Y-140837924D01*
X132143952Y-140815744D01*
X132260971Y-140802982D01*
X132435527Y-140794857D01*
X132504763Y-140792521D01*
X132939344Y-140778321D01*
X132938707Y-140646784D01*
X132921876Y-140508519D01*
X132861026Y-140424917D01*
X132738095Y-140371507D01*
X132734797Y-140370555D01*
X132560504Y-140349555D01*
X132389952Y-140376985D01*
X132263200Y-140443689D01*
X132212342Y-140476625D01*
X132157565Y-140472068D01*
X132073272Y-140424349D01*
X132023773Y-140390671D01*
X131926955Y-140318716D01*
X131866982Y-140264779D01*
X131857359Y-140249337D01*
X131896985Y-140169424D01*
X132014064Y-140073989D01*
X132064918Y-140041789D01*
X132211113Y-139986332D01*
X132408137Y-139954913D01*
X132626989Y-139947855D01*
X132838670Y-139965480D01*
X133014179Y-140008109D01*
X133064912Y-140030693D01*
X133163254Y-140089847D01*
X133238727Y-140156472D01*
X133294571Y-140242135D01*
X133334026Y-140358405D01*
X133360332Y-140516848D01*
X133376729Y-140729034D01*
X133386457Y-141006529D01*
X133390151Y-141191885D01*
X133403745Y-141993443D01*
X133171544Y-141993443D01*
X133030677Y-141987536D01*
X132958102Y-141967350D01*
X132939344Y-141933453D01*
X132929441Y-141896799D01*
X132885166Y-141903807D01*
X132824836Y-141933197D01*
X132673803Y-141978246D01*
X132479693Y-141990385D01*
X132275531Y-141970529D01*
X132094340Y-141919592D01*
X132078089Y-141912522D01*
X131912491Y-141796188D01*
X131803324Y-141634467D01*
X131753091Y-141445430D01*
X131756928Y-141377515D01*
X132166763Y-141377515D01*
X132202875Y-141468914D01*
X132309942Y-141534411D01*
X132482684Y-141569563D01*
X132575000Y-141574231D01*
X132728850Y-141562282D01*
X132831115Y-141515844D01*
X132856066Y-141493771D01*
X132923661Y-141373681D01*
X132939344Y-141264754D01*
X132939344Y-141119017D01*
X132736352Y-141119017D01*
X132500387Y-141131043D01*
X132334881Y-141168871D01*
X132230305Y-141235121D01*
X132206891Y-141264656D01*
X132166763Y-141377515D01*
X131756928Y-141377515D01*
X131764295Y-141247148D01*
X131839440Y-141057692D01*
G36*
X130496942Y-139973935D02*
G01*
X130712248Y-140619344D01*
X130927555Y-141264754D01*
X130995064Y-141035738D01*
X131035691Y-140894204D01*
X131089133Y-140702936D01*
X131146842Y-140492693D01*
X131177355Y-140379918D01*
X131292136Y-139953115D01*
X131765687Y-139953115D01*
X131624139Y-140400738D01*
X131554433Y-140620903D01*
X131470223Y-140886471D01*
X131382281Y-141163492D01*
X131303772Y-141410492D01*
X131124952Y-141972623D01*
X130931882Y-141985185D01*
X130738811Y-141997746D01*
X130634118Y-141652070D01*
X130569553Y-141437335D01*
X130499092Y-141200604D01*
X130437511Y-140991526D01*
X130435081Y-140983205D01*
X130389085Y-140841537D01*
X130348503Y-140744874D01*
X130320080Y-140708321D01*
X130314239Y-140712549D01*
X130293738Y-140769217D01*
X130254785Y-140890605D01*
X130202122Y-141061448D01*
X130140491Y-141266482D01*
X130107143Y-141379262D01*
X129926546Y-141993443D01*
X129543267Y-141993443D01*
X129236867Y-141025328D01*
X129150791Y-140753759D01*
X129072380Y-140507138D01*
X129005339Y-140297048D01*
X128953369Y-140135076D01*
X128920174Y-140032808D01*
X128910084Y-140002928D01*
X128918072Y-139972334D01*
X128980792Y-139958935D01*
X129111315Y-139960275D01*
X129131747Y-139961288D01*
X129373792Y-139973935D01*
X129532317Y-140556885D01*
X129590585Y-140769486D01*
X129642655Y-140956377D01*
X129683944Y-141101331D01*
X129709866Y-141188120D01*
X129714656Y-141202269D01*
X129734504Y-141185998D01*
X129774530Y-141101697D01*
X129830138Y-140960842D01*
X129896731Y-140774911D01*
X129953024Y-140606956D01*
X130167578Y-139949209D01*
X130496942Y-139973935D01*
G37*
X130496942Y-139973935D02*
X130712248Y-140619344D01*
X130927555Y-141264754D01*
X130995064Y-141035738D01*
X131035691Y-140894204D01*
X131089133Y-140702936D01*
X131146842Y-140492693D01*
X131177355Y-140379918D01*
X131292136Y-139953115D01*
X131765687Y-139953115D01*
X131624139Y-140400738D01*
X131554433Y-140620903D01*
X131470223Y-140886471D01*
X131382281Y-141163492D01*
X131303772Y-141410492D01*
X131124952Y-141972623D01*
X130931882Y-141985185D01*
X130738811Y-141997746D01*
X130634118Y-141652070D01*
X130569553Y-141437335D01*
X130499092Y-141200604D01*
X130437511Y-140991526D01*
X130435081Y-140983205D01*
X130389085Y-140841537D01*
X130348503Y-140744874D01*
X130320080Y-140708321D01*
X130314239Y-140712549D01*
X130293738Y-140769217D01*
X130254785Y-140890605D01*
X130202122Y-141061448D01*
X130140491Y-141266482D01*
X130107143Y-141379262D01*
X129926546Y-141993443D01*
X129543267Y-141993443D01*
X129236867Y-141025328D01*
X129150791Y-140753759D01*
X129072380Y-140507138D01*
X129005339Y-140297048D01*
X128953369Y-140135076D01*
X128920174Y-140032808D01*
X128910084Y-140002928D01*
X128918072Y-139972334D01*
X128980792Y-139958935D01*
X129111315Y-139960275D01*
X129131747Y-139961288D01*
X129373792Y-139973935D01*
X129532317Y-140556885D01*
X129590585Y-140769486D01*
X129642655Y-140956377D01*
X129683944Y-141101331D01*
X129709866Y-141188120D01*
X129714656Y-141202269D01*
X129734504Y-141185998D01*
X129774530Y-141101697D01*
X129830138Y-140960842D01*
X129896731Y-140774911D01*
X129953024Y-140606956D01*
X130167578Y-139949209D01*
X130496942Y-139973935D01*
G36*
X129446418Y-136823003D02*
G01*
X129604100Y-136852907D01*
X129767685Y-136915452D01*
X129785164Y-136923426D01*
X129909217Y-136988656D01*
X129995129Y-137049274D01*
X130022898Y-137088106D01*
X129996453Y-137151437D01*
X129932220Y-137244881D01*
X129903708Y-137279762D01*
X129786211Y-137417066D01*
X129634732Y-137327691D01*
X129490570Y-137268152D01*
X129324000Y-137236326D01*
X129164262Y-137234316D01*
X129040594Y-137264221D01*
X129010916Y-137282886D01*
X128954398Y-137368466D01*
X128947529Y-137467049D01*
X128989820Y-137544062D01*
X129014836Y-137558998D01*
X129089796Y-137577547D01*
X129221561Y-137599348D01*
X129383991Y-137620180D01*
X129413956Y-137623447D01*
X129674840Y-137668575D01*
X129864055Y-137745230D01*
X129989543Y-137860491D01*
X130059243Y-138021435D01*
X130080956Y-138218015D01*
X130050961Y-138441473D01*
X129953559Y-138616949D01*
X129788361Y-138744758D01*
X129554977Y-138825218D01*
X129295902Y-138856962D01*
X129084633Y-138856580D01*
X128913265Y-138827749D01*
X128796230Y-138787944D01*
X128648350Y-138718587D01*
X128511687Y-138638097D01*
X128463115Y-138602670D01*
X128338197Y-138500705D01*
X128639509Y-138195813D01*
X128810796Y-138309165D01*
X128982594Y-138394300D01*
X129166048Y-138438830D01*
X129342397Y-138443528D01*
X129492881Y-138409170D01*
X129598740Y-138336529D01*
X129632921Y-138275238D01*
X129627794Y-138176941D01*
X129542857Y-138101773D01*
X129378343Y-138049866D01*
X129198101Y-138025875D01*
X128920709Y-137980104D01*
X128714635Y-137893748D01*
X128577122Y-137764280D01*
X128505413Y-137589172D01*
X128495479Y-137381565D01*
X128544548Y-137164714D01*
X128656420Y-137000805D01*
X128832097Y-136889088D01*
X129072581Y-136828814D01*
X129250743Y-136816999D01*
X129446418Y-136823003D01*
G37*
X129446418Y-136823003D02*
X129604100Y-136852907D01*
X129767685Y-136915452D01*
X129785164Y-136923426D01*
X129909217Y-136988656D01*
X129995129Y-137049274D01*
X130022898Y-137088106D01*
X129996453Y-137151437D01*
X129932220Y-137244881D01*
X129903708Y-137279762D01*
X129786211Y-137417066D01*
X129634732Y-137327691D01*
X129490570Y-137268152D01*
X129324000Y-137236326D01*
X129164262Y-137234316D01*
X129040594Y-137264221D01*
X129010916Y-137282886D01*
X128954398Y-137368466D01*
X128947529Y-137467049D01*
X128989820Y-137544062D01*
X129014836Y-137558998D01*
X129089796Y-137577547D01*
X129221561Y-137599348D01*
X129383991Y-137620180D01*
X129413956Y-137623447D01*
X129674840Y-137668575D01*
X129864055Y-137745230D01*
X129989543Y-137860491D01*
X130059243Y-138021435D01*
X130080956Y-138218015D01*
X130050961Y-138441473D01*
X129953559Y-138616949D01*
X129788361Y-138744758D01*
X129554977Y-138825218D01*
X129295902Y-138856962D01*
X129084633Y-138856580D01*
X128913265Y-138827749D01*
X128796230Y-138787944D01*
X128648350Y-138718587D01*
X128511687Y-138638097D01*
X128463115Y-138602670D01*
X128338197Y-138500705D01*
X128639509Y-138195813D01*
X128810796Y-138309165D01*
X128982594Y-138394300D01*
X129166048Y-138438830D01*
X129342397Y-138443528D01*
X129492881Y-138409170D01*
X129598740Y-138336529D01*
X129632921Y-138275238D01*
X129627794Y-138176941D01*
X129542857Y-138101773D01*
X129378343Y-138049866D01*
X129198101Y-138025875D01*
X128920709Y-137980104D01*
X128714635Y-137893748D01*
X128577122Y-137764280D01*
X128505413Y-137589172D01*
X128495479Y-137381565D01*
X128544548Y-137164714D01*
X128656420Y-137000805D01*
X128832097Y-136889088D01*
X129072581Y-136828814D01*
X129250743Y-136816999D01*
X129446418Y-136823003D01*
G36*
X123882955Y-137165983D02*
G01*
X123989689Y-137035557D01*
X124187020Y-136894131D01*
X124418985Y-136818556D01*
X124665712Y-136811724D01*
X124907325Y-136876526D01*
X124948819Y-136896061D01*
X125092434Y-137001263D01*
X125228236Y-137154793D01*
X125329638Y-137323845D01*
X125358480Y-137401567D01*
X125384794Y-137540398D01*
X125400485Y-137708177D01*
X125402391Y-137777459D01*
X125402623Y-137996066D01*
X124144415Y-137996066D01*
X124171234Y-138110574D01*
X124237066Y-138246004D01*
X124352161Y-138363046D01*
X124489087Y-138438442D01*
X124576342Y-138454098D01*
X124694672Y-138435099D01*
X124835851Y-138387446D01*
X124883811Y-138365521D01*
X125061171Y-138276944D01*
X125212530Y-138392391D01*
X125299869Y-138470474D01*
X125346342Y-138534922D01*
X125348695Y-138553837D01*
X125307178Y-138599681D01*
X125216190Y-138669349D01*
X125133605Y-138723700D01*
X124910751Y-138821405D01*
X124660913Y-138865628D01*
X124413290Y-138854130D01*
X124215902Y-138794029D01*
X124012424Y-138665284D01*
X123867821Y-138495774D01*
X123777361Y-138276462D01*
X123736311Y-137998309D01*
X123732671Y-137871034D01*
X123747239Y-137579375D01*
X123749028Y-137570891D01*
X124165941Y-137570891D01*
X124177423Y-137598242D01*
X124224616Y-137613324D01*
X124321951Y-137619788D01*
X124483864Y-137621285D01*
X124546210Y-137621312D01*
X124735897Y-137619052D01*
X124856189Y-137610844D01*
X124920884Y-137594550D01*
X124943780Y-137568027D01*
X124944590Y-137559510D01*
X124918460Y-137491825D01*
X124853063Y-137397005D01*
X124824948Y-137363805D01*
X124720574Y-137269906D01*
X124611775Y-137232988D01*
X124553157Y-137229902D01*
X124394574Y-137268493D01*
X124261587Y-137372155D01*
X124177228Y-137522717D01*
X124175733Y-137527623D01*
X124165941Y-137570891D01*
X123749028Y-137570891D01*
X123795684Y-137349722D01*
X123882955Y-137165983D01*
G37*
X123882955Y-137165983D02*
X123989689Y-137035557D01*
X124187020Y-136894131D01*
X124418985Y-136818556D01*
X124665712Y-136811724D01*
X124907325Y-136876526D01*
X124948819Y-136896061D01*
X125092434Y-137001263D01*
X125228236Y-137154793D01*
X125329638Y-137323845D01*
X125358480Y-137401567D01*
X125384794Y-137540398D01*
X125400485Y-137708177D01*
X125402391Y-137777459D01*
X125402623Y-137996066D01*
X124144415Y-137996066D01*
X124171234Y-138110574D01*
X124237066Y-138246004D01*
X124352161Y-138363046D01*
X124489087Y-138438442D01*
X124576342Y-138454098D01*
X124694672Y-138435099D01*
X124835851Y-138387446D01*
X124883811Y-138365521D01*
X125061171Y-138276944D01*
X125212530Y-138392391D01*
X125299869Y-138470474D01*
X125346342Y-138534922D01*
X125348695Y-138553837D01*
X125307178Y-138599681D01*
X125216190Y-138669349D01*
X125133605Y-138723700D01*
X124910751Y-138821405D01*
X124660913Y-138865628D01*
X124413290Y-138854130D01*
X124215902Y-138794029D01*
X124012424Y-138665284D01*
X123867821Y-138495774D01*
X123777361Y-138276462D01*
X123736311Y-137998309D01*
X123732671Y-137871034D01*
X123747239Y-137579375D01*
X123749028Y-137570891D01*
X124165941Y-137570891D01*
X124177423Y-137598242D01*
X124224616Y-137613324D01*
X124321951Y-137619788D01*
X124483864Y-137621285D01*
X124546210Y-137621312D01*
X124735897Y-137619052D01*
X124856189Y-137610844D01*
X124920884Y-137594550D01*
X124943780Y-137568027D01*
X124944590Y-137559510D01*
X124918460Y-137491825D01*
X124853063Y-137397005D01*
X124824948Y-137363805D01*
X124720574Y-137269906D01*
X124611775Y-137232988D01*
X124553157Y-137229902D01*
X124394574Y-137268493D01*
X124261587Y-137372155D01*
X124177228Y-137522717D01*
X124175733Y-137527623D01*
X124165941Y-137570891D01*
X123749028Y-137570891D01*
X123795684Y-137349722D01*
X123882955Y-137165983D01*
G36*
X123834369Y-141019946D02*
G01*
X123979286Y-140880206D01*
X123999317Y-140867495D01*
X124085390Y-140826105D01*
X124191927Y-140801041D01*
X124340859Y-140788858D01*
X124517787Y-140786057D01*
X124902951Y-140785902D01*
X124902951Y-140624443D01*
X124886613Y-140499168D01*
X124844922Y-140415241D01*
X124840041Y-140410773D01*
X124747264Y-140374059D01*
X124607216Y-140359828D01*
X124452445Y-140366821D01*
X124315501Y-140393780D01*
X124234241Y-140434212D01*
X124190210Y-140466601D01*
X124143715Y-140472784D01*
X124079549Y-140446248D01*
X123982505Y-140380479D01*
X123837374Y-140268963D01*
X123824053Y-140258516D01*
X123830879Y-140219862D01*
X123887822Y-140155572D01*
X123974370Y-140084131D01*
X124070008Y-140024021D01*
X124100056Y-140009827D01*
X124209659Y-139981503D01*
X124370265Y-139961300D01*
X124549698Y-139953196D01*
X124558089Y-139953180D01*
X124816221Y-139969247D01*
X125012111Y-140021514D01*
X125161233Y-140116253D01*
X125266465Y-140240338D01*
X125299179Y-140293296D01*
X125323331Y-140348768D01*
X125340216Y-140419730D01*
X125351127Y-140519154D01*
X125357360Y-140660016D01*
X125360209Y-140855289D01*
X125360968Y-141117948D01*
X125360984Y-141187633D01*
X125360984Y-141993443D01*
X125161115Y-141993443D01*
X125033630Y-141984515D01*
X124939366Y-141961896D01*
X124915749Y-141947946D01*
X124851185Y-141923870D01*
X124785241Y-141947946D01*
X124676668Y-141978003D01*
X124518958Y-141990100D01*
X124344156Y-141984851D01*
X124184307Y-141962869D01*
X124090984Y-141934663D01*
X123910391Y-141818731D01*
X123797530Y-141657847D01*
X123746791Y-141443936D01*
X123746320Y-141438443D01*
X123750773Y-141343547D01*
X124153443Y-141343547D01*
X124188646Y-141451484D01*
X124245986Y-141512229D01*
X124361087Y-141558172D01*
X124513014Y-141576512D01*
X124667939Y-141567485D01*
X124792036Y-141531332D01*
X124826803Y-141508137D01*
X124887556Y-141400960D01*
X124902951Y-141279120D01*
X124902951Y-141119017D01*
X124672597Y-141119017D01*
X124453759Y-141135863D01*
X124287863Y-141183593D01*
X124184662Y-141257986D01*
X124153443Y-141343547D01*
X123750773Y-141343547D01*
X123757287Y-141204731D01*
X123834369Y-141019946D01*
G37*
X123834369Y-141019946D02*
X123979286Y-140880206D01*
X123999317Y-140867495D01*
X124085390Y-140826105D01*
X124191927Y-140801041D01*
X124340859Y-140788858D01*
X124517787Y-140786057D01*
X124902951Y-140785902D01*
X124902951Y-140624443D01*
X124886613Y-140499168D01*
X124844922Y-140415241D01*
X124840041Y-140410773D01*
X124747264Y-140374059D01*
X124607216Y-140359828D01*
X124452445Y-140366821D01*
X124315501Y-140393780D01*
X124234241Y-140434212D01*
X124190210Y-140466601D01*
X124143715Y-140472784D01*
X124079549Y-140446248D01*
X123982505Y-140380479D01*
X123837374Y-140268963D01*
X123824053Y-140258516D01*
X123830879Y-140219862D01*
X123887822Y-140155572D01*
X123974370Y-140084131D01*
X124070008Y-140024021D01*
X124100056Y-140009827D01*
X124209659Y-139981503D01*
X124370265Y-139961300D01*
X124549698Y-139953196D01*
X124558089Y-139953180D01*
X124816221Y-139969247D01*
X125012111Y-140021514D01*
X125161233Y-140116253D01*
X125266465Y-140240338D01*
X125299179Y-140293296D01*
X125323331Y-140348768D01*
X125340216Y-140419730D01*
X125351127Y-140519154D01*
X125357360Y-140660016D01*
X125360209Y-140855289D01*
X125360968Y-141117948D01*
X125360984Y-141187633D01*
X125360984Y-141993443D01*
X125161115Y-141993443D01*
X125033630Y-141984515D01*
X124939366Y-141961896D01*
X124915749Y-141947946D01*
X124851185Y-141923870D01*
X124785241Y-141947946D01*
X124676668Y-141978003D01*
X124518958Y-141990100D01*
X124344156Y-141984851D01*
X124184307Y-141962869D01*
X124090984Y-141934663D01*
X123910391Y-141818731D01*
X123797530Y-141657847D01*
X123746791Y-141443936D01*
X123746320Y-141438443D01*
X123750773Y-141343547D01*
X124153443Y-141343547D01*
X124188646Y-141451484D01*
X124245986Y-141512229D01*
X124361087Y-141558172D01*
X124513014Y-141576512D01*
X124667939Y-141567485D01*
X124792036Y-141531332D01*
X124826803Y-141508137D01*
X124887556Y-141400960D01*
X124902951Y-141279120D01*
X124902951Y-141119017D01*
X124672597Y-141119017D01*
X124453759Y-141135863D01*
X124287863Y-141183593D01*
X124184662Y-141257986D01*
X124153443Y-141343547D01*
X123750773Y-141343547D01*
X123757287Y-141204731D01*
X123834369Y-141019946D01*
G36*
X135241624Y-140381175D02*
G01*
X135362210Y-140183525D01*
X135533834Y-140048702D01*
X135757998Y-139974626D01*
X135879438Y-139960360D01*
X136130842Y-139963999D01*
X136329876Y-140015746D01*
X136496561Y-140122544D01*
X136577269Y-140202326D01*
X136709568Y-140390931D01*
X136785390Y-140609720D01*
X136811438Y-140878668D01*
X136811571Y-140900410D01*
X136811803Y-141119017D01*
X135553595Y-141119017D01*
X135580415Y-141233525D01*
X135628841Y-141337232D01*
X135713596Y-141445290D01*
X135731323Y-141462541D01*
X135883680Y-141555904D01*
X136057424Y-141571738D01*
X136257411Y-141510313D01*
X136291311Y-141493771D01*
X136395288Y-141443484D01*
X136464931Y-141414834D01*
X136477083Y-141412184D01*
X136519501Y-141437913D01*
X136600399Y-141500861D01*
X136641465Y-141535259D01*
X136726560Y-141614276D01*
X136754503Y-141666451D01*
X136735110Y-141714446D01*
X136724743Y-141727570D01*
X136654531Y-141785008D01*
X136538674Y-141854813D01*
X136457869Y-141895564D01*
X136228501Y-141967362D01*
X135974564Y-141990625D01*
X135734074Y-141963059D01*
X135666721Y-141943321D01*
X135458262Y-141831612D01*
X135303746Y-141659721D01*
X135202278Y-141425979D01*
X135152965Y-141128716D01*
X135147551Y-140973279D01*
X135163359Y-140746973D01*
X135562623Y-140746973D01*
X135601240Y-140763702D01*
X135705042Y-140776829D01*
X135855956Y-140784575D01*
X135958197Y-140785902D01*
X136142101Y-140784623D01*
X136258174Y-140778638D01*
X136321852Y-140764724D01*
X136348567Y-140739655D01*
X136353770Y-140703280D01*
X136318073Y-140591229D01*
X136228196Y-140480488D01*
X136109966Y-140395489D01*
X135991690Y-140360718D01*
X135831044Y-140391563D01*
X135691978Y-140480732D01*
X135595557Y-140609263D01*
X135562623Y-140746973D01*
X135163359Y-140746973D01*
X135170572Y-140643733D01*
X135241624Y-140381175D01*
G37*
X135241624Y-140381175D02*
X135362210Y-140183525D01*
X135533834Y-140048702D01*
X135757998Y-139974626D01*
X135879438Y-139960360D01*
X136130842Y-139963999D01*
X136329876Y-140015746D01*
X136496561Y-140122544D01*
X136577269Y-140202326D01*
X136709568Y-140390931D01*
X136785390Y-140609720D01*
X136811438Y-140878668D01*
X136811571Y-140900410D01*
X136811803Y-141119017D01*
X135553595Y-141119017D01*
X135580415Y-141233525D01*
X135628841Y-141337232D01*
X135713596Y-141445290D01*
X135731323Y-141462541D01*
X135883680Y-141555904D01*
X136057424Y-141571738D01*
X136257411Y-141510313D01*
X136291311Y-141493771D01*
X136395288Y-141443484D01*
X136464931Y-141414834D01*
X136477083Y-141412184D01*
X136519501Y-141437913D01*
X136600399Y-141500861D01*
X136641465Y-141535259D01*
X136726560Y-141614276D01*
X136754503Y-141666451D01*
X136735110Y-141714446D01*
X136724743Y-141727570D01*
X136654531Y-141785008D01*
X136538674Y-141854813D01*
X136457869Y-141895564D01*
X136228501Y-141967362D01*
X135974564Y-141990625D01*
X135734074Y-141963059D01*
X135666721Y-141943321D01*
X135458262Y-141831612D01*
X135303746Y-141659721D01*
X135202278Y-141425979D01*
X135152965Y-141128716D01*
X135147551Y-140973279D01*
X135163359Y-140746973D01*
X135562623Y-140746973D01*
X135601240Y-140763702D01*
X135705042Y-140776829D01*
X135855956Y-140784575D01*
X135958197Y-140785902D01*
X136142101Y-140784623D01*
X136258174Y-140778638D01*
X136321852Y-140764724D01*
X136348567Y-140739655D01*
X136353770Y-140703280D01*
X136318073Y-140591229D01*
X136228196Y-140480488D01*
X136109966Y-140395489D01*
X135991690Y-140360718D01*
X135831044Y-140391563D01*
X135691978Y-140480732D01*
X135595557Y-140609263D01*
X135562623Y-140746973D01*
X135163359Y-140746973D01*
X135170572Y-140643733D01*
X135241624Y-140381175D01*
G36*
X134815107Y-139952460D02*
G01*
X134975182Y-139984017D01*
X135066312Y-140030743D01*
X135162179Y-140108370D01*
X135025787Y-140280579D01*
X134941694Y-140384867D01*
X134884592Y-140435746D01*
X134827844Y-140443519D01*
X134744811Y-140418488D01*
X134705833Y-140404327D01*
X134546926Y-140383433D01*
X134401399Y-140428220D01*
X134294560Y-140529399D01*
X134277205Y-140561659D01*
X134258303Y-140647115D01*
X134243716Y-140804606D01*
X134234126Y-141022969D01*
X134230219Y-141291038D01*
X134230164Y-141329172D01*
X134230164Y-141993443D01*
X133772131Y-141993443D01*
X133772131Y-139953115D01*
X134001148Y-139953115D01*
X134133199Y-139956563D01*
X134201992Y-139971907D01*
X134227430Y-140006648D01*
X134230164Y-140039416D01*
X134230164Y-140125717D01*
X134339878Y-140039416D01*
X134465680Y-139980538D01*
X134634681Y-139951426D01*
X134815107Y-139952460D01*
G37*
X134815107Y-139952460D02*
X134975182Y-139984017D01*
X135066312Y-140030743D01*
X135162179Y-140108370D01*
X135025787Y-140280579D01*
X134941694Y-140384867D01*
X134884592Y-140435746D01*
X134827844Y-140443519D01*
X134744811Y-140418488D01*
X134705833Y-140404327D01*
X134546926Y-140383433D01*
X134401399Y-140428220D01*
X134294560Y-140529399D01*
X134277205Y-140561659D01*
X134258303Y-140647115D01*
X134243716Y-140804606D01*
X134234126Y-141022969D01*
X134230219Y-141291038D01*
X134230164Y-141329172D01*
X134230164Y-141993443D01*
X133772131Y-141993443D01*
X133772131Y-139953115D01*
X134001148Y-139953115D01*
X134133199Y-139956563D01*
X134201992Y-139971907D01*
X134227430Y-140006648D01*
X134230164Y-140039416D01*
X134230164Y-140125717D01*
X134339878Y-140039416D01*
X134465680Y-139980538D01*
X134634681Y-139951426D01*
X134815107Y-139952460D01*
G36*
X126110525Y-139957540D02*
G01*
X126172837Y-139976218D01*
X126192925Y-140017255D01*
X126193770Y-140035782D01*
X126197375Y-140087383D01*
X126222200Y-140095484D01*
X126289263Y-140060108D01*
X126329098Y-140035937D01*
X126454773Y-139984175D01*
X126604877Y-139958581D01*
X126762263Y-139956613D01*
X126909786Y-139975729D01*
X127030300Y-140013387D01*
X127106660Y-140067044D01*
X127121719Y-140134158D01*
X127114119Y-140152333D01*
X127058718Y-140227777D01*
X126972810Y-140320568D01*
X126957272Y-140335568D01*
X126875388Y-140404540D01*
X126804737Y-140426825D01*
X126705932Y-140411272D01*
X126666348Y-140400938D01*
X126543172Y-140376116D01*
X126456564Y-140387278D01*
X126383424Y-140426646D01*
X126316426Y-140479479D01*
X126267082Y-140545924D01*
X126232791Y-140638652D01*
X126210952Y-140770334D01*
X126198966Y-140953641D01*
X126194231Y-141201246D01*
X126193770Y-141350744D01*
X126193770Y-141993443D01*
X125777377Y-141993443D01*
X125777377Y-139953115D01*
X125985574Y-139953115D01*
X126110525Y-139957540D01*
G37*
X126110525Y-139957540D02*
X126172837Y-139976218D01*
X126192925Y-140017255D01*
X126193770Y-140035782D01*
X126197375Y-140087383D01*
X126222200Y-140095484D01*
X126289263Y-140060108D01*
X126329098Y-140035937D01*
X126454773Y-139984175D01*
X126604877Y-139958581D01*
X126762263Y-139956613D01*
X126909786Y-139975729D01*
X127030300Y-140013387D01*
X127106660Y-140067044D01*
X127121719Y-140134158D01*
X127114119Y-140152333D01*
X127058718Y-140227777D01*
X126972810Y-140320568D01*
X126957272Y-140335568D01*
X126875388Y-140404540D01*
X126804737Y-140426825D01*
X126705932Y-140411272D01*
X126666348Y-140400938D01*
X126543172Y-140376116D01*
X126456564Y-140387278D01*
X126383424Y-140426646D01*
X126316426Y-140479479D01*
X126267082Y-140545924D01*
X126232791Y-140638652D01*
X126210952Y-140770334D01*
X126198966Y-140953641D01*
X126194231Y-141201246D01*
X126193770Y-141350744D01*
X126193770Y-141993443D01*
X125777377Y-141993443D01*
X125777377Y-139953115D01*
X125985574Y-139953115D01*
X126110525Y-139957540D01*
G36*
X136742288Y-136847602D02*
G01*
X136983543Y-136950090D01*
X137059531Y-136999981D01*
X137156648Y-137076651D01*
X137217612Y-137136936D01*
X137228197Y-137156571D01*
X137198308Y-137200142D01*
X137121819Y-137274077D01*
X137060582Y-137325679D01*
X136892967Y-137460378D01*
X136760614Y-137349010D01*
X136658336Y-137277113D01*
X136558610Y-137252296D01*
X136444475Y-137258357D01*
X136263234Y-137303418D01*
X136138475Y-137396949D01*
X136062658Y-137548154D01*
X136028240Y-137766236D01*
X136028231Y-137766373D01*
X136031208Y-138010124D01*
X136077467Y-138188966D01*
X136169742Y-138310730D01*
X136232650Y-138351964D01*
X136399717Y-138403311D01*
X136578162Y-138403342D01*
X136733415Y-138353522D01*
X136770164Y-138329180D01*
X136862330Y-138267004D01*
X136934387Y-138256813D01*
X137012102Y-138303092D01*
X137098018Y-138386212D01*
X137234011Y-138526521D01*
X137083023Y-138650978D01*
X136849740Y-138791443D01*
X136586673Y-138860666D01*
X136311760Y-138855653D01*
X136131216Y-138809755D01*
X135920194Y-138696249D01*
X135751426Y-138517685D01*
X135674753Y-138391639D01*
X135612654Y-138210791D01*
X135581581Y-137981745D01*
X135581342Y-137733510D01*
X135611743Y-137495093D01*
X135672592Y-137295503D01*
X135682176Y-137275039D01*
X135824102Y-137074341D01*
X136016259Y-136928217D01*
X136243464Y-136839698D01*
X136490535Y-136811815D01*
X136742288Y-136847602D01*
G37*
X136742288Y-136847602D02*
X136983543Y-136950090D01*
X137059531Y-136999981D01*
X137156648Y-137076651D01*
X137217612Y-137136936D01*
X137228197Y-137156571D01*
X137198308Y-137200142D01*
X137121819Y-137274077D01*
X137060582Y-137325679D01*
X136892967Y-137460378D01*
X136760614Y-137349010D01*
X136658336Y-137277113D01*
X136558610Y-137252296D01*
X136444475Y-137258357D01*
X136263234Y-137303418D01*
X136138475Y-137396949D01*
X136062658Y-137548154D01*
X136028240Y-137766236D01*
X136028231Y-137766373D01*
X136031208Y-138010124D01*
X136077467Y-138188966D01*
X136169742Y-138310730D01*
X136232650Y-138351964D01*
X136399717Y-138403311D01*
X136578162Y-138403342D01*
X136733415Y-138353522D01*
X136770164Y-138329180D01*
X136862330Y-138267004D01*
X136934387Y-138256813D01*
X137012102Y-138303092D01*
X137098018Y-138386212D01*
X137234011Y-138526521D01*
X137083023Y-138650978D01*
X136849740Y-138791443D01*
X136586673Y-138860666D01*
X136311760Y-138855653D01*
X136131216Y-138809755D01*
X135920194Y-138696249D01*
X135751426Y-138517685D01*
X135674753Y-138391639D01*
X135612654Y-138210791D01*
X135581581Y-137981745D01*
X135581342Y-137733510D01*
X135611743Y-137495093D01*
X135672592Y-137295503D01*
X135682176Y-137275039D01*
X135824102Y-137074341D01*
X136016259Y-136928217D01*
X136243464Y-136839698D01*
X136490535Y-136811815D01*
X136742288Y-136847602D01*
G36*
X122092295Y-136830164D02*
G01*
X122229794Y-136835602D01*
X122300733Y-136854909D01*
X122321303Y-136892576D01*
X122321311Y-136893692D01*
X122330855Y-136930581D01*
X122372949Y-136926393D01*
X122456639Y-136885859D01*
X122651646Y-136823850D01*
X122871046Y-136817332D01*
X123079192Y-136865166D01*
X123166985Y-136908540D01*
X123275249Y-136984122D01*
X123354155Y-137066542D01*
X123408195Y-137170037D01*
X123441859Y-137308843D01*
X123459637Y-137497194D01*
X123466020Y-137749328D01*
X123466393Y-137857724D01*
X123465304Y-138095287D01*
X123460778Y-138265068D01*
X123450932Y-138382550D01*
X123433882Y-138463215D01*
X123407741Y-138522545D01*
X123380542Y-138563020D01*
X123206920Y-138735225D01*
X123002462Y-138838806D01*
X122781896Y-138869960D01*
X122559954Y-138824885D01*
X122489640Y-138793009D01*
X122321311Y-138705271D01*
X122321311Y-140080172D01*
X122444162Y-140016643D01*
X122606033Y-139967491D01*
X122804995Y-139954900D01*
X123003672Y-139978147D01*
X123153710Y-140030370D01*
X123278159Y-140129826D01*
X123384492Y-140272143D01*
X123392487Y-140286755D01*
X123426207Y-140355582D01*
X123450834Y-140424956D01*
X123467786Y-140508996D01*
X123478481Y-140621816D01*
X123484338Y-140777533D01*
X123486773Y-140990265D01*
X123487213Y-141229664D01*
X123487213Y-141993443D01*
X123029180Y-141993443D01*
X123029180Y-140585108D01*
X122901067Y-140477308D01*
X122767982Y-140391079D01*
X122641952Y-140375401D01*
X122515222Y-140415747D01*
X122447683Y-140455254D01*
X122397414Y-140511527D01*
X122361662Y-140596572D01*
X122337672Y-140722394D01*
X122322689Y-140900998D01*
X122313960Y-141144391D01*
X122310886Y-141306394D01*
X122300492Y-141972623D01*
X122081885Y-141985209D01*
X121863279Y-141997795D01*
X121863279Y-137863464D01*
X122321311Y-137863464D01*
X122332989Y-138093953D01*
X122372338Y-138253950D01*
X122445834Y-138353497D01*
X122559951Y-138402639D01*
X122675246Y-138412459D01*
X122805762Y-138401175D01*
X122892383Y-138356764D01*
X122946549Y-138298081D01*
X122989190Y-138234962D01*
X123014574Y-138164645D01*
X123025869Y-138066123D01*
X123026240Y-137918387D01*
X123022440Y-137794683D01*
X123013712Y-137608328D01*
X123000720Y-137485982D01*
X122978841Y-137408377D01*
X122943454Y-137356245D01*
X122910059Y-137326111D01*
X122770525Y-137260399D01*
X122605381Y-137249787D01*
X122510554Y-137272423D01*
X122416666Y-137352881D01*
X122354474Y-137509392D01*
X122324331Y-137740852D01*
X122321311Y-137863464D01*
X121863279Y-137863464D01*
X121863279Y-136830164D01*
X122092295Y-136830164D01*
G37*
X122092295Y-136830164D02*
X122229794Y-136835602D01*
X122300733Y-136854909D01*
X122321303Y-136892576D01*
X122321311Y-136893692D01*
X122330855Y-136930581D01*
X122372949Y-136926393D01*
X122456639Y-136885859D01*
X122651646Y-136823850D01*
X122871046Y-136817332D01*
X123079192Y-136865166D01*
X123166985Y-136908540D01*
X123275249Y-136984122D01*
X123354155Y-137066542D01*
X123408195Y-137170037D01*
X123441859Y-137308843D01*
X123459637Y-137497194D01*
X123466020Y-137749328D01*
X123466393Y-137857724D01*
X123465304Y-138095287D01*
X123460778Y-138265068D01*
X123450932Y-138382550D01*
X123433882Y-138463215D01*
X123407741Y-138522545D01*
X123380542Y-138563020D01*
X123206920Y-138735225D01*
X123002462Y-138838806D01*
X122781896Y-138869960D01*
X122559954Y-138824885D01*
X122489640Y-138793009D01*
X122321311Y-138705271D01*
X122321311Y-140080172D01*
X122444162Y-140016643D01*
X122606033Y-139967491D01*
X122804995Y-139954900D01*
X123003672Y-139978147D01*
X123153710Y-140030370D01*
X123278159Y-140129826D01*
X123384492Y-140272143D01*
X123392487Y-140286755D01*
X123426207Y-140355582D01*
X123450834Y-140424956D01*
X123467786Y-140508996D01*
X123478481Y-140621816D01*
X123484338Y-140777533D01*
X123486773Y-140990265D01*
X123487213Y-141229664D01*
X123487213Y-141993443D01*
X123029180Y-141993443D01*
X123029180Y-140585108D01*
X122901067Y-140477308D01*
X122767982Y-140391079D01*
X122641952Y-140375401D01*
X122515222Y-140415747D01*
X122447683Y-140455254D01*
X122397414Y-140511527D01*
X122361662Y-140596572D01*
X122337672Y-140722394D01*
X122322689Y-140900998D01*
X122313960Y-141144391D01*
X122310886Y-141306394D01*
X122300492Y-141972623D01*
X122081885Y-141985209D01*
X121863279Y-141997795D01*
X121863279Y-137863464D01*
X122321311Y-137863464D01*
X122332989Y-138093953D01*
X122372338Y-138253950D01*
X122445834Y-138353497D01*
X122559951Y-138402639D01*
X122675246Y-138412459D01*
X122805762Y-138401175D01*
X122892383Y-138356764D01*
X122946549Y-138298081D01*
X122989190Y-138234962D01*
X123014574Y-138164645D01*
X123025869Y-138066123D01*
X123026240Y-137918387D01*
X123022440Y-137794683D01*
X123013712Y-137608328D01*
X123000720Y-137485982D01*
X122978841Y-137408377D01*
X122943454Y-137356245D01*
X122910059Y-137326111D01*
X122770525Y-137260399D01*
X122605381Y-137249787D01*
X122510554Y-137272423D01*
X122416666Y-137352881D01*
X122354474Y-137509392D01*
X122324331Y-137740852D01*
X122321311Y-137863464D01*
X121863279Y-137863464D01*
X121863279Y-136830164D01*
X122092295Y-136830164D01*
D16*
X66477500Y-113112742D02*
X66477500Y-113587258D01*
X67522500Y-113112742D02*
X67522500Y-113587258D01*
X74915835Y-112860000D02*
X74684165Y-112860000D01*
X74915835Y-112140000D02*
X74684165Y-112140000D01*
X63342500Y-109517621D02*
X63342500Y-109182379D01*
X64102500Y-109517621D02*
X64102500Y-109182379D01*
X53920000Y-112660000D02*
X53920000Y-113460000D01*
X57040000Y-112660000D02*
X57040000Y-110860000D01*
X57040000Y-112660000D02*
X57040000Y-113460000D01*
X53920000Y-112660000D02*
X53920000Y-111860000D01*
D17*
X65450000Y-107400000D02*
X65450000Y-107000000D01*
X66650000Y-106400000D02*
X66650000Y-106400000D01*
X66850000Y-107200000D02*
X66850000Y-107000000D01*
X66850000Y-107400000D02*
X66850000Y-107200000D01*
X66650000Y-106300000D02*
X66650000Y-106300000D01*
X66650000Y-106300000D02*
G75*
G03*
X66650000Y-106400000I0J-50000D01*
G01*
X66650000Y-106400000D02*
G75*
G03*
X66650000Y-106300000I0J50000D01*
G01*
D16*
X116250000Y-100000000D02*
G75*
G03*
X116250000Y-100000000I-16250000J0D01*
G01*
X141250000Y-100000000D02*
G75*
G03*
X141250000Y-100000000I-41250000J0D01*
G01*
X55253733Y-109660000D02*
X55546267Y-109660000D01*
X55253733Y-108640000D02*
X55546267Y-108640000D01*
X52420000Y-115482379D02*
X52420000Y-115817621D01*
X53180000Y-115482379D02*
X53180000Y-115817621D01*
X63247700Y-107290000D02*
X63047300Y-107290000D01*
X63247700Y-108010000D02*
X63047300Y-108010000D01*
X75432379Y-87620000D02*
X75767621Y-87620000D01*
X75432379Y-88380000D02*
X75767621Y-88380000D01*
X69860000Y-109046267D02*
X69860000Y-108753733D01*
X68840000Y-109046267D02*
X68840000Y-108753733D01*
X51170000Y-115817621D02*
X51170000Y-115482379D01*
X51930000Y-115817621D02*
X51930000Y-115482379D01*
X64627500Y-113112742D02*
X64627500Y-113587258D01*
X65672500Y-113112742D02*
X65672500Y-113587258D01*
X56600000Y-100000000D02*
X57100000Y-99750000D01*
X57100000Y-99750000D02*
X57100000Y-100250000D01*
X57100000Y-100250000D02*
X56600000Y-100000000D01*
X70522500Y-112162742D02*
X70522500Y-112637258D01*
X69477500Y-112162742D02*
X69477500Y-112637258D01*
X62192500Y-109517621D02*
X62192500Y-109182379D01*
X62952500Y-109517621D02*
X62952500Y-109182379D01*
X63590000Y-121355000D02*
X63590000Y-123955000D01*
X60930000Y-121355000D02*
X63590000Y-121355000D01*
X60930000Y-118755000D02*
X62260000Y-118755000D01*
X60930000Y-123955000D02*
X63590000Y-123955000D01*
X60930000Y-121355000D02*
X60930000Y-123955000D01*
X60930000Y-120085000D02*
X60930000Y-118755000D01*
X65610000Y-121355000D02*
X68270000Y-121355000D01*
X65610000Y-120085000D02*
X65610000Y-118755000D01*
X65610000Y-121355000D02*
X65610000Y-123955000D01*
X65610000Y-118755000D02*
X66940000Y-118755000D01*
X65610000Y-123955000D02*
X68270000Y-123955000D01*
X68270000Y-121355000D02*
X68270000Y-123955000D01*
X73425000Y-116365000D02*
X74065000Y-116365000D01*
X76225000Y-116365000D02*
X75585000Y-116365000D01*
X76175000Y-119085000D02*
X73475000Y-119085000D01*
X75585000Y-116365000D02*
X75585000Y-115735000D01*
X75525000Y-113325000D02*
X75525000Y-114725000D01*
X74125000Y-113325000D02*
X75525000Y-113325000D01*
X74125000Y-114725000D02*
X74125000Y-113325000D01*
X75525000Y-114725000D02*
X74125000Y-114725000D01*
X62065835Y-113010000D02*
X61834165Y-113010000D01*
X62065835Y-112290000D02*
X61834165Y-112290000D01*
X60830000Y-107205835D02*
X60830000Y-106974165D01*
X61550000Y-107205835D02*
X61550000Y-106974165D01*
X66377258Y-111462500D02*
X65902742Y-111462500D01*
X66377258Y-110417500D02*
X65902742Y-110417500D01*
X66236267Y-116450000D02*
X65943733Y-116450000D01*
X66236267Y-115430000D02*
X65943733Y-115430000D01*
X55596267Y-115490000D02*
X55303733Y-115490000D01*
X55596267Y-116510000D02*
X55303733Y-116510000D01*
X75432379Y-86620000D02*
X75767621Y-86620000D01*
X75432379Y-87380000D02*
X75767621Y-87380000D01*
%LPC*%
D18*
X142500000Y-142500000D03*
D19*
X67000000Y-112525000D03*
X67000000Y-114175000D03*
D20*
X75367500Y-112500000D03*
X74232500Y-112500000D03*
D21*
X63722500Y-109947500D03*
X63722500Y-108752500D03*
D22*
X56430000Y-111522500D03*
X55480000Y-111522500D03*
X54530000Y-111522500D03*
X54530000Y-113797500D03*
X56430000Y-113797500D03*
D23*
X66650000Y-106750000D03*
X65650000Y-106750000D03*
X65650000Y-107650000D03*
X66650000Y-107650000D03*
D24*
X112197592Y-112197592D03*
X112197592Y-87802408D03*
D18*
X100000000Y-100000000D03*
D25*
X54537500Y-109150000D03*
X56262500Y-109150000D03*
D26*
X52800000Y-115052500D03*
X52800000Y-116247500D03*
D18*
X142500000Y-57500000D03*
D27*
X63720000Y-107650000D03*
X62575000Y-107650000D03*
D28*
X110725000Y-112500000D03*
X110675000Y-87500000D03*
X76625000Y-112500000D03*
X76625000Y-87500000D03*
D29*
X75002500Y-88000000D03*
X76197500Y-88000000D03*
D30*
X69350000Y-109762500D03*
X69350000Y-108037500D03*
D21*
X51550000Y-116247500D03*
X51550000Y-115052500D03*
D19*
X65150000Y-112525000D03*
X65150000Y-114175000D03*
D18*
X57500000Y-57500000D03*
D31*
X69085000Y-106650000D03*
X68115000Y-106650000D03*
D32*
X52880000Y-100000000D03*
D33*
X52880000Y-104380000D03*
X52880000Y-95620000D03*
D19*
X70000000Y-111575000D03*
X70000000Y-113225000D03*
D21*
X62572500Y-109947500D03*
X62572500Y-108752500D03*
D34*
X65650000Y-106500000D03*
D35*
X65650000Y-105950000D03*
D36*
X62260000Y-120085000D03*
D37*
X62260000Y-122625000D03*
D18*
X57500000Y-142500000D03*
D36*
X66940000Y-120085000D03*
D37*
X66940000Y-122625000D03*
D38*
X74825000Y-116200000D03*
D39*
X76300000Y-117725000D03*
X73350000Y-117725000D03*
D40*
X74825000Y-114025000D03*
D20*
X62517500Y-112650000D03*
X61382500Y-112650000D03*
D41*
X61190000Y-107657500D03*
X61190000Y-106522500D03*
D31*
X66610000Y-109400000D03*
X65640000Y-109400000D03*
D42*
X66965000Y-110940000D03*
X65315000Y-110940000D03*
D43*
X58480000Y-102485000D03*
X58480000Y-101515000D03*
D44*
X66952500Y-115940000D03*
X65227500Y-115940000D03*
X56312500Y-116000000D03*
X54587500Y-116000000D03*
D29*
X75002500Y-87000000D03*
X76197500Y-87000000D03*
D34*
X66650000Y-107900000D03*
D35*
X66650000Y-108450000D03*
M02*
