G04 #@! TF.GenerationSoftware,KiCad,Pcbnew,(6.0.6-0)*
G04 #@! TF.CreationDate,2023-01-21T18:46:11+00:00*
G04 #@! TF.ProjectId,gnss_antenna_pcb,676e7373-5f61-46e7-9465-6e6e615f7063,rev?*
G04 #@! TF.SameCoordinates,Original*
G04 #@! TF.FileFunction,Copper,L1,Top*
G04 #@! TF.FilePolarity,Positive*
%FSLAX46Y46*%
G04 Gerber Fmt 4.6, Leading zero omitted, Abs format (unit mm)*
G04 Created by KiCad (PCBNEW (6.0.6-0)) date 2023-01-21 18:46:11*
%MOMM*%
%LPD*%
G01*
G04 APERTURE LIST*
G04 Aperture macros list*
%AMRoundRect*
0 Rectangle with rounded corners*
0 $1 Rounding radius*
0 $2 $3 $4 $5 $6 $7 $8 $9 X,Y pos of 4 corners*
0 Add a 4 corners polygon primitive as box body*
4,1,4,$2,$3,$4,$5,$6,$7,$8,$9,$2,$3,0*
0 Add four circle primitives for the rounded corners*
1,1,$1+$1,$2,$3*
1,1,$1+$1,$4,$5*
1,1,$1+$1,$6,$7*
1,1,$1+$1,$8,$9*
0 Add four rect primitives between the rounded corners*
20,1,$1+$1,$2,$3,$4,$5,0*
20,1,$1+$1,$4,$5,$6,$7,0*
20,1,$1+$1,$6,$7,$8,$9,0*
20,1,$1+$1,$8,$9,$2,$3,0*%
G04 Aperture macros list end*
G04 #@! TA.AperFunction,NonConductor*
%ADD10C,0.005000*%
G04 #@! TD*
G04 #@! TA.AperFunction,EtchedComponent*
%ADD11C,0.010000*%
G04 #@! TD*
G04 #@! TA.AperFunction,SMDPad,CuDef*
%ADD12RoundRect,0.200000X0.200000X0.275000X-0.200000X0.275000X-0.200000X-0.275000X0.200000X-0.275000X0*%
G04 #@! TD*
G04 #@! TA.AperFunction,SMDPad,CuDef*
%ADD13RoundRect,0.155000X0.212500X0.155000X-0.212500X0.155000X-0.212500X-0.155000X0.212500X-0.155000X0*%
G04 #@! TD*
G04 #@! TA.AperFunction,SMDPad,CuDef*
%ADD14RoundRect,0.160000X0.160000X-0.197500X0.160000X0.197500X-0.160000X0.197500X-0.160000X-0.197500X0*%
G04 #@! TD*
G04 #@! TA.AperFunction,SMDPad,CuDef*
%ADD15RoundRect,0.150000X-0.512500X-0.150000X0.512500X-0.150000X0.512500X0.150000X-0.512500X0.150000X0*%
G04 #@! TD*
G04 #@! TA.AperFunction,SMDPad,CuDef*
%ADD16R,0.350000X0.450000*%
G04 #@! TD*
G04 #@! TA.AperFunction,ComponentPad*
%ADD17C,1.500000*%
G04 #@! TD*
G04 #@! TA.AperFunction,SMDPad,CuDef*
%ADD18RoundRect,0.237500X-0.237500X0.300000X-0.237500X-0.300000X0.237500X-0.300000X0.237500X0.300000X0*%
G04 #@! TD*
G04 #@! TA.AperFunction,SMDPad,CuDef*
%ADD19RoundRect,0.160000X0.222500X0.160000X-0.222500X0.160000X-0.222500X-0.160000X0.222500X-0.160000X0*%
G04 #@! TD*
G04 #@! TA.AperFunction,SMDPad,CuDef*
%ADD20R,0.800000X1.360000*%
G04 #@! TD*
G04 #@! TA.AperFunction,SMDPad,CuDef*
%ADD21RoundRect,0.160000X-0.197500X-0.160000X0.197500X-0.160000X0.197500X0.160000X-0.197500X0.160000X0*%
G04 #@! TD*
G04 #@! TA.AperFunction,SMDPad,CuDef*
%ADD22RoundRect,0.237500X-0.300000X-0.237500X0.300000X-0.237500X0.300000X0.237500X-0.300000X0.237500X0*%
G04 #@! TD*
G04 #@! TA.AperFunction,SMDPad,CuDef*
%ADD23RoundRect,0.160000X-0.160000X0.197500X-0.160000X-0.197500X0.160000X-0.197500X0.160000X0.197500X0*%
G04 #@! TD*
G04 #@! TA.AperFunction,SMDPad,CuDef*
%ADD24RoundRect,0.147500X-0.172500X0.147500X-0.172500X-0.147500X0.172500X-0.147500X0.172500X0.147500X0*%
G04 #@! TD*
G04 #@! TA.AperFunction,SMDPad,CuDef*
%ADD25R,5.080000X2.290000*%
G04 #@! TD*
G04 #@! TA.AperFunction,ComponentPad*
%ADD26C,0.970000*%
G04 #@! TD*
G04 #@! TA.AperFunction,SMDPad,CuDef*
%ADD27R,0.950000X0.460000*%
G04 #@! TD*
G04 #@! TA.AperFunction,SMDPad,CuDef*
%ADD28R,5.080000X2.420000*%
G04 #@! TD*
G04 #@! TA.AperFunction,SMDPad,CuDef*
%ADD29R,0.200000X0.100000*%
G04 #@! TD*
G04 #@! TA.AperFunction,ComponentPad*
%ADD30C,0.300000*%
G04 #@! TD*
G04 #@! TA.AperFunction,ComponentPad*
%ADD31R,1.700000X1.700000*%
G04 #@! TD*
G04 #@! TA.AperFunction,ComponentPad*
%ADD32O,1.700000X1.700000*%
G04 #@! TD*
G04 #@! TA.AperFunction,SMDPad,CuDef*
%ADD33R,1.000000X1.050000*%
G04 #@! TD*
G04 #@! TA.AperFunction,SMDPad,CuDef*
%ADD34R,1.050000X2.200000*%
G04 #@! TD*
G04 #@! TA.AperFunction,SMDPad,CuDef*
%ADD35R,1.000000X1.000000*%
G04 #@! TD*
G04 #@! TA.AperFunction,SMDPad,CuDef*
%ADD36RoundRect,0.155000X-0.212500X-0.155000X0.212500X-0.155000X0.212500X0.155000X-0.212500X0.155000X0*%
G04 #@! TD*
G04 #@! TA.AperFunction,SMDPad,CuDef*
%ADD37RoundRect,0.200000X-0.200000X-0.275000X0.200000X-0.275000X0.200000X0.275000X-0.200000X0.275000X0*%
G04 #@! TD*
G04 #@! TA.AperFunction,ViaPad*
%ADD38C,0.800000*%
G04 #@! TD*
G04 #@! TA.AperFunction,ViaPad*
%ADD39C,0.450000*%
G04 #@! TD*
G04 #@! TA.AperFunction,Conductor*
%ADD40C,1.300000*%
G04 #@! TD*
G04 #@! TA.AperFunction,Conductor*
%ADD41C,1.485000*%
G04 #@! TD*
G04 #@! TA.AperFunction,Conductor*
%ADD42C,0.250000*%
G04 #@! TD*
G04 #@! TA.AperFunction,Conductor*
%ADD43C,0.508000*%
G04 #@! TD*
G04 #@! TA.AperFunction,Conductor*
%ADD44C,0.254000*%
G04 #@! TD*
G04 #@! TA.AperFunction,Conductor*
%ADD45C,1.016000*%
G04 #@! TD*
G04 APERTURE END LIST*
D10*
X75075000Y-86815000D02*
X76650000Y-86815000D01*
X76650000Y-86815000D02*
X76650000Y-88175000D01*
X76650000Y-88175000D02*
X75075000Y-88175000D01*
X75075000Y-88175000D02*
X75075000Y-86815000D01*
G36*
X75075000Y-86815000D02*
G01*
X76650000Y-86815000D01*
X76650000Y-88175000D01*
X75075000Y-88175000D01*
X75075000Y-86815000D01*
G37*
X74960000Y-111820000D02*
X76350000Y-111820000D01*
X76350000Y-111820000D02*
X76350000Y-113180000D01*
X76350000Y-113180000D02*
X74960000Y-113180000D01*
X74960000Y-113180000D02*
X74960000Y-111820000D01*
G36*
X74960000Y-111820000D02*
G01*
X76350000Y-111820000D01*
X76350000Y-113180000D01*
X74960000Y-113180000D01*
X74960000Y-111820000D01*
G37*
D11*
X80500000Y-86820000D02*
X79820000Y-86820000D01*
X79820000Y-86820000D02*
X79820000Y-88180000D01*
X79820000Y-88180000D02*
X80500000Y-88180000D01*
X80500000Y-88180000D02*
X80500000Y-86820000D01*
G36*
X80500000Y-86820000D02*
G01*
X79820000Y-86820000D01*
X79820000Y-88180000D01*
X80500000Y-88180000D01*
X80500000Y-86820000D01*
G37*
X76575000Y-86820000D02*
X79820000Y-86820000D01*
X79820000Y-86820000D02*
X79820000Y-88180000D01*
X79820000Y-88180000D02*
X76575000Y-88180000D01*
X76575000Y-88180000D02*
X76575000Y-86820000D01*
G36*
X76575000Y-86820000D02*
G01*
X79820000Y-86820000D01*
X79820000Y-88180000D01*
X76575000Y-88180000D01*
X76575000Y-86820000D01*
G37*
X109825000Y-88180000D02*
X105900000Y-88180000D01*
X105900000Y-88180000D02*
X105900000Y-86820000D01*
X105900000Y-86820000D02*
X109825000Y-86820000D01*
X109825000Y-86820000D02*
X109825000Y-88180000D01*
G36*
X109825000Y-88180000D02*
G01*
X105900000Y-88180000D01*
X105900000Y-86820000D01*
X109825000Y-86820000D01*
X109825000Y-88180000D01*
G37*
X80500000Y-86300000D02*
X81180000Y-86300000D01*
X81180000Y-86300000D02*
X81180000Y-88700000D01*
X81180000Y-88700000D02*
X80500000Y-88700000D01*
X80500000Y-88700000D02*
X80500000Y-86300000D01*
G36*
X80500000Y-86300000D02*
G01*
X81180000Y-86300000D01*
X81180000Y-88700000D01*
X80500000Y-88700000D01*
X80500000Y-86300000D01*
G37*
X106580000Y-113180000D02*
X105220000Y-113180000D01*
X105220000Y-113180000D02*
X105220000Y-88700000D01*
X105220000Y-88700000D02*
X106580000Y-88700000D01*
X106580000Y-88700000D02*
X106580000Y-113180000D01*
G36*
X106580000Y-113180000D02*
G01*
X105220000Y-113180000D01*
X105220000Y-88700000D01*
X106580000Y-88700000D01*
X106580000Y-113180000D01*
G37*
X105900000Y-113700000D02*
X80500000Y-113700000D01*
X80500000Y-113700000D02*
X80500000Y-111300000D01*
X80500000Y-111300000D02*
X105900000Y-111300000D01*
X105900000Y-111300000D02*
X105900000Y-113700000D01*
G36*
X105900000Y-113700000D02*
G01*
X80500000Y-113700000D01*
X80500000Y-111300000D01*
X105900000Y-111300000D01*
X105900000Y-113700000D01*
G37*
X105900000Y-86300000D02*
X81180000Y-86300000D01*
X81180000Y-86300000D02*
X81180000Y-88700000D01*
X81180000Y-88700000D02*
X105900000Y-88700000D01*
X105900000Y-88700000D02*
X105900000Y-86300000D01*
G36*
X105900000Y-86300000D02*
G01*
X81180000Y-86300000D01*
X81180000Y-88700000D01*
X105900000Y-88700000D01*
X105900000Y-86300000D01*
G37*
X109875000Y-113180000D02*
X106580000Y-113180000D01*
X106580000Y-113180000D02*
X106580000Y-111820000D01*
X106580000Y-111820000D02*
X109875000Y-111820000D01*
X109875000Y-111820000D02*
X109875000Y-113180000D01*
G36*
X109875000Y-113180000D02*
G01*
X106580000Y-113180000D01*
X106580000Y-111820000D01*
X109875000Y-111820000D01*
X109875000Y-113180000D01*
G37*
X106580000Y-88700000D02*
X105900000Y-88700000D01*
X105900000Y-88700000D02*
X105900000Y-86820000D01*
X105900000Y-86820000D02*
X106580000Y-86820000D01*
X106580000Y-86820000D02*
X106580000Y-88700000D01*
G36*
X106580000Y-88700000D02*
G01*
X105900000Y-88700000D01*
X105900000Y-86820000D01*
X106580000Y-86820000D01*
X106580000Y-88700000D01*
G37*
X79820000Y-113180000D02*
X76575000Y-113180000D01*
X76575000Y-113180000D02*
X76575000Y-111820000D01*
X76575000Y-111820000D02*
X79820000Y-111820000D01*
X79820000Y-111820000D02*
X79820000Y-113180000D01*
G36*
X79820000Y-113180000D02*
G01*
X76575000Y-113180000D01*
X76575000Y-111820000D01*
X79820000Y-111820000D01*
X79820000Y-113180000D01*
G37*
X79820000Y-88180000D02*
X81180000Y-88180000D01*
X81180000Y-88180000D02*
X81180000Y-111300000D01*
X81180000Y-111300000D02*
X79820000Y-111300000D01*
X79820000Y-111300000D02*
X79820000Y-88180000D01*
G36*
X79820000Y-88180000D02*
G01*
X81180000Y-88180000D01*
X81180000Y-111300000D01*
X79820000Y-111300000D01*
X79820000Y-88180000D01*
G37*
X79820000Y-111300000D02*
X80500000Y-111300000D01*
X80500000Y-111300000D02*
X80500000Y-113180000D01*
X80500000Y-113180000D02*
X79820000Y-113180000D01*
X79820000Y-113180000D02*
X79820000Y-111300000D01*
G36*
X79820000Y-111300000D02*
G01*
X80500000Y-111300000D01*
X80500000Y-113180000D01*
X79820000Y-113180000D01*
X79820000Y-111300000D01*
G37*
X70300000Y-98837500D02*
X70100000Y-98837500D01*
X70100000Y-98837500D02*
X70100000Y-98337500D01*
X70100000Y-98337500D02*
X70300000Y-98337500D01*
X70300000Y-98337500D02*
X70300000Y-98837500D01*
G36*
X70300000Y-98837500D02*
G01*
X70100000Y-98837500D01*
X70100000Y-98337500D01*
X70300000Y-98337500D01*
X70300000Y-98837500D01*
G37*
X71100000Y-100137500D02*
X71300000Y-100137500D01*
X71300000Y-100137500D02*
X71300000Y-100637500D01*
X71300000Y-100637500D02*
X71100000Y-100637500D01*
X71100000Y-100637500D02*
X71100000Y-100137500D01*
G36*
X71100000Y-100137500D02*
G01*
X71300000Y-100137500D01*
X71300000Y-100637500D01*
X71100000Y-100637500D01*
X71100000Y-100137500D01*
G37*
D12*
X62150000Y-90300000D03*
X60500000Y-90300000D03*
D13*
X75442500Y-87500000D03*
X74307500Y-87500000D03*
D14*
X68150000Y-101422500D03*
X68150000Y-100227500D03*
D15*
X57437500Y-80500000D03*
X57437500Y-81450000D03*
X57437500Y-82400000D03*
X59712500Y-82400000D03*
X59712500Y-80500000D03*
D16*
X71200000Y-99037500D03*
X70200000Y-99037500D03*
X70200000Y-99937500D03*
X71200000Y-99937500D03*
D17*
X112197592Y-112197592D03*
X112197592Y-87802408D03*
D18*
X54950000Y-80562500D03*
X54950000Y-82287500D03*
D14*
X64050000Y-81672500D03*
X64050000Y-80477500D03*
D19*
X66572500Y-100000000D03*
X65427500Y-100000000D03*
D20*
X110275000Y-112500000D03*
X110225000Y-87500000D03*
X76175000Y-112500000D03*
X76175000Y-87500000D03*
D21*
X74127500Y-112975000D03*
X75322500Y-112975000D03*
D22*
X64387500Y-93100000D03*
X66112500Y-93100000D03*
D23*
X65275000Y-80452500D03*
X65275000Y-81647500D03*
D12*
X62150000Y-93150000D03*
X60500000Y-93150000D03*
D24*
X73550000Y-97640000D03*
X73550000Y-98610000D03*
D25*
X52880000Y-100000000D03*
D26*
X56320000Y-95620000D03*
X56320000Y-104380000D03*
D27*
X55870000Y-95620000D03*
D28*
X52880000Y-104380000D03*
D27*
X55870000Y-104380000D03*
D28*
X52880000Y-95620000D03*
D12*
X66075000Y-90300000D03*
X64425000Y-90300000D03*
D14*
X63675000Y-101422500D03*
X63675000Y-100227500D03*
D29*
X70200000Y-98787500D03*
D30*
X70200000Y-98237500D03*
D31*
X70000000Y-125000000D03*
D32*
X70000000Y-127540000D03*
D31*
X70000000Y-75000000D03*
D32*
X70000000Y-72460000D03*
D33*
X74950000Y-83575000D03*
D34*
X73475000Y-82050000D03*
X76425000Y-82050000D03*
D35*
X74950000Y-85750000D03*
D36*
X64532500Y-87275000D03*
X65667500Y-87275000D03*
D13*
X62217500Y-100000000D03*
X61082500Y-100000000D03*
D24*
X68150000Y-97915000D03*
X68150000Y-98885000D03*
D37*
X60500000Y-95850000D03*
X62150000Y-95850000D03*
D24*
X58500000Y-98665000D03*
X58500000Y-99635000D03*
D22*
X60512500Y-87300000D03*
X62237500Y-87300000D03*
D18*
X62125000Y-80525000D03*
X62125000Y-82250000D03*
D21*
X74127500Y-111975000D03*
X75322500Y-111975000D03*
D29*
X71200000Y-100187500D03*
D30*
X71200000Y-100737500D03*
D38*
X108790782Y-82600000D03*
D39*
X59700000Y-81450000D03*
D38*
X148200000Y-99900000D03*
X80129612Y-117750000D03*
X84003459Y-117750000D03*
X103430766Y-51600000D03*
D39*
X61025000Y-81500000D03*
D38*
X53000000Y-106800000D03*
X148200000Y-80580000D03*
X74925000Y-101325000D03*
X109400000Y-148200000D03*
D39*
X63675000Y-102650000D03*
D38*
X148200000Y-119220000D03*
X74925000Y-106141666D03*
X53000000Y-102200000D03*
X99498847Y-117750000D03*
X62425000Y-78750000D03*
X55830000Y-86010000D03*
X51000000Y-118914284D03*
D39*
X74125000Y-114075000D03*
D38*
X97169235Y-82600000D03*
X116200000Y-115000000D03*
X51200000Y-69400000D03*
X85547694Y-82600000D03*
X116200000Y-107500000D03*
X73230000Y-77200000D03*
D39*
X63280000Y-88780000D03*
D38*
X59150000Y-102420000D03*
X107246547Y-117750000D03*
X51000000Y-136485710D03*
X58925000Y-89525000D03*
X58925000Y-84700000D03*
X138500000Y-148200000D03*
X125815380Y-51600000D03*
X51200000Y-51600000D03*
X63925000Y-72875000D03*
D39*
X77750000Y-82050000D03*
D38*
X116200000Y-103750000D03*
X95969228Y-51600000D03*
D39*
X70575000Y-101425000D03*
D38*
X116200000Y-88750000D03*
X62425000Y-75375000D03*
X103372694Y-117750000D03*
X53000000Y-97800000D03*
D39*
X74125000Y-110850000D03*
X63375000Y-87300000D03*
D38*
X67225000Y-74250000D03*
X91751153Y-117750000D03*
X93295388Y-82600000D03*
X116200000Y-85000000D03*
X104916929Y-82600000D03*
D39*
X72850000Y-113000000D03*
D38*
X148200000Y-109560000D03*
X70600000Y-148200000D03*
X148200000Y-148200000D03*
X148200000Y-90240000D03*
X95625000Y-117750000D03*
X74925000Y-103733333D03*
X81046152Y-51600000D03*
X148200000Y-138540000D03*
X68460000Y-80420000D03*
D39*
X72875000Y-111975000D03*
X70175000Y-97125000D03*
D38*
X66123076Y-51600000D03*
X101043082Y-82600000D03*
X58925000Y-87150000D03*
X112200000Y-84000000D03*
X116200000Y-111250000D03*
X118353842Y-51600000D03*
D39*
X65650000Y-88400000D03*
D38*
X148200000Y-61260000D03*
X148200000Y-70920000D03*
X55850000Y-88440000D03*
X51200000Y-77200000D03*
X128800000Y-148200000D03*
X65600000Y-78900000D03*
X63525000Y-94600000D03*
X99700000Y-148200000D03*
D39*
X71025000Y-97525000D03*
D38*
X80300000Y-148200000D03*
X60025000Y-97650000D03*
D39*
X61050000Y-82250000D03*
D38*
X63475000Y-91650000D03*
X51200000Y-60600000D03*
X64900000Y-95500000D03*
X58661538Y-51600000D03*
X133276918Y-51600000D03*
X90000000Y-148200000D03*
X148200000Y-128880000D03*
X72380000Y-75000000D03*
X89421541Y-82600000D03*
X51000000Y-148200000D03*
D39*
X76425000Y-79900000D03*
D38*
X81673847Y-82600000D03*
X88507690Y-51600000D03*
D39*
X71675000Y-101600000D03*
D38*
X110892304Y-51600000D03*
X74925000Y-108550000D03*
X116200000Y-96250000D03*
X51000000Y-142342852D03*
X65625000Y-76625000D03*
X66060000Y-102450000D03*
D39*
X66225000Y-88875000D03*
D38*
X51000000Y-107200000D03*
D39*
X72100000Y-82050000D03*
D38*
X56600000Y-102200000D03*
X60900000Y-148200000D03*
X73584614Y-51600000D03*
X51000000Y-124771426D03*
X51000000Y-130628568D03*
X71510000Y-78610000D03*
D39*
X68125000Y-102450000D03*
D38*
X116200000Y-92500000D03*
X51200000Y-93000000D03*
X148200000Y-51600000D03*
D39*
X62200000Y-88775000D03*
D38*
X61480000Y-102420000D03*
X51200000Y-84400000D03*
D39*
X59770000Y-94500000D03*
D38*
X119100000Y-148200000D03*
X87877306Y-117750000D03*
X116200000Y-100000000D03*
X51000000Y-113057142D03*
D39*
X72150000Y-100800000D03*
D38*
X56325000Y-97750000D03*
D39*
X73450000Y-79850000D03*
D38*
X140738456Y-51600000D03*
D39*
X69425000Y-97575000D03*
D40*
X111895184Y-87500000D02*
X112197592Y-87802408D01*
X110675000Y-87500000D02*
X111895184Y-87500000D01*
X111895184Y-112500000D02*
X112197592Y-112197592D01*
X110725000Y-112500000D02*
X111895184Y-112500000D01*
D41*
X77450000Y-97550000D02*
X75962500Y-99037500D01*
X73900000Y-87500000D02*
X70325000Y-87500000D01*
X70625000Y-93075000D02*
X76050000Y-93075000D01*
D42*
X71200000Y-99037500D02*
X72000000Y-99037500D01*
D41*
X77450000Y-94475000D02*
X77450000Y-97550000D01*
X75962500Y-99037500D02*
X72050000Y-99037500D01*
X70325000Y-87500000D02*
X69400000Y-88425000D01*
X69400000Y-91850000D02*
X70625000Y-93075000D01*
X69400000Y-88425000D02*
X69400000Y-91850000D01*
X76050000Y-93075000D02*
X77450000Y-94475000D01*
D43*
X66550000Y-94925000D02*
X66112500Y-94487500D01*
X67625000Y-94925000D02*
X66575000Y-94925000D01*
X68475000Y-95775000D02*
X67625000Y-94925000D01*
X73550000Y-97640000D02*
X73550000Y-96525000D01*
X66112500Y-94487500D02*
X66112500Y-93100000D01*
X66112500Y-90337500D02*
X66075000Y-90300000D01*
X66112500Y-93100000D02*
X66112500Y-90337500D01*
X72800000Y-95775000D02*
X68475000Y-95775000D01*
X73550000Y-96525000D02*
X72800000Y-95775000D01*
X62150000Y-90300000D02*
X64425000Y-90300000D01*
X64425000Y-87382500D02*
X64532500Y-87275000D01*
X64425000Y-90300000D02*
X64425000Y-87382500D01*
X62150000Y-95850000D02*
X62150000Y-93150000D01*
X62150000Y-93150000D02*
X62150000Y-90300000D01*
X60512500Y-87300000D02*
X60512500Y-90287500D01*
X60512500Y-86237500D02*
X60512500Y-87300000D01*
X61625000Y-85125000D02*
X60512500Y-86237500D01*
X70000000Y-81200000D02*
X66075000Y-85125000D01*
X60512500Y-90287500D02*
X60500000Y-90300000D01*
X66075000Y-85125000D02*
X61625000Y-85125000D01*
X60500000Y-90300000D02*
X60500000Y-93150000D01*
X70000000Y-75000000D02*
X70000000Y-81200000D01*
D41*
X62600000Y-100000000D02*
X65100000Y-100000000D01*
D44*
X63902500Y-100000000D02*
X63675000Y-100227500D01*
D41*
X52880000Y-100000000D02*
X58100000Y-100000000D01*
X58100000Y-100000000D02*
X60700000Y-100000000D01*
D43*
X58300000Y-82400000D02*
X58575000Y-82125000D01*
D44*
X58500000Y-98665000D02*
X58500000Y-98350000D01*
D43*
X58300000Y-80500000D02*
X57437500Y-80500000D01*
X55012500Y-80500000D02*
X54950000Y-80562500D01*
X58050000Y-90675000D02*
X58500000Y-91125000D01*
X57437500Y-82400000D02*
X58300000Y-82400000D01*
X57437500Y-80500000D02*
X55012500Y-80500000D01*
X58575000Y-82125000D02*
X58575000Y-80775000D01*
X58500000Y-91125000D02*
X58500000Y-98350000D01*
X57437500Y-90062500D02*
X58050000Y-90675000D01*
X57437500Y-82400000D02*
X57437500Y-90062500D01*
X58575000Y-80775000D02*
X58300000Y-80500000D01*
X62125000Y-80525000D02*
X64002500Y-80525000D01*
X66665000Y-72460000D02*
X70000000Y-72460000D01*
X64050000Y-80477500D02*
X64050000Y-75075000D01*
X62100000Y-80500000D02*
X62125000Y-80525000D01*
X59712500Y-80500000D02*
X62100000Y-80500000D01*
X64050000Y-75075000D02*
X66665000Y-72460000D01*
X64002500Y-80525000D02*
X64050000Y-80477500D01*
D45*
X74950000Y-83575000D02*
X74950000Y-85750000D01*
D43*
X67725000Y-96875000D02*
X68150000Y-97300000D01*
X60500000Y-95850000D02*
X61525000Y-96875000D01*
X61525000Y-96875000D02*
X67725000Y-96875000D01*
X68150000Y-97300000D02*
X68150000Y-97882000D01*
D41*
X66925000Y-100000000D02*
X69400000Y-100000000D01*
D44*
X69562500Y-99937500D02*
X69500000Y-100000000D01*
X68150000Y-98885000D02*
X68150000Y-100227500D01*
X70200000Y-99937500D02*
X69562500Y-99937500D01*
D42*
X76625000Y-112500000D02*
X75367500Y-112500000D01*
D43*
X65275000Y-81647500D02*
X64075000Y-81647500D01*
X60300000Y-83825000D02*
X63100000Y-83825000D01*
X59712500Y-83237500D02*
X60300000Y-83825000D01*
X64075000Y-81647500D02*
X64050000Y-81672500D01*
X63100000Y-83825000D02*
X64050000Y-82875000D01*
X64050000Y-82875000D02*
X64050000Y-81672500D01*
X59712500Y-82400000D02*
X59712500Y-83237500D01*
G04 #@! TA.AperFunction,Conductor*
G36*
X149433621Y-50528502D02*
G01*
X149480114Y-50582158D01*
X149491500Y-50634500D01*
X149491500Y-149365500D01*
X149471498Y-149433621D01*
X149417842Y-149480114D01*
X149365500Y-149491500D01*
X50634500Y-149491500D01*
X50566379Y-149471498D01*
X50519886Y-149417842D01*
X50508500Y-149365500D01*
X50508500Y-142632703D01*
X55390743Y-142632703D01*
X55428268Y-142917734D01*
X55504129Y-143195036D01*
X55616923Y-143459476D01*
X55764561Y-143706161D01*
X55944313Y-143930528D01*
X56152851Y-144128423D01*
X56386317Y-144296186D01*
X56390112Y-144298195D01*
X56390113Y-144298196D01*
X56411869Y-144309715D01*
X56640392Y-144430712D01*
X56910373Y-144529511D01*
X57191264Y-144590755D01*
X57219841Y-144593004D01*
X57414282Y-144608307D01*
X57414291Y-144608307D01*
X57416739Y-144608500D01*
X57572271Y-144608500D01*
X57574407Y-144608354D01*
X57574418Y-144608354D01*
X57782548Y-144594165D01*
X57782554Y-144594164D01*
X57786825Y-144593873D01*
X57791020Y-144593004D01*
X57791022Y-144593004D01*
X57927584Y-144564723D01*
X58068342Y-144535574D01*
X58339343Y-144439607D01*
X58594812Y-144307750D01*
X58598313Y-144305289D01*
X58598317Y-144305287D01*
X58712417Y-144225096D01*
X58830023Y-144142441D01*
X59040622Y-143946740D01*
X59222713Y-143724268D01*
X59372927Y-143479142D01*
X59488483Y-143215898D01*
X59567244Y-142939406D01*
X59607751Y-142654784D01*
X59607845Y-142636951D01*
X59607867Y-142632703D01*
X140390743Y-142632703D01*
X140428268Y-142917734D01*
X140504129Y-143195036D01*
X140616923Y-143459476D01*
X140764561Y-143706161D01*
X140944313Y-143930528D01*
X141152851Y-144128423D01*
X141386317Y-144296186D01*
X141390112Y-144298195D01*
X141390113Y-144298196D01*
X141411869Y-144309715D01*
X141640392Y-144430712D01*
X141910373Y-144529511D01*
X142191264Y-144590755D01*
X142219841Y-144593004D01*
X142414282Y-144608307D01*
X142414291Y-144608307D01*
X142416739Y-144608500D01*
X142572271Y-144608500D01*
X142574407Y-144608354D01*
X142574418Y-144608354D01*
X142782548Y-144594165D01*
X142782554Y-144594164D01*
X142786825Y-144593873D01*
X142791020Y-144593004D01*
X142791022Y-144593004D01*
X142927584Y-144564723D01*
X143068342Y-144535574D01*
X143339343Y-144439607D01*
X143594812Y-144307750D01*
X143598313Y-144305289D01*
X143598317Y-144305287D01*
X143712417Y-144225096D01*
X143830023Y-144142441D01*
X144040622Y-143946740D01*
X144222713Y-143724268D01*
X144372927Y-143479142D01*
X144488483Y-143215898D01*
X144567244Y-142939406D01*
X144607751Y-142654784D01*
X144607845Y-142636951D01*
X144609235Y-142371583D01*
X144609235Y-142371576D01*
X144609257Y-142367297D01*
X144571732Y-142082266D01*
X144495871Y-141804964D01*
X144383077Y-141540524D01*
X144235439Y-141293839D01*
X144055687Y-141069472D01*
X143847149Y-140871577D01*
X143613683Y-140703814D01*
X143591843Y-140692250D01*
X143568654Y-140679972D01*
X143359608Y-140569288D01*
X143089627Y-140470489D01*
X142808736Y-140409245D01*
X142777685Y-140406801D01*
X142585718Y-140391693D01*
X142585709Y-140391693D01*
X142583261Y-140391500D01*
X142427729Y-140391500D01*
X142425593Y-140391646D01*
X142425582Y-140391646D01*
X142217452Y-140405835D01*
X142217446Y-140405836D01*
X142213175Y-140406127D01*
X142208980Y-140406996D01*
X142208978Y-140406996D01*
X142072416Y-140435277D01*
X141931658Y-140464426D01*
X141660657Y-140560393D01*
X141405188Y-140692250D01*
X141401687Y-140694711D01*
X141401683Y-140694713D01*
X141391594Y-140701804D01*
X141169977Y-140857559D01*
X140959378Y-141053260D01*
X140777287Y-141275732D01*
X140627073Y-141520858D01*
X140511517Y-141784102D01*
X140432756Y-142060594D01*
X140392249Y-142345216D01*
X140392227Y-142349505D01*
X140392226Y-142349512D01*
X140390765Y-142628417D01*
X140390743Y-142632703D01*
X59607867Y-142632703D01*
X59609235Y-142371583D01*
X59609235Y-142371576D01*
X59609257Y-142367297D01*
X59571732Y-142082266D01*
X59495871Y-141804964D01*
X59383077Y-141540524D01*
X59235439Y-141293839D01*
X59055687Y-141069472D01*
X58847149Y-140871577D01*
X58613683Y-140703814D01*
X58591843Y-140692250D01*
X58568654Y-140679972D01*
X58359608Y-140569288D01*
X58089627Y-140470489D01*
X57808736Y-140409245D01*
X57777685Y-140406801D01*
X57585718Y-140391693D01*
X57585709Y-140391693D01*
X57583261Y-140391500D01*
X57427729Y-140391500D01*
X57425593Y-140391646D01*
X57425582Y-140391646D01*
X57217452Y-140405835D01*
X57217446Y-140405836D01*
X57213175Y-140406127D01*
X57208980Y-140406996D01*
X57208978Y-140406996D01*
X57072416Y-140435277D01*
X56931658Y-140464426D01*
X56660657Y-140560393D01*
X56405188Y-140692250D01*
X56401687Y-140694711D01*
X56401683Y-140694713D01*
X56391594Y-140701804D01*
X56169977Y-140857559D01*
X55959378Y-141053260D01*
X55777287Y-141275732D01*
X55627073Y-141520858D01*
X55511517Y-141784102D01*
X55432756Y-142060594D01*
X55392249Y-142345216D01*
X55392227Y-142349505D01*
X55392226Y-142349512D01*
X55390765Y-142628417D01*
X55390743Y-142632703D01*
X50508500Y-142632703D01*
X50508500Y-127807966D01*
X68668257Y-127807966D01*
X68698565Y-127942446D01*
X68701645Y-127952275D01*
X68781770Y-128149603D01*
X68786413Y-128158794D01*
X68897694Y-128340388D01*
X68903777Y-128348699D01*
X69043213Y-128509667D01*
X69050580Y-128516883D01*
X69214434Y-128652916D01*
X69222881Y-128658831D01*
X69406756Y-128766279D01*
X69416042Y-128770729D01*
X69615001Y-128846703D01*
X69624899Y-128849579D01*
X69728250Y-128870606D01*
X69742299Y-128869410D01*
X69746000Y-128859065D01*
X69746000Y-128858517D01*
X70254000Y-128858517D01*
X70258064Y-128872359D01*
X70271478Y-128874393D01*
X70278184Y-128873534D01*
X70288262Y-128871392D01*
X70492255Y-128810191D01*
X70501842Y-128806433D01*
X70693095Y-128712739D01*
X70701945Y-128707464D01*
X70875328Y-128583792D01*
X70883200Y-128577139D01*
X71034052Y-128426812D01*
X71040730Y-128418965D01*
X71165003Y-128246020D01*
X71170313Y-128237183D01*
X71264670Y-128046267D01*
X71268469Y-128036672D01*
X71330377Y-127832910D01*
X71332555Y-127822837D01*
X71333986Y-127811962D01*
X71331775Y-127797778D01*
X71318617Y-127794000D01*
X70272115Y-127794000D01*
X70256876Y-127798475D01*
X70255671Y-127799865D01*
X70254000Y-127807548D01*
X70254000Y-128858517D01*
X69746000Y-128858517D01*
X69746000Y-127812115D01*
X69741525Y-127796876D01*
X69740135Y-127795671D01*
X69732452Y-127794000D01*
X68683225Y-127794000D01*
X68669694Y-127797973D01*
X68668257Y-127807966D01*
X50508500Y-127807966D01*
X50508500Y-125894669D01*
X68642001Y-125894669D01*
X68642371Y-125901490D01*
X68647895Y-125952352D01*
X68651521Y-125967604D01*
X68696676Y-126088054D01*
X68705214Y-126103649D01*
X68781715Y-126205724D01*
X68794276Y-126218285D01*
X68896351Y-126294786D01*
X68911946Y-126303324D01*
X69021337Y-126344333D01*
X69078101Y-126386975D01*
X69102801Y-126453536D01*
X69087594Y-126522885D01*
X69068201Y-126549366D01*
X68944590Y-126678717D01*
X68938104Y-126686727D01*
X68818098Y-126862649D01*
X68813000Y-126871623D01*
X68723338Y-127064783D01*
X68719775Y-127074470D01*
X68664389Y-127274183D01*
X68665912Y-127282607D01*
X68678292Y-127286000D01*
X69727885Y-127286000D01*
X69743124Y-127281525D01*
X69744329Y-127280135D01*
X69746000Y-127272452D01*
X69746000Y-127267885D01*
X70254000Y-127267885D01*
X70258475Y-127283124D01*
X70259865Y-127284329D01*
X70267548Y-127286000D01*
X71318344Y-127286000D01*
X71331875Y-127282027D01*
X71333180Y-127272947D01*
X71291214Y-127105875D01*
X71287894Y-127096124D01*
X71202972Y-126900814D01*
X71198105Y-126891739D01*
X71082426Y-126712926D01*
X71076136Y-126704757D01*
X70931931Y-126546279D01*
X70900879Y-126482433D01*
X70909273Y-126411934D01*
X70954450Y-126357166D01*
X70980894Y-126343497D01*
X71088054Y-126303324D01*
X71103649Y-126294786D01*
X71205724Y-126218285D01*
X71218285Y-126205724D01*
X71294786Y-126103649D01*
X71303324Y-126088054D01*
X71348478Y-125967606D01*
X71352105Y-125952351D01*
X71357631Y-125901486D01*
X71358000Y-125894672D01*
X71358000Y-125272115D01*
X71353525Y-125256876D01*
X71352135Y-125255671D01*
X71344452Y-125254000D01*
X70272115Y-125254000D01*
X70256876Y-125258475D01*
X70255671Y-125259865D01*
X70254000Y-125267548D01*
X70254000Y-127267885D01*
X69746000Y-127267885D01*
X69746000Y-125272115D01*
X69741525Y-125256876D01*
X69740135Y-125255671D01*
X69732452Y-125254000D01*
X68660116Y-125254000D01*
X68644877Y-125258475D01*
X68643672Y-125259865D01*
X68642001Y-125267548D01*
X68642001Y-125894669D01*
X50508500Y-125894669D01*
X50508500Y-124727885D01*
X68642000Y-124727885D01*
X68646475Y-124743124D01*
X68647865Y-124744329D01*
X68655548Y-124746000D01*
X69727885Y-124746000D01*
X69743124Y-124741525D01*
X69744329Y-124740135D01*
X69746000Y-124732452D01*
X69746000Y-124727885D01*
X70254000Y-124727885D01*
X70258475Y-124743124D01*
X70259865Y-124744329D01*
X70267548Y-124746000D01*
X71339884Y-124746000D01*
X71355123Y-124741525D01*
X71356328Y-124740135D01*
X71357999Y-124732452D01*
X71357999Y-124105331D01*
X71357629Y-124098510D01*
X71352105Y-124047648D01*
X71348479Y-124032396D01*
X71303324Y-123911946D01*
X71294786Y-123896351D01*
X71218285Y-123794276D01*
X71205724Y-123781715D01*
X71103649Y-123705214D01*
X71088054Y-123696676D01*
X70967606Y-123651522D01*
X70952351Y-123647895D01*
X70901486Y-123642369D01*
X70894672Y-123642000D01*
X70272115Y-123642000D01*
X70256876Y-123646475D01*
X70255671Y-123647865D01*
X70254000Y-123655548D01*
X70254000Y-124727885D01*
X69746000Y-124727885D01*
X69746000Y-123660116D01*
X69741525Y-123644877D01*
X69740135Y-123643672D01*
X69732452Y-123642001D01*
X69105331Y-123642001D01*
X69098510Y-123642371D01*
X69047648Y-123647895D01*
X69032396Y-123651521D01*
X68911946Y-123696676D01*
X68896351Y-123705214D01*
X68794276Y-123781715D01*
X68781715Y-123794276D01*
X68705214Y-123896351D01*
X68696676Y-123911946D01*
X68651522Y-124032394D01*
X68647895Y-124047649D01*
X68642369Y-124098514D01*
X68642000Y-124105328D01*
X68642000Y-124727885D01*
X50508500Y-124727885D01*
X50508500Y-113245404D01*
X73267239Y-113245404D01*
X73267751Y-113250973D01*
X73270361Y-113264006D01*
X73314439Y-113404661D01*
X73320645Y-113418406D01*
X73396533Y-113543711D01*
X73405840Y-113555580D01*
X73509420Y-113659160D01*
X73521289Y-113668467D01*
X73646594Y-113744355D01*
X73660339Y-113750561D01*
X73800989Y-113794637D01*
X73814036Y-113797250D01*
X73855459Y-113801056D01*
X73870336Y-113798134D01*
X73873500Y-113786240D01*
X73873500Y-113247115D01*
X73869025Y-113231876D01*
X73867635Y-113230671D01*
X73859952Y-113229000D01*
X73283847Y-113229000D01*
X73269302Y-113233271D01*
X73267239Y-113245404D01*
X50508500Y-113245404D01*
X50508500Y-112245404D01*
X73267239Y-112245404D01*
X73267751Y-112250973D01*
X73270361Y-112264006D01*
X73314438Y-112404657D01*
X73322788Y-112423151D01*
X73332589Y-112493468D01*
X73322788Y-112526849D01*
X73314438Y-112545343D01*
X73270361Y-112685994D01*
X73267751Y-112699027D01*
X73267389Y-112702961D01*
X73270312Y-112717835D01*
X73282207Y-112721000D01*
X73855385Y-112721000D01*
X73870624Y-112716525D01*
X73871829Y-112715135D01*
X73873500Y-112707452D01*
X73873500Y-112247115D01*
X73869025Y-112231876D01*
X73867635Y-112230671D01*
X73859952Y-112229000D01*
X73283847Y-112229000D01*
X73269302Y-112233271D01*
X73267239Y-112245404D01*
X50508500Y-112245404D01*
X50508500Y-111702961D01*
X73267389Y-111702961D01*
X73270312Y-111717835D01*
X73282207Y-111721000D01*
X73855385Y-111721000D01*
X73870624Y-111716525D01*
X73871829Y-111715135D01*
X73873500Y-111707452D01*
X73873500Y-111165402D01*
X73869229Y-111150857D01*
X73857096Y-111148794D01*
X73814027Y-111152751D01*
X73800994Y-111155361D01*
X73660339Y-111199439D01*
X73646594Y-111205645D01*
X73521289Y-111281533D01*
X73509420Y-111290840D01*
X73405840Y-111394420D01*
X73396533Y-111406289D01*
X73320645Y-111531594D01*
X73314439Y-111545339D01*
X73270361Y-111685994D01*
X73267751Y-111699027D01*
X73267389Y-111702961D01*
X50508500Y-111702961D01*
X50508500Y-106224000D01*
X50528502Y-106155879D01*
X50582158Y-106109386D01*
X50634500Y-106098000D01*
X52607885Y-106098000D01*
X52623124Y-106093525D01*
X52624329Y-106092135D01*
X52626000Y-106084452D01*
X52626000Y-106079884D01*
X53134000Y-106079884D01*
X53138475Y-106095123D01*
X53139865Y-106096328D01*
X53147548Y-106097999D01*
X55464669Y-106097999D01*
X55471490Y-106097629D01*
X55522352Y-106092105D01*
X55537604Y-106088479D01*
X55658054Y-106043324D01*
X55673649Y-106034786D01*
X55775724Y-105958285D01*
X55788285Y-105945724D01*
X55864786Y-105843649D01*
X55873324Y-105828054D01*
X55918478Y-105707606D01*
X55922105Y-105692351D01*
X55927631Y-105641486D01*
X55928000Y-105634672D01*
X55928000Y-105470202D01*
X55948002Y-105402081D01*
X56001658Y-105355588D01*
X56071932Y-105345484D01*
X56092936Y-105350369D01*
X56099877Y-105352624D01*
X56111851Y-105355257D01*
X56292992Y-105376857D01*
X56305241Y-105377114D01*
X56487125Y-105363119D01*
X56499205Y-105360988D01*
X56674895Y-105311934D01*
X56686328Y-105307500D01*
X56804342Y-105247887D01*
X56814626Y-105238242D01*
X56812388Y-105231598D01*
X56112812Y-104532022D01*
X56102723Y-104526513D01*
X56100000Y-104533814D01*
X56100000Y-105032000D01*
X56079998Y-105100121D01*
X56026342Y-105146614D01*
X55974000Y-105158000D01*
X55766000Y-105158000D01*
X55697879Y-105137998D01*
X55651386Y-105084342D01*
X55640000Y-105032000D01*
X55640000Y-104652115D01*
X55635525Y-104636876D01*
X55634135Y-104635671D01*
X55626452Y-104634000D01*
X53152115Y-104634000D01*
X53136876Y-104638475D01*
X53135671Y-104639865D01*
X53134000Y-104647548D01*
X53134000Y-106079884D01*
X52626000Y-106079884D01*
X52626000Y-104381132D01*
X56684408Y-104381132D01*
X56684539Y-104382965D01*
X56688790Y-104389580D01*
X57165659Y-104866449D01*
X57178039Y-104873209D01*
X57184773Y-104868168D01*
X57228494Y-104791207D01*
X57233487Y-104779991D01*
X57291062Y-104606914D01*
X57293782Y-104594942D01*
X57316973Y-104411364D01*
X57317465Y-104404335D01*
X57317756Y-104383505D01*
X57317463Y-104376512D01*
X57299403Y-104192325D01*
X57297020Y-104180290D01*
X57244298Y-104005665D01*
X57239623Y-103994324D01*
X57187472Y-103896241D01*
X57177610Y-103886158D01*
X57170484Y-103888726D01*
X56692022Y-104367188D01*
X56684408Y-104381132D01*
X52626000Y-104381132D01*
X52626000Y-104107885D01*
X53134000Y-104107885D01*
X53138475Y-104123124D01*
X53139865Y-104124329D01*
X53147548Y-104126000D01*
X55621885Y-104126000D01*
X55637124Y-104121525D01*
X55638329Y-104120135D01*
X55640000Y-104112452D01*
X55640000Y-103728000D01*
X55660002Y-103659879D01*
X55713658Y-103613386D01*
X55766000Y-103602000D01*
X55974000Y-103602000D01*
X56042121Y-103622002D01*
X56088614Y-103675658D01*
X56100000Y-103728000D01*
X56100000Y-104222675D01*
X56103237Y-104233700D01*
X56110328Y-104230462D01*
X56806766Y-103534024D01*
X56813526Y-103521644D01*
X56808867Y-103515421D01*
X56712083Y-103463090D01*
X56700778Y-103458338D01*
X56526524Y-103404397D01*
X56514511Y-103401931D01*
X56333094Y-103382863D01*
X56320826Y-103382778D01*
X56139169Y-103399310D01*
X56127114Y-103401610D01*
X56089575Y-103412658D01*
X56018578Y-103412704D01*
X55958827Y-103374358D01*
X55929293Y-103309796D01*
X55927999Y-103291785D01*
X55927999Y-103125331D01*
X55927629Y-103118510D01*
X55922105Y-103067648D01*
X55918479Y-103052396D01*
X55873324Y-102931946D01*
X55864786Y-102916351D01*
X55788285Y-102814276D01*
X55775724Y-102801715D01*
X55673649Y-102725214D01*
X55658054Y-102716676D01*
X55537606Y-102671522D01*
X55522351Y-102667895D01*
X55471486Y-102662369D01*
X55464672Y-102662000D01*
X53152115Y-102662000D01*
X53136876Y-102666475D01*
X53135671Y-102667865D01*
X53134000Y-102675548D01*
X53134000Y-104107885D01*
X52626000Y-104107885D01*
X52626000Y-102680116D01*
X52621525Y-102664877D01*
X52620135Y-102663672D01*
X52612452Y-102662001D01*
X50634500Y-102662001D01*
X50566379Y-102641999D01*
X50519886Y-102588343D01*
X50508500Y-102536001D01*
X50508500Y-101779500D01*
X50528502Y-101711379D01*
X50582158Y-101664886D01*
X50634500Y-101653500D01*
X55468134Y-101653500D01*
X55530316Y-101646745D01*
X55666705Y-101595615D01*
X55783261Y-101508261D01*
X55870615Y-101391705D01*
X55892709Y-101332770D01*
X55935351Y-101276006D01*
X56001913Y-101251306D01*
X56010691Y-101251000D01*
X57199000Y-101251000D01*
X57267121Y-101271002D01*
X57313614Y-101324658D01*
X57325000Y-101377000D01*
X57325000Y-101525000D01*
X62721001Y-101525000D01*
X62789122Y-101545002D01*
X62835615Y-101598658D01*
X62847001Y-101651000D01*
X62847001Y-101670507D01*
X62847264Y-101676257D01*
X62852751Y-101735973D01*
X62855361Y-101749006D01*
X62899439Y-101889661D01*
X62905645Y-101903406D01*
X62981533Y-102028711D01*
X62990840Y-102040580D01*
X63094420Y-102144160D01*
X63106289Y-102153467D01*
X63231594Y-102229355D01*
X63245339Y-102235561D01*
X63385994Y-102279639D01*
X63399027Y-102282249D01*
X63402961Y-102282611D01*
X63417835Y-102279688D01*
X63421000Y-102267793D01*
X63421000Y-101651000D01*
X63441002Y-101582879D01*
X63494658Y-101536386D01*
X63547000Y-101525000D01*
X63803000Y-101525000D01*
X63871121Y-101545002D01*
X63917614Y-101598658D01*
X63929000Y-101651000D01*
X63929000Y-102266153D01*
X63933271Y-102280698D01*
X63945404Y-102282761D01*
X63950973Y-102282249D01*
X63964006Y-102279639D01*
X64104661Y-102235561D01*
X64118406Y-102229355D01*
X64243711Y-102153467D01*
X64255580Y-102144160D01*
X64359160Y-102040580D01*
X64368467Y-102028711D01*
X64444355Y-101903406D01*
X64450561Y-101889661D01*
X64494637Y-101749011D01*
X64497250Y-101735964D01*
X64502734Y-101676282D01*
X64503000Y-101670493D01*
X64503000Y-101651000D01*
X64523002Y-101582879D01*
X64576658Y-101536386D01*
X64629000Y-101525000D01*
X67196001Y-101525000D01*
X67264122Y-101545002D01*
X67310615Y-101598658D01*
X67322001Y-101651000D01*
X67322001Y-101670507D01*
X67322264Y-101676257D01*
X67327751Y-101735973D01*
X67330361Y-101749006D01*
X67374439Y-101889661D01*
X67380645Y-101903406D01*
X67456533Y-102028711D01*
X67465840Y-102040580D01*
X67569420Y-102144160D01*
X67581289Y-102153467D01*
X67706594Y-102229355D01*
X67720339Y-102235561D01*
X67860994Y-102279639D01*
X67874027Y-102282249D01*
X67877961Y-102282611D01*
X67892835Y-102279688D01*
X67896000Y-102267793D01*
X67896000Y-101651000D01*
X67916002Y-101582879D01*
X67969658Y-101536386D01*
X68022000Y-101525000D01*
X68278000Y-101525000D01*
X68346121Y-101545002D01*
X68392614Y-101598658D01*
X68404000Y-101651000D01*
X68404000Y-102266153D01*
X68408271Y-102280698D01*
X68420404Y-102282761D01*
X68425973Y-102282249D01*
X68439006Y-102279639D01*
X68579661Y-102235561D01*
X68593406Y-102229355D01*
X68718711Y-102153467D01*
X68730580Y-102144160D01*
X68834160Y-102040580D01*
X68843467Y-102028711D01*
X68919355Y-101903406D01*
X68925561Y-101889661D01*
X68969637Y-101749011D01*
X68972250Y-101735964D01*
X68977734Y-101676282D01*
X68978000Y-101670493D01*
X68978000Y-101651000D01*
X68998002Y-101582879D01*
X69051658Y-101536386D01*
X69104000Y-101525000D01*
X69450000Y-101525000D01*
X69450000Y-101400000D01*
X72430000Y-101400000D01*
X72430000Y-100288500D01*
X75674000Y-100288500D01*
X75742121Y-100308502D01*
X75788614Y-100362158D01*
X75800000Y-100414500D01*
X75800000Y-111031351D01*
X75779998Y-111099472D01*
X75726342Y-111145965D01*
X75649256Y-111154897D01*
X75649101Y-111154866D01*
X75642719Y-111152866D01*
X75636063Y-111152254D01*
X75636061Y-111152254D01*
X75612915Y-111150127D01*
X75573437Y-111146500D01*
X75570539Y-111146500D01*
X75321849Y-111146501D01*
X75071564Y-111146501D01*
X75068705Y-111146764D01*
X75068697Y-111146764D01*
X75034924Y-111149867D01*
X75002281Y-111152866D01*
X74995903Y-111154865D01*
X74995902Y-111154865D01*
X74855131Y-111198980D01*
X74855129Y-111198981D01*
X74847882Y-111201252D01*
X74841385Y-111205187D01*
X74841380Y-111205189D01*
X74789789Y-111236434D01*
X74721160Y-111254614D01*
X74659245Y-111236434D01*
X74608412Y-111205648D01*
X74594661Y-111199439D01*
X74454011Y-111155363D01*
X74440964Y-111152750D01*
X74399541Y-111148944D01*
X74384664Y-111151866D01*
X74381500Y-111163760D01*
X74381500Y-113784598D01*
X74385771Y-113799143D01*
X74397904Y-113801206D01*
X74440973Y-113797249D01*
X74454006Y-113794639D01*
X74594661Y-113750561D01*
X74608412Y-113744352D01*
X74659245Y-113713566D01*
X74727874Y-113695386D01*
X74789789Y-113713566D01*
X74841380Y-113744811D01*
X74841385Y-113744813D01*
X74847882Y-113748748D01*
X74855129Y-113751019D01*
X74855131Y-113751020D01*
X74902017Y-113765713D01*
X75002281Y-113797134D01*
X75071563Y-113803500D01*
X75074461Y-113803500D01*
X75323151Y-113803499D01*
X75573436Y-113803499D01*
X75576295Y-113803236D01*
X75576303Y-113803236D01*
X75610076Y-113800133D01*
X75642719Y-113797134D01*
X75677482Y-113786240D01*
X75789869Y-113751020D01*
X75789871Y-113751019D01*
X75797118Y-113748748D01*
X75803614Y-113744814D01*
X75803618Y-113744812D01*
X75862381Y-113709224D01*
X75927652Y-113691000D01*
X76341284Y-113691000D01*
X76342053Y-113691002D01*
X76345668Y-113691024D01*
X76399771Y-113691355D01*
X76467768Y-113711774D01*
X76513932Y-113765713D01*
X76525000Y-113817353D01*
X76525000Y-116525000D01*
X110500000Y-116500000D01*
X110500000Y-113814500D01*
X110520002Y-113746379D01*
X110573658Y-113699886D01*
X110626000Y-113688500D01*
X110723134Y-113688500D01*
X110726531Y-113688131D01*
X110777466Y-113682598D01*
X110777468Y-113682598D01*
X110785316Y-113681745D01*
X110792709Y-113678973D01*
X110792711Y-113678973D01*
X110825934Y-113666518D01*
X110870163Y-113658500D01*
X111851887Y-113658500D01*
X111860129Y-113658770D01*
X111925640Y-113663064D01*
X112014678Y-113652525D01*
X112017946Y-113652183D01*
X112107208Y-113643981D01*
X112112765Y-113642414D01*
X112115165Y-113641969D01*
X112128916Y-113639233D01*
X112131342Y-113638717D01*
X112137082Y-113638038D01*
X112222728Y-113611445D01*
X112225860Y-113610517D01*
X112268802Y-113598407D01*
X112306573Y-113587754D01*
X112306575Y-113587753D01*
X112312132Y-113586186D01*
X112317311Y-113583632D01*
X112319653Y-113582733D01*
X112332584Y-113577574D01*
X112334901Y-113576614D01*
X112340422Y-113574900D01*
X112345534Y-113572211D01*
X112345540Y-113572208D01*
X112419789Y-113533144D01*
X112422728Y-113531646D01*
X112497914Y-113494569D01*
X112497918Y-113494567D01*
X112503092Y-113492015D01*
X112507716Y-113488562D01*
X112509870Y-113487242D01*
X112521659Y-113479803D01*
X112523738Y-113478453D01*
X112528851Y-113475763D01*
X112599266Y-113420252D01*
X112601811Y-113418299D01*
X112664874Y-113371207D01*
X112687012Y-113357972D01*
X112824262Y-113293972D01*
X112829246Y-113291648D01*
X112833744Y-113288499D01*
X112833750Y-113288495D01*
X113005119Y-113168500D01*
X113005121Y-113168498D01*
X113009630Y-113165341D01*
X113165341Y-113009630D01*
X113291648Y-112829245D01*
X113293971Y-112824263D01*
X113293974Y-112824258D01*
X113382387Y-112634653D01*
X113384712Y-112629668D01*
X113441707Y-112416963D01*
X113460899Y-112197592D01*
X113441707Y-111978221D01*
X113384712Y-111765516D01*
X113328267Y-111644468D01*
X113293974Y-111570926D01*
X113293971Y-111570921D01*
X113291648Y-111565939D01*
X113277224Y-111545339D01*
X113168500Y-111390065D01*
X113168498Y-111390062D01*
X113165341Y-111385554D01*
X113009630Y-111229843D01*
X112965554Y-111198980D01*
X112903259Y-111155361D01*
X112829246Y-111103536D01*
X112629668Y-111010472D01*
X112416963Y-110953477D01*
X112197592Y-110934285D01*
X111978221Y-110953477D01*
X111765516Y-111010472D01*
X111720741Y-111031351D01*
X111570926Y-111101210D01*
X111570921Y-111101213D01*
X111565939Y-111103536D01*
X111561432Y-111106692D01*
X111561430Y-111106693D01*
X111390065Y-111226684D01*
X111390062Y-111226686D01*
X111385554Y-111229843D01*
X111310802Y-111304595D01*
X111248490Y-111338621D01*
X111221707Y-111341500D01*
X110870163Y-111341500D01*
X110825934Y-111333482D01*
X110792711Y-111321027D01*
X110792709Y-111321027D01*
X110785316Y-111318255D01*
X110777468Y-111317402D01*
X110777466Y-111317402D01*
X110726531Y-111311869D01*
X110723134Y-111311500D01*
X110026639Y-111311500D01*
X109958518Y-111291498D01*
X109912025Y-111237842D01*
X109900639Y-111185374D01*
X109906950Y-104868168D01*
X109922987Y-88814373D01*
X109943057Y-88746273D01*
X109996759Y-88699834D01*
X110048987Y-88688500D01*
X110673134Y-88688500D01*
X110676531Y-88688131D01*
X110727466Y-88682598D01*
X110727468Y-88682598D01*
X110735316Y-88681745D01*
X110742709Y-88678973D01*
X110742711Y-88678973D01*
X110775934Y-88666518D01*
X110820163Y-88658500D01*
X111221707Y-88658500D01*
X111289828Y-88678502D01*
X111310802Y-88695405D01*
X111385554Y-88770157D01*
X111390063Y-88773314D01*
X111390065Y-88773316D01*
X111448702Y-88814374D01*
X111565938Y-88896464D01*
X111765516Y-88989528D01*
X111978221Y-89046523D01*
X112197592Y-89065715D01*
X112416963Y-89046523D01*
X112629668Y-88989528D01*
X112829246Y-88896464D01*
X112946482Y-88814374D01*
X113005119Y-88773316D01*
X113005121Y-88773314D01*
X113009630Y-88770157D01*
X113165341Y-88614446D01*
X113291648Y-88434061D01*
X113293971Y-88429079D01*
X113293974Y-88429074D01*
X113341177Y-88327846D01*
X113384712Y-88234484D01*
X113441707Y-88021779D01*
X113460899Y-87802408D01*
X113441707Y-87583037D01*
X113384712Y-87370332D01*
X113341177Y-87276970D01*
X113293974Y-87175742D01*
X113293971Y-87175737D01*
X113291648Y-87170755D01*
X113218976Y-87066968D01*
X113168500Y-86994881D01*
X113168498Y-86994878D01*
X113165341Y-86990370D01*
X113009630Y-86834659D01*
X112829246Y-86708352D01*
X112824264Y-86706029D01*
X112824259Y-86706026D01*
X112678864Y-86638228D01*
X112654112Y-86622985D01*
X112625653Y-86600551D01*
X112623108Y-86598489D01*
X112601285Y-86580340D01*
X112554177Y-86541160D01*
X112549132Y-86538335D01*
X112547126Y-86536956D01*
X112535496Y-86529184D01*
X112533390Y-86527816D01*
X112528851Y-86524238D01*
X112449454Y-86482465D01*
X112446648Y-86480941D01*
X112368407Y-86437124D01*
X112362933Y-86435266D01*
X112360586Y-86434221D01*
X112347811Y-86428732D01*
X112345528Y-86427786D01*
X112340422Y-86425100D01*
X112334908Y-86423388D01*
X112334906Y-86423387D01*
X112254756Y-86398499D01*
X112251620Y-86397480D01*
X112218059Y-86386088D01*
X112166789Y-86368684D01*
X112161069Y-86367855D01*
X112158613Y-86367265D01*
X112145062Y-86364199D01*
X112142609Y-86363677D01*
X112137082Y-86361961D01*
X112131345Y-86361282D01*
X112131340Y-86361281D01*
X112062180Y-86353096D01*
X112048044Y-86351423D01*
X112044785Y-86350994D01*
X112029066Y-86348715D01*
X111961788Y-86338959D01*
X111961784Y-86338959D01*
X111956075Y-86338131D01*
X111872807Y-86341403D01*
X111867860Y-86341500D01*
X110820163Y-86341500D01*
X110775934Y-86333482D01*
X110742711Y-86321027D01*
X110742709Y-86321027D01*
X110735316Y-86318255D01*
X110727468Y-86317402D01*
X110727466Y-86317402D01*
X110676531Y-86311869D01*
X110673134Y-86311500D01*
X110401000Y-86311500D01*
X110332879Y-86291498D01*
X110286386Y-86237842D01*
X110275000Y-86185500D01*
X110275000Y-83500000D01*
X78475000Y-83500000D01*
X78475000Y-84374000D01*
X78454998Y-84442121D01*
X78401342Y-84488614D01*
X78349000Y-84500000D01*
X76092500Y-84500000D01*
X76024379Y-84479998D01*
X75977886Y-84426342D01*
X75966500Y-84374000D01*
X75966500Y-83784000D01*
X75986502Y-83715879D01*
X76040158Y-83669386D01*
X76092500Y-83658000D01*
X76152885Y-83658000D01*
X76168124Y-83653525D01*
X76169329Y-83652135D01*
X76171000Y-83644452D01*
X76171000Y-83639884D01*
X76679000Y-83639884D01*
X76683475Y-83655123D01*
X76684865Y-83656328D01*
X76692548Y-83657999D01*
X76994669Y-83657999D01*
X77001490Y-83657629D01*
X77052352Y-83652105D01*
X77067604Y-83648479D01*
X77188054Y-83603324D01*
X77203649Y-83594786D01*
X77305724Y-83518285D01*
X77318285Y-83505724D01*
X77394786Y-83403649D01*
X77403324Y-83388054D01*
X77448478Y-83267606D01*
X77452105Y-83252351D01*
X77457631Y-83201486D01*
X77458000Y-83194672D01*
X77458000Y-82322115D01*
X77453525Y-82306876D01*
X77452135Y-82305671D01*
X77444452Y-82304000D01*
X76697115Y-82304000D01*
X76681876Y-82308475D01*
X76680671Y-82309865D01*
X76679000Y-82317548D01*
X76679000Y-83639884D01*
X76171000Y-83639884D01*
X76171000Y-82322115D01*
X76166525Y-82306876D01*
X76165135Y-82305671D01*
X76157452Y-82304000D01*
X75410116Y-82304000D01*
X75394877Y-82308475D01*
X75393672Y-82309865D01*
X75392001Y-82317548D01*
X75392001Y-82415500D01*
X75371999Y-82483621D01*
X75318343Y-82530114D01*
X75266001Y-82541500D01*
X74634000Y-82541500D01*
X74565879Y-82521498D01*
X74519386Y-82467842D01*
X74508000Y-82415500D01*
X74508000Y-82322115D01*
X74503525Y-82306876D01*
X74502135Y-82305671D01*
X74494452Y-82304000D01*
X73747115Y-82304000D01*
X73731876Y-82308475D01*
X73730671Y-82309865D01*
X73729000Y-82317548D01*
X73729000Y-83639884D01*
X73733475Y-83655123D01*
X73734865Y-83656328D01*
X73742548Y-83657999D01*
X73807500Y-83657999D01*
X73875621Y-83678001D01*
X73922114Y-83731657D01*
X73933500Y-83783999D01*
X73933500Y-84324000D01*
X73913498Y-84392121D01*
X73859842Y-84438614D01*
X73807500Y-84450000D01*
X71901000Y-84450000D01*
X71832879Y-84429998D01*
X71786386Y-84376342D01*
X71775000Y-84324000D01*
X71775000Y-83194669D01*
X72442001Y-83194669D01*
X72442371Y-83201490D01*
X72447895Y-83252352D01*
X72451521Y-83267604D01*
X72496676Y-83388054D01*
X72505214Y-83403649D01*
X72581715Y-83505724D01*
X72594276Y-83518285D01*
X72696351Y-83594786D01*
X72711946Y-83603324D01*
X72832394Y-83648478D01*
X72847649Y-83652105D01*
X72898514Y-83657631D01*
X72905328Y-83658000D01*
X73202885Y-83658000D01*
X73218124Y-83653525D01*
X73219329Y-83652135D01*
X73221000Y-83644452D01*
X73221000Y-82322115D01*
X73216525Y-82306876D01*
X73215135Y-82305671D01*
X73207452Y-82304000D01*
X72460116Y-82304000D01*
X72444877Y-82308475D01*
X72443672Y-82309865D01*
X72442001Y-82317548D01*
X72442001Y-83194669D01*
X71775000Y-83194669D01*
X71775000Y-82150000D01*
X71031736Y-82158428D01*
X70418569Y-82165380D01*
X70350225Y-82146151D01*
X70303127Y-82093026D01*
X70292227Y-82022872D01*
X70320986Y-81957960D01*
X70328045Y-81950293D01*
X70491528Y-81786810D01*
X70501913Y-81777885D01*
X72442000Y-81777885D01*
X72446475Y-81793124D01*
X72447865Y-81794329D01*
X72455548Y-81796000D01*
X73202885Y-81796000D01*
X73218124Y-81791525D01*
X73219329Y-81790135D01*
X73221000Y-81782452D01*
X73221000Y-81777885D01*
X73729000Y-81777885D01*
X73733475Y-81793124D01*
X73734865Y-81794329D01*
X73742548Y-81796000D01*
X74489884Y-81796000D01*
X74505123Y-81791525D01*
X74506328Y-81790135D01*
X74507999Y-81782452D01*
X74507999Y-81777885D01*
X75392000Y-81777885D01*
X75396475Y-81793124D01*
X75397865Y-81794329D01*
X75405548Y-81796000D01*
X76152885Y-81796000D01*
X76168124Y-81791525D01*
X76169329Y-81790135D01*
X76171000Y-81782452D01*
X76171000Y-81777885D01*
X76679000Y-81777885D01*
X76683475Y-81793124D01*
X76684865Y-81794329D01*
X76692548Y-81796000D01*
X77439884Y-81796000D01*
X77455123Y-81791525D01*
X77456328Y-81790135D01*
X77457999Y-81782452D01*
X77457999Y-80905331D01*
X77457629Y-80898510D01*
X77452105Y-80847648D01*
X77448479Y-80832396D01*
X77403324Y-80711946D01*
X77394786Y-80696351D01*
X77318285Y-80594276D01*
X77305724Y-80581715D01*
X77203649Y-80505214D01*
X77188054Y-80496676D01*
X77067606Y-80451522D01*
X77052351Y-80447895D01*
X77001486Y-80442369D01*
X76994672Y-80442000D01*
X76697115Y-80442000D01*
X76681876Y-80446475D01*
X76680671Y-80447865D01*
X76679000Y-80455548D01*
X76679000Y-81777885D01*
X76171000Y-81777885D01*
X76171000Y-80460116D01*
X76166525Y-80444877D01*
X76165135Y-80443672D01*
X76157452Y-80442001D01*
X75855331Y-80442001D01*
X75848510Y-80442371D01*
X75797648Y-80447895D01*
X75782396Y-80451521D01*
X75661946Y-80496676D01*
X75646351Y-80505214D01*
X75544276Y-80581715D01*
X75531715Y-80594276D01*
X75455214Y-80696351D01*
X75446676Y-80711946D01*
X75401522Y-80832394D01*
X75397895Y-80847649D01*
X75392369Y-80898514D01*
X75392000Y-80905328D01*
X75392000Y-81777885D01*
X74507999Y-81777885D01*
X74507999Y-80905331D01*
X74507629Y-80898510D01*
X74502105Y-80847648D01*
X74498479Y-80832396D01*
X74453324Y-80711946D01*
X74444786Y-80696351D01*
X74368285Y-80594276D01*
X74355724Y-80581715D01*
X74253649Y-80505214D01*
X74238054Y-80496676D01*
X74117606Y-80451522D01*
X74102351Y-80447895D01*
X74051486Y-80442369D01*
X74044672Y-80442000D01*
X73747115Y-80442000D01*
X73731876Y-80446475D01*
X73730671Y-80447865D01*
X73729000Y-80455548D01*
X73729000Y-81777885D01*
X73221000Y-81777885D01*
X73221000Y-80460116D01*
X73216525Y-80444877D01*
X73215135Y-80443672D01*
X73207452Y-80442001D01*
X72905331Y-80442001D01*
X72898510Y-80442371D01*
X72847648Y-80447895D01*
X72832396Y-80451521D01*
X72711946Y-80496676D01*
X72696351Y-80505214D01*
X72594276Y-80581715D01*
X72581715Y-80594276D01*
X72505214Y-80696351D01*
X72496676Y-80711946D01*
X72451522Y-80832394D01*
X72447895Y-80847649D01*
X72442369Y-80898514D01*
X72442000Y-80905328D01*
X72442000Y-81777885D01*
X70501913Y-81777885D01*
X70505941Y-81774423D01*
X70517665Y-81765795D01*
X70523564Y-81761454D01*
X70557979Y-81720945D01*
X70564909Y-81713429D01*
X70570653Y-81707685D01*
X70572927Y-81704811D01*
X70572933Y-81704804D01*
X70588372Y-81685289D01*
X70591163Y-81681885D01*
X70633945Y-81631528D01*
X70633948Y-81631524D01*
X70638684Y-81625949D01*
X70642012Y-81619432D01*
X70645389Y-81614368D01*
X70648616Y-81609144D01*
X70653160Y-81603400D01*
X70673347Y-81560207D01*
X70684232Y-81536918D01*
X70686163Y-81532967D01*
X70713399Y-81479628D01*
X70719543Y-81467596D01*
X70721284Y-81460481D01*
X70723421Y-81454735D01*
X70725345Y-81448952D01*
X70728444Y-81442321D01*
X70743394Y-81370443D01*
X70744363Y-81366162D01*
X70751684Y-81336246D01*
X70761804Y-81294888D01*
X70762263Y-81287500D01*
X70762500Y-81283670D01*
X70762539Y-81283672D01*
X70762772Y-81279771D01*
X70763161Y-81275412D01*
X70764652Y-81268244D01*
X70762546Y-81190423D01*
X70762500Y-81187014D01*
X70762500Y-76484500D01*
X70782502Y-76416379D01*
X70836158Y-76369886D01*
X70888500Y-76358500D01*
X70898134Y-76358500D01*
X70960316Y-76351745D01*
X71096705Y-76300615D01*
X71213261Y-76213261D01*
X71300615Y-76096705D01*
X71351745Y-75960316D01*
X71358500Y-75898134D01*
X71358500Y-74101866D01*
X71351745Y-74039684D01*
X71300615Y-73903295D01*
X71213261Y-73786739D01*
X71096705Y-73699385D01*
X71084132Y-73694672D01*
X70978203Y-73654960D01*
X70921439Y-73612318D01*
X70896739Y-73545756D01*
X70911947Y-73476408D01*
X70933493Y-73447727D01*
X71034435Y-73347137D01*
X71038096Y-73343489D01*
X71168453Y-73162077D01*
X71267430Y-72961811D01*
X71332370Y-72748069D01*
X71361529Y-72526590D01*
X71363156Y-72460000D01*
X71344852Y-72237361D01*
X71290431Y-72020702D01*
X71201354Y-71815840D01*
X71136373Y-71715395D01*
X71082822Y-71632617D01*
X71082820Y-71632614D01*
X71080014Y-71628277D01*
X70929670Y-71463051D01*
X70925619Y-71459852D01*
X70925615Y-71459848D01*
X70758414Y-71327800D01*
X70758410Y-71327798D01*
X70754359Y-71324598D01*
X70558789Y-71216638D01*
X70553920Y-71214914D01*
X70553916Y-71214912D01*
X70353087Y-71143795D01*
X70353083Y-71143794D01*
X70348212Y-71142069D01*
X70343119Y-71141162D01*
X70343116Y-71141161D01*
X70133373Y-71103800D01*
X70133367Y-71103799D01*
X70128284Y-71102894D01*
X70054452Y-71101992D01*
X69910081Y-71100228D01*
X69910079Y-71100228D01*
X69904911Y-71100165D01*
X69684091Y-71133955D01*
X69471756Y-71203357D01*
X69273607Y-71306507D01*
X69269474Y-71309610D01*
X69269471Y-71309612D01*
X69245247Y-71327800D01*
X69094965Y-71440635D01*
X68940629Y-71602138D01*
X68937715Y-71606410D01*
X68913092Y-71642505D01*
X68858180Y-71687507D01*
X68809004Y-71697500D01*
X66732368Y-71697500D01*
X66713420Y-71696067D01*
X66706033Y-71694943D01*
X66699024Y-71693877D01*
X66699022Y-71693877D01*
X66691792Y-71692777D01*
X66684500Y-71693370D01*
X66684497Y-71693370D01*
X66638825Y-71697085D01*
X66628611Y-71697500D01*
X66620475Y-71697500D01*
X66616840Y-71697924D01*
X66616837Y-71697924D01*
X66598835Y-71700023D01*
X66592084Y-71700810D01*
X66587713Y-71701243D01*
X66576701Y-71702138D01*
X66521872Y-71706597D01*
X66521869Y-71706598D01*
X66514573Y-71707191D01*
X66507611Y-71709446D01*
X66501607Y-71710646D01*
X66495660Y-71712052D01*
X66488393Y-71712899D01*
X66419388Y-71737947D01*
X66415227Y-71739375D01*
X66352387Y-71759732D01*
X66352382Y-71759734D01*
X66345425Y-71761988D01*
X66339173Y-71765782D01*
X66333598Y-71768334D01*
X66328135Y-71771070D01*
X66321259Y-71773566D01*
X66315140Y-71777578D01*
X66259863Y-71813819D01*
X66256159Y-71816156D01*
X66193419Y-71854228D01*
X66184994Y-71861668D01*
X66184969Y-71861640D01*
X66182044Y-71864234D01*
X66178690Y-71867039D01*
X66172565Y-71871054D01*
X66167530Y-71876369D01*
X66167529Y-71876370D01*
X66119012Y-71927586D01*
X66116634Y-71930028D01*
X63558472Y-74488190D01*
X63544059Y-74500577D01*
X63526436Y-74513546D01*
X63521692Y-74519129D01*
X63521693Y-74519129D01*
X63492021Y-74554055D01*
X63485091Y-74561571D01*
X63479347Y-74567315D01*
X63477073Y-74570189D01*
X63477067Y-74570196D01*
X63461628Y-74589711D01*
X63458837Y-74593115D01*
X63416055Y-74643472D01*
X63416052Y-74643476D01*
X63411316Y-74649051D01*
X63407988Y-74655568D01*
X63404611Y-74660632D01*
X63401384Y-74665856D01*
X63396840Y-74671600D01*
X63393741Y-74678231D01*
X63365768Y-74738082D01*
X63363837Y-74742033D01*
X63330457Y-74807404D01*
X63328716Y-74814519D01*
X63326579Y-74820265D01*
X63324655Y-74826048D01*
X63321556Y-74832679D01*
X63320066Y-74839843D01*
X63306608Y-74904547D01*
X63305639Y-74908829D01*
X63288196Y-74980112D01*
X63287500Y-74991330D01*
X63287461Y-74991328D01*
X63287228Y-74995229D01*
X63286839Y-74999588D01*
X63285348Y-75006756D01*
X63285546Y-75014073D01*
X63287454Y-75084577D01*
X63287500Y-75087986D01*
X63287500Y-79636500D01*
X63267498Y-79704621D01*
X63213842Y-79751114D01*
X63161500Y-79762500D01*
X63007281Y-79762500D01*
X62939160Y-79742498D01*
X62918264Y-79725673D01*
X62833188Y-79640746D01*
X62833183Y-79640742D01*
X62828003Y-79635571D01*
X62784649Y-79608847D01*
X62686150Y-79548131D01*
X62686148Y-79548130D01*
X62679920Y-79544291D01*
X62514809Y-79489526D01*
X62507973Y-79488826D01*
X62507970Y-79488825D01*
X62456474Y-79483549D01*
X62412072Y-79479000D01*
X61837928Y-79479000D01*
X61834682Y-79479337D01*
X61834678Y-79479337D01*
X61740765Y-79489081D01*
X61740761Y-79489082D01*
X61733907Y-79489793D01*
X61727371Y-79491974D01*
X61727369Y-79491974D01*
X61594605Y-79536268D01*
X61568893Y-79544846D01*
X61562661Y-79548702D01*
X61562662Y-79548702D01*
X61428490Y-79631730D01*
X61420969Y-79636384D01*
X61356946Y-79700519D01*
X61294666Y-79734597D01*
X61267775Y-79737500D01*
X60494985Y-79737500D01*
X60459832Y-79732497D01*
X60328831Y-79694438D01*
X60322426Y-79693934D01*
X60322421Y-79693933D01*
X60293958Y-79691693D01*
X60293950Y-79691693D01*
X60291502Y-79691500D01*
X59133498Y-79691500D01*
X59131050Y-79691693D01*
X59131042Y-79691693D01*
X59102579Y-79693933D01*
X59102574Y-79693934D01*
X59096169Y-79694438D01*
X58996231Y-79723472D01*
X58944012Y-79738643D01*
X58944010Y-79738644D01*
X58936399Y-79740855D01*
X58793193Y-79825547D01*
X58791783Y-79823163D01*
X58738057Y-79844257D01*
X58673570Y-79832898D01*
X58636908Y-79815764D01*
X58632967Y-79813837D01*
X58574117Y-79783787D01*
X58567596Y-79780457D01*
X58560481Y-79778716D01*
X58554735Y-79776579D01*
X58548952Y-79774655D01*
X58542321Y-79771556D01*
X58470443Y-79756606D01*
X58466171Y-79755639D01*
X58394888Y-79738196D01*
X58389289Y-79737849D01*
X58389285Y-79737848D01*
X58383670Y-79737500D01*
X58383672Y-79737461D01*
X58379771Y-79737228D01*
X58375412Y-79736839D01*
X58368244Y-79735348D01*
X58360927Y-79735546D01*
X58290423Y-79737454D01*
X58287014Y-79737500D01*
X58219985Y-79737500D01*
X58184832Y-79732497D01*
X58053831Y-79694438D01*
X58047426Y-79693934D01*
X58047421Y-79693933D01*
X58018958Y-79691693D01*
X58018950Y-79691693D01*
X58016502Y-79691500D01*
X56858498Y-79691500D01*
X56856050Y-79691693D01*
X56856042Y-79691693D01*
X56827579Y-79693933D01*
X56827574Y-79693934D01*
X56821169Y-79694438D01*
X56690168Y-79732497D01*
X56655015Y-79737500D01*
X55769670Y-79737500D01*
X55701549Y-79717498D01*
X55680659Y-79700679D01*
X55653003Y-79673071D01*
X55546152Y-79607207D01*
X55511150Y-79585631D01*
X55511148Y-79585630D01*
X55504920Y-79581791D01*
X55339809Y-79527026D01*
X55332973Y-79526326D01*
X55332970Y-79526325D01*
X55281474Y-79521049D01*
X55237072Y-79516500D01*
X54662928Y-79516500D01*
X54659682Y-79516837D01*
X54659678Y-79516837D01*
X54565765Y-79526581D01*
X54565761Y-79526582D01*
X54558907Y-79527293D01*
X54552371Y-79529474D01*
X54552369Y-79529474D01*
X54419605Y-79573768D01*
X54393893Y-79582346D01*
X54245969Y-79673884D01*
X54240796Y-79679066D01*
X54128242Y-79791816D01*
X54128238Y-79791821D01*
X54123071Y-79796997D01*
X54119231Y-79803227D01*
X54119230Y-79803228D01*
X54074513Y-79875773D01*
X54031791Y-79945080D01*
X53977026Y-80110191D01*
X53976326Y-80117027D01*
X53976325Y-80117030D01*
X53972201Y-80157281D01*
X53966500Y-80212928D01*
X53966500Y-80912072D01*
X53966837Y-80915318D01*
X53966837Y-80915322D01*
X53973989Y-80984245D01*
X53977293Y-81016093D01*
X53979474Y-81022629D01*
X53979474Y-81022631D01*
X54023768Y-81155395D01*
X54032346Y-81181107D01*
X54123884Y-81329031D01*
X54131024Y-81336158D01*
X54131139Y-81336273D01*
X54132105Y-81338038D01*
X54133613Y-81339941D01*
X54133287Y-81340199D01*
X54165219Y-81398554D01*
X54160218Y-81469375D01*
X54131292Y-81514470D01*
X54128636Y-81517131D01*
X54119625Y-81528540D01*
X54036088Y-81664063D01*
X54029944Y-81677241D01*
X53979685Y-81828766D01*
X53976819Y-81842132D01*
X53967328Y-81934770D01*
X53967000Y-81941185D01*
X53967000Y-82015385D01*
X53971475Y-82030624D01*
X53972865Y-82031829D01*
X53980548Y-82033500D01*
X55914885Y-82033500D01*
X55930124Y-82029025D01*
X55931329Y-82027635D01*
X55933000Y-82019952D01*
X55933000Y-81941234D01*
X55932663Y-81934718D01*
X55922925Y-81840868D01*
X55920032Y-81827472D01*
X55869512Y-81676047D01*
X55863347Y-81662885D01*
X55779574Y-81527508D01*
X55770536Y-81516106D01*
X55768861Y-81514433D01*
X55768081Y-81513007D01*
X55765993Y-81510373D01*
X55766444Y-81510016D01*
X55734781Y-81452151D01*
X55739784Y-81381331D01*
X55768701Y-81336246D01*
X55771756Y-81333185D01*
X55776929Y-81328003D01*
X55780770Y-81321771D01*
X55785307Y-81316027D01*
X55786451Y-81316931D01*
X55833171Y-81274888D01*
X55887653Y-81262500D01*
X56655015Y-81262500D01*
X56690167Y-81267503D01*
X56821169Y-81305562D01*
X56827574Y-81306066D01*
X56827579Y-81306067D01*
X56856042Y-81308307D01*
X56856050Y-81308307D01*
X56858498Y-81308500D01*
X57565500Y-81308500D01*
X57633621Y-81328502D01*
X57680114Y-81382158D01*
X57691500Y-81434500D01*
X57691500Y-81465500D01*
X57671498Y-81533621D01*
X57617842Y-81580114D01*
X57565500Y-81591500D01*
X56858498Y-81591500D01*
X56856050Y-81591693D01*
X56856042Y-81591693D01*
X56827579Y-81593933D01*
X56827574Y-81593934D01*
X56821169Y-81594438D01*
X56752569Y-81614368D01*
X56669012Y-81638643D01*
X56669010Y-81638644D01*
X56661399Y-81640855D01*
X56654572Y-81644892D01*
X56654573Y-81644892D01*
X56584297Y-81686453D01*
X56520158Y-81704000D01*
X56288122Y-81704000D01*
X56274591Y-81707973D01*
X56273456Y-81715871D01*
X56314107Y-81855790D01*
X56322128Y-81874326D01*
X56330824Y-81944788D01*
X56322128Y-81974404D01*
X56319889Y-81979577D01*
X56315855Y-81986399D01*
X56313644Y-81994010D01*
X56313643Y-81994012D01*
X56302171Y-82033500D01*
X56269438Y-82146169D01*
X56268934Y-82152574D01*
X56268933Y-82152579D01*
X56266693Y-82181042D01*
X56266500Y-82183498D01*
X56266500Y-82616502D01*
X56266693Y-82618950D01*
X56266693Y-82618958D01*
X56268372Y-82640282D01*
X56269438Y-82653831D01*
X56315855Y-82813601D01*
X56319890Y-82820423D01*
X56319892Y-82820427D01*
X56396509Y-82949980D01*
X56396511Y-82949983D01*
X56400547Y-82956807D01*
X56518193Y-83074453D01*
X56525017Y-83078489D01*
X56525020Y-83078491D01*
X56613139Y-83130604D01*
X56661592Y-83182496D01*
X56675000Y-83239057D01*
X56675000Y-89995124D01*
X56673567Y-90014074D01*
X56671376Y-90028473D01*
X56671376Y-90028479D01*
X56670276Y-90035708D01*
X56670869Y-90043000D01*
X56670869Y-90043003D01*
X56674585Y-90088683D01*
X56675000Y-90098898D01*
X56675000Y-90107025D01*
X56678311Y-90135424D01*
X56678738Y-90139744D01*
X56684691Y-90212926D01*
X56686947Y-90219888D01*
X56688143Y-90225876D01*
X56689551Y-90231833D01*
X56690399Y-90239107D01*
X56692897Y-90245989D01*
X56692898Y-90245993D01*
X56715445Y-90308107D01*
X56716855Y-90312211D01*
X56739487Y-90382075D01*
X56743287Y-90388338D01*
X56745825Y-90393880D01*
X56748567Y-90399356D01*
X56751066Y-90406241D01*
X56755081Y-90412365D01*
X56791315Y-90467632D01*
X56793630Y-90471300D01*
X56831727Y-90534081D01*
X56835441Y-90538286D01*
X56835443Y-90538289D01*
X56839167Y-90542505D01*
X56839138Y-90542531D01*
X56841738Y-90545462D01*
X56844542Y-90548816D01*
X56848554Y-90554935D01*
X56853866Y-90559967D01*
X56905086Y-90608488D01*
X56907528Y-90610866D01*
X57700595Y-91403933D01*
X57734621Y-91466245D01*
X57737500Y-91493028D01*
X57737500Y-98192412D01*
X57727137Y-98242453D01*
X57724704Y-98248076D01*
X57720668Y-98254900D01*
X57718457Y-98262511D01*
X57718456Y-98262513D01*
X57712017Y-98284677D01*
X57674427Y-98414063D01*
X57673923Y-98420468D01*
X57673922Y-98420473D01*
X57671693Y-98448797D01*
X57671500Y-98451253D01*
X57671501Y-98572814D01*
X57671501Y-98622999D01*
X57651499Y-98691120D01*
X57597844Y-98737613D01*
X57545501Y-98749000D01*
X56010691Y-98749000D01*
X55942570Y-98728998D01*
X55896077Y-98675342D01*
X55892709Y-98667230D01*
X55873767Y-98616703D01*
X55870615Y-98608295D01*
X55783261Y-98491739D01*
X55666705Y-98404385D01*
X55530316Y-98353255D01*
X55468134Y-98346500D01*
X50634500Y-98346500D01*
X50566379Y-98326498D01*
X50519886Y-98272842D01*
X50508500Y-98220500D01*
X50508500Y-97464000D01*
X50528502Y-97395879D01*
X50582158Y-97349386D01*
X50634500Y-97338000D01*
X52607885Y-97338000D01*
X52623124Y-97333525D01*
X52624329Y-97332135D01*
X52626000Y-97324452D01*
X52626000Y-97319884D01*
X53134000Y-97319884D01*
X53138475Y-97335123D01*
X53139865Y-97336328D01*
X53147548Y-97337999D01*
X55464669Y-97337999D01*
X55471490Y-97337629D01*
X55522352Y-97332105D01*
X55537604Y-97328479D01*
X55658054Y-97283324D01*
X55673649Y-97274786D01*
X55775724Y-97198285D01*
X55788285Y-97185724D01*
X55864786Y-97083649D01*
X55873324Y-97068054D01*
X55918478Y-96947606D01*
X55922105Y-96932351D01*
X55927631Y-96881486D01*
X55928000Y-96874672D01*
X55928000Y-96710202D01*
X55948002Y-96642081D01*
X56001658Y-96595588D01*
X56071932Y-96585484D01*
X56092936Y-96590369D01*
X56099877Y-96592624D01*
X56111851Y-96595257D01*
X56292992Y-96616857D01*
X56305241Y-96617114D01*
X56487125Y-96603119D01*
X56499205Y-96600988D01*
X56674895Y-96551934D01*
X56686328Y-96547500D01*
X56804342Y-96487887D01*
X56814626Y-96478242D01*
X56812388Y-96471598D01*
X56112812Y-95772022D01*
X56102723Y-95766513D01*
X56100000Y-95773814D01*
X56100000Y-96272000D01*
X56079998Y-96340121D01*
X56026342Y-96386614D01*
X55974000Y-96398000D01*
X55766000Y-96398000D01*
X55697879Y-96377998D01*
X55651386Y-96324342D01*
X55640000Y-96272000D01*
X55640000Y-95892115D01*
X55635525Y-95876876D01*
X55634135Y-95875671D01*
X55626452Y-95874000D01*
X53152115Y-95874000D01*
X53136876Y-95878475D01*
X53135671Y-95879865D01*
X53134000Y-95887548D01*
X53134000Y-97319884D01*
X52626000Y-97319884D01*
X52626000Y-95621132D01*
X56684408Y-95621132D01*
X56684539Y-95622965D01*
X56688790Y-95629580D01*
X57165659Y-96106449D01*
X57178039Y-96113209D01*
X57184773Y-96108168D01*
X57228494Y-96031207D01*
X57233487Y-96019991D01*
X57291062Y-95846914D01*
X57293782Y-95834942D01*
X57316973Y-95651364D01*
X57317465Y-95644335D01*
X57317756Y-95623505D01*
X57317463Y-95616512D01*
X57299403Y-95432325D01*
X57297020Y-95420290D01*
X57244298Y-95245665D01*
X57239623Y-95234324D01*
X57187472Y-95136241D01*
X57177610Y-95126158D01*
X57170484Y-95128726D01*
X56692022Y-95607188D01*
X56684408Y-95621132D01*
X52626000Y-95621132D01*
X52626000Y-95347885D01*
X53134000Y-95347885D01*
X53138475Y-95363124D01*
X53139865Y-95364329D01*
X53147548Y-95366000D01*
X55621885Y-95366000D01*
X55637124Y-95361525D01*
X55638329Y-95360135D01*
X55640000Y-95352452D01*
X55640000Y-94968000D01*
X55660002Y-94899879D01*
X55713658Y-94853386D01*
X55766000Y-94842000D01*
X55974000Y-94842000D01*
X56042121Y-94862002D01*
X56088614Y-94915658D01*
X56100000Y-94968000D01*
X56100000Y-95462675D01*
X56103237Y-95473700D01*
X56110328Y-95470462D01*
X56806766Y-94774024D01*
X56813526Y-94761644D01*
X56808867Y-94755421D01*
X56712083Y-94703090D01*
X56700778Y-94698338D01*
X56526524Y-94644397D01*
X56514511Y-94641931D01*
X56333094Y-94622863D01*
X56320826Y-94622778D01*
X56139169Y-94639310D01*
X56127114Y-94641610D01*
X56089575Y-94652658D01*
X56018578Y-94652704D01*
X55958827Y-94614358D01*
X55929293Y-94549796D01*
X55927999Y-94531785D01*
X55927999Y-94365331D01*
X55927629Y-94358510D01*
X55922105Y-94307648D01*
X55918479Y-94292396D01*
X55873324Y-94171946D01*
X55864786Y-94156351D01*
X55788285Y-94054276D01*
X55775724Y-94041715D01*
X55673649Y-93965214D01*
X55658054Y-93956676D01*
X55537606Y-93911522D01*
X55522351Y-93907895D01*
X55471486Y-93902369D01*
X55464672Y-93902000D01*
X53152115Y-93902000D01*
X53136876Y-93906475D01*
X53135671Y-93907865D01*
X53134000Y-93915548D01*
X53134000Y-95347885D01*
X52626000Y-95347885D01*
X52626000Y-93920116D01*
X52621525Y-93904877D01*
X52620135Y-93903672D01*
X52612452Y-93902001D01*
X50634500Y-93902001D01*
X50566379Y-93881999D01*
X50519886Y-93828343D01*
X50508500Y-93776001D01*
X50508500Y-82633766D01*
X53967000Y-82633766D01*
X53967337Y-82640282D01*
X53977075Y-82734132D01*
X53979968Y-82747528D01*
X54030488Y-82898953D01*
X54036653Y-82912115D01*
X54120426Y-83047492D01*
X54129460Y-83058890D01*
X54242129Y-83171363D01*
X54253540Y-83180375D01*
X54389063Y-83263912D01*
X54402241Y-83270056D01*
X54553766Y-83320315D01*
X54567132Y-83323181D01*
X54659770Y-83332672D01*
X54666185Y-83333000D01*
X54677885Y-83333000D01*
X54693124Y-83328525D01*
X54694329Y-83327135D01*
X54696000Y-83319452D01*
X54696000Y-83314885D01*
X55204000Y-83314885D01*
X55208475Y-83330124D01*
X55209865Y-83331329D01*
X55217548Y-83333000D01*
X55233766Y-83333000D01*
X55240282Y-83332663D01*
X55334132Y-83322925D01*
X55347528Y-83320032D01*
X55498953Y-83269512D01*
X55512115Y-83263347D01*
X55647492Y-83179574D01*
X55658890Y-83170540D01*
X55771363Y-83057871D01*
X55780375Y-83046460D01*
X55863912Y-82910937D01*
X55870056Y-82897759D01*
X55920315Y-82746234D01*
X55923181Y-82732868D01*
X55932672Y-82640230D01*
X55933000Y-82633815D01*
X55933000Y-82559615D01*
X55928525Y-82544376D01*
X55927135Y-82543171D01*
X55919452Y-82541500D01*
X55222115Y-82541500D01*
X55206876Y-82545975D01*
X55205671Y-82547365D01*
X55204000Y-82555048D01*
X55204000Y-83314885D01*
X54696000Y-83314885D01*
X54696000Y-82559615D01*
X54691525Y-82544376D01*
X54690135Y-82543171D01*
X54682452Y-82541500D01*
X53985115Y-82541500D01*
X53969876Y-82545975D01*
X53968671Y-82547365D01*
X53967000Y-82555048D01*
X53967000Y-82633766D01*
X50508500Y-82633766D01*
X50508500Y-57632703D01*
X55390743Y-57632703D01*
X55428268Y-57917734D01*
X55504129Y-58195036D01*
X55616923Y-58459476D01*
X55764561Y-58706161D01*
X55944313Y-58930528D01*
X56152851Y-59128423D01*
X56386317Y-59296186D01*
X56390112Y-59298195D01*
X56390113Y-59298196D01*
X56411869Y-59309715D01*
X56640392Y-59430712D01*
X56910373Y-59529511D01*
X57191264Y-59590755D01*
X57219841Y-59593004D01*
X57414282Y-59608307D01*
X57414291Y-59608307D01*
X57416739Y-59608500D01*
X57572271Y-59608500D01*
X57574407Y-59608354D01*
X57574418Y-59608354D01*
X57782548Y-59594165D01*
X57782554Y-59594164D01*
X57786825Y-59593873D01*
X57791020Y-59593004D01*
X57791022Y-59593004D01*
X57927584Y-59564723D01*
X58068342Y-59535574D01*
X58339343Y-59439607D01*
X58594812Y-59307750D01*
X58598313Y-59305289D01*
X58598317Y-59305287D01*
X58712417Y-59225096D01*
X58830023Y-59142441D01*
X59040622Y-58946740D01*
X59222713Y-58724268D01*
X59372927Y-58479142D01*
X59488483Y-58215898D01*
X59567244Y-57939406D01*
X59607751Y-57654784D01*
X59607845Y-57636951D01*
X59607867Y-57632703D01*
X140390743Y-57632703D01*
X140428268Y-57917734D01*
X140504129Y-58195036D01*
X140616923Y-58459476D01*
X140764561Y-58706161D01*
X140944313Y-58930528D01*
X141152851Y-59128423D01*
X141386317Y-59296186D01*
X141390112Y-59298195D01*
X141390113Y-59298196D01*
X141411869Y-59309715D01*
X141640392Y-59430712D01*
X141910373Y-59529511D01*
X142191264Y-59590755D01*
X142219841Y-59593004D01*
X142414282Y-59608307D01*
X142414291Y-59608307D01*
X142416739Y-59608500D01*
X142572271Y-59608500D01*
X142574407Y-59608354D01*
X142574418Y-59608354D01*
X142782548Y-59594165D01*
X142782554Y-59594164D01*
X142786825Y-59593873D01*
X142791020Y-59593004D01*
X142791022Y-59593004D01*
X142927584Y-59564723D01*
X143068342Y-59535574D01*
X143339343Y-59439607D01*
X143594812Y-59307750D01*
X143598313Y-59305289D01*
X143598317Y-59305287D01*
X143712417Y-59225096D01*
X143830023Y-59142441D01*
X144040622Y-58946740D01*
X144222713Y-58724268D01*
X144372927Y-58479142D01*
X144488483Y-58215898D01*
X144567244Y-57939406D01*
X144607751Y-57654784D01*
X144607845Y-57636951D01*
X144609235Y-57371583D01*
X144609235Y-57371576D01*
X144609257Y-57367297D01*
X144571732Y-57082266D01*
X144495871Y-56804964D01*
X144383077Y-56540524D01*
X144235439Y-56293839D01*
X144055687Y-56069472D01*
X143847149Y-55871577D01*
X143613683Y-55703814D01*
X143591843Y-55692250D01*
X143568654Y-55679972D01*
X143359608Y-55569288D01*
X143089627Y-55470489D01*
X142808736Y-55409245D01*
X142777685Y-55406801D01*
X142585718Y-55391693D01*
X142585709Y-55391693D01*
X142583261Y-55391500D01*
X142427729Y-55391500D01*
X142425593Y-55391646D01*
X142425582Y-55391646D01*
X142217452Y-55405835D01*
X142217446Y-55405836D01*
X142213175Y-55406127D01*
X142208980Y-55406996D01*
X142208978Y-55406996D01*
X142072417Y-55435276D01*
X141931658Y-55464426D01*
X141660657Y-55560393D01*
X141405188Y-55692250D01*
X141401687Y-55694711D01*
X141401683Y-55694713D01*
X141391594Y-55701804D01*
X141169977Y-55857559D01*
X140959378Y-56053260D01*
X140777287Y-56275732D01*
X140627073Y-56520858D01*
X140511517Y-56784102D01*
X140432756Y-57060594D01*
X140392249Y-57345216D01*
X140392227Y-57349505D01*
X140392226Y-57349512D01*
X140390765Y-57628417D01*
X140390743Y-57632703D01*
X59607867Y-57632703D01*
X59609235Y-57371583D01*
X59609235Y-57371576D01*
X59609257Y-57367297D01*
X59571732Y-57082266D01*
X59495871Y-56804964D01*
X59383077Y-56540524D01*
X59235439Y-56293839D01*
X59055687Y-56069472D01*
X58847149Y-55871577D01*
X58613683Y-55703814D01*
X58591843Y-55692250D01*
X58568654Y-55679972D01*
X58359608Y-55569288D01*
X58089627Y-55470489D01*
X57808736Y-55409245D01*
X57777685Y-55406801D01*
X57585718Y-55391693D01*
X57585709Y-55391693D01*
X57583261Y-55391500D01*
X57427729Y-55391500D01*
X57425593Y-55391646D01*
X57425582Y-55391646D01*
X57217452Y-55405835D01*
X57217446Y-55405836D01*
X57213175Y-55406127D01*
X57208980Y-55406996D01*
X57208978Y-55406996D01*
X57072417Y-55435276D01*
X56931658Y-55464426D01*
X56660657Y-55560393D01*
X56405188Y-55692250D01*
X56401687Y-55694711D01*
X56401683Y-55694713D01*
X56391594Y-55701804D01*
X56169977Y-55857559D01*
X55959378Y-56053260D01*
X55777287Y-56275732D01*
X55627073Y-56520858D01*
X55511517Y-56784102D01*
X55432756Y-57060594D01*
X55392249Y-57345216D01*
X55392227Y-57349505D01*
X55392226Y-57349512D01*
X55390765Y-57628417D01*
X55390743Y-57632703D01*
X50508500Y-57632703D01*
X50508500Y-50634500D01*
X50528502Y-50566379D01*
X50582158Y-50519886D01*
X50634500Y-50508500D01*
X149365500Y-50508500D01*
X149433621Y-50528502D01*
G37*
G04 #@! TD.AperFunction*
G04 #@! TA.AperFunction,Conductor*
G36*
X58792996Y-83074784D02*
G01*
X58793193Y-83074453D01*
X58885165Y-83128845D01*
X58933615Y-83180735D01*
X58946608Y-83227082D01*
X58949585Y-83263684D01*
X58950000Y-83273898D01*
X58950000Y-83282025D01*
X58953311Y-83310424D01*
X58953738Y-83314744D01*
X58959691Y-83387926D01*
X58961947Y-83394888D01*
X58963143Y-83400876D01*
X58964551Y-83406833D01*
X58965399Y-83414107D01*
X58967897Y-83420989D01*
X58967898Y-83420993D01*
X58990445Y-83483107D01*
X58991855Y-83487211D01*
X59014487Y-83557075D01*
X59018287Y-83563338D01*
X59020825Y-83568880D01*
X59023567Y-83574356D01*
X59026066Y-83581241D01*
X59030081Y-83587365D01*
X59066315Y-83642632D01*
X59068630Y-83646300D01*
X59106727Y-83709081D01*
X59110441Y-83713286D01*
X59110443Y-83713289D01*
X59114167Y-83717505D01*
X59114138Y-83717531D01*
X59116738Y-83720462D01*
X59119542Y-83723816D01*
X59123554Y-83729935D01*
X59128866Y-83734967D01*
X59180086Y-83783488D01*
X59182528Y-83785866D01*
X59713190Y-84316528D01*
X59725577Y-84330941D01*
X59738546Y-84348564D01*
X59744129Y-84353307D01*
X59779055Y-84382979D01*
X59786571Y-84389909D01*
X59792315Y-84395653D01*
X59795185Y-84397924D01*
X59795191Y-84397929D01*
X59814741Y-84413397D01*
X59818141Y-84416185D01*
X59857944Y-84450000D01*
X59874051Y-84463684D01*
X59880572Y-84467014D01*
X59885657Y-84470405D01*
X59890856Y-84473616D01*
X59896599Y-84478160D01*
X59903228Y-84481258D01*
X59903231Y-84481260D01*
X59963089Y-84509235D01*
X59967041Y-84511167D01*
X60032404Y-84544543D01*
X60039521Y-84546284D01*
X60045239Y-84548411D01*
X60051045Y-84550342D01*
X60057679Y-84553443D01*
X60064847Y-84554934D01*
X60064850Y-84554935D01*
X60109867Y-84564299D01*
X60129539Y-84568391D01*
X60133797Y-84569354D01*
X60205112Y-84586804D01*
X60210718Y-84587152D01*
X60210719Y-84587152D01*
X60216330Y-84587500D01*
X60216328Y-84587539D01*
X60220229Y-84587772D01*
X60224588Y-84588161D01*
X60231756Y-84589652D01*
X60239073Y-84589454D01*
X60309576Y-84587546D01*
X60312985Y-84587500D01*
X60779972Y-84587500D01*
X60848093Y-84607502D01*
X60894586Y-84661158D01*
X60904690Y-84731432D01*
X60875196Y-84796012D01*
X60869067Y-84802595D01*
X60020972Y-85650690D01*
X60006559Y-85663077D01*
X59988936Y-85676046D01*
X59984192Y-85681629D01*
X59984193Y-85681629D01*
X59954521Y-85716555D01*
X59947591Y-85724071D01*
X59941847Y-85729815D01*
X59939573Y-85732689D01*
X59939567Y-85732696D01*
X59924128Y-85752211D01*
X59921337Y-85755615D01*
X59878555Y-85805972D01*
X59878552Y-85805976D01*
X59873816Y-85811551D01*
X59870488Y-85818068D01*
X59867111Y-85823132D01*
X59863884Y-85828356D01*
X59859340Y-85834100D01*
X59853285Y-85847055D01*
X59828268Y-85900582D01*
X59826337Y-85904533D01*
X59792957Y-85969904D01*
X59791216Y-85977019D01*
X59789079Y-85982765D01*
X59787155Y-85988548D01*
X59784056Y-85995179D01*
X59782566Y-86002343D01*
X59769108Y-86067047D01*
X59768139Y-86071329D01*
X59750696Y-86142612D01*
X59750000Y-86153830D01*
X59749961Y-86153828D01*
X59749728Y-86157729D01*
X59749339Y-86162088D01*
X59747848Y-86169256D01*
X59748046Y-86176573D01*
X59749954Y-86247077D01*
X59750000Y-86250486D01*
X59750000Y-86417719D01*
X59729998Y-86485840D01*
X59713173Y-86506736D01*
X59628246Y-86591812D01*
X59628242Y-86591817D01*
X59623071Y-86596997D01*
X59619231Y-86603227D01*
X59619230Y-86603228D01*
X59552485Y-86711509D01*
X59531791Y-86745080D01*
X59477026Y-86910191D01*
X59476326Y-86917027D01*
X59476325Y-86917030D01*
X59471049Y-86968526D01*
X59466500Y-87012928D01*
X59466500Y-87587072D01*
X59466837Y-87590318D01*
X59466837Y-87590322D01*
X59476440Y-87682868D01*
X59477293Y-87691093D01*
X59532346Y-87856107D01*
X59623884Y-88004031D01*
X59629066Y-88009204D01*
X59629070Y-88009209D01*
X59713017Y-88093009D01*
X59747097Y-88155291D01*
X59750000Y-88182182D01*
X59750000Y-89530221D01*
X59731776Y-89595492D01*
X59649528Y-89731301D01*
X59598247Y-89894938D01*
X59591500Y-89968365D01*
X59591501Y-90631634D01*
X59591764Y-90634492D01*
X59591764Y-90634501D01*
X59593502Y-90653419D01*
X59598247Y-90705062D01*
X59600246Y-90711440D01*
X59600246Y-90711441D01*
X59626000Y-90793620D01*
X59649528Y-90868699D01*
X59693622Y-90941507D01*
X59719276Y-90983867D01*
X59737500Y-91049138D01*
X59737500Y-92400862D01*
X59719276Y-92466132D01*
X59649528Y-92581301D01*
X59598247Y-92744938D01*
X59591500Y-92818365D01*
X59591501Y-93481634D01*
X59591764Y-93484492D01*
X59591764Y-93484501D01*
X59592370Y-93491093D01*
X59598247Y-93555062D01*
X59600246Y-93561440D01*
X59600246Y-93561441D01*
X59635577Y-93674180D01*
X59649528Y-93718699D01*
X59738361Y-93865381D01*
X59859619Y-93986639D01*
X60006301Y-94075472D01*
X60013548Y-94077743D01*
X60013550Y-94077744D01*
X60042630Y-94086857D01*
X60169938Y-94126753D01*
X60243365Y-94133500D01*
X60246263Y-94133500D01*
X60500665Y-94133499D01*
X60756634Y-94133499D01*
X60759492Y-94133236D01*
X60759501Y-94133236D01*
X60795004Y-94129974D01*
X60830062Y-94126753D01*
X60957370Y-94086857D01*
X60986450Y-94077744D01*
X60986452Y-94077743D01*
X60993699Y-94075472D01*
X61140381Y-93986639D01*
X61172405Y-93954615D01*
X61234717Y-93920589D01*
X61305532Y-93925654D01*
X61362368Y-93968201D01*
X61387179Y-94034721D01*
X61387500Y-94043710D01*
X61387500Y-94956290D01*
X61367498Y-95024411D01*
X61313842Y-95070904D01*
X61243568Y-95081008D01*
X61178988Y-95051514D01*
X61172405Y-95045385D01*
X61140381Y-95013361D01*
X60993699Y-94924528D01*
X60986452Y-94922257D01*
X60986450Y-94922256D01*
X60915044Y-94899879D01*
X60830062Y-94873247D01*
X60756635Y-94866500D01*
X60753737Y-94866500D01*
X60499335Y-94866501D01*
X60243366Y-94866501D01*
X60240508Y-94866764D01*
X60240499Y-94866764D01*
X60204996Y-94870026D01*
X60169938Y-94873247D01*
X60163560Y-94875246D01*
X60163559Y-94875246D01*
X60013550Y-94922256D01*
X60013548Y-94922257D01*
X60006301Y-94924528D01*
X59859619Y-95013361D01*
X59738361Y-95134619D01*
X59649528Y-95281301D01*
X59647257Y-95288548D01*
X59647256Y-95288550D01*
X59626483Y-95354836D01*
X59598247Y-95444938D01*
X59591500Y-95518365D01*
X59591501Y-96181634D01*
X59598247Y-96255062D01*
X59600246Y-96261440D01*
X59600246Y-96261441D01*
X59637988Y-96381874D01*
X59649528Y-96418699D01*
X59738361Y-96565381D01*
X59859619Y-96686639D01*
X60006301Y-96775472D01*
X60013548Y-96777743D01*
X60013550Y-96777744D01*
X60079836Y-96798517D01*
X60169938Y-96826753D01*
X60243365Y-96833500D01*
X60352972Y-96833500D01*
X60421093Y-96853502D01*
X60442067Y-96870405D01*
X60938190Y-97366528D01*
X60950577Y-97380941D01*
X60963546Y-97398564D01*
X60969129Y-97403307D01*
X61004055Y-97432979D01*
X61011571Y-97439909D01*
X61017315Y-97445653D01*
X61020189Y-97447927D01*
X61020196Y-97447933D01*
X61039711Y-97463372D01*
X61043115Y-97466163D01*
X61093472Y-97508945D01*
X61093476Y-97508948D01*
X61099051Y-97513684D01*
X61105568Y-97517012D01*
X61110632Y-97520389D01*
X61115856Y-97523616D01*
X61121600Y-97528160D01*
X61188104Y-97559242D01*
X61192001Y-97561147D01*
X61257404Y-97594543D01*
X61264518Y-97596283D01*
X61270260Y-97598419D01*
X61276051Y-97600346D01*
X61282680Y-97603444D01*
X61354569Y-97618397D01*
X61358835Y-97619363D01*
X61430112Y-97636804D01*
X61435714Y-97637152D01*
X61435717Y-97637152D01*
X61441330Y-97637500D01*
X61441328Y-97637539D01*
X61445229Y-97637772D01*
X61449588Y-97638161D01*
X61456756Y-97639652D01*
X61464073Y-97639454D01*
X61534577Y-97637546D01*
X61537986Y-97637500D01*
X67195500Y-97637500D01*
X67263621Y-97657502D01*
X67310114Y-97711158D01*
X67321500Y-97763500D01*
X67321501Y-97946566D01*
X67321501Y-98128746D01*
X67324427Y-98165937D01*
X67367316Y-98313563D01*
X67367399Y-98313847D01*
X67367196Y-98384843D01*
X67328642Y-98444460D01*
X67263978Y-98473768D01*
X67246402Y-98475000D01*
X59437880Y-98475000D01*
X59369759Y-98454998D01*
X59323266Y-98401342D01*
X59316883Y-98384152D01*
X59281545Y-98262515D01*
X59281543Y-98262510D01*
X59279332Y-98254900D01*
X59275296Y-98248076D01*
X59272863Y-98242453D01*
X59262500Y-98192412D01*
X59262500Y-91192376D01*
X59263933Y-91173426D01*
X59266124Y-91159027D01*
X59266124Y-91159021D01*
X59267224Y-91151792D01*
X59265992Y-91136639D01*
X59262915Y-91098817D01*
X59262500Y-91088602D01*
X59262500Y-91080475D01*
X59259189Y-91052076D01*
X59258760Y-91047736D01*
X59256013Y-91013959D01*
X59252809Y-90974574D01*
X59250553Y-90967612D01*
X59249357Y-90961624D01*
X59247949Y-90955667D01*
X59247101Y-90948393D01*
X59244603Y-90941511D01*
X59244602Y-90941507D01*
X59222055Y-90879393D01*
X59220645Y-90875289D01*
X59198013Y-90805425D01*
X59194213Y-90799162D01*
X59191675Y-90793620D01*
X59188933Y-90788144D01*
X59186434Y-90781259D01*
X59146185Y-90719868D01*
X59143870Y-90716200D01*
X59105773Y-90653419D01*
X59102057Y-90649212D01*
X59102054Y-90649208D01*
X59098332Y-90644995D01*
X59098360Y-90644970D01*
X59095768Y-90642045D01*
X59092958Y-90638685D01*
X59088946Y-90632565D01*
X59032417Y-90579014D01*
X59029975Y-90576637D01*
X58236905Y-89783567D01*
X58202879Y-89721255D01*
X58200000Y-89694472D01*
X58200000Y-83289346D01*
X58220002Y-83221225D01*
X58273658Y-83174732D01*
X58315782Y-83163761D01*
X58326186Y-83162915D01*
X58336398Y-83162500D01*
X58344525Y-83162500D01*
X58348161Y-83162076D01*
X58348163Y-83162076D01*
X58351615Y-83161673D01*
X58372924Y-83159189D01*
X58377244Y-83158762D01*
X58450426Y-83152809D01*
X58457388Y-83150553D01*
X58463376Y-83149357D01*
X58469333Y-83147949D01*
X58476607Y-83147101D01*
X58483489Y-83144603D01*
X58483493Y-83144602D01*
X58545607Y-83122055D01*
X58549711Y-83120645D01*
X58619575Y-83098013D01*
X58625838Y-83094213D01*
X58631380Y-83091675D01*
X58636857Y-83088933D01*
X58643741Y-83086434D01*
X58649862Y-83082421D01*
X58649866Y-83082419D01*
X58658757Y-83076590D01*
X58726693Y-83055969D01*
X58792996Y-83074784D01*
G37*
G04 #@! TD.AperFunction*
G04 #@! TA.AperFunction,Conductor*
G36*
X71267121Y-96557502D02*
G01*
X71313614Y-96611158D01*
X71325000Y-96663500D01*
X71325000Y-97520000D01*
X68960000Y-97520000D01*
X68960000Y-97610460D01*
X68929332Y-97504900D01*
X68925296Y-97498076D01*
X68922863Y-97492453D01*
X68912500Y-97442412D01*
X68912500Y-97367376D01*
X68913933Y-97348426D01*
X68916124Y-97334027D01*
X68916124Y-97334021D01*
X68917224Y-97326792D01*
X68912915Y-97273817D01*
X68912500Y-97263602D01*
X68912500Y-97255475D01*
X68909189Y-97227076D01*
X68908760Y-97222736D01*
X68908331Y-97217453D01*
X68902809Y-97149574D01*
X68900553Y-97142612D01*
X68899357Y-97136624D01*
X68897949Y-97130667D01*
X68897101Y-97123393D01*
X68894603Y-97116511D01*
X68894602Y-97116507D01*
X68872055Y-97054393D01*
X68870645Y-97050289D01*
X68848013Y-96980425D01*
X68844213Y-96974162D01*
X68841675Y-96968620D01*
X68838933Y-96963144D01*
X68836434Y-96956259D01*
X68830761Y-96947606D01*
X68796185Y-96894868D01*
X68793870Y-96891200D01*
X68755773Y-96828419D01*
X68748333Y-96819995D01*
X68748362Y-96819969D01*
X68745762Y-96817038D01*
X68742958Y-96813684D01*
X68738946Y-96807565D01*
X68733635Y-96802534D01*
X68733631Y-96802529D01*
X68683429Y-96754973D01*
X68647730Y-96693604D01*
X68650877Y-96622678D01*
X68691871Y-96564712D01*
X68757695Y-96538110D01*
X68770081Y-96537500D01*
X71199000Y-96537500D01*
X71267121Y-96557502D01*
G37*
G04 #@! TD.AperFunction*
G04 #@! TA.AperFunction,Conductor*
G36*
X65268032Y-91038154D02*
G01*
X65324868Y-91080701D01*
X65349679Y-91147221D01*
X65350000Y-91156210D01*
X65350000Y-92170307D01*
X65329998Y-92238428D01*
X65276342Y-92284921D01*
X65206068Y-92295025D01*
X65153355Y-92272388D01*
X65152691Y-92273466D01*
X65010937Y-92186088D01*
X64997759Y-92179944D01*
X64846234Y-92129685D01*
X64832868Y-92126819D01*
X64740230Y-92117328D01*
X64733815Y-92117000D01*
X64659615Y-92117000D01*
X64644376Y-92121475D01*
X64643171Y-92122865D01*
X64641500Y-92130548D01*
X64641500Y-94064885D01*
X64645975Y-94080124D01*
X64647365Y-94081329D01*
X64655048Y-94083000D01*
X64733766Y-94083000D01*
X64740282Y-94082663D01*
X64834132Y-94072925D01*
X64847528Y-94070032D01*
X64998953Y-94019512D01*
X65012115Y-94013347D01*
X65153718Y-93925721D01*
X65154714Y-93927330D01*
X65211555Y-93904328D01*
X65281318Y-93917504D01*
X65332883Y-93966305D01*
X65350000Y-94029712D01*
X65350000Y-94420124D01*
X65348567Y-94439074D01*
X65346376Y-94453473D01*
X65346376Y-94453479D01*
X65345276Y-94460708D01*
X65345869Y-94468000D01*
X65345869Y-94468003D01*
X65349585Y-94513683D01*
X65350000Y-94523898D01*
X65350000Y-94532025D01*
X65353311Y-94560424D01*
X65353738Y-94564744D01*
X65359691Y-94637926D01*
X65361947Y-94644888D01*
X65363143Y-94650876D01*
X65364551Y-94656833D01*
X65365399Y-94664107D01*
X65367897Y-94670989D01*
X65367898Y-94670993D01*
X65390445Y-94733107D01*
X65391855Y-94737211D01*
X65414487Y-94807075D01*
X65418287Y-94813338D01*
X65420825Y-94818880D01*
X65423567Y-94824356D01*
X65426066Y-94831241D01*
X65430081Y-94837365D01*
X65466315Y-94892632D01*
X65468630Y-94896300D01*
X65506727Y-94959081D01*
X65510441Y-94963286D01*
X65510443Y-94963289D01*
X65514167Y-94967505D01*
X65514138Y-94967531D01*
X65516738Y-94970462D01*
X65519542Y-94973816D01*
X65523554Y-94979935D01*
X65578101Y-95031608D01*
X65580086Y-95033488D01*
X65582528Y-95035866D01*
X66042315Y-95495653D01*
X66045176Y-95497916D01*
X66045181Y-95497921D01*
X66067399Y-95515499D01*
X66146600Y-95578160D01*
X66153232Y-95581260D01*
X66153236Y-95581262D01*
X66301047Y-95650344D01*
X66301051Y-95650345D01*
X66307679Y-95653443D01*
X66481756Y-95689652D01*
X66559576Y-95687546D01*
X66562985Y-95687500D01*
X67256972Y-95687500D01*
X67325093Y-95707502D01*
X67346067Y-95724405D01*
X67519067Y-95897405D01*
X67553093Y-95959717D01*
X67548028Y-96030532D01*
X67505481Y-96087368D01*
X67438961Y-96112179D01*
X67429972Y-96112500D01*
X63184500Y-96112500D01*
X63116379Y-96092498D01*
X63069886Y-96038842D01*
X63058500Y-95986500D01*
X63058499Y-95521249D01*
X63058499Y-95518366D01*
X63058234Y-95515474D01*
X63054098Y-95470462D01*
X63051753Y-95444938D01*
X63025177Y-95360135D01*
X63002744Y-95288550D01*
X63002743Y-95288548D01*
X63000472Y-95281301D01*
X62930724Y-95166132D01*
X62912500Y-95100862D01*
X62912500Y-93899138D01*
X62930724Y-93833867D01*
X62932424Y-93831060D01*
X63000472Y-93718699D01*
X63014424Y-93674180D01*
X63023517Y-93645164D01*
X63051753Y-93555062D01*
X63058500Y-93481635D01*
X63058500Y-93383766D01*
X63342000Y-93383766D01*
X63342337Y-93390282D01*
X63352075Y-93484132D01*
X63354968Y-93497528D01*
X63405488Y-93648953D01*
X63411653Y-93662115D01*
X63495426Y-93797492D01*
X63504460Y-93808890D01*
X63617129Y-93921363D01*
X63628540Y-93930375D01*
X63764063Y-94013912D01*
X63777241Y-94020056D01*
X63928766Y-94070315D01*
X63942132Y-94073181D01*
X64034770Y-94082672D01*
X64041185Y-94083000D01*
X64115385Y-94083000D01*
X64130624Y-94078525D01*
X64131829Y-94077135D01*
X64133500Y-94069452D01*
X64133500Y-93372115D01*
X64129025Y-93356876D01*
X64127635Y-93355671D01*
X64119952Y-93354000D01*
X63360115Y-93354000D01*
X63344876Y-93358475D01*
X63343671Y-93359865D01*
X63342000Y-93367548D01*
X63342000Y-93383766D01*
X63058500Y-93383766D01*
X63058499Y-92827885D01*
X63342000Y-92827885D01*
X63346475Y-92843124D01*
X63347865Y-92844329D01*
X63355548Y-92846000D01*
X64115385Y-92846000D01*
X64130624Y-92841525D01*
X64131829Y-92840135D01*
X64133500Y-92832452D01*
X64133500Y-92135115D01*
X64129025Y-92119876D01*
X64127635Y-92118671D01*
X64119952Y-92117000D01*
X64041234Y-92117000D01*
X64034718Y-92117337D01*
X63940868Y-92127075D01*
X63927472Y-92129968D01*
X63776047Y-92180488D01*
X63762885Y-92186653D01*
X63627508Y-92270426D01*
X63616110Y-92279460D01*
X63503637Y-92392129D01*
X63494625Y-92403540D01*
X63411088Y-92539063D01*
X63404944Y-92552241D01*
X63354685Y-92703766D01*
X63351819Y-92717132D01*
X63342328Y-92809770D01*
X63342000Y-92816185D01*
X63342000Y-92827885D01*
X63058499Y-92827885D01*
X63058499Y-92818366D01*
X63058234Y-92815474D01*
X63052364Y-92751592D01*
X63051753Y-92744938D01*
X63040864Y-92710191D01*
X63002744Y-92588550D01*
X63002743Y-92588548D01*
X63000472Y-92581301D01*
X62930724Y-92466132D01*
X62912500Y-92400862D01*
X62912500Y-91188500D01*
X62932502Y-91120379D01*
X62986158Y-91073886D01*
X63038500Y-91062500D01*
X63658290Y-91062500D01*
X63726411Y-91082502D01*
X63747385Y-91099405D01*
X63784619Y-91136639D01*
X63931301Y-91225472D01*
X63938548Y-91227743D01*
X63938550Y-91227744D01*
X64004836Y-91248517D01*
X64094938Y-91276753D01*
X64168365Y-91283500D01*
X64171263Y-91283500D01*
X64425665Y-91283499D01*
X64681634Y-91283499D01*
X64684492Y-91283236D01*
X64684501Y-91283236D01*
X64720004Y-91279974D01*
X64755062Y-91276753D01*
X64761447Y-91274752D01*
X64911450Y-91227744D01*
X64911452Y-91227743D01*
X64918699Y-91225472D01*
X65065381Y-91136639D01*
X65134905Y-91067115D01*
X65197217Y-91033089D01*
X65268032Y-91038154D01*
G37*
G04 #@! TD.AperFunction*
G04 #@! TA.AperFunction,Conductor*
G36*
X67138318Y-85244186D02*
G01*
X67195154Y-85286733D01*
X67219965Y-85353253D01*
X67204874Y-85422627D01*
X67184999Y-85449690D01*
X66803318Y-85845625D01*
X66775000Y-85875000D01*
X66775000Y-86935338D01*
X66754998Y-87003459D01*
X66701342Y-87049952D01*
X66631068Y-87060056D01*
X66566488Y-87030562D01*
X66528766Y-86973017D01*
X66490971Y-86852411D01*
X66484765Y-86838666D01*
X66409504Y-86714396D01*
X66400197Y-86702527D01*
X66297473Y-86599803D01*
X66285604Y-86590496D01*
X66161334Y-86515235D01*
X66147589Y-86509029D01*
X66008096Y-86465315D01*
X65995046Y-86462702D01*
X65938038Y-86457463D01*
X65924376Y-86461475D01*
X65923171Y-86462865D01*
X65921500Y-86470548D01*
X65921500Y-88074885D01*
X65925975Y-88090124D01*
X65927365Y-88091329D01*
X65934186Y-88092813D01*
X65935888Y-88092734D01*
X65995046Y-88087298D01*
X66008096Y-88084685D01*
X66147589Y-88040971D01*
X66161334Y-88034765D01*
X66285604Y-87959504D01*
X66297473Y-87950197D01*
X66400197Y-87847473D01*
X66409504Y-87835604D01*
X66484765Y-87711334D01*
X66490971Y-87697589D01*
X66528766Y-87576983D01*
X66568223Y-87517961D01*
X66633327Y-87489641D01*
X66703406Y-87501014D01*
X66756213Y-87548469D01*
X66775000Y-87614662D01*
X66775000Y-89275854D01*
X66754998Y-89343975D01*
X66701342Y-89390468D01*
X66631068Y-89400572D01*
X66583731Y-89383631D01*
X66575199Y-89378464D01*
X66575196Y-89378463D01*
X66568699Y-89374528D01*
X66561452Y-89372257D01*
X66561450Y-89372256D01*
X66495164Y-89351483D01*
X66405062Y-89323247D01*
X66331635Y-89316500D01*
X66328737Y-89316500D01*
X66074335Y-89316501D01*
X65818366Y-89316501D01*
X65815508Y-89316764D01*
X65815499Y-89316764D01*
X65779996Y-89320026D01*
X65744938Y-89323247D01*
X65738560Y-89325246D01*
X65738559Y-89325246D01*
X65588550Y-89372256D01*
X65588548Y-89372257D01*
X65581301Y-89374528D01*
X65434619Y-89463361D01*
X65402595Y-89495385D01*
X65340283Y-89529411D01*
X65269468Y-89524346D01*
X65212632Y-89481799D01*
X65187821Y-89415279D01*
X65187500Y-89406290D01*
X65187500Y-88210503D01*
X65207502Y-88142382D01*
X65261158Y-88095889D01*
X65333212Y-88087539D01*
X65333290Y-88086686D01*
X65337350Y-88087059D01*
X65338239Y-88086956D01*
X65339944Y-88087297D01*
X65396962Y-88092537D01*
X65410624Y-88088525D01*
X65411829Y-88087135D01*
X65413500Y-88079452D01*
X65413500Y-86475115D01*
X65409025Y-86459876D01*
X65407635Y-86458671D01*
X65400814Y-86457187D01*
X65399112Y-86457266D01*
X65339954Y-86462702D01*
X65326904Y-86465315D01*
X65187411Y-86509029D01*
X65173669Y-86515234D01*
X65165757Y-86520026D01*
X65097128Y-86538207D01*
X65035210Y-86520027D01*
X65026544Y-86514779D01*
X65026542Y-86514778D01*
X65020045Y-86510843D01*
X65012798Y-86508572D01*
X65012796Y-86508571D01*
X64940261Y-86485840D01*
X64866801Y-86462819D01*
X64798032Y-86456500D01*
X64266968Y-86456500D01*
X64198199Y-86462819D01*
X64124739Y-86485840D01*
X64052204Y-86508571D01*
X64052202Y-86508572D01*
X64044955Y-86510843D01*
X63907590Y-86594034D01*
X63794034Y-86707590D01*
X63710843Y-86844955D01*
X63662819Y-86998199D01*
X63656500Y-87066968D01*
X63656500Y-87483032D01*
X63659710Y-87517961D01*
X63661971Y-87542572D01*
X63662500Y-87554101D01*
X63662500Y-89411500D01*
X63642498Y-89479621D01*
X63588842Y-89526114D01*
X63536500Y-89537500D01*
X62916710Y-89537500D01*
X62848589Y-89517498D01*
X62827615Y-89500595D01*
X62790381Y-89463361D01*
X62643699Y-89374528D01*
X62636452Y-89372257D01*
X62636450Y-89372256D01*
X62570164Y-89351483D01*
X62480062Y-89323247D01*
X62406635Y-89316500D01*
X62403737Y-89316500D01*
X62149335Y-89316501D01*
X61893366Y-89316501D01*
X61890508Y-89316764D01*
X61890499Y-89316764D01*
X61854996Y-89320026D01*
X61819938Y-89323247D01*
X61813560Y-89325246D01*
X61813559Y-89325246D01*
X61663550Y-89372256D01*
X61663548Y-89372257D01*
X61656301Y-89374528D01*
X61509619Y-89463361D01*
X61490095Y-89482885D01*
X61427783Y-89516911D01*
X61356968Y-89511846D01*
X61300132Y-89469299D01*
X61275321Y-89402779D01*
X61275000Y-89393790D01*
X61275000Y-88229693D01*
X61295002Y-88161572D01*
X61348658Y-88115079D01*
X61418932Y-88104975D01*
X61471645Y-88127612D01*
X61472309Y-88126534D01*
X61614063Y-88213912D01*
X61627241Y-88220056D01*
X61778766Y-88270315D01*
X61792132Y-88273181D01*
X61884770Y-88282672D01*
X61891185Y-88283000D01*
X61965385Y-88283000D01*
X61980624Y-88278525D01*
X61981829Y-88277135D01*
X61983500Y-88269452D01*
X61983500Y-88264885D01*
X62491500Y-88264885D01*
X62495975Y-88280124D01*
X62497365Y-88281329D01*
X62505048Y-88283000D01*
X62583766Y-88283000D01*
X62590282Y-88282663D01*
X62684132Y-88272925D01*
X62697528Y-88270032D01*
X62848953Y-88219512D01*
X62862115Y-88213347D01*
X62997492Y-88129574D01*
X63008890Y-88120540D01*
X63121363Y-88007871D01*
X63130375Y-87996460D01*
X63213912Y-87860937D01*
X63220056Y-87847759D01*
X63270315Y-87696234D01*
X63273181Y-87682868D01*
X63282672Y-87590230D01*
X63283000Y-87583815D01*
X63283000Y-87572115D01*
X63278525Y-87556876D01*
X63277135Y-87555671D01*
X63269452Y-87554000D01*
X62509615Y-87554000D01*
X62494376Y-87558475D01*
X62493171Y-87559865D01*
X62491500Y-87567548D01*
X62491500Y-88264885D01*
X61983500Y-88264885D01*
X61983500Y-87027885D01*
X62491500Y-87027885D01*
X62495975Y-87043124D01*
X62497365Y-87044329D01*
X62505048Y-87046000D01*
X63264885Y-87046000D01*
X63280124Y-87041525D01*
X63281329Y-87040135D01*
X63283000Y-87032452D01*
X63283000Y-87016234D01*
X63282663Y-87009718D01*
X63272925Y-86915868D01*
X63270032Y-86902472D01*
X63219512Y-86751047D01*
X63213347Y-86737885D01*
X63129574Y-86602508D01*
X63120540Y-86591110D01*
X63007871Y-86478637D01*
X62996460Y-86469625D01*
X62860937Y-86386088D01*
X62847759Y-86379944D01*
X62696234Y-86329685D01*
X62682868Y-86326819D01*
X62590230Y-86317328D01*
X62583815Y-86317000D01*
X62509615Y-86317000D01*
X62494376Y-86321475D01*
X62493171Y-86322865D01*
X62491500Y-86330548D01*
X62491500Y-87027885D01*
X61983500Y-87027885D01*
X61983500Y-86335115D01*
X61979025Y-86319876D01*
X61977635Y-86318671D01*
X61969952Y-86317000D01*
X61891234Y-86317000D01*
X61884718Y-86317337D01*
X61820900Y-86323959D01*
X61751079Y-86311094D01*
X61699296Y-86262524D01*
X61681994Y-86193668D01*
X61704664Y-86126388D01*
X61718801Y-86109537D01*
X61903933Y-85924405D01*
X61966245Y-85890379D01*
X61993028Y-85887500D01*
X66007624Y-85887500D01*
X66026574Y-85888933D01*
X66040973Y-85891124D01*
X66040979Y-85891124D01*
X66048208Y-85892224D01*
X66055500Y-85891631D01*
X66055503Y-85891631D01*
X66101183Y-85887915D01*
X66111398Y-85887500D01*
X66119525Y-85887500D01*
X66123161Y-85887076D01*
X66123163Y-85887076D01*
X66126615Y-85886673D01*
X66147924Y-85884189D01*
X66152244Y-85883762D01*
X66225426Y-85877809D01*
X66232388Y-85875553D01*
X66238376Y-85874357D01*
X66244333Y-85872949D01*
X66251607Y-85872101D01*
X66258489Y-85869603D01*
X66258493Y-85869602D01*
X66320607Y-85847055D01*
X66324711Y-85845645D01*
X66394575Y-85823013D01*
X66400838Y-85819213D01*
X66406380Y-85816675D01*
X66411856Y-85813933D01*
X66418741Y-85811434D01*
X66480132Y-85771185D01*
X66483800Y-85768870D01*
X66546581Y-85730773D01*
X66550786Y-85727059D01*
X66550789Y-85727057D01*
X66555005Y-85723333D01*
X66555031Y-85723362D01*
X66557962Y-85720762D01*
X66561316Y-85717958D01*
X66567435Y-85713946D01*
X66620989Y-85657413D01*
X66623366Y-85654972D01*
X67005191Y-85273147D01*
X67067503Y-85239121D01*
X67138318Y-85244186D01*
G37*
G04 #@! TD.AperFunction*
G04 #@! TA.AperFunction,Conductor*
G36*
X68873663Y-73242502D02*
G01*
X68900779Y-73266003D01*
X68967900Y-73343489D01*
X69046250Y-73433938D01*
X69050230Y-73437242D01*
X69054981Y-73441187D01*
X69094616Y-73500090D01*
X69096113Y-73571071D01*
X69058997Y-73631593D01*
X69018724Y-73656112D01*
X68903295Y-73699385D01*
X68786739Y-73786739D01*
X68699385Y-73903295D01*
X68648255Y-74039684D01*
X68641500Y-74101866D01*
X68641500Y-75898134D01*
X68648255Y-75960316D01*
X68699385Y-76096705D01*
X68786739Y-76213261D01*
X68903295Y-76300615D01*
X69039684Y-76351745D01*
X69101866Y-76358500D01*
X69111500Y-76358500D01*
X69179621Y-76378502D01*
X69226114Y-76432158D01*
X69237500Y-76484500D01*
X69237500Y-80831973D01*
X69217498Y-80900094D01*
X69200595Y-80921068D01*
X65796067Y-84325595D01*
X65733755Y-84359621D01*
X65706972Y-84362500D01*
X63945028Y-84362500D01*
X63876907Y-84342498D01*
X63830414Y-84288842D01*
X63820310Y-84218568D01*
X63849804Y-84153988D01*
X63855933Y-84147405D01*
X64541528Y-83461810D01*
X64555941Y-83449423D01*
X64567665Y-83440795D01*
X64573564Y-83436454D01*
X64607979Y-83395945D01*
X64614909Y-83388429D01*
X64620653Y-83382685D01*
X64622927Y-83379811D01*
X64622933Y-83379804D01*
X64638372Y-83360289D01*
X64641163Y-83356885D01*
X64683945Y-83306528D01*
X64683948Y-83306524D01*
X64688684Y-83300949D01*
X64692012Y-83294432D01*
X64695389Y-83289368D01*
X64698616Y-83284144D01*
X64703160Y-83278400D01*
X64734242Y-83211896D01*
X64736147Y-83207999D01*
X64769543Y-83142596D01*
X64771283Y-83135482D01*
X64773419Y-83129740D01*
X64775346Y-83123949D01*
X64778444Y-83117320D01*
X64793397Y-83045431D01*
X64794367Y-83041148D01*
X64798674Y-83023548D01*
X64811804Y-82969888D01*
X64812500Y-82958670D01*
X64812539Y-82958672D01*
X64812772Y-82954771D01*
X64813161Y-82950412D01*
X64814652Y-82943244D01*
X64812546Y-82865423D01*
X64812500Y-82862014D01*
X64812500Y-82622322D01*
X64832502Y-82554201D01*
X64886158Y-82507708D01*
X64956432Y-82497604D01*
X64976180Y-82502088D01*
X64992281Y-82507134D01*
X65061563Y-82513500D01*
X65064461Y-82513500D01*
X65275553Y-82513499D01*
X65488436Y-82513499D01*
X65491295Y-82513236D01*
X65491303Y-82513236D01*
X65527992Y-82509865D01*
X65557719Y-82507134D01*
X65588129Y-82497604D01*
X65704869Y-82461020D01*
X65704871Y-82461019D01*
X65712118Y-82458748D01*
X65850518Y-82374930D01*
X65964930Y-82260518D01*
X66048748Y-82122118D01*
X66097134Y-81967719D01*
X66103500Y-81898437D01*
X66103499Y-81396564D01*
X66097134Y-81327281D01*
X66094817Y-81319886D01*
X66051020Y-81180131D01*
X66051019Y-81180129D01*
X66048748Y-81172882D01*
X66044813Y-81166385D01*
X66044811Y-81166380D01*
X66013566Y-81114789D01*
X65995386Y-81046160D01*
X66013566Y-80984245D01*
X66044352Y-80933412D01*
X66050561Y-80919661D01*
X66094637Y-80779011D01*
X66097250Y-80765964D01*
X66101056Y-80724541D01*
X66098134Y-80709664D01*
X66086240Y-80706500D01*
X65147000Y-80706500D01*
X65078879Y-80686498D01*
X65032386Y-80632842D01*
X65021000Y-80580500D01*
X65021000Y-80180385D01*
X65529000Y-80180385D01*
X65533475Y-80195624D01*
X65534865Y-80196829D01*
X65542548Y-80198500D01*
X66084598Y-80198500D01*
X66099143Y-80194229D01*
X66101206Y-80182096D01*
X66097249Y-80139027D01*
X66094639Y-80125994D01*
X66050561Y-79985339D01*
X66044355Y-79971594D01*
X65968467Y-79846289D01*
X65959160Y-79834420D01*
X65855580Y-79730840D01*
X65843711Y-79721533D01*
X65718406Y-79645645D01*
X65704661Y-79639439D01*
X65564006Y-79595361D01*
X65550973Y-79592751D01*
X65547039Y-79592389D01*
X65532165Y-79595312D01*
X65529000Y-79607207D01*
X65529000Y-80180385D01*
X65021000Y-80180385D01*
X65021000Y-79608847D01*
X65016729Y-79594302D01*
X65004596Y-79592239D01*
X64999027Y-79592751D01*
X64985997Y-79595361D01*
X64976180Y-79598437D01*
X64905195Y-79599722D01*
X64844784Y-79562425D01*
X64814127Y-79498388D01*
X64812500Y-79478203D01*
X64812500Y-75443028D01*
X64832502Y-75374907D01*
X64849405Y-75353933D01*
X66943933Y-73259405D01*
X67006245Y-73225379D01*
X67033028Y-73222500D01*
X68805542Y-73222500D01*
X68873663Y-73242502D01*
G37*
G04 #@! TD.AperFunction*
G04 #@! TA.AperFunction,Conductor*
G36*
X61284692Y-81282502D02*
G01*
X61331185Y-81336158D01*
X61341289Y-81406432D01*
X61311795Y-81471012D01*
X61305746Y-81477516D01*
X61303638Y-81479628D01*
X61294625Y-81491040D01*
X61211088Y-81626563D01*
X61204944Y-81639741D01*
X61154685Y-81791266D01*
X61151819Y-81804632D01*
X61142328Y-81897270D01*
X61142000Y-81903685D01*
X61142000Y-81977885D01*
X61146475Y-81993124D01*
X61147865Y-81994329D01*
X61155548Y-81996000D01*
X62253000Y-81996000D01*
X62321121Y-82016002D01*
X62367614Y-82069658D01*
X62379000Y-82122000D01*
X62379000Y-82378000D01*
X62358998Y-82446121D01*
X62305342Y-82492614D01*
X62253000Y-82504000D01*
X61160115Y-82504000D01*
X61144876Y-82508475D01*
X61143671Y-82509865D01*
X61142000Y-82517548D01*
X61142000Y-82596266D01*
X61142337Y-82602782D01*
X61152075Y-82696632D01*
X61154968Y-82710028D01*
X61205488Y-82861453D01*
X61214759Y-82881245D01*
X61212279Y-82882407D01*
X61227757Y-82938647D01*
X61206597Y-83006417D01*
X61152156Y-83051989D01*
X61101775Y-83062500D01*
X60907847Y-83062500D01*
X60839726Y-83042498D01*
X60793233Y-82988842D01*
X60783129Y-82918568D01*
X60799393Y-82872364D01*
X60834145Y-82813601D01*
X60880562Y-82653831D01*
X60881629Y-82640282D01*
X60883307Y-82618958D01*
X60883307Y-82618950D01*
X60883500Y-82616502D01*
X60883500Y-82183498D01*
X60883307Y-82181042D01*
X60881067Y-82152579D01*
X60881066Y-82152574D01*
X60880562Y-82146169D01*
X60847829Y-82033500D01*
X60836357Y-81994012D01*
X60836356Y-81994010D01*
X60834145Y-81986399D01*
X60809536Y-81944788D01*
X60753491Y-81850020D01*
X60753489Y-81850017D01*
X60749453Y-81843193D01*
X60631807Y-81725547D01*
X60624983Y-81721511D01*
X60624980Y-81721509D01*
X60495427Y-81644892D01*
X60495428Y-81644892D01*
X60488601Y-81640855D01*
X60480990Y-81638644D01*
X60480988Y-81638643D01*
X60397431Y-81614368D01*
X60328831Y-81594438D01*
X60322426Y-81593934D01*
X60322421Y-81593933D01*
X60293958Y-81591693D01*
X60293950Y-81591693D01*
X60291502Y-81591500D01*
X59463500Y-81591500D01*
X59395379Y-81571498D01*
X59348886Y-81517842D01*
X59337500Y-81465500D01*
X59337500Y-81434500D01*
X59357502Y-81366379D01*
X59411158Y-81319886D01*
X59463500Y-81308500D01*
X60291502Y-81308500D01*
X60293950Y-81308307D01*
X60293958Y-81308307D01*
X60322421Y-81306067D01*
X60322426Y-81306066D01*
X60328831Y-81305562D01*
X60459833Y-81267503D01*
X60494985Y-81262500D01*
X61216571Y-81262500D01*
X61284692Y-81282502D01*
G37*
G04 #@! TD.AperFunction*
G04 #@! TA.AperFunction,Conductor*
G36*
X71740433Y-99928444D02*
G01*
X71786179Y-99943308D01*
X71846576Y-99962933D01*
X71846580Y-99962934D01*
X71852859Y-99964974D01*
X71859425Y-99965664D01*
X71859429Y-99965665D01*
X71942504Y-99974396D01*
X72000582Y-99980500D01*
X72430000Y-99980500D01*
X72430000Y-101400000D01*
X69450000Y-101400000D01*
X69450000Y-101056390D01*
X69470002Y-100988269D01*
X69523658Y-100941776D01*
X69562829Y-100931080D01*
X69597141Y-100927474D01*
X69738580Y-100881517D01*
X69779384Y-100868259D01*
X69779385Y-100868258D01*
X69785665Y-100866218D01*
X69957334Y-100767105D01*
X69979217Y-100747402D01*
X70099734Y-100638888D01*
X70099735Y-100638887D01*
X70104645Y-100634466D01*
X70114507Y-100620893D01*
X70217279Y-100479439D01*
X70217280Y-100479438D01*
X70221160Y-100474097D01*
X70223843Y-100468071D01*
X70223847Y-100468064D01*
X70237342Y-100437752D01*
X70283322Y-100383656D01*
X70352449Y-100363000D01*
X70394748Y-100363000D01*
X70400816Y-100361793D01*
X70441061Y-100353788D01*
X70441062Y-100353788D01*
X70453231Y-100351367D01*
X70519552Y-100307052D01*
X70563867Y-100240731D01*
X70575500Y-100182248D01*
X70575750Y-100182298D01*
X70601190Y-100119296D01*
X70659144Y-100078286D01*
X70730070Y-100075119D01*
X70791449Y-100110800D01*
X70823793Y-100174001D01*
X70824500Y-100178918D01*
X70824500Y-100182248D01*
X70836133Y-100240731D01*
X70843026Y-100251047D01*
X70873265Y-100296302D01*
X70894500Y-100366305D01*
X70894500Y-100457870D01*
X70874498Y-100525991D01*
X70844009Y-100558739D01*
X70833751Y-100566418D01*
X70815485Y-100602268D01*
X70809433Y-100620893D01*
X70792515Y-100727708D01*
X70792515Y-100747292D01*
X70809433Y-100854107D01*
X70815485Y-100872732D01*
X70830780Y-100902750D01*
X70840462Y-100913002D01*
X70847184Y-100910711D01*
X70895801Y-100862094D01*
X70958113Y-100828068D01*
X71013187Y-100828407D01*
X71014115Y-100828620D01*
X71015489Y-100828937D01*
X71077379Y-100863724D01*
X71110636Y-100926450D01*
X71104702Y-100997198D01*
X71076291Y-101040814D01*
X71031421Y-101085684D01*
X71024661Y-101098064D01*
X71028916Y-101103748D01*
X71064768Y-101122015D01*
X71083393Y-101128067D01*
X71190208Y-101144985D01*
X71209792Y-101144985D01*
X71316607Y-101128067D01*
X71335232Y-101122015D01*
X71365250Y-101106720D01*
X71375502Y-101097038D01*
X71373211Y-101090316D01*
X71323767Y-101040872D01*
X71289741Y-100978560D01*
X71294806Y-100907745D01*
X71337353Y-100850909D01*
X71384818Y-100828938D01*
X71387122Y-100828412D01*
X71457986Y-100832750D01*
X71504261Y-100862156D01*
X71548184Y-100906079D01*
X71560564Y-100912839D01*
X71566248Y-100908584D01*
X71584515Y-100872732D01*
X71590567Y-100854107D01*
X71607485Y-100747292D01*
X71607485Y-100727708D01*
X71590567Y-100620893D01*
X71584515Y-100602268D01*
X71569220Y-100572250D01*
X71539898Y-100541204D01*
X71507665Y-100477946D01*
X71505500Y-100454688D01*
X71505500Y-100366305D01*
X71526735Y-100296302D01*
X71556974Y-100251047D01*
X71563867Y-100240731D01*
X71575500Y-100182248D01*
X71575500Y-100048278D01*
X71595502Y-99980157D01*
X71649158Y-99933664D01*
X71719432Y-99923560D01*
X71740433Y-99928444D01*
G37*
G04 #@! TD.AperFunction*
G04 #@! TA.AperFunction,Conductor*
G36*
X71325000Y-98300000D02*
G01*
X71330319Y-98300000D01*
X71338739Y-98328678D01*
X71338739Y-98399674D01*
X71319779Y-98438236D01*
X71231268Y-98560061D01*
X71175046Y-98603415D01*
X71129332Y-98612000D01*
X71005252Y-98612000D01*
X70999184Y-98613207D01*
X70958939Y-98621212D01*
X70958938Y-98621212D01*
X70946769Y-98623633D01*
X70880448Y-98667948D01*
X70836133Y-98734269D01*
X70824500Y-98792752D01*
X70824250Y-98792702D01*
X70798810Y-98855704D01*
X70740856Y-98896714D01*
X70669930Y-98899881D01*
X70608551Y-98864200D01*
X70576207Y-98800999D01*
X70575500Y-98796082D01*
X70575500Y-98792752D01*
X70563867Y-98734269D01*
X70526735Y-98678698D01*
X70505500Y-98608695D01*
X70505500Y-98517130D01*
X70525502Y-98449009D01*
X70555991Y-98416261D01*
X70566249Y-98408582D01*
X70584515Y-98372732D01*
X70590567Y-98354107D01*
X70607485Y-98247292D01*
X70607485Y-98227708D01*
X70590567Y-98120893D01*
X70584515Y-98102268D01*
X70569220Y-98072250D01*
X70559538Y-98061998D01*
X70552816Y-98064289D01*
X70504199Y-98112906D01*
X70441887Y-98146932D01*
X70386813Y-98146593D01*
X70385885Y-98146380D01*
X70384511Y-98146063D01*
X70322621Y-98111276D01*
X70289364Y-98048550D01*
X70295298Y-97977802D01*
X70323709Y-97934186D01*
X70368579Y-97889316D01*
X70375339Y-97876936D01*
X70371084Y-97871252D01*
X70335232Y-97852985D01*
X70316607Y-97846933D01*
X70209792Y-97830015D01*
X70190208Y-97830015D01*
X70083393Y-97846933D01*
X70064768Y-97852985D01*
X70034750Y-97868280D01*
X70024498Y-97877962D01*
X70026789Y-97884684D01*
X70076233Y-97934128D01*
X70110259Y-97996440D01*
X70105194Y-98067255D01*
X70062647Y-98124091D01*
X70015182Y-98146062D01*
X70012878Y-98146588D01*
X69942014Y-98142250D01*
X69895739Y-98112844D01*
X69851816Y-98068921D01*
X69839436Y-98062161D01*
X69833752Y-98066416D01*
X69815485Y-98102268D01*
X69806368Y-98130326D01*
X69804552Y-98129736D01*
X69779370Y-98182860D01*
X69719103Y-98220389D01*
X69685330Y-98225000D01*
X68960000Y-98225000D01*
X68960000Y-97520000D01*
X71325000Y-97520000D01*
X71325000Y-98300000D01*
G37*
G04 #@! TD.AperFunction*
M02*
