%FSLAX45Y45*%
G04 Gerber Fmt 4.5, Leading zero omitted, Abs format (unit mm)*
G04 Created by KiCad (PCBNEW (6.0.6-0)) date 2023-01-21 18:46:18*
%MOMM*%
%LPD*%
G01*
G04 APERTURE LIST*
%TA.AperFunction,Profile*%
%ADD10C,0.200000*%
%TD*%
%ADD11C,0.200000*%
%ADD12C,0.015000*%
%ADD13C,0.020000*%
%ADD14C,0.040000*%
%ADD15C,0.046000*%
%ADD16C,0.070000*%
%ADD17C,0.100000*%
G04 APERTURE END LIST*
D10*
X5000000Y-5000000D02*
X15000000Y-5000000D01*
X15000000Y-5000000D02*
X15000000Y-15000000D01*
X15000000Y-15000000D02*
X5000000Y-15000000D01*
X5000000Y-15000000D02*
X5000000Y-5000000D01*
D11*
D12*
X7012500Y-9816250D02*
X7027500Y-9831250D01*
X7027500Y-9816250D02*
X7012500Y-9831250D01*
X7112500Y-10066250D02*
X7127500Y-10081250D01*
X7127500Y-10066250D02*
X7112500Y-10081250D01*
D13*
X5980000Y-8145000D02*
G75*
G03*
X5980000Y-8145000I-10000J0D01*
G01*
X5987000Y-9450000D02*
G75*
G03*
X5987000Y-9450000I-10000J0D01*
G01*
X6112500Y-8150000D02*
G75*
G03*
X6112500Y-8150000I-10000J0D01*
G01*
X6115000Y-8225000D02*
G75*
G03*
X6115000Y-8225000I-10000J0D01*
G01*
X6230000Y-8877500D02*
G75*
G03*
X6230000Y-8877500I-10000J0D01*
G01*
X6338000Y-8878000D02*
G75*
G03*
X6338000Y-8878000I-10000J0D01*
G01*
X6347500Y-8730000D02*
G75*
G03*
X6347500Y-8730000I-10000J0D01*
G01*
X6377500Y-10265000D02*
G75*
G03*
X6377500Y-10265000I-10000J0D01*
G01*
X6575000Y-8840000D02*
G75*
G03*
X6575000Y-8840000I-10000J0D01*
G01*
X6632500Y-8887500D02*
G75*
G03*
X6632500Y-8887500I-10000J0D01*
G01*
X6822500Y-10245000D02*
G75*
G03*
X6822500Y-10245000I-10000J0D01*
G01*
X6952500Y-9757500D02*
G75*
G03*
X6952500Y-9757500I-10000J0D01*
G01*
X7027500Y-9712500D02*
G75*
G03*
X7027500Y-9712500I-10000J0D01*
G01*
X7067500Y-10142500D02*
G75*
G03*
X7067500Y-10142500I-10000J0D01*
G01*
X7112500Y-9752500D02*
G75*
G03*
X7112500Y-9752500I-10000J0D01*
G01*
X7177500Y-10160000D02*
G75*
G03*
X7177500Y-10160000I-10000J0D01*
G01*
X7220000Y-8205000D02*
G75*
G03*
X7220000Y-8205000I-10000J0D01*
G01*
X7225000Y-10080000D02*
G75*
G03*
X7225000Y-10080000I-10000J0D01*
G01*
X7295000Y-11300000D02*
G75*
G03*
X7295000Y-11300000I-10000J0D01*
G01*
X7297500Y-11197500D02*
G75*
G03*
X7297500Y-11197500I-10000J0D01*
G01*
X7355000Y-7985000D02*
G75*
G03*
X7355000Y-7985000I-10000J0D01*
G01*
X7422500Y-11085000D02*
G75*
G03*
X7422500Y-11085000I-10000J0D01*
G01*
X7422500Y-11407500D02*
G75*
G03*
X7422500Y-11407500I-10000J0D01*
G01*
X7652500Y-7990000D02*
G75*
G03*
X7652500Y-7990000I-10000J0D01*
G01*
X7785000Y-8205000D02*
G75*
G03*
X7785000Y-8205000I-10000J0D01*
G01*
D14*
X5100000Y-10700000D02*
X5100000Y-10740000D01*
X5080000Y-10720000D02*
X5120000Y-10720000D01*
X5100000Y-11285714D02*
X5100000Y-11325714D01*
X5080000Y-11305714D02*
X5120000Y-11305714D01*
X5100000Y-11871428D02*
X5100000Y-11911428D01*
X5080000Y-11891428D02*
X5120000Y-11891428D01*
X5100000Y-12457143D02*
X5100000Y-12497143D01*
X5080000Y-12477143D02*
X5120000Y-12477143D01*
X5100000Y-13042857D02*
X5100000Y-13082857D01*
X5080000Y-13062857D02*
X5120000Y-13062857D01*
X5100000Y-13628571D02*
X5100000Y-13668571D01*
X5080000Y-13648571D02*
X5120000Y-13648571D01*
X5100000Y-14214285D02*
X5100000Y-14254285D01*
X5080000Y-14234285D02*
X5120000Y-14234285D01*
X5100000Y-14800000D02*
X5100000Y-14840000D01*
X5080000Y-14820000D02*
X5120000Y-14820000D01*
X5120000Y-5140000D02*
X5120000Y-5180000D01*
X5100000Y-5160000D02*
X5140000Y-5160000D01*
X5120000Y-6040000D02*
X5120000Y-6080000D01*
X5100000Y-6060000D02*
X5140000Y-6060000D01*
X5120000Y-6920000D02*
X5120000Y-6960000D01*
X5100000Y-6940000D02*
X5140000Y-6940000D01*
X5120000Y-7700000D02*
X5120000Y-7740000D01*
X5100000Y-7720000D02*
X5140000Y-7720000D01*
X5120000Y-8420000D02*
X5120000Y-8460000D01*
X5100000Y-8440000D02*
X5140000Y-8440000D01*
X5120000Y-9280000D02*
X5120000Y-9320000D01*
X5100000Y-9300000D02*
X5140000Y-9300000D01*
X5300000Y-9760000D02*
X5300000Y-9800000D01*
X5280000Y-9780000D02*
X5320000Y-9780000D01*
X5300000Y-10200000D02*
X5300000Y-10240000D01*
X5280000Y-10220000D02*
X5320000Y-10220000D01*
X5300000Y-10660000D02*
X5300000Y-10700000D01*
X5280000Y-10680000D02*
X5320000Y-10680000D01*
X5583000Y-8581000D02*
X5583000Y-8621000D01*
X5563000Y-8601000D02*
X5603000Y-8601000D01*
X5585000Y-8824000D02*
X5585000Y-8864000D01*
X5565000Y-8844000D02*
X5605000Y-8844000D01*
X5632500Y-9755000D02*
X5632500Y-9795000D01*
X5612500Y-9775000D02*
X5652500Y-9775000D01*
X5660000Y-10200000D02*
X5660000Y-10240000D01*
X5640000Y-10220000D02*
X5680000Y-10220000D01*
X5866154Y-5140000D02*
X5866154Y-5180000D01*
X5846154Y-5160000D02*
X5886154Y-5160000D01*
X5892500Y-8450000D02*
X5892500Y-8490000D01*
X5872500Y-8470000D02*
X5912500Y-8470000D01*
X5892500Y-8695000D02*
X5892500Y-8735000D01*
X5872500Y-8715000D02*
X5912500Y-8715000D01*
X5892500Y-8932500D02*
X5892500Y-8972500D01*
X5872500Y-8952500D02*
X5912500Y-8952500D01*
X5915000Y-10222000D02*
X5915000Y-10262000D01*
X5895000Y-10242000D02*
X5935000Y-10242000D01*
X6002500Y-9745000D02*
X6002500Y-9785000D01*
X5982500Y-9765000D02*
X6022500Y-9765000D01*
X6090000Y-14800000D02*
X6090000Y-14840000D01*
X6070000Y-14820000D02*
X6110000Y-14820000D01*
X6148000Y-10222000D02*
X6148000Y-10262000D01*
X6128000Y-10242000D02*
X6168000Y-10242000D01*
X6242500Y-7517500D02*
X6242500Y-7557500D01*
X6222500Y-7537500D02*
X6262500Y-7537500D01*
X6242500Y-7855000D02*
X6242500Y-7895000D01*
X6222500Y-7875000D02*
X6262500Y-7875000D01*
X6347500Y-9145000D02*
X6347500Y-9185000D01*
X6327500Y-9165000D02*
X6367500Y-9165000D01*
X6352500Y-9440000D02*
X6352500Y-9480000D01*
X6332500Y-9460000D02*
X6372500Y-9460000D01*
X6392500Y-7267500D02*
X6392500Y-7307500D01*
X6372500Y-7287500D02*
X6412500Y-7287500D01*
X6490000Y-9530000D02*
X6490000Y-9570000D01*
X6470000Y-9550000D02*
X6510000Y-9550000D01*
X6560000Y-7870000D02*
X6560000Y-7910000D01*
X6540000Y-7890000D02*
X6580000Y-7890000D01*
X6562500Y-7642500D02*
X6562500Y-7682500D01*
X6542500Y-7662500D02*
X6582500Y-7662500D01*
X6606000Y-10225000D02*
X6606000Y-10265000D01*
X6586000Y-10245000D02*
X6626000Y-10245000D01*
X6612308Y-5140000D02*
X6612308Y-5180000D01*
X6592308Y-5160000D02*
X6632308Y-5160000D01*
X6722500Y-7405000D02*
X6722500Y-7445000D01*
X6702500Y-7425000D02*
X6742500Y-7425000D01*
X6846000Y-8022000D02*
X6846000Y-8062000D01*
X6826000Y-8042000D02*
X6866000Y-8042000D01*
X7060000Y-14800000D02*
X7060000Y-14840000D01*
X7040000Y-14820000D02*
X7080000Y-14820000D01*
X7151000Y-7841000D02*
X7151000Y-7881000D01*
X7131000Y-7861000D02*
X7171000Y-7861000D01*
X7238000Y-7480000D02*
X7238000Y-7520000D01*
X7218000Y-7500000D02*
X7258000Y-7500000D01*
X7323000Y-7700000D02*
X7323000Y-7740000D01*
X7303000Y-7720000D02*
X7343000Y-7720000D01*
X7358461Y-5140000D02*
X7358461Y-5180000D01*
X7338461Y-5160000D02*
X7378461Y-5160000D01*
X7492500Y-10112500D02*
X7492500Y-10152500D01*
X7472500Y-10132500D02*
X7512500Y-10132500D01*
X7492500Y-10353333D02*
X7492500Y-10393333D01*
X7472500Y-10373333D02*
X7512500Y-10373333D01*
X7492500Y-10594167D02*
X7492500Y-10634167D01*
X7472500Y-10614167D02*
X7512500Y-10614167D01*
X7492500Y-10835000D02*
X7492500Y-10875000D01*
X7472500Y-10855000D02*
X7512500Y-10855000D01*
X8012961Y-11755000D02*
X8012961Y-11795000D01*
X7992961Y-11775000D02*
X8032961Y-11775000D01*
X8030000Y-14800000D02*
X8030000Y-14840000D01*
X8010000Y-14820000D02*
X8050000Y-14820000D01*
X8104615Y-5140000D02*
X8104615Y-5180000D01*
X8084615Y-5160000D02*
X8124615Y-5160000D01*
X8167385Y-8240000D02*
X8167385Y-8280000D01*
X8147385Y-8260000D02*
X8187385Y-8260000D01*
X8400346Y-11755000D02*
X8400346Y-11795000D01*
X8380346Y-11775000D02*
X8420346Y-11775000D01*
X8554769Y-8240000D02*
X8554769Y-8280000D01*
X8534769Y-8260000D02*
X8574769Y-8260000D01*
X8787731Y-11755000D02*
X8787731Y-11795000D01*
X8767731Y-11775000D02*
X8807731Y-11775000D01*
X8850769Y-5140000D02*
X8850769Y-5180000D01*
X8830769Y-5160000D02*
X8870769Y-5160000D01*
X8942154Y-8240000D02*
X8942154Y-8280000D01*
X8922154Y-8260000D02*
X8962154Y-8260000D01*
X9000000Y-14800000D02*
X9000000Y-14840000D01*
X8980000Y-14820000D02*
X9020000Y-14820000D01*
X9175115Y-11755000D02*
X9175115Y-11795000D01*
X9155115Y-11775000D02*
X9195115Y-11775000D01*
X9329539Y-8240000D02*
X9329539Y-8280000D01*
X9309539Y-8260000D02*
X9349539Y-8260000D01*
X9562500Y-11755000D02*
X9562500Y-11795000D01*
X9542500Y-11775000D02*
X9582500Y-11775000D01*
X9596923Y-5140000D02*
X9596923Y-5180000D01*
X9576923Y-5160000D02*
X9616923Y-5160000D01*
X9716924Y-8240000D02*
X9716924Y-8280000D01*
X9696924Y-8260000D02*
X9736924Y-8260000D01*
X9949885Y-11755000D02*
X9949885Y-11795000D01*
X9929885Y-11775000D02*
X9969885Y-11775000D01*
X9970000Y-14800000D02*
X9970000Y-14840000D01*
X9950000Y-14820000D02*
X9990000Y-14820000D01*
X10104308Y-8240000D02*
X10104308Y-8280000D01*
X10084308Y-8260000D02*
X10124308Y-8260000D01*
X10337269Y-11755000D02*
X10337269Y-11795000D01*
X10317269Y-11775000D02*
X10357269Y-11775000D01*
X10343077Y-5140000D02*
X10343077Y-5180000D01*
X10323077Y-5160000D02*
X10363077Y-5160000D01*
X10491693Y-8240000D02*
X10491693Y-8280000D01*
X10471693Y-8260000D02*
X10511693Y-8260000D01*
X10724655Y-11755000D02*
X10724655Y-11795000D01*
X10704655Y-11775000D02*
X10744655Y-11775000D01*
X10879078Y-8240000D02*
X10879078Y-8280000D01*
X10859078Y-8260000D02*
X10899078Y-8260000D01*
X10940000Y-14800000D02*
X10940000Y-14840000D01*
X10920000Y-14820000D02*
X10960000Y-14820000D01*
X11089230Y-5140000D02*
X11089230Y-5180000D01*
X11069230Y-5160000D02*
X11109230Y-5160000D01*
X11220000Y-8380000D02*
X11220000Y-8420000D01*
X11200000Y-8400000D02*
X11240000Y-8400000D01*
X11620000Y-8480000D02*
X11620000Y-8520000D01*
X11600000Y-8500000D02*
X11640000Y-8500000D01*
X11620000Y-8855000D02*
X11620000Y-8895000D01*
X11600000Y-8875000D02*
X11640000Y-8875000D01*
X11620000Y-9230000D02*
X11620000Y-9270000D01*
X11600000Y-9250000D02*
X11640000Y-9250000D01*
X11620000Y-9605000D02*
X11620000Y-9645000D01*
X11600000Y-9625000D02*
X11640000Y-9625000D01*
X11620000Y-9980000D02*
X11620000Y-10020000D01*
X11600000Y-10000000D02*
X11640000Y-10000000D01*
X11620000Y-10355000D02*
X11620000Y-10395000D01*
X11600000Y-10375000D02*
X11640000Y-10375000D01*
X11620000Y-10730000D02*
X11620000Y-10770000D01*
X11600000Y-10750000D02*
X11640000Y-10750000D01*
X11620000Y-11105000D02*
X11620000Y-11145000D01*
X11600000Y-11125000D02*
X11640000Y-11125000D01*
X11620000Y-11480000D02*
X11620000Y-11520000D01*
X11600000Y-11500000D02*
X11640000Y-11500000D01*
X11835384Y-5140000D02*
X11835384Y-5180000D01*
X11815384Y-5160000D02*
X11855384Y-5160000D01*
X11910000Y-14800000D02*
X11910000Y-14840000D01*
X11890000Y-14820000D02*
X11930000Y-14820000D01*
X12581538Y-5140000D02*
X12581538Y-5180000D01*
X12561538Y-5160000D02*
X12601538Y-5160000D01*
X12880000Y-14800000D02*
X12880000Y-14840000D01*
X12860000Y-14820000D02*
X12900000Y-14820000D01*
X13327692Y-5140000D02*
X13327692Y-5180000D01*
X13307692Y-5160000D02*
X13347692Y-5160000D01*
X13850000Y-14800000D02*
X13850000Y-14840000D01*
X13830000Y-14820000D02*
X13870000Y-14820000D01*
X14073846Y-5140000D02*
X14073846Y-5180000D01*
X14053846Y-5160000D02*
X14093846Y-5160000D01*
X14820000Y-5140000D02*
X14820000Y-5180000D01*
X14800000Y-5160000D02*
X14840000Y-5160000D01*
X14820000Y-6106000D02*
X14820000Y-6146000D01*
X14800000Y-6126000D02*
X14840000Y-6126000D01*
X14820000Y-7072000D02*
X14820000Y-7112000D01*
X14800000Y-7092000D02*
X14840000Y-7092000D01*
X14820000Y-8038000D02*
X14820000Y-8078000D01*
X14800000Y-8058000D02*
X14840000Y-8058000D01*
X14820000Y-9004000D02*
X14820000Y-9044000D01*
X14800000Y-9024000D02*
X14840000Y-9024000D01*
X14820000Y-9970000D02*
X14820000Y-10010000D01*
X14800000Y-9990000D02*
X14840000Y-9990000D01*
X14820000Y-10936000D02*
X14820000Y-10976000D01*
X14800000Y-10956000D02*
X14840000Y-10956000D01*
X14820000Y-11902000D02*
X14820000Y-11942000D01*
X14800000Y-11922000D02*
X14840000Y-11922000D01*
X14820000Y-12868000D02*
X14820000Y-12908000D01*
X14800000Y-12888000D02*
X14840000Y-12888000D01*
X14820000Y-13834000D02*
X14820000Y-13874000D01*
X14800000Y-13854000D02*
X14840000Y-13854000D01*
X14820000Y-14800000D02*
X14820000Y-14840000D01*
X14800000Y-14820000D02*
X14840000Y-14820000D01*
D15*
X5648264Y-9578264D02*
X5648264Y-9545736D01*
X5615736Y-9545736D01*
X5615736Y-9578264D01*
X5648264Y-9578264D01*
X5648264Y-10454264D02*
X5648264Y-10421736D01*
X5615736Y-10421736D01*
X5615736Y-10454264D01*
X5648264Y-10454264D01*
D16*
X11219759Y-8815241D02*
X11254759Y-8780241D01*
X11219759Y-8745241D01*
X11184759Y-8780241D01*
X11219759Y-8815241D01*
X11219759Y-11254759D02*
X11254759Y-11219759D01*
X11219759Y-11184759D01*
X11184759Y-11219759D01*
X11219759Y-11254759D01*
D17*
X6950000Y-7196000D02*
X7050000Y-7296000D01*
X7050000Y-7196000D02*
X6950000Y-7296000D01*
X7050000Y-7246000D02*
G75*
G03*
X7050000Y-7246000I-50000J0D01*
G01*
X6950000Y-7450000D02*
X7050000Y-7550000D01*
X7050000Y-7450000D02*
X6950000Y-7550000D01*
X7050000Y-7500000D02*
G75*
G03*
X7050000Y-7500000I-50000J0D01*
G01*
X6950000Y-12450000D02*
X7050000Y-12550000D01*
X7050000Y-12450000D02*
X6950000Y-12550000D01*
X7050000Y-12500000D02*
G75*
G03*
X7050000Y-12500000I-50000J0D01*
G01*
X6950000Y-12704000D02*
X7050000Y-12804000D01*
X7050000Y-12704000D02*
X6950000Y-12804000D01*
X7050000Y-12754000D02*
G75*
G03*
X7050000Y-12754000I-50000J0D01*
G01*
D11*
X5247619Y-15320476D02*
X5247619Y-15120476D01*
X5295238Y-15120476D01*
X5323810Y-15130000D01*
X5342857Y-15149048D01*
X5352381Y-15168095D01*
X5361905Y-15206190D01*
X5361905Y-15234762D01*
X5352381Y-15272857D01*
X5342857Y-15291905D01*
X5323810Y-15310952D01*
X5295238Y-15320476D01*
X5247619Y-15320476D01*
X5447619Y-15320476D02*
X5447619Y-15187143D01*
X5447619Y-15225238D02*
X5457143Y-15206190D01*
X5466667Y-15196667D01*
X5485714Y-15187143D01*
X5504762Y-15187143D01*
X5571429Y-15320476D02*
X5571429Y-15187143D01*
X5571429Y-15120476D02*
X5561905Y-15130000D01*
X5571429Y-15139524D01*
X5580952Y-15130000D01*
X5571429Y-15120476D01*
X5571429Y-15139524D01*
X5695238Y-15320476D02*
X5676190Y-15310952D01*
X5666667Y-15291905D01*
X5666667Y-15120476D01*
X5800000Y-15320476D02*
X5780952Y-15310952D01*
X5771428Y-15291905D01*
X5771428Y-15120476D01*
X6028571Y-15320476D02*
X6028571Y-15120476D01*
X6095238Y-15263333D01*
X6161905Y-15120476D01*
X6161905Y-15320476D01*
X6342857Y-15320476D02*
X6342857Y-15215714D01*
X6333333Y-15196667D01*
X6314286Y-15187143D01*
X6276190Y-15187143D01*
X6257143Y-15196667D01*
X6342857Y-15310952D02*
X6323809Y-15320476D01*
X6276190Y-15320476D01*
X6257143Y-15310952D01*
X6247619Y-15291905D01*
X6247619Y-15272857D01*
X6257143Y-15253809D01*
X6276190Y-15244286D01*
X6323809Y-15244286D01*
X6342857Y-15234762D01*
X6438095Y-15187143D02*
X6438095Y-15387143D01*
X6438095Y-15196667D02*
X6457143Y-15187143D01*
X6495238Y-15187143D01*
X6514286Y-15196667D01*
X6523809Y-15206190D01*
X6533333Y-15225238D01*
X6533333Y-15282381D01*
X6523809Y-15301428D01*
X6514286Y-15310952D01*
X6495238Y-15320476D01*
X6457143Y-15320476D01*
X6438095Y-15310952D01*
X6619048Y-15301428D02*
X6628571Y-15310952D01*
X6619048Y-15320476D01*
X6609524Y-15310952D01*
X6619048Y-15301428D01*
X6619048Y-15320476D01*
X6619048Y-15196667D02*
X6628571Y-15206190D01*
X6619048Y-15215714D01*
X6609524Y-15206190D01*
X6619048Y-15196667D01*
X6619048Y-15215714D01*
D12*
X4975000Y-15642500D02*
X4990000Y-15657500D01*
X4990000Y-15642500D02*
X4975000Y-15657500D01*
D11*
X5285714Y-15540476D02*
X5304762Y-15540476D01*
X5323810Y-15550000D01*
X5333333Y-15559524D01*
X5342857Y-15578571D01*
X5352381Y-15616667D01*
X5352381Y-15664286D01*
X5342857Y-15702381D01*
X5333333Y-15721428D01*
X5323810Y-15730952D01*
X5304762Y-15740476D01*
X5285714Y-15740476D01*
X5266667Y-15730952D01*
X5257143Y-15721428D01*
X5247619Y-15702381D01*
X5238095Y-15664286D01*
X5238095Y-15616667D01*
X5247619Y-15578571D01*
X5257143Y-15559524D01*
X5266667Y-15550000D01*
X5285714Y-15540476D01*
X5438095Y-15721428D02*
X5447619Y-15730952D01*
X5438095Y-15740476D01*
X5428571Y-15730952D01*
X5438095Y-15721428D01*
X5438095Y-15740476D01*
X5638095Y-15740476D02*
X5523810Y-15740476D01*
X5580952Y-15740476D02*
X5580952Y-15540476D01*
X5561905Y-15569048D01*
X5542857Y-15588095D01*
X5523810Y-15597619D01*
X5819048Y-15540476D02*
X5723809Y-15540476D01*
X5714286Y-15635714D01*
X5723809Y-15626190D01*
X5742857Y-15616667D01*
X5790476Y-15616667D01*
X5809524Y-15626190D01*
X5819048Y-15635714D01*
X5828571Y-15654762D01*
X5828571Y-15702381D01*
X5819048Y-15721428D01*
X5809524Y-15730952D01*
X5790476Y-15740476D01*
X5742857Y-15740476D01*
X5723809Y-15730952D01*
X5714286Y-15721428D01*
X5952381Y-15540476D02*
X5971428Y-15540476D01*
X5990476Y-15550000D01*
X6000000Y-15559524D01*
X6009524Y-15578571D01*
X6019048Y-15616667D01*
X6019048Y-15664286D01*
X6009524Y-15702381D01*
X6000000Y-15721428D01*
X5990476Y-15730952D01*
X5971428Y-15740476D01*
X5952381Y-15740476D01*
X5933333Y-15730952D01*
X5923809Y-15721428D01*
X5914286Y-15702381D01*
X5904762Y-15664286D01*
X5904762Y-15616667D01*
X5914286Y-15578571D01*
X5923809Y-15559524D01*
X5933333Y-15550000D01*
X5952381Y-15540476D01*
X6104762Y-15740476D02*
X6104762Y-15607143D01*
X6104762Y-15626190D02*
X6114286Y-15616667D01*
X6133333Y-15607143D01*
X6161905Y-15607143D01*
X6180952Y-15616667D01*
X6190476Y-15635714D01*
X6190476Y-15740476D01*
X6190476Y-15635714D02*
X6200000Y-15616667D01*
X6219048Y-15607143D01*
X6247619Y-15607143D01*
X6266667Y-15616667D01*
X6276190Y-15635714D01*
X6276190Y-15740476D01*
X6371428Y-15740476D02*
X6371428Y-15607143D01*
X6371428Y-15626190D02*
X6380952Y-15616667D01*
X6400000Y-15607143D01*
X6428571Y-15607143D01*
X6447619Y-15616667D01*
X6457143Y-15635714D01*
X6457143Y-15740476D01*
X6457143Y-15635714D02*
X6466667Y-15616667D01*
X6485714Y-15607143D01*
X6514286Y-15607143D01*
X6533333Y-15616667D01*
X6542857Y-15635714D01*
X6542857Y-15740476D01*
X6933333Y-15530952D02*
X6761905Y-15788095D01*
X7190476Y-15540476D02*
X7209524Y-15540476D01*
X7228571Y-15550000D01*
X7238095Y-15559524D01*
X7247619Y-15578571D01*
X7257143Y-15616667D01*
X7257143Y-15664286D01*
X7247619Y-15702381D01*
X7238095Y-15721428D01*
X7228571Y-15730952D01*
X7209524Y-15740476D01*
X7190476Y-15740476D01*
X7171428Y-15730952D01*
X7161905Y-15721428D01*
X7152381Y-15702381D01*
X7142857Y-15664286D01*
X7142857Y-15616667D01*
X7152381Y-15578571D01*
X7161905Y-15559524D01*
X7171428Y-15550000D01*
X7190476Y-15540476D01*
X7342857Y-15721428D02*
X7352381Y-15730952D01*
X7342857Y-15740476D01*
X7333333Y-15730952D01*
X7342857Y-15721428D01*
X7342857Y-15740476D01*
X7476190Y-15540476D02*
X7495238Y-15540476D01*
X7514286Y-15550000D01*
X7523809Y-15559524D01*
X7533333Y-15578571D01*
X7542857Y-15616667D01*
X7542857Y-15664286D01*
X7533333Y-15702381D01*
X7523809Y-15721428D01*
X7514286Y-15730952D01*
X7495238Y-15740476D01*
X7476190Y-15740476D01*
X7457143Y-15730952D01*
X7447619Y-15721428D01*
X7438095Y-15702381D01*
X7428571Y-15664286D01*
X7428571Y-15616667D01*
X7438095Y-15578571D01*
X7447619Y-15559524D01*
X7457143Y-15550000D01*
X7476190Y-15540476D01*
X7666667Y-15540476D02*
X7685714Y-15540476D01*
X7704762Y-15550000D01*
X7714286Y-15559524D01*
X7723809Y-15578571D01*
X7733333Y-15616667D01*
X7733333Y-15664286D01*
X7723809Y-15702381D01*
X7714286Y-15721428D01*
X7704762Y-15730952D01*
X7685714Y-15740476D01*
X7666667Y-15740476D01*
X7647619Y-15730952D01*
X7638095Y-15721428D01*
X7628571Y-15702381D01*
X7619048Y-15664286D01*
X7619048Y-15616667D01*
X7628571Y-15578571D01*
X7638095Y-15559524D01*
X7647619Y-15550000D01*
X7666667Y-15540476D01*
X7914286Y-15540476D02*
X7819048Y-15540476D01*
X7809524Y-15635714D01*
X7819048Y-15626190D01*
X7838095Y-15616667D01*
X7885714Y-15616667D01*
X7904762Y-15626190D01*
X7914286Y-15635714D01*
X7923809Y-15654762D01*
X7923809Y-15702381D01*
X7914286Y-15721428D01*
X7904762Y-15730952D01*
X7885714Y-15740476D01*
X7838095Y-15740476D01*
X7819048Y-15730952D01*
X7809524Y-15721428D01*
X8019048Y-15740476D02*
X8057143Y-15740476D01*
X8076190Y-15730952D01*
X8085714Y-15721428D01*
X8104762Y-15692857D01*
X8114286Y-15654762D01*
X8114286Y-15578571D01*
X8104762Y-15559524D01*
X8095238Y-15550000D01*
X8076190Y-15540476D01*
X8038095Y-15540476D01*
X8019048Y-15550000D01*
X8009524Y-15559524D01*
X8000000Y-15578571D01*
X8000000Y-15626190D01*
X8009524Y-15645238D01*
X8019048Y-15654762D01*
X8038095Y-15664286D01*
X8076190Y-15664286D01*
X8095238Y-15654762D01*
X8104762Y-15645238D01*
X8114286Y-15626190D01*
X8190476Y-15540476D02*
X8190476Y-15578571D01*
X8266667Y-15540476D02*
X8266667Y-15578571D01*
X8561905Y-15816667D02*
X8552381Y-15807143D01*
X8533333Y-15778571D01*
X8523810Y-15759524D01*
X8514286Y-15730952D01*
X8504762Y-15683333D01*
X8504762Y-15645238D01*
X8514286Y-15597619D01*
X8523810Y-15569048D01*
X8533333Y-15550000D01*
X8552381Y-15521428D01*
X8561905Y-15511905D01*
X8628571Y-15559524D02*
X8638095Y-15550000D01*
X8657143Y-15540476D01*
X8704762Y-15540476D01*
X8723810Y-15550000D01*
X8733333Y-15559524D01*
X8742857Y-15578571D01*
X8742857Y-15597619D01*
X8733333Y-15626190D01*
X8619048Y-15740476D01*
X8742857Y-15740476D01*
X8980952Y-15740476D02*
X8980952Y-15540476D01*
X9066667Y-15740476D02*
X9066667Y-15635714D01*
X9057143Y-15616667D01*
X9038095Y-15607143D01*
X9009524Y-15607143D01*
X8990476Y-15616667D01*
X8980952Y-15626190D01*
X9190476Y-15740476D02*
X9171429Y-15730952D01*
X9161905Y-15721428D01*
X9152381Y-15702381D01*
X9152381Y-15645238D01*
X9161905Y-15626190D01*
X9171429Y-15616667D01*
X9190476Y-15607143D01*
X9219048Y-15607143D01*
X9238095Y-15616667D01*
X9247619Y-15626190D01*
X9257143Y-15645238D01*
X9257143Y-15702381D01*
X9247619Y-15721428D01*
X9238095Y-15730952D01*
X9219048Y-15740476D01*
X9190476Y-15740476D01*
X9371429Y-15740476D02*
X9352381Y-15730952D01*
X9342857Y-15711905D01*
X9342857Y-15540476D01*
X9523810Y-15730952D02*
X9504762Y-15740476D01*
X9466667Y-15740476D01*
X9447619Y-15730952D01*
X9438095Y-15711905D01*
X9438095Y-15635714D01*
X9447619Y-15616667D01*
X9466667Y-15607143D01*
X9504762Y-15607143D01*
X9523810Y-15616667D01*
X9533333Y-15635714D01*
X9533333Y-15654762D01*
X9438095Y-15673809D01*
X9609524Y-15730952D02*
X9628571Y-15740476D01*
X9666667Y-15740476D01*
X9685714Y-15730952D01*
X9695238Y-15711905D01*
X9695238Y-15702381D01*
X9685714Y-15683333D01*
X9666667Y-15673809D01*
X9638095Y-15673809D01*
X9619048Y-15664286D01*
X9609524Y-15645238D01*
X9609524Y-15635714D01*
X9619048Y-15616667D01*
X9638095Y-15607143D01*
X9666667Y-15607143D01*
X9685714Y-15616667D01*
X9761905Y-15816667D02*
X9771429Y-15807143D01*
X9790476Y-15778571D01*
X9800000Y-15759524D01*
X9809524Y-15730952D01*
X9819048Y-15683333D01*
X9819048Y-15645238D01*
X9809524Y-15597619D01*
X9800000Y-15569048D01*
X9790476Y-15550000D01*
X9771429Y-15521428D01*
X9761905Y-15511905D01*
D13*
X4990000Y-15914000D02*
G75*
G03*
X4990000Y-15914000I-10000J0D01*
G01*
D11*
X5285714Y-15804476D02*
X5304762Y-15804476D01*
X5323810Y-15814000D01*
X5333333Y-15823524D01*
X5342857Y-15842571D01*
X5352381Y-15880667D01*
X5352381Y-15928286D01*
X5342857Y-15966381D01*
X5333333Y-15985428D01*
X5323810Y-15994952D01*
X5304762Y-16004476D01*
X5285714Y-16004476D01*
X5266667Y-15994952D01*
X5257143Y-15985428D01*
X5247619Y-15966381D01*
X5238095Y-15928286D01*
X5238095Y-15880667D01*
X5247619Y-15842571D01*
X5257143Y-15823524D01*
X5266667Y-15814000D01*
X5285714Y-15804476D01*
X5438095Y-15985428D02*
X5447619Y-15994952D01*
X5438095Y-16004476D01*
X5428571Y-15994952D01*
X5438095Y-15985428D01*
X5438095Y-16004476D01*
X5523810Y-15823524D02*
X5533333Y-15814000D01*
X5552381Y-15804476D01*
X5600000Y-15804476D01*
X5619048Y-15814000D01*
X5628571Y-15823524D01*
X5638095Y-15842571D01*
X5638095Y-15861619D01*
X5628571Y-15890190D01*
X5514286Y-16004476D01*
X5638095Y-16004476D01*
X5761905Y-15804476D02*
X5780952Y-15804476D01*
X5800000Y-15814000D01*
X5809524Y-15823524D01*
X5819048Y-15842571D01*
X5828571Y-15880667D01*
X5828571Y-15928286D01*
X5819048Y-15966381D01*
X5809524Y-15985428D01*
X5800000Y-15994952D01*
X5780952Y-16004476D01*
X5761905Y-16004476D01*
X5742857Y-15994952D01*
X5733333Y-15985428D01*
X5723809Y-15966381D01*
X5714286Y-15928286D01*
X5714286Y-15880667D01*
X5723809Y-15842571D01*
X5733333Y-15823524D01*
X5742857Y-15814000D01*
X5761905Y-15804476D01*
X5952381Y-15804476D02*
X5971428Y-15804476D01*
X5990476Y-15814000D01*
X6000000Y-15823524D01*
X6009524Y-15842571D01*
X6019048Y-15880667D01*
X6019048Y-15928286D01*
X6009524Y-15966381D01*
X6000000Y-15985428D01*
X5990476Y-15994952D01*
X5971428Y-16004476D01*
X5952381Y-16004476D01*
X5933333Y-15994952D01*
X5923809Y-15985428D01*
X5914286Y-15966381D01*
X5904762Y-15928286D01*
X5904762Y-15880667D01*
X5914286Y-15842571D01*
X5923809Y-15823524D01*
X5933333Y-15814000D01*
X5952381Y-15804476D01*
X6104762Y-16004476D02*
X6104762Y-15871143D01*
X6104762Y-15890190D02*
X6114286Y-15880667D01*
X6133333Y-15871143D01*
X6161905Y-15871143D01*
X6180952Y-15880667D01*
X6190476Y-15899714D01*
X6190476Y-16004476D01*
X6190476Y-15899714D02*
X6200000Y-15880667D01*
X6219048Y-15871143D01*
X6247619Y-15871143D01*
X6266667Y-15880667D01*
X6276190Y-15899714D01*
X6276190Y-16004476D01*
X6371428Y-16004476D02*
X6371428Y-15871143D01*
X6371428Y-15890190D02*
X6380952Y-15880667D01*
X6400000Y-15871143D01*
X6428571Y-15871143D01*
X6447619Y-15880667D01*
X6457143Y-15899714D01*
X6457143Y-16004476D01*
X6457143Y-15899714D02*
X6466667Y-15880667D01*
X6485714Y-15871143D01*
X6514286Y-15871143D01*
X6533333Y-15880667D01*
X6542857Y-15899714D01*
X6542857Y-16004476D01*
X6933333Y-15794952D02*
X6761905Y-16052095D01*
X7190476Y-15804476D02*
X7209524Y-15804476D01*
X7228571Y-15814000D01*
X7238095Y-15823524D01*
X7247619Y-15842571D01*
X7257143Y-15880667D01*
X7257143Y-15928286D01*
X7247619Y-15966381D01*
X7238095Y-15985428D01*
X7228571Y-15994952D01*
X7209524Y-16004476D01*
X7190476Y-16004476D01*
X7171428Y-15994952D01*
X7161905Y-15985428D01*
X7152381Y-15966381D01*
X7142857Y-15928286D01*
X7142857Y-15880667D01*
X7152381Y-15842571D01*
X7161905Y-15823524D01*
X7171428Y-15814000D01*
X7190476Y-15804476D01*
X7342857Y-15985428D02*
X7352381Y-15994952D01*
X7342857Y-16004476D01*
X7333333Y-15994952D01*
X7342857Y-15985428D01*
X7342857Y-16004476D01*
X7476190Y-15804476D02*
X7495238Y-15804476D01*
X7514286Y-15814000D01*
X7523809Y-15823524D01*
X7533333Y-15842571D01*
X7542857Y-15880667D01*
X7542857Y-15928286D01*
X7533333Y-15966381D01*
X7523809Y-15985428D01*
X7514286Y-15994952D01*
X7495238Y-16004476D01*
X7476190Y-16004476D01*
X7457143Y-15994952D01*
X7447619Y-15985428D01*
X7438095Y-15966381D01*
X7428571Y-15928286D01*
X7428571Y-15880667D01*
X7438095Y-15842571D01*
X7447619Y-15823524D01*
X7457143Y-15814000D01*
X7476190Y-15804476D01*
X7666667Y-15804476D02*
X7685714Y-15804476D01*
X7704762Y-15814000D01*
X7714286Y-15823524D01*
X7723809Y-15842571D01*
X7733333Y-15880667D01*
X7733333Y-15928286D01*
X7723809Y-15966381D01*
X7714286Y-15985428D01*
X7704762Y-15994952D01*
X7685714Y-16004476D01*
X7666667Y-16004476D01*
X7647619Y-15994952D01*
X7638095Y-15985428D01*
X7628571Y-15966381D01*
X7619048Y-15928286D01*
X7619048Y-15880667D01*
X7628571Y-15842571D01*
X7638095Y-15823524D01*
X7647619Y-15814000D01*
X7666667Y-15804476D01*
X7800000Y-15804476D02*
X7933333Y-15804476D01*
X7847619Y-16004476D01*
X8019048Y-16004476D02*
X8057143Y-16004476D01*
X8076190Y-15994952D01*
X8085714Y-15985428D01*
X8104762Y-15956857D01*
X8114286Y-15918762D01*
X8114286Y-15842571D01*
X8104762Y-15823524D01*
X8095238Y-15814000D01*
X8076190Y-15804476D01*
X8038095Y-15804476D01*
X8019048Y-15814000D01*
X8009524Y-15823524D01*
X8000000Y-15842571D01*
X8000000Y-15890190D01*
X8009524Y-15909238D01*
X8019048Y-15918762D01*
X8038095Y-15928286D01*
X8076190Y-15928286D01*
X8095238Y-15918762D01*
X8104762Y-15909238D01*
X8114286Y-15890190D01*
X8190476Y-15804476D02*
X8190476Y-15842571D01*
X8266667Y-15804476D02*
X8266667Y-15842571D01*
X8561905Y-16080667D02*
X8552381Y-16071143D01*
X8533333Y-16042571D01*
X8523810Y-16023524D01*
X8514286Y-15994952D01*
X8504762Y-15947333D01*
X8504762Y-15909238D01*
X8514286Y-15861619D01*
X8523810Y-15833048D01*
X8533333Y-15814000D01*
X8552381Y-15785428D01*
X8561905Y-15775905D01*
X8628571Y-15823524D02*
X8638095Y-15814000D01*
X8657143Y-15804476D01*
X8704762Y-15804476D01*
X8723810Y-15814000D01*
X8733333Y-15823524D01*
X8742857Y-15842571D01*
X8742857Y-15861619D01*
X8733333Y-15890190D01*
X8619048Y-16004476D01*
X8742857Y-16004476D01*
X8923810Y-15804476D02*
X8828571Y-15804476D01*
X8819048Y-15899714D01*
X8828571Y-15890190D01*
X8847619Y-15880667D01*
X8895238Y-15880667D01*
X8914286Y-15890190D01*
X8923810Y-15899714D01*
X8933333Y-15918762D01*
X8933333Y-15966381D01*
X8923810Y-15985428D01*
X8914286Y-15994952D01*
X8895238Y-16004476D01*
X8847619Y-16004476D01*
X8828571Y-15994952D01*
X8819048Y-15985428D01*
X9171429Y-16004476D02*
X9171429Y-15804476D01*
X9257143Y-16004476D02*
X9257143Y-15899714D01*
X9247619Y-15880667D01*
X9228571Y-15871143D01*
X9200000Y-15871143D01*
X9180952Y-15880667D01*
X9171429Y-15890190D01*
X9380952Y-16004476D02*
X9361905Y-15994952D01*
X9352381Y-15985428D01*
X9342857Y-15966381D01*
X9342857Y-15909238D01*
X9352381Y-15890190D01*
X9361905Y-15880667D01*
X9380952Y-15871143D01*
X9409524Y-15871143D01*
X9428571Y-15880667D01*
X9438095Y-15890190D01*
X9447619Y-15909238D01*
X9447619Y-15966381D01*
X9438095Y-15985428D01*
X9428571Y-15994952D01*
X9409524Y-16004476D01*
X9380952Y-16004476D01*
X9561905Y-16004476D02*
X9542857Y-15994952D01*
X9533333Y-15975905D01*
X9533333Y-15804476D01*
X9714286Y-15994952D02*
X9695238Y-16004476D01*
X9657143Y-16004476D01*
X9638095Y-15994952D01*
X9628571Y-15975905D01*
X9628571Y-15899714D01*
X9638095Y-15880667D01*
X9657143Y-15871143D01*
X9695238Y-15871143D01*
X9714286Y-15880667D01*
X9723810Y-15899714D01*
X9723810Y-15918762D01*
X9628571Y-15937809D01*
X9800000Y-15994952D02*
X9819048Y-16004476D01*
X9857143Y-16004476D01*
X9876190Y-15994952D01*
X9885714Y-15975905D01*
X9885714Y-15966381D01*
X9876190Y-15947333D01*
X9857143Y-15937809D01*
X9828571Y-15937809D01*
X9809524Y-15928286D01*
X9800000Y-15909238D01*
X9800000Y-15899714D01*
X9809524Y-15880667D01*
X9828571Y-15871143D01*
X9857143Y-15871143D01*
X9876190Y-15880667D01*
X9952381Y-16080667D02*
X9961905Y-16071143D01*
X9980952Y-16042571D01*
X9990476Y-16023524D01*
X10000000Y-15994952D01*
X10009524Y-15947333D01*
X10009524Y-15909238D01*
X10000000Y-15861619D01*
X9990476Y-15833048D01*
X9980952Y-15814000D01*
X9961905Y-15785428D01*
X9952381Y-15775905D01*
D14*
X4970000Y-16158000D02*
X4970000Y-16198000D01*
X4950000Y-16178000D02*
X4990000Y-16178000D01*
D11*
X5285714Y-16068476D02*
X5304762Y-16068476D01*
X5323810Y-16078000D01*
X5333333Y-16087524D01*
X5342857Y-16106571D01*
X5352381Y-16144667D01*
X5352381Y-16192286D01*
X5342857Y-16230381D01*
X5333333Y-16249428D01*
X5323810Y-16258952D01*
X5304762Y-16268476D01*
X5285714Y-16268476D01*
X5266667Y-16258952D01*
X5257143Y-16249428D01*
X5247619Y-16230381D01*
X5238095Y-16192286D01*
X5238095Y-16144667D01*
X5247619Y-16106571D01*
X5257143Y-16087524D01*
X5266667Y-16078000D01*
X5285714Y-16068476D01*
X5438095Y-16249428D02*
X5447619Y-16258952D01*
X5438095Y-16268476D01*
X5428571Y-16258952D01*
X5438095Y-16249428D01*
X5438095Y-16268476D01*
X5619048Y-16135143D02*
X5619048Y-16268476D01*
X5571429Y-16058952D02*
X5523810Y-16201809D01*
X5647619Y-16201809D01*
X5761905Y-16068476D02*
X5780952Y-16068476D01*
X5800000Y-16078000D01*
X5809524Y-16087524D01*
X5819048Y-16106571D01*
X5828571Y-16144667D01*
X5828571Y-16192286D01*
X5819048Y-16230381D01*
X5809524Y-16249428D01*
X5800000Y-16258952D01*
X5780952Y-16268476D01*
X5761905Y-16268476D01*
X5742857Y-16258952D01*
X5733333Y-16249428D01*
X5723809Y-16230381D01*
X5714286Y-16192286D01*
X5714286Y-16144667D01*
X5723809Y-16106571D01*
X5733333Y-16087524D01*
X5742857Y-16078000D01*
X5761905Y-16068476D01*
X5952381Y-16068476D02*
X5971428Y-16068476D01*
X5990476Y-16078000D01*
X6000000Y-16087524D01*
X6009524Y-16106571D01*
X6019048Y-16144667D01*
X6019048Y-16192286D01*
X6009524Y-16230381D01*
X6000000Y-16249428D01*
X5990476Y-16258952D01*
X5971428Y-16268476D01*
X5952381Y-16268476D01*
X5933333Y-16258952D01*
X5923809Y-16249428D01*
X5914286Y-16230381D01*
X5904762Y-16192286D01*
X5904762Y-16144667D01*
X5914286Y-16106571D01*
X5923809Y-16087524D01*
X5933333Y-16078000D01*
X5952381Y-16068476D01*
X6104762Y-16268476D02*
X6104762Y-16135143D01*
X6104762Y-16154190D02*
X6114286Y-16144667D01*
X6133333Y-16135143D01*
X6161905Y-16135143D01*
X6180952Y-16144667D01*
X6190476Y-16163714D01*
X6190476Y-16268476D01*
X6190476Y-16163714D02*
X6200000Y-16144667D01*
X6219048Y-16135143D01*
X6247619Y-16135143D01*
X6266667Y-16144667D01*
X6276190Y-16163714D01*
X6276190Y-16268476D01*
X6371428Y-16268476D02*
X6371428Y-16135143D01*
X6371428Y-16154190D02*
X6380952Y-16144667D01*
X6400000Y-16135143D01*
X6428571Y-16135143D01*
X6447619Y-16144667D01*
X6457143Y-16163714D01*
X6457143Y-16268476D01*
X6457143Y-16163714D02*
X6466667Y-16144667D01*
X6485714Y-16135143D01*
X6514286Y-16135143D01*
X6533333Y-16144667D01*
X6542857Y-16163714D01*
X6542857Y-16268476D01*
X6933333Y-16058952D02*
X6761905Y-16316095D01*
X7190476Y-16068476D02*
X7209524Y-16068476D01*
X7228571Y-16078000D01*
X7238095Y-16087524D01*
X7247619Y-16106571D01*
X7257143Y-16144667D01*
X7257143Y-16192286D01*
X7247619Y-16230381D01*
X7238095Y-16249428D01*
X7228571Y-16258952D01*
X7209524Y-16268476D01*
X7190476Y-16268476D01*
X7171428Y-16258952D01*
X7161905Y-16249428D01*
X7152381Y-16230381D01*
X7142857Y-16192286D01*
X7142857Y-16144667D01*
X7152381Y-16106571D01*
X7161905Y-16087524D01*
X7171428Y-16078000D01*
X7190476Y-16068476D01*
X7342857Y-16249428D02*
X7352381Y-16258952D01*
X7342857Y-16268476D01*
X7333333Y-16258952D01*
X7342857Y-16249428D01*
X7342857Y-16268476D01*
X7476190Y-16068476D02*
X7495238Y-16068476D01*
X7514286Y-16078000D01*
X7523809Y-16087524D01*
X7533333Y-16106571D01*
X7542857Y-16144667D01*
X7542857Y-16192286D01*
X7533333Y-16230381D01*
X7523809Y-16249428D01*
X7514286Y-16258952D01*
X7495238Y-16268476D01*
X7476190Y-16268476D01*
X7457143Y-16258952D01*
X7447619Y-16249428D01*
X7438095Y-16230381D01*
X7428571Y-16192286D01*
X7428571Y-16144667D01*
X7438095Y-16106571D01*
X7447619Y-16087524D01*
X7457143Y-16078000D01*
X7476190Y-16068476D01*
X7733333Y-16268476D02*
X7619048Y-16268476D01*
X7676190Y-16268476D02*
X7676190Y-16068476D01*
X7657143Y-16097048D01*
X7638095Y-16116095D01*
X7619048Y-16125619D01*
X7914286Y-16068476D02*
X7819048Y-16068476D01*
X7809524Y-16163714D01*
X7819048Y-16154190D01*
X7838095Y-16144667D01*
X7885714Y-16144667D01*
X7904762Y-16154190D01*
X7914286Y-16163714D01*
X7923809Y-16182762D01*
X7923809Y-16230381D01*
X7914286Y-16249428D01*
X7904762Y-16258952D01*
X7885714Y-16268476D01*
X7838095Y-16268476D01*
X7819048Y-16258952D01*
X7809524Y-16249428D01*
X7990476Y-16068476D02*
X8123809Y-16068476D01*
X8038095Y-16268476D01*
X8190476Y-16068476D02*
X8190476Y-16106571D01*
X8266667Y-16068476D02*
X8266667Y-16106571D01*
X8561905Y-16344667D02*
X8552381Y-16335143D01*
X8533333Y-16306571D01*
X8523810Y-16287524D01*
X8514286Y-16258952D01*
X8504762Y-16211333D01*
X8504762Y-16173238D01*
X8514286Y-16125619D01*
X8523810Y-16097048D01*
X8533333Y-16078000D01*
X8552381Y-16049428D01*
X8561905Y-16039905D01*
X8742857Y-16268476D02*
X8628571Y-16268476D01*
X8685714Y-16268476D02*
X8685714Y-16068476D01*
X8666667Y-16097048D01*
X8647619Y-16116095D01*
X8628571Y-16125619D01*
X8866667Y-16068476D02*
X8885714Y-16068476D01*
X8904762Y-16078000D01*
X8914286Y-16087524D01*
X8923810Y-16106571D01*
X8933333Y-16144667D01*
X8933333Y-16192286D01*
X8923810Y-16230381D01*
X8914286Y-16249428D01*
X8904762Y-16258952D01*
X8885714Y-16268476D01*
X8866667Y-16268476D01*
X8847619Y-16258952D01*
X8838095Y-16249428D01*
X8828571Y-16230381D01*
X8819048Y-16192286D01*
X8819048Y-16144667D01*
X8828571Y-16106571D01*
X8838095Y-16087524D01*
X8847619Y-16078000D01*
X8866667Y-16068476D01*
X9000000Y-16068476D02*
X9123810Y-16068476D01*
X9057143Y-16144667D01*
X9085714Y-16144667D01*
X9104762Y-16154190D01*
X9114286Y-16163714D01*
X9123810Y-16182762D01*
X9123810Y-16230381D01*
X9114286Y-16249428D01*
X9104762Y-16258952D01*
X9085714Y-16268476D01*
X9028571Y-16268476D01*
X9009524Y-16258952D01*
X9000000Y-16249428D01*
X9361905Y-16268476D02*
X9361905Y-16068476D01*
X9447619Y-16268476D02*
X9447619Y-16163714D01*
X9438095Y-16144667D01*
X9419048Y-16135143D01*
X9390476Y-16135143D01*
X9371429Y-16144667D01*
X9361905Y-16154190D01*
X9571429Y-16268476D02*
X9552381Y-16258952D01*
X9542857Y-16249428D01*
X9533333Y-16230381D01*
X9533333Y-16173238D01*
X9542857Y-16154190D01*
X9552381Y-16144667D01*
X9571429Y-16135143D01*
X9600000Y-16135143D01*
X9619048Y-16144667D01*
X9628571Y-16154190D01*
X9638095Y-16173238D01*
X9638095Y-16230381D01*
X9628571Y-16249428D01*
X9619048Y-16258952D01*
X9600000Y-16268476D01*
X9571429Y-16268476D01*
X9752381Y-16268476D02*
X9733333Y-16258952D01*
X9723810Y-16239905D01*
X9723810Y-16068476D01*
X9904762Y-16258952D02*
X9885714Y-16268476D01*
X9847619Y-16268476D01*
X9828571Y-16258952D01*
X9819048Y-16239905D01*
X9819048Y-16163714D01*
X9828571Y-16144667D01*
X9847619Y-16135143D01*
X9885714Y-16135143D01*
X9904762Y-16144667D01*
X9914286Y-16163714D01*
X9914286Y-16182762D01*
X9819048Y-16201809D01*
X9990476Y-16258952D02*
X10009524Y-16268476D01*
X10047619Y-16268476D01*
X10066667Y-16258952D01*
X10076190Y-16239905D01*
X10076190Y-16230381D01*
X10066667Y-16211333D01*
X10047619Y-16201809D01*
X10019048Y-16201809D01*
X10000000Y-16192286D01*
X9990476Y-16173238D01*
X9990476Y-16163714D01*
X10000000Y-16144667D01*
X10019048Y-16135143D01*
X10047619Y-16135143D01*
X10066667Y-16144667D01*
X10142857Y-16344667D02*
X10152381Y-16335143D01*
X10171429Y-16306571D01*
X10180952Y-16287524D01*
X10190476Y-16258952D01*
X10200000Y-16211333D01*
X10200000Y-16173238D01*
X10190476Y-16125619D01*
X10180952Y-16097048D01*
X10171429Y-16078000D01*
X10152381Y-16049428D01*
X10142857Y-16039905D01*
D15*
X4983264Y-16458264D02*
X4983264Y-16425736D01*
X4950736Y-16425736D01*
X4950736Y-16458264D01*
X4983264Y-16458264D01*
D11*
X5285714Y-16332476D02*
X5304762Y-16332476D01*
X5323810Y-16342000D01*
X5333333Y-16351524D01*
X5342857Y-16370571D01*
X5352381Y-16408667D01*
X5352381Y-16456286D01*
X5342857Y-16494381D01*
X5333333Y-16513428D01*
X5323810Y-16522952D01*
X5304762Y-16532476D01*
X5285714Y-16532476D01*
X5266667Y-16522952D01*
X5257143Y-16513428D01*
X5247619Y-16494381D01*
X5238095Y-16456286D01*
X5238095Y-16408667D01*
X5247619Y-16370571D01*
X5257143Y-16351524D01*
X5266667Y-16342000D01*
X5285714Y-16332476D01*
X5438095Y-16513428D02*
X5447619Y-16522952D01*
X5438095Y-16532476D01*
X5428571Y-16522952D01*
X5438095Y-16513428D01*
X5438095Y-16532476D01*
X5619048Y-16399143D02*
X5619048Y-16532476D01*
X5571429Y-16322952D02*
X5523810Y-16465809D01*
X5647619Y-16465809D01*
X5809524Y-16332476D02*
X5771428Y-16332476D01*
X5752381Y-16342000D01*
X5742857Y-16351524D01*
X5723809Y-16380095D01*
X5714286Y-16418190D01*
X5714286Y-16494381D01*
X5723809Y-16513428D01*
X5733333Y-16522952D01*
X5752381Y-16532476D01*
X5790476Y-16532476D01*
X5809524Y-16522952D01*
X5819048Y-16513428D01*
X5828571Y-16494381D01*
X5828571Y-16446762D01*
X5819048Y-16427714D01*
X5809524Y-16418190D01*
X5790476Y-16408667D01*
X5752381Y-16408667D01*
X5733333Y-16418190D01*
X5723809Y-16427714D01*
X5714286Y-16446762D01*
X5952381Y-16332476D02*
X5971428Y-16332476D01*
X5990476Y-16342000D01*
X6000000Y-16351524D01*
X6009524Y-16370571D01*
X6019048Y-16408667D01*
X6019048Y-16456286D01*
X6009524Y-16494381D01*
X6000000Y-16513428D01*
X5990476Y-16522952D01*
X5971428Y-16532476D01*
X5952381Y-16532476D01*
X5933333Y-16522952D01*
X5923809Y-16513428D01*
X5914286Y-16494381D01*
X5904762Y-16456286D01*
X5904762Y-16408667D01*
X5914286Y-16370571D01*
X5923809Y-16351524D01*
X5933333Y-16342000D01*
X5952381Y-16332476D01*
X6104762Y-16532476D02*
X6104762Y-16399143D01*
X6104762Y-16418190D02*
X6114286Y-16408667D01*
X6133333Y-16399143D01*
X6161905Y-16399143D01*
X6180952Y-16408667D01*
X6190476Y-16427714D01*
X6190476Y-16532476D01*
X6190476Y-16427714D02*
X6200000Y-16408667D01*
X6219048Y-16399143D01*
X6247619Y-16399143D01*
X6266667Y-16408667D01*
X6276190Y-16427714D01*
X6276190Y-16532476D01*
X6371428Y-16532476D02*
X6371428Y-16399143D01*
X6371428Y-16418190D02*
X6380952Y-16408667D01*
X6400000Y-16399143D01*
X6428571Y-16399143D01*
X6447619Y-16408667D01*
X6457143Y-16427714D01*
X6457143Y-16532476D01*
X6457143Y-16427714D02*
X6466667Y-16408667D01*
X6485714Y-16399143D01*
X6514286Y-16399143D01*
X6533333Y-16408667D01*
X6542857Y-16427714D01*
X6542857Y-16532476D01*
X6933333Y-16322952D02*
X6761905Y-16580095D01*
X7190476Y-16332476D02*
X7209524Y-16332476D01*
X7228571Y-16342000D01*
X7238095Y-16351524D01*
X7247619Y-16370571D01*
X7257143Y-16408667D01*
X7257143Y-16456286D01*
X7247619Y-16494381D01*
X7238095Y-16513428D01*
X7228571Y-16522952D01*
X7209524Y-16532476D01*
X7190476Y-16532476D01*
X7171428Y-16522952D01*
X7161905Y-16513428D01*
X7152381Y-16494381D01*
X7142857Y-16456286D01*
X7142857Y-16408667D01*
X7152381Y-16370571D01*
X7161905Y-16351524D01*
X7171428Y-16342000D01*
X7190476Y-16332476D01*
X7342857Y-16513428D02*
X7352381Y-16522952D01*
X7342857Y-16532476D01*
X7333333Y-16522952D01*
X7342857Y-16513428D01*
X7342857Y-16532476D01*
X7476190Y-16332476D02*
X7495238Y-16332476D01*
X7514286Y-16342000D01*
X7523809Y-16351524D01*
X7533333Y-16370571D01*
X7542857Y-16408667D01*
X7542857Y-16456286D01*
X7533333Y-16494381D01*
X7523809Y-16513428D01*
X7514286Y-16522952D01*
X7495238Y-16532476D01*
X7476190Y-16532476D01*
X7457143Y-16522952D01*
X7447619Y-16513428D01*
X7438095Y-16494381D01*
X7428571Y-16456286D01*
X7428571Y-16408667D01*
X7438095Y-16370571D01*
X7447619Y-16351524D01*
X7457143Y-16342000D01*
X7476190Y-16332476D01*
X7733333Y-16532476D02*
X7619048Y-16532476D01*
X7676190Y-16532476D02*
X7676190Y-16332476D01*
X7657143Y-16361048D01*
X7638095Y-16380095D01*
X7619048Y-16389619D01*
X7847619Y-16418190D02*
X7828571Y-16408667D01*
X7819048Y-16399143D01*
X7809524Y-16380095D01*
X7809524Y-16370571D01*
X7819048Y-16351524D01*
X7828571Y-16342000D01*
X7847619Y-16332476D01*
X7885714Y-16332476D01*
X7904762Y-16342000D01*
X7914286Y-16351524D01*
X7923809Y-16370571D01*
X7923809Y-16380095D01*
X7914286Y-16399143D01*
X7904762Y-16408667D01*
X7885714Y-16418190D01*
X7847619Y-16418190D01*
X7828571Y-16427714D01*
X7819048Y-16437238D01*
X7809524Y-16456286D01*
X7809524Y-16494381D01*
X7819048Y-16513428D01*
X7828571Y-16522952D01*
X7847619Y-16532476D01*
X7885714Y-16532476D01*
X7904762Y-16522952D01*
X7914286Y-16513428D01*
X7923809Y-16494381D01*
X7923809Y-16456286D01*
X7914286Y-16437238D01*
X7904762Y-16427714D01*
X7885714Y-16418190D01*
X8114286Y-16532476D02*
X8000000Y-16532476D01*
X8057143Y-16532476D02*
X8057143Y-16332476D01*
X8038095Y-16361048D01*
X8019048Y-16380095D01*
X8000000Y-16389619D01*
X8190476Y-16332476D02*
X8190476Y-16370571D01*
X8266667Y-16332476D02*
X8266667Y-16370571D01*
X8561905Y-16608667D02*
X8552381Y-16599143D01*
X8533333Y-16570571D01*
X8523810Y-16551524D01*
X8514286Y-16522952D01*
X8504762Y-16475333D01*
X8504762Y-16437238D01*
X8514286Y-16389619D01*
X8523810Y-16361048D01*
X8533333Y-16342000D01*
X8552381Y-16313428D01*
X8561905Y-16303905D01*
X8628571Y-16351524D02*
X8638095Y-16342000D01*
X8657143Y-16332476D01*
X8704762Y-16332476D01*
X8723810Y-16342000D01*
X8733333Y-16351524D01*
X8742857Y-16370571D01*
X8742857Y-16389619D01*
X8733333Y-16418190D01*
X8619048Y-16532476D01*
X8742857Y-16532476D01*
X8980952Y-16532476D02*
X8980952Y-16332476D01*
X9066667Y-16532476D02*
X9066667Y-16427714D01*
X9057143Y-16408667D01*
X9038095Y-16399143D01*
X9009524Y-16399143D01*
X8990476Y-16408667D01*
X8980952Y-16418190D01*
X9190476Y-16532476D02*
X9171429Y-16522952D01*
X9161905Y-16513428D01*
X9152381Y-16494381D01*
X9152381Y-16437238D01*
X9161905Y-16418190D01*
X9171429Y-16408667D01*
X9190476Y-16399143D01*
X9219048Y-16399143D01*
X9238095Y-16408667D01*
X9247619Y-16418190D01*
X9257143Y-16437238D01*
X9257143Y-16494381D01*
X9247619Y-16513428D01*
X9238095Y-16522952D01*
X9219048Y-16532476D01*
X9190476Y-16532476D01*
X9371429Y-16532476D02*
X9352381Y-16522952D01*
X9342857Y-16503905D01*
X9342857Y-16332476D01*
X9523810Y-16522952D02*
X9504762Y-16532476D01*
X9466667Y-16532476D01*
X9447619Y-16522952D01*
X9438095Y-16503905D01*
X9438095Y-16427714D01*
X9447619Y-16408667D01*
X9466667Y-16399143D01*
X9504762Y-16399143D01*
X9523810Y-16408667D01*
X9533333Y-16427714D01*
X9533333Y-16446762D01*
X9438095Y-16465809D01*
X9609524Y-16522952D02*
X9628571Y-16532476D01*
X9666667Y-16532476D01*
X9685714Y-16522952D01*
X9695238Y-16503905D01*
X9695238Y-16494381D01*
X9685714Y-16475333D01*
X9666667Y-16465809D01*
X9638095Y-16465809D01*
X9619048Y-16456286D01*
X9609524Y-16437238D01*
X9609524Y-16427714D01*
X9619048Y-16408667D01*
X9638095Y-16399143D01*
X9666667Y-16399143D01*
X9685714Y-16408667D01*
X9761905Y-16608667D02*
X9771429Y-16599143D01*
X9790476Y-16570571D01*
X9800000Y-16551524D01*
X9809524Y-16522952D01*
X9819048Y-16475333D01*
X9819048Y-16437238D01*
X9809524Y-16389619D01*
X9800000Y-16361048D01*
X9790476Y-16342000D01*
X9771429Y-16313428D01*
X9761905Y-16303905D01*
D16*
X4955000Y-16741000D02*
X4990000Y-16706000D01*
X4955000Y-16671000D01*
X4920000Y-16706000D01*
X4955000Y-16741000D01*
D11*
X5285714Y-16596476D02*
X5304762Y-16596476D01*
X5323810Y-16606000D01*
X5333333Y-16615524D01*
X5342857Y-16634571D01*
X5352381Y-16672667D01*
X5352381Y-16720286D01*
X5342857Y-16758381D01*
X5333333Y-16777429D01*
X5323810Y-16786952D01*
X5304762Y-16796476D01*
X5285714Y-16796476D01*
X5266667Y-16786952D01*
X5257143Y-16777429D01*
X5247619Y-16758381D01*
X5238095Y-16720286D01*
X5238095Y-16672667D01*
X5247619Y-16634571D01*
X5257143Y-16615524D01*
X5266667Y-16606000D01*
X5285714Y-16596476D01*
X5438095Y-16777429D02*
X5447619Y-16786952D01*
X5438095Y-16796476D01*
X5428571Y-16786952D01*
X5438095Y-16777429D01*
X5438095Y-16796476D01*
X5514286Y-16596476D02*
X5647619Y-16596476D01*
X5561905Y-16796476D01*
X5761905Y-16596476D02*
X5780952Y-16596476D01*
X5800000Y-16606000D01*
X5809524Y-16615524D01*
X5819048Y-16634571D01*
X5828571Y-16672667D01*
X5828571Y-16720286D01*
X5819048Y-16758381D01*
X5809524Y-16777429D01*
X5800000Y-16786952D01*
X5780952Y-16796476D01*
X5761905Y-16796476D01*
X5742857Y-16786952D01*
X5733333Y-16777429D01*
X5723809Y-16758381D01*
X5714286Y-16720286D01*
X5714286Y-16672667D01*
X5723809Y-16634571D01*
X5733333Y-16615524D01*
X5742857Y-16606000D01*
X5761905Y-16596476D01*
X5952381Y-16596476D02*
X5971428Y-16596476D01*
X5990476Y-16606000D01*
X6000000Y-16615524D01*
X6009524Y-16634571D01*
X6019048Y-16672667D01*
X6019048Y-16720286D01*
X6009524Y-16758381D01*
X6000000Y-16777429D01*
X5990476Y-16786952D01*
X5971428Y-16796476D01*
X5952381Y-16796476D01*
X5933333Y-16786952D01*
X5923809Y-16777429D01*
X5914286Y-16758381D01*
X5904762Y-16720286D01*
X5904762Y-16672667D01*
X5914286Y-16634571D01*
X5923809Y-16615524D01*
X5933333Y-16606000D01*
X5952381Y-16596476D01*
X6104762Y-16796476D02*
X6104762Y-16663143D01*
X6104762Y-16682190D02*
X6114286Y-16672667D01*
X6133333Y-16663143D01*
X6161905Y-16663143D01*
X6180952Y-16672667D01*
X6190476Y-16691714D01*
X6190476Y-16796476D01*
X6190476Y-16691714D02*
X6200000Y-16672667D01*
X6219048Y-16663143D01*
X6247619Y-16663143D01*
X6266667Y-16672667D01*
X6276190Y-16691714D01*
X6276190Y-16796476D01*
X6371428Y-16796476D02*
X6371428Y-16663143D01*
X6371428Y-16682190D02*
X6380952Y-16672667D01*
X6400000Y-16663143D01*
X6428571Y-16663143D01*
X6447619Y-16672667D01*
X6457143Y-16691714D01*
X6457143Y-16796476D01*
X6457143Y-16691714D02*
X6466667Y-16672667D01*
X6485714Y-16663143D01*
X6514286Y-16663143D01*
X6533333Y-16672667D01*
X6542857Y-16691714D01*
X6542857Y-16796476D01*
X6933333Y-16586952D02*
X6761905Y-16844095D01*
X7190476Y-16596476D02*
X7209524Y-16596476D01*
X7228571Y-16606000D01*
X7238095Y-16615524D01*
X7247619Y-16634571D01*
X7257143Y-16672667D01*
X7257143Y-16720286D01*
X7247619Y-16758381D01*
X7238095Y-16777429D01*
X7228571Y-16786952D01*
X7209524Y-16796476D01*
X7190476Y-16796476D01*
X7171428Y-16786952D01*
X7161905Y-16777429D01*
X7152381Y-16758381D01*
X7142857Y-16720286D01*
X7142857Y-16672667D01*
X7152381Y-16634571D01*
X7161905Y-16615524D01*
X7171428Y-16606000D01*
X7190476Y-16596476D01*
X7342857Y-16777429D02*
X7352381Y-16786952D01*
X7342857Y-16796476D01*
X7333333Y-16786952D01*
X7342857Y-16777429D01*
X7342857Y-16796476D01*
X7476190Y-16596476D02*
X7495238Y-16596476D01*
X7514286Y-16606000D01*
X7523809Y-16615524D01*
X7533333Y-16634571D01*
X7542857Y-16672667D01*
X7542857Y-16720286D01*
X7533333Y-16758381D01*
X7523809Y-16777429D01*
X7514286Y-16786952D01*
X7495238Y-16796476D01*
X7476190Y-16796476D01*
X7457143Y-16786952D01*
X7447619Y-16777429D01*
X7438095Y-16758381D01*
X7428571Y-16720286D01*
X7428571Y-16672667D01*
X7438095Y-16634571D01*
X7447619Y-16615524D01*
X7457143Y-16606000D01*
X7476190Y-16596476D01*
X7619048Y-16615524D02*
X7628571Y-16606000D01*
X7647619Y-16596476D01*
X7695238Y-16596476D01*
X7714286Y-16606000D01*
X7723809Y-16615524D01*
X7733333Y-16634571D01*
X7733333Y-16653619D01*
X7723809Y-16682190D01*
X7609524Y-16796476D01*
X7733333Y-16796476D01*
X7800000Y-16596476D02*
X7933333Y-16596476D01*
X7847619Y-16796476D01*
X8095238Y-16596476D02*
X8057143Y-16596476D01*
X8038095Y-16606000D01*
X8028571Y-16615524D01*
X8009524Y-16644095D01*
X8000000Y-16682190D01*
X8000000Y-16758381D01*
X8009524Y-16777429D01*
X8019048Y-16786952D01*
X8038095Y-16796476D01*
X8076190Y-16796476D01*
X8095238Y-16786952D01*
X8104762Y-16777429D01*
X8114286Y-16758381D01*
X8114286Y-16710762D01*
X8104762Y-16691714D01*
X8095238Y-16682190D01*
X8076190Y-16672667D01*
X8038095Y-16672667D01*
X8019048Y-16682190D01*
X8009524Y-16691714D01*
X8000000Y-16710762D01*
X8190476Y-16596476D02*
X8190476Y-16634571D01*
X8266667Y-16596476D02*
X8266667Y-16634571D01*
X8561905Y-16872667D02*
X8552381Y-16863143D01*
X8533333Y-16834571D01*
X8523810Y-16815524D01*
X8514286Y-16786952D01*
X8504762Y-16739333D01*
X8504762Y-16701238D01*
X8514286Y-16653619D01*
X8523810Y-16625048D01*
X8533333Y-16606000D01*
X8552381Y-16577428D01*
X8561905Y-16567905D01*
X8628571Y-16615524D02*
X8638095Y-16606000D01*
X8657143Y-16596476D01*
X8704762Y-16596476D01*
X8723810Y-16606000D01*
X8733333Y-16615524D01*
X8742857Y-16634571D01*
X8742857Y-16653619D01*
X8733333Y-16682190D01*
X8619048Y-16796476D01*
X8742857Y-16796476D01*
X8980952Y-16796476D02*
X8980952Y-16596476D01*
X9066667Y-16796476D02*
X9066667Y-16691714D01*
X9057143Y-16672667D01*
X9038095Y-16663143D01*
X9009524Y-16663143D01*
X8990476Y-16672667D01*
X8980952Y-16682190D01*
X9190476Y-16796476D02*
X9171429Y-16786952D01*
X9161905Y-16777429D01*
X9152381Y-16758381D01*
X9152381Y-16701238D01*
X9161905Y-16682190D01*
X9171429Y-16672667D01*
X9190476Y-16663143D01*
X9219048Y-16663143D01*
X9238095Y-16672667D01*
X9247619Y-16682190D01*
X9257143Y-16701238D01*
X9257143Y-16758381D01*
X9247619Y-16777429D01*
X9238095Y-16786952D01*
X9219048Y-16796476D01*
X9190476Y-16796476D01*
X9371429Y-16796476D02*
X9352381Y-16786952D01*
X9342857Y-16767905D01*
X9342857Y-16596476D01*
X9523810Y-16786952D02*
X9504762Y-16796476D01*
X9466667Y-16796476D01*
X9447619Y-16786952D01*
X9438095Y-16767905D01*
X9438095Y-16691714D01*
X9447619Y-16672667D01*
X9466667Y-16663143D01*
X9504762Y-16663143D01*
X9523810Y-16672667D01*
X9533333Y-16691714D01*
X9533333Y-16710762D01*
X9438095Y-16729809D01*
X9609524Y-16786952D02*
X9628571Y-16796476D01*
X9666667Y-16796476D01*
X9685714Y-16786952D01*
X9695238Y-16767905D01*
X9695238Y-16758381D01*
X9685714Y-16739333D01*
X9666667Y-16729809D01*
X9638095Y-16729809D01*
X9619048Y-16720286D01*
X9609524Y-16701238D01*
X9609524Y-16691714D01*
X9619048Y-16672667D01*
X9638095Y-16663143D01*
X9666667Y-16663143D01*
X9685714Y-16672667D01*
X9761905Y-16872667D02*
X9771429Y-16863143D01*
X9790476Y-16834571D01*
X9800000Y-16815524D01*
X9809524Y-16786952D01*
X9819048Y-16739333D01*
X9819048Y-16701238D01*
X9809524Y-16653619D01*
X9800000Y-16625048D01*
X9790476Y-16606000D01*
X9771429Y-16577428D01*
X9761905Y-16567905D01*
D17*
X4890000Y-16920000D02*
X4990000Y-17020000D01*
X4990000Y-16920000D02*
X4890000Y-17020000D01*
X4990000Y-16970000D02*
G75*
G03*
X4990000Y-16970000I-50000J0D01*
G01*
D11*
X5352381Y-17060476D02*
X5238095Y-17060476D01*
X5295238Y-17060476D02*
X5295238Y-16860476D01*
X5276190Y-16889048D01*
X5257143Y-16908095D01*
X5238095Y-16917619D01*
X5438095Y-17041429D02*
X5447619Y-17050952D01*
X5438095Y-17060476D01*
X5428571Y-17050952D01*
X5438095Y-17041429D01*
X5438095Y-17060476D01*
X5571429Y-16860476D02*
X5590476Y-16860476D01*
X5609524Y-16870000D01*
X5619048Y-16879524D01*
X5628571Y-16898571D01*
X5638095Y-16936667D01*
X5638095Y-16984286D01*
X5628571Y-17022381D01*
X5619048Y-17041429D01*
X5609524Y-17050952D01*
X5590476Y-17060476D01*
X5571429Y-17060476D01*
X5552381Y-17050952D01*
X5542857Y-17041429D01*
X5533333Y-17022381D01*
X5523810Y-16984286D01*
X5523810Y-16936667D01*
X5533333Y-16898571D01*
X5542857Y-16879524D01*
X5552381Y-16870000D01*
X5571429Y-16860476D01*
X5761905Y-16860476D02*
X5780952Y-16860476D01*
X5800000Y-16870000D01*
X5809524Y-16879524D01*
X5819048Y-16898571D01*
X5828571Y-16936667D01*
X5828571Y-16984286D01*
X5819048Y-17022381D01*
X5809524Y-17041429D01*
X5800000Y-17050952D01*
X5780952Y-17060476D01*
X5761905Y-17060476D01*
X5742857Y-17050952D01*
X5733333Y-17041429D01*
X5723809Y-17022381D01*
X5714286Y-16984286D01*
X5714286Y-16936667D01*
X5723809Y-16898571D01*
X5733333Y-16879524D01*
X5742857Y-16870000D01*
X5761905Y-16860476D01*
X5952381Y-16860476D02*
X5971428Y-16860476D01*
X5990476Y-16870000D01*
X6000000Y-16879524D01*
X6009524Y-16898571D01*
X6019048Y-16936667D01*
X6019048Y-16984286D01*
X6009524Y-17022381D01*
X6000000Y-17041429D01*
X5990476Y-17050952D01*
X5971428Y-17060476D01*
X5952381Y-17060476D01*
X5933333Y-17050952D01*
X5923809Y-17041429D01*
X5914286Y-17022381D01*
X5904762Y-16984286D01*
X5904762Y-16936667D01*
X5914286Y-16898571D01*
X5923809Y-16879524D01*
X5933333Y-16870000D01*
X5952381Y-16860476D01*
X6104762Y-17060476D02*
X6104762Y-16927143D01*
X6104762Y-16946190D02*
X6114286Y-16936667D01*
X6133333Y-16927143D01*
X6161905Y-16927143D01*
X6180952Y-16936667D01*
X6190476Y-16955714D01*
X6190476Y-17060476D01*
X6190476Y-16955714D02*
X6200000Y-16936667D01*
X6219048Y-16927143D01*
X6247619Y-16927143D01*
X6266667Y-16936667D01*
X6276190Y-16955714D01*
X6276190Y-17060476D01*
X6371428Y-17060476D02*
X6371428Y-16927143D01*
X6371428Y-16946190D02*
X6380952Y-16936667D01*
X6400000Y-16927143D01*
X6428571Y-16927143D01*
X6447619Y-16936667D01*
X6457143Y-16955714D01*
X6457143Y-17060476D01*
X6457143Y-16955714D02*
X6466667Y-16936667D01*
X6485714Y-16927143D01*
X6514286Y-16927143D01*
X6533333Y-16936667D01*
X6542857Y-16955714D01*
X6542857Y-17060476D01*
X6933333Y-16850952D02*
X6761905Y-17108095D01*
X7190476Y-16860476D02*
X7209524Y-16860476D01*
X7228571Y-16870000D01*
X7238095Y-16879524D01*
X7247619Y-16898571D01*
X7257143Y-16936667D01*
X7257143Y-16984286D01*
X7247619Y-17022381D01*
X7238095Y-17041429D01*
X7228571Y-17050952D01*
X7209524Y-17060476D01*
X7190476Y-17060476D01*
X7171428Y-17050952D01*
X7161905Y-17041429D01*
X7152381Y-17022381D01*
X7142857Y-16984286D01*
X7142857Y-16936667D01*
X7152381Y-16898571D01*
X7161905Y-16879524D01*
X7171428Y-16870000D01*
X7190476Y-16860476D01*
X7342857Y-17041429D02*
X7352381Y-17050952D01*
X7342857Y-17060476D01*
X7333333Y-17050952D01*
X7342857Y-17041429D01*
X7342857Y-17060476D01*
X7476190Y-16860476D02*
X7495238Y-16860476D01*
X7514286Y-16870000D01*
X7523809Y-16879524D01*
X7533333Y-16898571D01*
X7542857Y-16936667D01*
X7542857Y-16984286D01*
X7533333Y-17022381D01*
X7523809Y-17041429D01*
X7514286Y-17050952D01*
X7495238Y-17060476D01*
X7476190Y-17060476D01*
X7457143Y-17050952D01*
X7447619Y-17041429D01*
X7438095Y-17022381D01*
X7428571Y-16984286D01*
X7428571Y-16936667D01*
X7438095Y-16898571D01*
X7447619Y-16879524D01*
X7457143Y-16870000D01*
X7476190Y-16860476D01*
X7609524Y-16860476D02*
X7733333Y-16860476D01*
X7666667Y-16936667D01*
X7695238Y-16936667D01*
X7714286Y-16946190D01*
X7723809Y-16955714D01*
X7733333Y-16974762D01*
X7733333Y-17022381D01*
X7723809Y-17041429D01*
X7714286Y-17050952D01*
X7695238Y-17060476D01*
X7638095Y-17060476D01*
X7619048Y-17050952D01*
X7609524Y-17041429D01*
X7828571Y-17060476D02*
X7866667Y-17060476D01*
X7885714Y-17050952D01*
X7895238Y-17041429D01*
X7914286Y-17012857D01*
X7923809Y-16974762D01*
X7923809Y-16898571D01*
X7914286Y-16879524D01*
X7904762Y-16870000D01*
X7885714Y-16860476D01*
X7847619Y-16860476D01*
X7828571Y-16870000D01*
X7819048Y-16879524D01*
X7809524Y-16898571D01*
X7809524Y-16946190D01*
X7819048Y-16965238D01*
X7828571Y-16974762D01*
X7847619Y-16984286D01*
X7885714Y-16984286D01*
X7904762Y-16974762D01*
X7914286Y-16965238D01*
X7923809Y-16946190D01*
X8095238Y-16927143D02*
X8095238Y-17060476D01*
X8047619Y-16850952D02*
X8000000Y-16993810D01*
X8123809Y-16993810D01*
X8190476Y-16860476D02*
X8190476Y-16898571D01*
X8266667Y-16860476D02*
X8266667Y-16898571D01*
X8561905Y-17136667D02*
X8552381Y-17127143D01*
X8533333Y-17098571D01*
X8523810Y-17079524D01*
X8514286Y-17050952D01*
X8504762Y-17003333D01*
X8504762Y-16965238D01*
X8514286Y-16917619D01*
X8523810Y-16889048D01*
X8533333Y-16870000D01*
X8552381Y-16841429D01*
X8561905Y-16831905D01*
X8723810Y-16927143D02*
X8723810Y-17060476D01*
X8676190Y-16850952D02*
X8628571Y-16993810D01*
X8752381Y-16993810D01*
X8980952Y-17060476D02*
X8980952Y-16860476D01*
X9066667Y-17060476D02*
X9066667Y-16955714D01*
X9057143Y-16936667D01*
X9038095Y-16927143D01*
X9009524Y-16927143D01*
X8990476Y-16936667D01*
X8980952Y-16946190D01*
X9190476Y-17060476D02*
X9171429Y-17050952D01*
X9161905Y-17041429D01*
X9152381Y-17022381D01*
X9152381Y-16965238D01*
X9161905Y-16946190D01*
X9171429Y-16936667D01*
X9190476Y-16927143D01*
X9219048Y-16927143D01*
X9238095Y-16936667D01*
X9247619Y-16946190D01*
X9257143Y-16965238D01*
X9257143Y-17022381D01*
X9247619Y-17041429D01*
X9238095Y-17050952D01*
X9219048Y-17060476D01*
X9190476Y-17060476D01*
X9371429Y-17060476D02*
X9352381Y-17050952D01*
X9342857Y-17031905D01*
X9342857Y-16860476D01*
X9523810Y-17050952D02*
X9504762Y-17060476D01*
X9466667Y-17060476D01*
X9447619Y-17050952D01*
X9438095Y-17031905D01*
X9438095Y-16955714D01*
X9447619Y-16936667D01*
X9466667Y-16927143D01*
X9504762Y-16927143D01*
X9523810Y-16936667D01*
X9533333Y-16955714D01*
X9533333Y-16974762D01*
X9438095Y-16993810D01*
X9609524Y-17050952D02*
X9628571Y-17060476D01*
X9666667Y-17060476D01*
X9685714Y-17050952D01*
X9695238Y-17031905D01*
X9695238Y-17022381D01*
X9685714Y-17003333D01*
X9666667Y-16993810D01*
X9638095Y-16993810D01*
X9619048Y-16984286D01*
X9609524Y-16965238D01*
X9609524Y-16955714D01*
X9619048Y-16936667D01*
X9638095Y-16927143D01*
X9666667Y-16927143D01*
X9685714Y-16936667D01*
X9761905Y-17136667D02*
X9771429Y-17127143D01*
X9790476Y-17098571D01*
X9800000Y-17079524D01*
X9809524Y-17050952D01*
X9819048Y-17003333D01*
X9819048Y-16965238D01*
X9809524Y-16917619D01*
X9800000Y-16889048D01*
X9790476Y-16870000D01*
X9771429Y-16841429D01*
X9761905Y-16831905D01*
M02*
