M48
; DRILL file {KiCad (6.0.6-0)} date 2022 September 01, Thursday 17:00:33
; FORMAT={-:-/ absolute / metric / decimal}
; #@! TF.CreationDate,2022-09-01T17:00:33+01:00
; #@! TF.GenerationSoftware,Kicad,Pcbnew,(6.0.6-0)
; #@! TF.FileFunction,Plated,1,2,PTH
FMAT,2
METRIC
; #@! TA.AperFunction,Plated,PTH,ComponentDrill
T1C0.150
; #@! TA.AperFunction,Plated,PTH,ViaDrill
T2C0.400
; #@! TA.AperFunction,Plated,PTH,ComponentDrill
T3C0.460
; #@! TA.AperFunction,Plated,PTH,ComponentDrill
T4C0.700
; #@! TA.AperFunction,Plated,PTH,ComponentDrill
T5C1.000
%
G90
G05
T1
X65.65Y-105.95
X66.65Y-108.45
T2
X51.0Y-107.2
X51.0Y-109.2
X51.0Y-111.2
X51.2Y-51.6
X51.2Y-60.6
X51.2Y-69.4
X51.2Y-77.2
X51.2Y-84.4
X51.2Y-93.0
X51.2Y-148.2
X51.7Y-117.35
X52.8Y-111.2
X53.0Y-97.8
X53.0Y-102.2
X53.0Y-106.8
X53.3Y-112.6
X55.2Y-117.0
X55.45Y-114.95
X56.6Y-97.8
X56.6Y-102.2
X57.7Y-109.15
X57.7Y-111.35
X57.75Y-114.05
X57.8Y-117.8
X57.8Y-120.2
X57.8Y-122.2
X58.4Y-116.0
X58.662Y-51.6
X59.4Y-110.4
X59.6Y-97.8
X59.6Y-119.4
X59.6Y-121.4
X59.6Y-123.4
X60.31Y-112.66
X60.9Y-148.2
X61.6Y-109.95
X62.6Y-97.8
X63.85Y-115.95
X64.6Y-121.2
X65.25Y-117.25
X65.6Y-97.8
X66.123Y-51.6
X67.4Y-95.8
X68.0Y-108.2
X68.0Y-109.2
X68.6Y-117.6
X69.4Y-119.8
X69.4Y-122.8
X70.2Y-94.2
X70.2Y-115.8
X70.6Y-148.2
X71.75Y-116.85
X71.75Y-118.05
X71.75Y-119.2
X72.581Y-94.153
X72.6Y-89.6
X72.6Y-91.8
X72.8Y-84.0
X73.0Y-87.0
X73.0Y-88.0
X73.585Y-51.6
X74.0Y-87.0
X74.0Y-88.0
X75.8Y-84.0
X77.8Y-82.6
X77.9Y-119.15
X77.95Y-116.7
X77.95Y-117.85
X80.3Y-148.2
X81.046Y-51.6
X81.6Y-117.2
X81.674Y-82.6
X85.548Y-82.6
X86.3Y-117.2
X87.25Y-96.812
X87.25Y-100.625
X87.25Y-104.438
X88.508Y-51.6
X89.422Y-82.6
X90.0Y-148.2
X90.5Y-94.25
X90.5Y-96.812
X90.5Y-100.625
X90.5Y-104.438
X90.5Y-106.75
X91.0Y-117.2
X93.295Y-82.6
X93.75Y-94.25
X93.75Y-97.0
X93.75Y-100.625
X93.75Y-104.438
X93.75Y-106.75
X95.7Y-117.2
X95.969Y-51.6
X96.5Y-94.25
X96.5Y-106.75
X97.169Y-82.6
X99.7Y-148.2
X100.4Y-117.2
X101.043Y-82.6
X103.431Y-51.6
X104.917Y-82.6
X105.1Y-117.2
X108.791Y-82.6
X109.4Y-148.2
X109.8Y-117.2
X110.892Y-51.6
X112.2Y-84.0
X112.6Y-116.0
X116.2Y-85.0
X116.2Y-88.75
X116.2Y-92.5
X116.2Y-96.25
X116.2Y-100.0
X116.2Y-103.75
X116.2Y-107.5
X116.2Y-111.25
X116.2Y-115.0
X118.354Y-51.6
X119.1Y-148.2
X125.815Y-51.6
X128.8Y-148.2
X133.277Y-51.6
X138.5Y-148.2
X140.738Y-51.6
X148.2Y-51.6
X148.2Y-61.26
X148.2Y-70.92
X148.2Y-80.58
X148.2Y-90.24
X148.2Y-99.9
X148.2Y-109.56
X148.2Y-119.22
X148.2Y-128.88
X148.2Y-138.54
X148.2Y-148.2
T3
X56.32Y-95.62
X56.32Y-104.38
T4
X112.198Y-87.802
X112.198Y-112.198
T5
X62.26Y-120.085
X62.26Y-122.625
X66.94Y-120.085
X66.94Y-122.625
T0
M30
