M48
; DRILL file {KiCad (6.0.6-0)} date 2023 January 18, Wednesday 22:31:43
; FORMAT={-:-/ absolute / metric / decimal}
; #@! TF.CreationDate,2023-01-18T22:31:43+00:00
; #@! TF.GenerationSoftware,Kicad,Pcbnew,(6.0.6-0)
; #@! TF.FileFunction,Plated,1,2,PTH
FMAT,2
METRIC
; #@! TA.AperFunction,Plated,PTH,ComponentDrill
T1C0.150
; #@! TA.AperFunction,Plated,PTH,ViaDrill
T2C0.200
; #@! TA.AperFunction,Plated,PTH,ViaDrill
T3C0.400
; #@! TA.AperFunction,Plated,PTH,ComponentDrill
T4C0.460
; #@! TA.AperFunction,Plated,PTH,ComponentDrill
T5C0.700
; #@! TA.AperFunction,Plated,PTH,ComponentDrill
T6C1.000
%
G90
G05
T1
X70.2Y-98.237
X71.2Y-100.737
T2
X59.7Y-81.45
X59.77Y-94.5
X61.025Y-81.5
X61.05Y-82.25
X62.2Y-88.775
X63.28Y-88.78
X63.375Y-87.3
X63.675Y-102.65
X65.65Y-88.4
X66.225Y-88.875
X68.125Y-102.45
X69.425Y-97.575
X70.175Y-97.125
X70.575Y-101.425
X71.025Y-97.525
X71.675Y-101.6
X72.1Y-82.05
X72.15Y-100.8
X72.85Y-113.0
X72.875Y-111.975
X73.45Y-79.85
X74.125Y-110.85
X74.125Y-114.075
X76.425Y-79.9
X77.75Y-82.05
T3
X51.0Y-107.2
X51.0Y-113.057
X51.0Y-118.914
X51.0Y-124.771
X51.0Y-130.629
X51.0Y-136.486
X51.0Y-142.343
X51.0Y-148.2
X51.2Y-51.6
X51.2Y-60.6
X51.2Y-69.4
X51.2Y-77.2
X51.2Y-84.4
X51.2Y-93.0
X53.0Y-97.8
X53.0Y-102.2
X53.0Y-106.8
X55.83Y-86.01
X55.85Y-88.44
X56.325Y-97.75
X56.6Y-102.2
X58.662Y-51.6
X58.925Y-84.7
X58.925Y-87.15
X58.925Y-89.525
X59.15Y-102.42
X60.025Y-97.65
X60.9Y-148.2
X61.48Y-102.42
X62.425Y-75.375
X62.425Y-78.75
X63.475Y-91.65
X63.525Y-94.6
X63.925Y-72.875
X64.9Y-95.5
X65.6Y-78.9
X65.625Y-76.625
X66.06Y-102.45
X66.123Y-51.6
X67.225Y-74.25
X68.46Y-80.42
X70.6Y-148.2
X71.51Y-78.61
X72.38Y-75.0
X73.23Y-77.2
X73.585Y-51.6
X74.925Y-101.325
X74.925Y-103.733
X74.925Y-106.142
X74.925Y-108.55
X80.13Y-117.75
X80.3Y-148.2
X81.046Y-51.6
X81.674Y-82.6
X84.003Y-117.75
X85.548Y-82.6
X87.877Y-117.75
X88.508Y-51.6
X89.422Y-82.6
X90.0Y-148.2
X91.751Y-117.75
X93.295Y-82.6
X95.625Y-117.75
X95.969Y-51.6
X97.169Y-82.6
X99.499Y-117.75
X99.7Y-148.2
X101.043Y-82.6
X103.373Y-117.75
X103.431Y-51.6
X104.917Y-82.6
X107.247Y-117.75
X108.791Y-82.6
X109.4Y-148.2
X110.892Y-51.6
X112.2Y-84.0
X116.2Y-85.0
X116.2Y-88.75
X116.2Y-92.5
X116.2Y-96.25
X116.2Y-100.0
X116.2Y-103.75
X116.2Y-107.5
X116.2Y-111.25
X116.2Y-115.0
X118.354Y-51.6
X119.1Y-148.2
X125.815Y-51.6
X128.8Y-148.2
X133.277Y-51.6
X138.5Y-148.2
X140.738Y-51.6
X148.2Y-51.6
X148.2Y-61.26
X148.2Y-70.92
X148.2Y-80.58
X148.2Y-90.24
X148.2Y-99.9
X148.2Y-109.56
X148.2Y-119.22
X148.2Y-128.88
X148.2Y-138.54
X148.2Y-148.2
T4
X56.32Y-95.62
X56.32Y-104.38
T5
X112.198Y-87.802
X112.198Y-112.198
T6
X70.0Y-72.46
X70.0Y-75.0
X70.0Y-125.0
X70.0Y-127.54
T0
M30
