G04 #@! TF.GenerationSoftware,KiCad,Pcbnew,(6.0.6-0)*
G04 #@! TF.CreationDate,2022-09-01T17:00:11+01:00*
G04 #@! TF.ProjectId,gnss_antenna_pcb,676e7373-5f61-46e7-9465-6e6e615f7063,rev?*
G04 #@! TF.SameCoordinates,Original*
G04 #@! TF.FileFunction,Paste,Top*
G04 #@! TF.FilePolarity,Positive*
%FSLAX46Y46*%
G04 Gerber Fmt 4.6, Leading zero omitted, Abs format (unit mm)*
G04 Created by KiCad (PCBNEW (6.0.6-0)) date 2022-09-01 17:00:11*
%MOMM*%
%LPD*%
G01*
G04 APERTURE LIST*
G04 Aperture macros list*
%AMRoundRect*
0 Rectangle with rounded corners*
0 $1 Rounding radius*
0 $2 $3 $4 $5 $6 $7 $8 $9 X,Y pos of 4 corners*
0 Add a 4 corners polygon primitive as box body*
4,1,4,$2,$3,$4,$5,$6,$7,$8,$9,$2,$3,0*
0 Add four circle primitives for the rounded corners*
1,1,$1+$1,$2,$3*
1,1,$1+$1,$4,$5*
1,1,$1+$1,$6,$7*
1,1,$1+$1,$8,$9*
0 Add four rect primitives between the rounded corners*
20,1,$1+$1,$2,$3,$4,$5,0*
20,1,$1+$1,$4,$5,$6,$7,0*
20,1,$1+$1,$6,$7,$8,$9,0*
20,1,$1+$1,$8,$9,$2,$3,0*%
G04 Aperture macros list end*
%ADD10RoundRect,0.200000X-0.275000X0.200000X-0.275000X-0.200000X0.275000X-0.200000X0.275000X0.200000X0*%
%ADD11RoundRect,0.155000X0.212500X0.155000X-0.212500X0.155000X-0.212500X-0.155000X0.212500X-0.155000X0*%
%ADD12RoundRect,0.160000X0.160000X-0.197500X0.160000X0.197500X-0.160000X0.197500X-0.160000X-0.197500X0*%
%ADD13RoundRect,0.150000X-0.150000X0.512500X-0.150000X-0.512500X0.150000X-0.512500X0.150000X0.512500X0*%
%ADD14R,0.350000X0.450000*%
%ADD15RoundRect,0.237500X-0.300000X-0.237500X0.300000X-0.237500X0.300000X0.237500X-0.300000X0.237500X0*%
%ADD16RoundRect,0.160000X-0.160000X0.197500X-0.160000X-0.197500X0.160000X-0.197500X0.160000X0.197500X0*%
%ADD17RoundRect,0.160000X0.222500X0.160000X-0.222500X0.160000X-0.222500X-0.160000X0.222500X-0.160000X0*%
%ADD18R,0.800000X1.360000*%
%ADD19RoundRect,0.160000X-0.197500X-0.160000X0.197500X-0.160000X0.197500X0.160000X-0.197500X0.160000X0*%
%ADD20RoundRect,0.237500X0.237500X-0.300000X0.237500X0.300000X-0.237500X0.300000X-0.237500X-0.300000X0*%
%ADD21RoundRect,0.147500X0.147500X0.172500X-0.147500X0.172500X-0.147500X-0.172500X0.147500X-0.172500X0*%
%ADD22R,5.080000X2.290000*%
%ADD23R,5.080000X2.420000*%
%ADD24R,0.200000X0.100000*%
%ADD25R,1.000000X1.050000*%
%ADD26R,1.050000X2.200000*%
%ADD27RoundRect,0.155000X0.155000X-0.212500X0.155000X0.212500X-0.155000X0.212500X-0.155000X-0.212500X0*%
%ADD28RoundRect,0.200000X0.200000X0.275000X-0.200000X0.275000X-0.200000X-0.275000X0.200000X-0.275000X0*%
%ADD29RoundRect,0.147500X0.172500X-0.147500X0.172500X0.147500X-0.172500X0.147500X-0.172500X-0.147500X0*%
%ADD30RoundRect,0.237500X0.300000X0.237500X-0.300000X0.237500X-0.300000X-0.237500X0.300000X-0.237500X0*%
G04 APERTURE END LIST*
D10*
X67000000Y-112525000D03*
X67000000Y-114175000D03*
D11*
X75367500Y-112500000D03*
X74232500Y-112500000D03*
D12*
X63722500Y-109947500D03*
X63722500Y-108752500D03*
D13*
X56430000Y-111522500D03*
X55480000Y-111522500D03*
X54530000Y-111522500D03*
X54530000Y-113797500D03*
X56430000Y-113797500D03*
D14*
X66650000Y-106750000D03*
X65650000Y-106750000D03*
X65650000Y-107650000D03*
X66650000Y-107650000D03*
D15*
X54537500Y-109150000D03*
X56262500Y-109150000D03*
D16*
X52800000Y-115052500D03*
X52800000Y-116247500D03*
D17*
X63720000Y-107650000D03*
X62575000Y-107650000D03*
D18*
X110725000Y-112500000D03*
X110675000Y-87500000D03*
X76625000Y-112500000D03*
X76625000Y-87500000D03*
D19*
X75002500Y-88000000D03*
X76197500Y-88000000D03*
D20*
X69350000Y-109762500D03*
X69350000Y-108037500D03*
D12*
X51550000Y-116247500D03*
X51550000Y-115052500D03*
D10*
X65150000Y-112525000D03*
X65150000Y-114175000D03*
D21*
X69085000Y-106650000D03*
X68115000Y-106650000D03*
D22*
X52880000Y-100000000D03*
D23*
X52880000Y-104380000D03*
X52880000Y-95620000D03*
D10*
X70000000Y-111575000D03*
X70000000Y-113225000D03*
D12*
X62572500Y-109947500D03*
X62572500Y-108752500D03*
D24*
X65650000Y-106500000D03*
D25*
X74825000Y-116200000D03*
D26*
X76300000Y-117725000D03*
X73350000Y-117725000D03*
D11*
X62517500Y-112650000D03*
X61382500Y-112650000D03*
D27*
X61190000Y-107657500D03*
X61190000Y-106522500D03*
D21*
X66610000Y-109400000D03*
X65640000Y-109400000D03*
D28*
X66965000Y-110940000D03*
X65315000Y-110940000D03*
D29*
X58480000Y-102485000D03*
X58480000Y-101515000D03*
D30*
X66952500Y-115940000D03*
X65227500Y-115940000D03*
X56312500Y-116000000D03*
X54587500Y-116000000D03*
D19*
X75002500Y-87000000D03*
X76197500Y-87000000D03*
D24*
X66650000Y-107900000D03*
M02*
