G04 #@! TF.GenerationSoftware,KiCad,Pcbnew,(6.0.6-0)*
G04 #@! TF.CreationDate,2022-09-01T17:00:11+01:00*
G04 #@! TF.ProjectId,gnss_antenna_pcb,676e7373-5f61-46e7-9465-6e6e615f7063,rev?*
G04 #@! TF.SameCoordinates,Original*
G04 #@! TF.FileFunction,Copper,L2,Bot*
G04 #@! TF.FilePolarity,Positive*
%FSLAX46Y46*%
G04 Gerber Fmt 4.6, Leading zero omitted, Abs format (unit mm)*
G04 Created by KiCad (PCBNEW (6.0.6-0)) date 2022-09-01 17:00:11*
%MOMM*%
%LPD*%
G01*
G04 APERTURE LIST*
G04 #@! TA.AperFunction,ComponentPad*
%ADD10C,1.500000*%
G04 #@! TD*
G04 #@! TA.AperFunction,SMDPad,CuDef*
%ADD11R,5.080000X2.420000*%
G04 #@! TD*
G04 #@! TA.AperFunction,SMDPad,CuDef*
%ADD12R,0.950000X0.460000*%
G04 #@! TD*
G04 #@! TA.AperFunction,ComponentPad*
%ADD13C,0.970000*%
G04 #@! TD*
G04 #@! TA.AperFunction,ComponentPad*
%ADD14C,0.300000*%
G04 #@! TD*
G04 #@! TA.AperFunction,ComponentPad*
%ADD15R,1.700000X1.700000*%
G04 #@! TD*
G04 #@! TA.AperFunction,ComponentPad*
%ADD16O,1.700000X1.700000*%
G04 #@! TD*
G04 #@! TA.AperFunction,ViaPad*
%ADD17C,0.800000*%
G04 #@! TD*
G04 APERTURE END LIST*
D10*
X112197592Y-112197592D03*
X112197592Y-87802408D03*
D11*
X52880000Y-104380000D03*
D12*
X55870000Y-104380000D03*
X55870000Y-95620000D03*
D11*
X52880000Y-95620000D03*
D13*
X56320000Y-104380000D03*
X56320000Y-95620000D03*
D14*
X65650000Y-105950000D03*
D15*
X62260000Y-120085000D03*
D16*
X62260000Y-122625000D03*
D15*
X66940000Y-120085000D03*
D16*
X66940000Y-122625000D03*
D14*
X66650000Y-108450000D03*
D17*
X108790782Y-82600000D03*
X59600000Y-119400000D03*
X67400000Y-95800000D03*
X148200000Y-99900000D03*
X103430766Y-51600000D03*
X87250000Y-96812500D03*
X75800000Y-84000000D03*
X95700000Y-117200000D03*
X53000000Y-106800000D03*
X74000000Y-87000000D03*
X93750000Y-100625000D03*
X148200000Y-80580000D03*
X59400000Y-110400000D03*
X109400000Y-148200000D03*
X96500000Y-94250000D03*
X53300000Y-112600000D03*
X148200000Y-119220000D03*
X72600000Y-89600000D03*
X109800000Y-117200000D03*
X53000000Y-102200000D03*
X59600000Y-123400000D03*
X93750000Y-106750000D03*
X51000000Y-111200000D03*
X97169235Y-82600000D03*
X116200000Y-115000000D03*
X51200000Y-69400000D03*
X60310000Y-112660000D03*
X85547694Y-82600000D03*
X71750000Y-119200000D03*
X116200000Y-107500000D03*
X70200000Y-94200000D03*
X68600000Y-117600000D03*
X57800000Y-122200000D03*
X73000000Y-88000000D03*
X51700000Y-117350000D03*
X90500000Y-104437500D03*
X57800000Y-117800000D03*
X138500000Y-148200000D03*
X71750000Y-118050000D03*
X125815380Y-51600000D03*
X93750000Y-104437500D03*
X51200000Y-51600000D03*
X87250000Y-100625000D03*
X81600000Y-117200000D03*
X116200000Y-103750000D03*
X95969228Y-51600000D03*
X100400000Y-117200000D03*
X105100000Y-117200000D03*
X68000000Y-109200000D03*
X116200000Y-88750000D03*
X53000000Y-97800000D03*
X58400000Y-116000000D03*
X72580512Y-94153214D03*
X61600000Y-109950000D03*
X93295388Y-82600000D03*
X116200000Y-85000000D03*
X104916929Y-82600000D03*
X77950000Y-116700000D03*
X59600000Y-121400000D03*
X148200000Y-109560000D03*
X70600000Y-148200000D03*
X77950000Y-117850000D03*
X148200000Y-148200000D03*
X148200000Y-90240000D03*
X62600000Y-97800000D03*
X81046152Y-51600000D03*
X71750000Y-116850000D03*
X148200000Y-138540000D03*
X66123076Y-51600000D03*
X101043082Y-82600000D03*
X112200000Y-84000000D03*
X57800000Y-120200000D03*
X116200000Y-111250000D03*
X86300000Y-117200000D03*
X118353842Y-51600000D03*
X148200000Y-61260000D03*
X148200000Y-70920000D03*
X51200000Y-77200000D03*
X128800000Y-148200000D03*
X72600000Y-91800000D03*
X90500000Y-94250000D03*
X99700000Y-148200000D03*
X80300000Y-148200000D03*
X90500000Y-106750000D03*
X51200000Y-60600000D03*
X69400000Y-122800000D03*
X72800000Y-84000000D03*
X90500000Y-96812500D03*
X58661538Y-51600000D03*
X52800000Y-111200000D03*
X133276918Y-51600000D03*
X90000000Y-148200000D03*
X148200000Y-128880000D03*
X89421541Y-82600000D03*
X51200000Y-148200000D03*
X57750000Y-114050000D03*
X65600000Y-97800000D03*
X74000000Y-88000000D03*
X90500000Y-100625000D03*
X81673847Y-82600000D03*
X64600000Y-121200000D03*
X88507690Y-51600000D03*
X77800000Y-82600000D03*
X70200000Y-115800000D03*
X110892304Y-51600000D03*
X116200000Y-96250000D03*
X55450000Y-114950000D03*
X51000000Y-107200000D03*
X91000000Y-117200000D03*
X69400000Y-119800000D03*
X56600000Y-102200000D03*
X60900000Y-148200000D03*
X73584614Y-51600000D03*
X73000000Y-87000000D03*
X116200000Y-92500000D03*
X51200000Y-93000000D03*
X148200000Y-51600000D03*
X57700000Y-109150000D03*
X51200000Y-84400000D03*
X96500000Y-106750000D03*
X63850000Y-115950000D03*
X87250000Y-104437500D03*
X119100000Y-148200000D03*
X116200000Y-100000000D03*
X51000000Y-109200000D03*
X65250000Y-117250000D03*
X112600000Y-116000000D03*
X59600000Y-97800000D03*
X77900000Y-119150000D03*
X57700000Y-111350000D03*
X93750000Y-94250000D03*
X56600000Y-97800000D03*
X55200000Y-117000000D03*
X93750000Y-97000000D03*
X140738456Y-51600000D03*
X68000000Y-108200000D03*
G04 #@! TA.AperFunction,Conductor*
G36*
X149433621Y-50528502D02*
G01*
X149480114Y-50582158D01*
X149491500Y-50634500D01*
X149491500Y-149365500D01*
X149471498Y-149433621D01*
X149417842Y-149480114D01*
X149365500Y-149491500D01*
X50634500Y-149491500D01*
X50566379Y-149471498D01*
X50519886Y-149417842D01*
X50508500Y-149365500D01*
X50508500Y-142632703D01*
X55390743Y-142632703D01*
X55428268Y-142917734D01*
X55504129Y-143195036D01*
X55616923Y-143459476D01*
X55764561Y-143706161D01*
X55944313Y-143930528D01*
X56152851Y-144128423D01*
X56386317Y-144296186D01*
X56390112Y-144298195D01*
X56390113Y-144298196D01*
X56411869Y-144309715D01*
X56640392Y-144430712D01*
X56910373Y-144529511D01*
X57191264Y-144590755D01*
X57219841Y-144593004D01*
X57414282Y-144608307D01*
X57414291Y-144608307D01*
X57416739Y-144608500D01*
X57572271Y-144608500D01*
X57574407Y-144608354D01*
X57574418Y-144608354D01*
X57782548Y-144594165D01*
X57782554Y-144594164D01*
X57786825Y-144593873D01*
X57791020Y-144593004D01*
X57791022Y-144593004D01*
X57927584Y-144564723D01*
X58068342Y-144535574D01*
X58339343Y-144439607D01*
X58594812Y-144307750D01*
X58598313Y-144305289D01*
X58598317Y-144305287D01*
X58712417Y-144225096D01*
X58830023Y-144142441D01*
X59040622Y-143946740D01*
X59222713Y-143724268D01*
X59372927Y-143479142D01*
X59488483Y-143215898D01*
X59567244Y-142939406D01*
X59607751Y-142654784D01*
X59607845Y-142636951D01*
X59607867Y-142632703D01*
X140390743Y-142632703D01*
X140428268Y-142917734D01*
X140504129Y-143195036D01*
X140616923Y-143459476D01*
X140764561Y-143706161D01*
X140944313Y-143930528D01*
X141152851Y-144128423D01*
X141386317Y-144296186D01*
X141390112Y-144298195D01*
X141390113Y-144298196D01*
X141411869Y-144309715D01*
X141640392Y-144430712D01*
X141910373Y-144529511D01*
X142191264Y-144590755D01*
X142219841Y-144593004D01*
X142414282Y-144608307D01*
X142414291Y-144608307D01*
X142416739Y-144608500D01*
X142572271Y-144608500D01*
X142574407Y-144608354D01*
X142574418Y-144608354D01*
X142782548Y-144594165D01*
X142782554Y-144594164D01*
X142786825Y-144593873D01*
X142791020Y-144593004D01*
X142791022Y-144593004D01*
X142927584Y-144564723D01*
X143068342Y-144535574D01*
X143339343Y-144439607D01*
X143594812Y-144307750D01*
X143598313Y-144305289D01*
X143598317Y-144305287D01*
X143712417Y-144225096D01*
X143830023Y-144142441D01*
X144040622Y-143946740D01*
X144222713Y-143724268D01*
X144372927Y-143479142D01*
X144488483Y-143215898D01*
X144567244Y-142939406D01*
X144607751Y-142654784D01*
X144607845Y-142636951D01*
X144609235Y-142371583D01*
X144609235Y-142371576D01*
X144609257Y-142367297D01*
X144571732Y-142082266D01*
X144495871Y-141804964D01*
X144383077Y-141540524D01*
X144235439Y-141293839D01*
X144055687Y-141069472D01*
X143847149Y-140871577D01*
X143613683Y-140703814D01*
X143591843Y-140692250D01*
X143568654Y-140679972D01*
X143359608Y-140569288D01*
X143089627Y-140470489D01*
X142808736Y-140409245D01*
X142777685Y-140406801D01*
X142585718Y-140391693D01*
X142585709Y-140391693D01*
X142583261Y-140391500D01*
X142427729Y-140391500D01*
X142425593Y-140391646D01*
X142425582Y-140391646D01*
X142217452Y-140405835D01*
X142217446Y-140405836D01*
X142213175Y-140406127D01*
X142208980Y-140406996D01*
X142208978Y-140406996D01*
X142072416Y-140435277D01*
X141931658Y-140464426D01*
X141660657Y-140560393D01*
X141405188Y-140692250D01*
X141401687Y-140694711D01*
X141401683Y-140694713D01*
X141391594Y-140701804D01*
X141169977Y-140857559D01*
X140959378Y-141053260D01*
X140777287Y-141275732D01*
X140627073Y-141520858D01*
X140511517Y-141784102D01*
X140432756Y-142060594D01*
X140392249Y-142345216D01*
X140392227Y-142349505D01*
X140392226Y-142349512D01*
X140390765Y-142628417D01*
X140390743Y-142632703D01*
X59607867Y-142632703D01*
X59609235Y-142371583D01*
X59609235Y-142371576D01*
X59609257Y-142367297D01*
X59571732Y-142082266D01*
X59495871Y-141804964D01*
X59383077Y-141540524D01*
X59235439Y-141293839D01*
X59055687Y-141069472D01*
X58847149Y-140871577D01*
X58613683Y-140703814D01*
X58591843Y-140692250D01*
X58568654Y-140679972D01*
X58359608Y-140569288D01*
X58089627Y-140470489D01*
X57808736Y-140409245D01*
X57777685Y-140406801D01*
X57585718Y-140391693D01*
X57585709Y-140391693D01*
X57583261Y-140391500D01*
X57427729Y-140391500D01*
X57425593Y-140391646D01*
X57425582Y-140391646D01*
X57217452Y-140405835D01*
X57217446Y-140405836D01*
X57213175Y-140406127D01*
X57208980Y-140406996D01*
X57208978Y-140406996D01*
X57072416Y-140435277D01*
X56931658Y-140464426D01*
X56660657Y-140560393D01*
X56405188Y-140692250D01*
X56401687Y-140694711D01*
X56401683Y-140694713D01*
X56391594Y-140701804D01*
X56169977Y-140857559D01*
X55959378Y-141053260D01*
X55777287Y-141275732D01*
X55627073Y-141520858D01*
X55511517Y-141784102D01*
X55432756Y-142060594D01*
X55392249Y-142345216D01*
X55392227Y-142349505D01*
X55392226Y-142349512D01*
X55390765Y-142628417D01*
X55390743Y-142632703D01*
X50508500Y-142632703D01*
X50508500Y-122892966D01*
X60928257Y-122892966D01*
X60958565Y-123027446D01*
X60961645Y-123037275D01*
X61041770Y-123234603D01*
X61046413Y-123243794D01*
X61157694Y-123425388D01*
X61163777Y-123433699D01*
X61303213Y-123594667D01*
X61310580Y-123601883D01*
X61474434Y-123737916D01*
X61482881Y-123743831D01*
X61666756Y-123851279D01*
X61676042Y-123855729D01*
X61875001Y-123931703D01*
X61884899Y-123934579D01*
X61988250Y-123955606D01*
X62002299Y-123954410D01*
X62006000Y-123944065D01*
X62006000Y-123943517D01*
X62514000Y-123943517D01*
X62518064Y-123957359D01*
X62531478Y-123959393D01*
X62538184Y-123958534D01*
X62548262Y-123956392D01*
X62752255Y-123895191D01*
X62761842Y-123891433D01*
X62953095Y-123797739D01*
X62961945Y-123792464D01*
X63135328Y-123668792D01*
X63143200Y-123662139D01*
X63294052Y-123511812D01*
X63300730Y-123503965D01*
X63425003Y-123331020D01*
X63430313Y-123322183D01*
X63524670Y-123131267D01*
X63528469Y-123121672D01*
X63590377Y-122917910D01*
X63592555Y-122907837D01*
X63593986Y-122896962D01*
X63591775Y-122882778D01*
X63578617Y-122879000D01*
X62532115Y-122879000D01*
X62516876Y-122883475D01*
X62515671Y-122884865D01*
X62514000Y-122892548D01*
X62514000Y-123943517D01*
X62006000Y-123943517D01*
X62006000Y-122897115D01*
X62001525Y-122881876D01*
X62000135Y-122880671D01*
X61992452Y-122879000D01*
X60943225Y-122879000D01*
X60929694Y-122882973D01*
X60928257Y-122892966D01*
X50508500Y-122892966D01*
X50508500Y-122591695D01*
X65577251Y-122591695D01*
X65577548Y-122596848D01*
X65577548Y-122596851D01*
X65583011Y-122691590D01*
X65590110Y-122814715D01*
X65591247Y-122819761D01*
X65591248Y-122819767D01*
X65605449Y-122882778D01*
X65639222Y-123032639D01*
X65723266Y-123239616D01*
X65839987Y-123430088D01*
X65986250Y-123598938D01*
X66158126Y-123741632D01*
X66351000Y-123854338D01*
X66559692Y-123934030D01*
X66564760Y-123935061D01*
X66564763Y-123935062D01*
X66659862Y-123954410D01*
X66778597Y-123978567D01*
X66783772Y-123978757D01*
X66783774Y-123978757D01*
X66996673Y-123986564D01*
X66996677Y-123986564D01*
X67001837Y-123986753D01*
X67006957Y-123986097D01*
X67006959Y-123986097D01*
X67218288Y-123959025D01*
X67218289Y-123959025D01*
X67223416Y-123958368D01*
X67228366Y-123956883D01*
X67432429Y-123895661D01*
X67432434Y-123895659D01*
X67437384Y-123894174D01*
X67637994Y-123795896D01*
X67819860Y-123666173D01*
X67978096Y-123508489D01*
X68037594Y-123425689D01*
X68105435Y-123331277D01*
X68108453Y-123327077D01*
X68207430Y-123126811D01*
X68272370Y-122913069D01*
X68301529Y-122691590D01*
X68303156Y-122625000D01*
X68284852Y-122402361D01*
X68230431Y-122185702D01*
X68141354Y-121980840D01*
X68020014Y-121793277D01*
X68000405Y-121771727D01*
X67872798Y-121631488D01*
X67841746Y-121567642D01*
X67850141Y-121497143D01*
X67895317Y-121442375D01*
X67921761Y-121428706D01*
X68028297Y-121388767D01*
X68036705Y-121385615D01*
X68153261Y-121298261D01*
X68240615Y-121181705D01*
X68291745Y-121045316D01*
X68298500Y-120983134D01*
X68298500Y-119186866D01*
X68291745Y-119124684D01*
X68240615Y-118988295D01*
X68153261Y-118871739D01*
X68036705Y-118784385D01*
X67900316Y-118733255D01*
X67838134Y-118726500D01*
X66041866Y-118726500D01*
X65979684Y-118733255D01*
X65843295Y-118784385D01*
X65726739Y-118871739D01*
X65639385Y-118988295D01*
X65588255Y-119124684D01*
X65581500Y-119186866D01*
X65581500Y-120983134D01*
X65588255Y-121045316D01*
X65639385Y-121181705D01*
X65726739Y-121298261D01*
X65843295Y-121385615D01*
X65851704Y-121388767D01*
X65851705Y-121388768D01*
X65960451Y-121429535D01*
X66017216Y-121472176D01*
X66041916Y-121538738D01*
X66026709Y-121608087D01*
X66007316Y-121634568D01*
X65880629Y-121767138D01*
X65877715Y-121771410D01*
X65877714Y-121771411D01*
X65865409Y-121789450D01*
X65754743Y-121951680D01*
X65660688Y-122154305D01*
X65600989Y-122369570D01*
X65577251Y-122591695D01*
X50508500Y-122591695D01*
X50508500Y-120979669D01*
X60902001Y-120979669D01*
X60902371Y-120986490D01*
X60907895Y-121037352D01*
X60911521Y-121052604D01*
X60956676Y-121173054D01*
X60965214Y-121188649D01*
X61041715Y-121290724D01*
X61054276Y-121303285D01*
X61156351Y-121379786D01*
X61171946Y-121388324D01*
X61281337Y-121429333D01*
X61338101Y-121471975D01*
X61362801Y-121538536D01*
X61347594Y-121607885D01*
X61328201Y-121634366D01*
X61204590Y-121763717D01*
X61198104Y-121771727D01*
X61078098Y-121947649D01*
X61073000Y-121956623D01*
X60983338Y-122149783D01*
X60979775Y-122159470D01*
X60924389Y-122359183D01*
X60925912Y-122367607D01*
X60938292Y-122371000D01*
X61987885Y-122371000D01*
X62003124Y-122366525D01*
X62004329Y-122365135D01*
X62006000Y-122357452D01*
X62006000Y-122352885D01*
X62514000Y-122352885D01*
X62518475Y-122368124D01*
X62519865Y-122369329D01*
X62527548Y-122371000D01*
X63578344Y-122371000D01*
X63591875Y-122367027D01*
X63593180Y-122357947D01*
X63551214Y-122190875D01*
X63547894Y-122181124D01*
X63462972Y-121985814D01*
X63458105Y-121976739D01*
X63342426Y-121797926D01*
X63336136Y-121789757D01*
X63191931Y-121631279D01*
X63160879Y-121567433D01*
X63169273Y-121496934D01*
X63214450Y-121442166D01*
X63240894Y-121428497D01*
X63348054Y-121388324D01*
X63363649Y-121379786D01*
X63465724Y-121303285D01*
X63478285Y-121290724D01*
X63554786Y-121188649D01*
X63563324Y-121173054D01*
X63608478Y-121052606D01*
X63612105Y-121037351D01*
X63617631Y-120986486D01*
X63618000Y-120979672D01*
X63618000Y-120357115D01*
X63613525Y-120341876D01*
X63612135Y-120340671D01*
X63604452Y-120339000D01*
X62532115Y-120339000D01*
X62516876Y-120343475D01*
X62515671Y-120344865D01*
X62514000Y-120352548D01*
X62514000Y-122352885D01*
X62006000Y-122352885D01*
X62006000Y-120357115D01*
X62001525Y-120341876D01*
X62000135Y-120340671D01*
X61992452Y-120339000D01*
X60920116Y-120339000D01*
X60904877Y-120343475D01*
X60903672Y-120344865D01*
X60902001Y-120352548D01*
X60902001Y-120979669D01*
X50508500Y-120979669D01*
X50508500Y-119812885D01*
X60902000Y-119812885D01*
X60906475Y-119828124D01*
X60907865Y-119829329D01*
X60915548Y-119831000D01*
X61987885Y-119831000D01*
X62003124Y-119826525D01*
X62004329Y-119825135D01*
X62006000Y-119817452D01*
X62006000Y-119812885D01*
X62514000Y-119812885D01*
X62518475Y-119828124D01*
X62519865Y-119829329D01*
X62527548Y-119831000D01*
X63599884Y-119831000D01*
X63615123Y-119826525D01*
X63616328Y-119825135D01*
X63617999Y-119817452D01*
X63617999Y-119190331D01*
X63617629Y-119183510D01*
X63612105Y-119132648D01*
X63608479Y-119117396D01*
X63563324Y-118996946D01*
X63554786Y-118981351D01*
X63478285Y-118879276D01*
X63465724Y-118866715D01*
X63363649Y-118790214D01*
X63348054Y-118781676D01*
X63227606Y-118736522D01*
X63212351Y-118732895D01*
X63161486Y-118727369D01*
X63154672Y-118727000D01*
X62532115Y-118727000D01*
X62516876Y-118731475D01*
X62515671Y-118732865D01*
X62514000Y-118740548D01*
X62514000Y-119812885D01*
X62006000Y-119812885D01*
X62006000Y-118745116D01*
X62001525Y-118729877D01*
X62000135Y-118728672D01*
X61992452Y-118727001D01*
X61365331Y-118727001D01*
X61358510Y-118727371D01*
X61307648Y-118732895D01*
X61292396Y-118736521D01*
X61171946Y-118781676D01*
X61156351Y-118790214D01*
X61054276Y-118866715D01*
X61041715Y-118879276D01*
X60965214Y-118981351D01*
X60956676Y-118996946D01*
X60911522Y-119117394D01*
X60907895Y-119132649D01*
X60902369Y-119183514D01*
X60902000Y-119190328D01*
X60902000Y-119812885D01*
X50508500Y-119812885D01*
X50508500Y-112197592D01*
X110934285Y-112197592D01*
X110953477Y-112416963D01*
X111010472Y-112629668D01*
X111012797Y-112634653D01*
X111101210Y-112824258D01*
X111101213Y-112824263D01*
X111103536Y-112829245D01*
X111229843Y-113009630D01*
X111385554Y-113165341D01*
X111565938Y-113291648D01*
X111765516Y-113384712D01*
X111978221Y-113441707D01*
X112197592Y-113460899D01*
X112416963Y-113441707D01*
X112629668Y-113384712D01*
X112829246Y-113291648D01*
X113009630Y-113165341D01*
X113165341Y-113009630D01*
X113291648Y-112829245D01*
X113293971Y-112824263D01*
X113293974Y-112824258D01*
X113382387Y-112634653D01*
X113384712Y-112629668D01*
X113441707Y-112416963D01*
X113460899Y-112197592D01*
X113441707Y-111978221D01*
X113384712Y-111765516D01*
X113341177Y-111672154D01*
X113293974Y-111570926D01*
X113293971Y-111570921D01*
X113291648Y-111565939D01*
X113165341Y-111385554D01*
X113009630Y-111229843D01*
X112829246Y-111103536D01*
X112629668Y-111010472D01*
X112416963Y-110953477D01*
X112197592Y-110934285D01*
X111978221Y-110953477D01*
X111765516Y-111010472D01*
X111672154Y-111054007D01*
X111570926Y-111101210D01*
X111570921Y-111101213D01*
X111565939Y-111103536D01*
X111561432Y-111106692D01*
X111561430Y-111106693D01*
X111390065Y-111226684D01*
X111390062Y-111226686D01*
X111385554Y-111229843D01*
X111229843Y-111385554D01*
X111103536Y-111565939D01*
X111101213Y-111570921D01*
X111101210Y-111570926D01*
X111054007Y-111672154D01*
X111010472Y-111765516D01*
X110953477Y-111978221D01*
X110934285Y-112197592D01*
X50508500Y-112197592D01*
X50508500Y-109009499D01*
X66308253Y-109009499D01*
X66312942Y-109015763D01*
X66399318Y-109062662D01*
X66413344Y-109068215D01*
X66552693Y-109104772D01*
X66567644Y-109106819D01*
X66711687Y-109109083D01*
X66726691Y-109107506D01*
X66867125Y-109075342D01*
X66881310Y-109070235D01*
X66982754Y-109019214D01*
X66993060Y-109009583D01*
X66990848Y-109002980D01*
X66662812Y-108674944D01*
X66648868Y-108667330D01*
X66647035Y-108667461D01*
X66640420Y-108671712D01*
X66315013Y-108997119D01*
X66308253Y-109009499D01*
X50508500Y-109009499D01*
X50508500Y-108450609D01*
X65988037Y-108450609D01*
X66003846Y-108593805D01*
X66007292Y-108608494D01*
X66056799Y-108743783D01*
X66063649Y-108757226D01*
X66080470Y-108782259D01*
X66090454Y-108790558D01*
X66104545Y-108783323D01*
X66425056Y-108462812D01*
X66431434Y-108451132D01*
X66867330Y-108451132D01*
X66867461Y-108452965D01*
X66871712Y-108459580D01*
X67197382Y-108785250D01*
X67209392Y-108791808D01*
X67221133Y-108782838D01*
X67226413Y-108775490D01*
X67233678Y-108762275D01*
X67287413Y-108628607D01*
X67291319Y-108614028D01*
X67312107Y-108467962D01*
X67312731Y-108459758D01*
X67312790Y-108454121D01*
X67312338Y-108445906D01*
X67294612Y-108299432D01*
X67291016Y-108284789D01*
X67240089Y-108150014D01*
X67233106Y-108136657D01*
X67219892Y-108117431D01*
X67209638Y-108109088D01*
X67195899Y-108116233D01*
X66874944Y-108437188D01*
X66867330Y-108451132D01*
X66431434Y-108451132D01*
X66432670Y-108448868D01*
X66432539Y-108447035D01*
X66428288Y-108440420D01*
X66102925Y-108115057D01*
X66091116Y-108108608D01*
X66079142Y-108117856D01*
X66070212Y-108130562D01*
X66063083Y-108143856D01*
X66010751Y-108278080D01*
X66006999Y-108292694D01*
X65988194Y-108435528D01*
X65988037Y-108450609D01*
X50508500Y-108450609D01*
X50508500Y-107890792D01*
X66307393Y-107890792D01*
X66309764Y-107897632D01*
X66637188Y-108225056D01*
X66651132Y-108232670D01*
X66652965Y-108232539D01*
X66659580Y-108228288D01*
X66985312Y-107902556D01*
X66992072Y-107890176D01*
X66987562Y-107884152D01*
X66894249Y-107834745D01*
X66880172Y-107829342D01*
X66740446Y-107794245D01*
X66725474Y-107792354D01*
X66581410Y-107791600D01*
X66566434Y-107793332D01*
X66426335Y-107826967D01*
X66412211Y-107832220D01*
X66317595Y-107881055D01*
X66307393Y-107890792D01*
X50508500Y-107890792D01*
X50508500Y-106509499D01*
X65308253Y-106509499D01*
X65312942Y-106515763D01*
X65399318Y-106562662D01*
X65413344Y-106568215D01*
X65552693Y-106604772D01*
X65567644Y-106606819D01*
X65711687Y-106609083D01*
X65726691Y-106607506D01*
X65867125Y-106575342D01*
X65881310Y-106570235D01*
X65982754Y-106519214D01*
X65993060Y-106509583D01*
X65990848Y-106502980D01*
X65662812Y-106174944D01*
X65648868Y-106167330D01*
X65647035Y-106167461D01*
X65640420Y-106171712D01*
X65315013Y-106497119D01*
X65308253Y-106509499D01*
X50508500Y-106509499D01*
X50508500Y-106224000D01*
X50528502Y-106155879D01*
X50582158Y-106109386D01*
X50634500Y-106098000D01*
X52607885Y-106098000D01*
X52623124Y-106093525D01*
X52624329Y-106092135D01*
X52626000Y-106084452D01*
X52626000Y-106079884D01*
X53134000Y-106079884D01*
X53138475Y-106095123D01*
X53139865Y-106096328D01*
X53147548Y-106097999D01*
X55464669Y-106097999D01*
X55471490Y-106097629D01*
X55522352Y-106092105D01*
X55537604Y-106088479D01*
X55658054Y-106043324D01*
X55673649Y-106034786D01*
X55775724Y-105958285D01*
X55783400Y-105950609D01*
X64988037Y-105950609D01*
X65003846Y-106093805D01*
X65007292Y-106108494D01*
X65056799Y-106243783D01*
X65063649Y-106257226D01*
X65080470Y-106282259D01*
X65090454Y-106290558D01*
X65104545Y-106283323D01*
X65425056Y-105962812D01*
X65431434Y-105951132D01*
X65867330Y-105951132D01*
X65867461Y-105952965D01*
X65871712Y-105959580D01*
X66197382Y-106285250D01*
X66209392Y-106291808D01*
X66221133Y-106282838D01*
X66226413Y-106275490D01*
X66233678Y-106262275D01*
X66287413Y-106128607D01*
X66291319Y-106114028D01*
X66312107Y-105967962D01*
X66312731Y-105959758D01*
X66312790Y-105954121D01*
X66312338Y-105945906D01*
X66294612Y-105799432D01*
X66291016Y-105784789D01*
X66240089Y-105650014D01*
X66233106Y-105636657D01*
X66219892Y-105617431D01*
X66209638Y-105609088D01*
X66195899Y-105616233D01*
X65874944Y-105937188D01*
X65867330Y-105951132D01*
X65431434Y-105951132D01*
X65432670Y-105948868D01*
X65432539Y-105947035D01*
X65428288Y-105940420D01*
X65102925Y-105615057D01*
X65091116Y-105608608D01*
X65079142Y-105617856D01*
X65070212Y-105630562D01*
X65063083Y-105643856D01*
X65010751Y-105778080D01*
X65006999Y-105792694D01*
X64988194Y-105935528D01*
X64988037Y-105950609D01*
X55783400Y-105950609D01*
X55788285Y-105945724D01*
X55864786Y-105843649D01*
X55873324Y-105828054D01*
X55918478Y-105707606D01*
X55922105Y-105692351D01*
X55927631Y-105641486D01*
X55928000Y-105634672D01*
X55928000Y-105470202D01*
X55948002Y-105402081D01*
X55961030Y-105390792D01*
X65307393Y-105390792D01*
X65309764Y-105397632D01*
X65637188Y-105725056D01*
X65651132Y-105732670D01*
X65652965Y-105732539D01*
X65659580Y-105728288D01*
X65985312Y-105402556D01*
X65992072Y-105390176D01*
X65987562Y-105384152D01*
X65894249Y-105334745D01*
X65880172Y-105329342D01*
X65740446Y-105294245D01*
X65725474Y-105292354D01*
X65581410Y-105291600D01*
X65566434Y-105293332D01*
X65426335Y-105326967D01*
X65412211Y-105332220D01*
X65317595Y-105381055D01*
X65307393Y-105390792D01*
X55961030Y-105390792D01*
X56001658Y-105355588D01*
X56071932Y-105345484D01*
X56092936Y-105350369D01*
X56099877Y-105352624D01*
X56111851Y-105355257D01*
X56292992Y-105376857D01*
X56305241Y-105377114D01*
X56487125Y-105363119D01*
X56499205Y-105360988D01*
X56674895Y-105311934D01*
X56686328Y-105307500D01*
X56804342Y-105247887D01*
X56814626Y-105238242D01*
X56812388Y-105231598D01*
X56112812Y-104532022D01*
X56102723Y-104526513D01*
X56100000Y-104533814D01*
X56100000Y-105032000D01*
X56079998Y-105100121D01*
X56026342Y-105146614D01*
X55974000Y-105158000D01*
X55766000Y-105158000D01*
X55697879Y-105137998D01*
X55651386Y-105084342D01*
X55640000Y-105032000D01*
X55640000Y-104652115D01*
X55635525Y-104636876D01*
X55634135Y-104635671D01*
X55626452Y-104634000D01*
X53152115Y-104634000D01*
X53136876Y-104638475D01*
X53135671Y-104639865D01*
X53134000Y-104647548D01*
X53134000Y-106079884D01*
X52626000Y-106079884D01*
X52626000Y-104381132D01*
X56684408Y-104381132D01*
X56684539Y-104382965D01*
X56688790Y-104389580D01*
X57165659Y-104866449D01*
X57178039Y-104873209D01*
X57184773Y-104868168D01*
X57228494Y-104791207D01*
X57233487Y-104779991D01*
X57291062Y-104606914D01*
X57293782Y-104594942D01*
X57316973Y-104411364D01*
X57317465Y-104404335D01*
X57317756Y-104383505D01*
X57317463Y-104376512D01*
X57299403Y-104192325D01*
X57297020Y-104180290D01*
X57244298Y-104005665D01*
X57239623Y-103994324D01*
X57187472Y-103896241D01*
X57177610Y-103886158D01*
X57170484Y-103888726D01*
X56692022Y-104367188D01*
X56684408Y-104381132D01*
X52626000Y-104381132D01*
X52626000Y-104107885D01*
X53134000Y-104107885D01*
X53138475Y-104123124D01*
X53139865Y-104124329D01*
X53147548Y-104126000D01*
X55621885Y-104126000D01*
X55637124Y-104121525D01*
X55638329Y-104120135D01*
X55640000Y-104112452D01*
X55640000Y-103728000D01*
X55660002Y-103659879D01*
X55713658Y-103613386D01*
X55766000Y-103602000D01*
X55974000Y-103602000D01*
X56042121Y-103622002D01*
X56088614Y-103675658D01*
X56100000Y-103728000D01*
X56100000Y-104222675D01*
X56103237Y-104233700D01*
X56110328Y-104230462D01*
X56806766Y-103534024D01*
X56813526Y-103521644D01*
X56808867Y-103515421D01*
X56712083Y-103463090D01*
X56700778Y-103458338D01*
X56526524Y-103404397D01*
X56514511Y-103401931D01*
X56333094Y-103382863D01*
X56320826Y-103382778D01*
X56139169Y-103399310D01*
X56127114Y-103401610D01*
X56089575Y-103412658D01*
X56018578Y-103412704D01*
X55958827Y-103374358D01*
X55929293Y-103309796D01*
X55927999Y-103291785D01*
X55927999Y-103125331D01*
X55927629Y-103118510D01*
X55922105Y-103067648D01*
X55918479Y-103052396D01*
X55873324Y-102931946D01*
X55864786Y-102916351D01*
X55788285Y-102814276D01*
X55775724Y-102801715D01*
X55673649Y-102725214D01*
X55658054Y-102716676D01*
X55537606Y-102671522D01*
X55522351Y-102667895D01*
X55471486Y-102662369D01*
X55464672Y-102662000D01*
X53152115Y-102662000D01*
X53136876Y-102666475D01*
X53135671Y-102667865D01*
X53134000Y-102675548D01*
X53134000Y-104107885D01*
X52626000Y-104107885D01*
X52626000Y-102680116D01*
X52621525Y-102664877D01*
X52620135Y-102663672D01*
X52612452Y-102662001D01*
X50634500Y-102662001D01*
X50566379Y-102641999D01*
X50519886Y-102588343D01*
X50508500Y-102536001D01*
X50508500Y-100132703D01*
X97890743Y-100132703D01*
X97928268Y-100417734D01*
X98004129Y-100695036D01*
X98116923Y-100959476D01*
X98264561Y-101206161D01*
X98444313Y-101430528D01*
X98652851Y-101628423D01*
X98886317Y-101796186D01*
X98890112Y-101798195D01*
X98890113Y-101798196D01*
X98911869Y-101809715D01*
X99140392Y-101930712D01*
X99410373Y-102029511D01*
X99691264Y-102090755D01*
X99719841Y-102093004D01*
X99914282Y-102108307D01*
X99914291Y-102108307D01*
X99916739Y-102108500D01*
X100072271Y-102108500D01*
X100074407Y-102108354D01*
X100074418Y-102108354D01*
X100282548Y-102094165D01*
X100282554Y-102094164D01*
X100286825Y-102093873D01*
X100291020Y-102093004D01*
X100291022Y-102093004D01*
X100427584Y-102064723D01*
X100568342Y-102035574D01*
X100839343Y-101939607D01*
X101094812Y-101807750D01*
X101098313Y-101805289D01*
X101098317Y-101805287D01*
X101212417Y-101725096D01*
X101330023Y-101642441D01*
X101540622Y-101446740D01*
X101722713Y-101224268D01*
X101872927Y-100979142D01*
X101988483Y-100715898D01*
X102067244Y-100439406D01*
X102107751Y-100154784D01*
X102107845Y-100136951D01*
X102109235Y-99871583D01*
X102109235Y-99871576D01*
X102109257Y-99867297D01*
X102071732Y-99582266D01*
X101995871Y-99304964D01*
X101883077Y-99040524D01*
X101735439Y-98793839D01*
X101555687Y-98569472D01*
X101347149Y-98371577D01*
X101113683Y-98203814D01*
X101091843Y-98192250D01*
X101068654Y-98179972D01*
X100859608Y-98069288D01*
X100589627Y-97970489D01*
X100308736Y-97909245D01*
X100277685Y-97906801D01*
X100085718Y-97891693D01*
X100085709Y-97891693D01*
X100083261Y-97891500D01*
X99927729Y-97891500D01*
X99925593Y-97891646D01*
X99925582Y-97891646D01*
X99717452Y-97905835D01*
X99717446Y-97905836D01*
X99713175Y-97906127D01*
X99708980Y-97906996D01*
X99708978Y-97906996D01*
X99572416Y-97935277D01*
X99431658Y-97964426D01*
X99160657Y-98060393D01*
X98905188Y-98192250D01*
X98901687Y-98194711D01*
X98901683Y-98194713D01*
X98891594Y-98201804D01*
X98669977Y-98357559D01*
X98459378Y-98553260D01*
X98277287Y-98775732D01*
X98127073Y-99020858D01*
X98011517Y-99284102D01*
X97932756Y-99560594D01*
X97892249Y-99845216D01*
X97892227Y-99849505D01*
X97892226Y-99849512D01*
X97890765Y-100128417D01*
X97890743Y-100132703D01*
X50508500Y-100132703D01*
X50508500Y-97464000D01*
X50528502Y-97395879D01*
X50582158Y-97349386D01*
X50634500Y-97338000D01*
X52607885Y-97338000D01*
X52623124Y-97333525D01*
X52624329Y-97332135D01*
X52626000Y-97324452D01*
X52626000Y-97319884D01*
X53134000Y-97319884D01*
X53138475Y-97335123D01*
X53139865Y-97336328D01*
X53147548Y-97337999D01*
X55464669Y-97337999D01*
X55471490Y-97337629D01*
X55522352Y-97332105D01*
X55537604Y-97328479D01*
X55658054Y-97283324D01*
X55673649Y-97274786D01*
X55775724Y-97198285D01*
X55788285Y-97185724D01*
X55864786Y-97083649D01*
X55873324Y-97068054D01*
X55918478Y-96947606D01*
X55922105Y-96932351D01*
X55927631Y-96881486D01*
X55928000Y-96874672D01*
X55928000Y-96710202D01*
X55948002Y-96642081D01*
X56001658Y-96595588D01*
X56071932Y-96585484D01*
X56092936Y-96590369D01*
X56099877Y-96592624D01*
X56111851Y-96595257D01*
X56292992Y-96616857D01*
X56305241Y-96617114D01*
X56487125Y-96603119D01*
X56499205Y-96600988D01*
X56674895Y-96551934D01*
X56686328Y-96547500D01*
X56804342Y-96487887D01*
X56814626Y-96478242D01*
X56812388Y-96471598D01*
X56112812Y-95772022D01*
X56102723Y-95766513D01*
X56100000Y-95773814D01*
X56100000Y-96272000D01*
X56079998Y-96340121D01*
X56026342Y-96386614D01*
X55974000Y-96398000D01*
X55766000Y-96398000D01*
X55697879Y-96377998D01*
X55651386Y-96324342D01*
X55640000Y-96272000D01*
X55640000Y-95892115D01*
X55635525Y-95876876D01*
X55634135Y-95875671D01*
X55626452Y-95874000D01*
X53152115Y-95874000D01*
X53136876Y-95878475D01*
X53135671Y-95879865D01*
X53134000Y-95887548D01*
X53134000Y-97319884D01*
X52626000Y-97319884D01*
X52626000Y-95621132D01*
X56684408Y-95621132D01*
X56684539Y-95622965D01*
X56688790Y-95629580D01*
X57165659Y-96106449D01*
X57178039Y-96113209D01*
X57184773Y-96108168D01*
X57228494Y-96031207D01*
X57233487Y-96019991D01*
X57291062Y-95846914D01*
X57293782Y-95834942D01*
X57316973Y-95651364D01*
X57317465Y-95644335D01*
X57317756Y-95623505D01*
X57317463Y-95616512D01*
X57299403Y-95432325D01*
X57297020Y-95420290D01*
X57244298Y-95245665D01*
X57239623Y-95234324D01*
X57187472Y-95136241D01*
X57177610Y-95126158D01*
X57170484Y-95128726D01*
X56692022Y-95607188D01*
X56684408Y-95621132D01*
X52626000Y-95621132D01*
X52626000Y-95347885D01*
X53134000Y-95347885D01*
X53138475Y-95363124D01*
X53139865Y-95364329D01*
X53147548Y-95366000D01*
X55621885Y-95366000D01*
X55637124Y-95361525D01*
X55638329Y-95360135D01*
X55640000Y-95352452D01*
X55640000Y-94968000D01*
X55660002Y-94899879D01*
X55713658Y-94853386D01*
X55766000Y-94842000D01*
X55974000Y-94842000D01*
X56042121Y-94862002D01*
X56088614Y-94915658D01*
X56100000Y-94968000D01*
X56100000Y-95462675D01*
X56103237Y-95473700D01*
X56110328Y-95470462D01*
X56806766Y-94774024D01*
X56813526Y-94761644D01*
X56808867Y-94755421D01*
X56712083Y-94703090D01*
X56700778Y-94698338D01*
X56526524Y-94644397D01*
X56514511Y-94641931D01*
X56333094Y-94622863D01*
X56320826Y-94622778D01*
X56139169Y-94639310D01*
X56127114Y-94641610D01*
X56089575Y-94652658D01*
X56018578Y-94652704D01*
X55958827Y-94614358D01*
X55929293Y-94549796D01*
X55927999Y-94531785D01*
X55927999Y-94365331D01*
X55927629Y-94358510D01*
X55922105Y-94307648D01*
X55918479Y-94292396D01*
X55873324Y-94171946D01*
X55864786Y-94156351D01*
X55788285Y-94054276D01*
X55775724Y-94041715D01*
X55673649Y-93965214D01*
X55658054Y-93956676D01*
X55537606Y-93911522D01*
X55522351Y-93907895D01*
X55471486Y-93902369D01*
X55464672Y-93902000D01*
X53152115Y-93902000D01*
X53136876Y-93906475D01*
X53135671Y-93907865D01*
X53134000Y-93915548D01*
X53134000Y-95347885D01*
X52626000Y-95347885D01*
X52626000Y-93920116D01*
X52621525Y-93904877D01*
X52620135Y-93903672D01*
X52612452Y-93902001D01*
X50634500Y-93902001D01*
X50566379Y-93881999D01*
X50519886Y-93828343D01*
X50508500Y-93776001D01*
X50508500Y-87802408D01*
X110934285Y-87802408D01*
X110953477Y-88021779D01*
X111010472Y-88234484D01*
X111012797Y-88239469D01*
X111101210Y-88429074D01*
X111101213Y-88429079D01*
X111103536Y-88434061D01*
X111229843Y-88614446D01*
X111385554Y-88770157D01*
X111565938Y-88896464D01*
X111765516Y-88989528D01*
X111978221Y-89046523D01*
X112197592Y-89065715D01*
X112416963Y-89046523D01*
X112629668Y-88989528D01*
X112829246Y-88896464D01*
X113009630Y-88770157D01*
X113165341Y-88614446D01*
X113291648Y-88434061D01*
X113293971Y-88429079D01*
X113293974Y-88429074D01*
X113382387Y-88239469D01*
X113384712Y-88234484D01*
X113441707Y-88021779D01*
X113460899Y-87802408D01*
X113441707Y-87583037D01*
X113384712Y-87370332D01*
X113341177Y-87276970D01*
X113293974Y-87175742D01*
X113293971Y-87175737D01*
X113291648Y-87170755D01*
X113165341Y-86990370D01*
X113009630Y-86834659D01*
X112829246Y-86708352D01*
X112629668Y-86615288D01*
X112416963Y-86558293D01*
X112197592Y-86539101D01*
X111978221Y-86558293D01*
X111765516Y-86615288D01*
X111672154Y-86658823D01*
X111570926Y-86706026D01*
X111570921Y-86706029D01*
X111565939Y-86708352D01*
X111561432Y-86711508D01*
X111561430Y-86711509D01*
X111390065Y-86831500D01*
X111390062Y-86831502D01*
X111385554Y-86834659D01*
X111229843Y-86990370D01*
X111103536Y-87170755D01*
X111101213Y-87175737D01*
X111101210Y-87175742D01*
X111054007Y-87276970D01*
X111010472Y-87370332D01*
X110953477Y-87583037D01*
X110934285Y-87802408D01*
X50508500Y-87802408D01*
X50508500Y-57632703D01*
X55390743Y-57632703D01*
X55428268Y-57917734D01*
X55504129Y-58195036D01*
X55616923Y-58459476D01*
X55764561Y-58706161D01*
X55944313Y-58930528D01*
X56152851Y-59128423D01*
X56386317Y-59296186D01*
X56390112Y-59298195D01*
X56390113Y-59298196D01*
X56411869Y-59309715D01*
X56640392Y-59430712D01*
X56910373Y-59529511D01*
X57191264Y-59590755D01*
X57219841Y-59593004D01*
X57414282Y-59608307D01*
X57414291Y-59608307D01*
X57416739Y-59608500D01*
X57572271Y-59608500D01*
X57574407Y-59608354D01*
X57574418Y-59608354D01*
X57782548Y-59594165D01*
X57782554Y-59594164D01*
X57786825Y-59593873D01*
X57791020Y-59593004D01*
X57791022Y-59593004D01*
X57927584Y-59564723D01*
X58068342Y-59535574D01*
X58339343Y-59439607D01*
X58594812Y-59307750D01*
X58598313Y-59305289D01*
X58598317Y-59305287D01*
X58712417Y-59225096D01*
X58830023Y-59142441D01*
X59040622Y-58946740D01*
X59222713Y-58724268D01*
X59372927Y-58479142D01*
X59488483Y-58215898D01*
X59567244Y-57939406D01*
X59607751Y-57654784D01*
X59607845Y-57636951D01*
X59607867Y-57632703D01*
X140390743Y-57632703D01*
X140428268Y-57917734D01*
X140504129Y-58195036D01*
X140616923Y-58459476D01*
X140764561Y-58706161D01*
X140944313Y-58930528D01*
X141152851Y-59128423D01*
X141386317Y-59296186D01*
X141390112Y-59298195D01*
X141390113Y-59298196D01*
X141411869Y-59309715D01*
X141640392Y-59430712D01*
X141910373Y-59529511D01*
X142191264Y-59590755D01*
X142219841Y-59593004D01*
X142414282Y-59608307D01*
X142414291Y-59608307D01*
X142416739Y-59608500D01*
X142572271Y-59608500D01*
X142574407Y-59608354D01*
X142574418Y-59608354D01*
X142782548Y-59594165D01*
X142782554Y-59594164D01*
X142786825Y-59593873D01*
X142791020Y-59593004D01*
X142791022Y-59593004D01*
X142927584Y-59564723D01*
X143068342Y-59535574D01*
X143339343Y-59439607D01*
X143594812Y-59307750D01*
X143598313Y-59305289D01*
X143598317Y-59305287D01*
X143712417Y-59225096D01*
X143830023Y-59142441D01*
X144040622Y-58946740D01*
X144222713Y-58724268D01*
X144372927Y-58479142D01*
X144488483Y-58215898D01*
X144567244Y-57939406D01*
X144607751Y-57654784D01*
X144607845Y-57636951D01*
X144609235Y-57371583D01*
X144609235Y-57371576D01*
X144609257Y-57367297D01*
X144571732Y-57082266D01*
X144495871Y-56804964D01*
X144383077Y-56540524D01*
X144235439Y-56293839D01*
X144055687Y-56069472D01*
X143847149Y-55871577D01*
X143613683Y-55703814D01*
X143591843Y-55692250D01*
X143568654Y-55679972D01*
X143359608Y-55569288D01*
X143089627Y-55470489D01*
X142808736Y-55409245D01*
X142777685Y-55406801D01*
X142585718Y-55391693D01*
X142585709Y-55391693D01*
X142583261Y-55391500D01*
X142427729Y-55391500D01*
X142425593Y-55391646D01*
X142425582Y-55391646D01*
X142217452Y-55405835D01*
X142217446Y-55405836D01*
X142213175Y-55406127D01*
X142208980Y-55406996D01*
X142208978Y-55406996D01*
X142072417Y-55435276D01*
X141931658Y-55464426D01*
X141660657Y-55560393D01*
X141405188Y-55692250D01*
X141401687Y-55694711D01*
X141401683Y-55694713D01*
X141391594Y-55701804D01*
X141169977Y-55857559D01*
X140959378Y-56053260D01*
X140777287Y-56275732D01*
X140627073Y-56520858D01*
X140511517Y-56784102D01*
X140432756Y-57060594D01*
X140392249Y-57345216D01*
X140392227Y-57349505D01*
X140392226Y-57349512D01*
X140390765Y-57628417D01*
X140390743Y-57632703D01*
X59607867Y-57632703D01*
X59609235Y-57371583D01*
X59609235Y-57371576D01*
X59609257Y-57367297D01*
X59571732Y-57082266D01*
X59495871Y-56804964D01*
X59383077Y-56540524D01*
X59235439Y-56293839D01*
X59055687Y-56069472D01*
X58847149Y-55871577D01*
X58613683Y-55703814D01*
X58591843Y-55692250D01*
X58568654Y-55679972D01*
X58359608Y-55569288D01*
X58089627Y-55470489D01*
X57808736Y-55409245D01*
X57777685Y-55406801D01*
X57585718Y-55391693D01*
X57585709Y-55391693D01*
X57583261Y-55391500D01*
X57427729Y-55391500D01*
X57425593Y-55391646D01*
X57425582Y-55391646D01*
X57217452Y-55405835D01*
X57217446Y-55405836D01*
X57213175Y-55406127D01*
X57208980Y-55406996D01*
X57208978Y-55406996D01*
X57072417Y-55435276D01*
X56931658Y-55464426D01*
X56660657Y-55560393D01*
X56405188Y-55692250D01*
X56401687Y-55694711D01*
X56401683Y-55694713D01*
X56391594Y-55701804D01*
X56169977Y-55857559D01*
X55959378Y-56053260D01*
X55777287Y-56275732D01*
X55627073Y-56520858D01*
X55511517Y-56784102D01*
X55432756Y-57060594D01*
X55392249Y-57345216D01*
X55392227Y-57349505D01*
X55392226Y-57349512D01*
X55390765Y-57628417D01*
X55390743Y-57632703D01*
X50508500Y-57632703D01*
X50508500Y-50634500D01*
X50528502Y-50566379D01*
X50582158Y-50519886D01*
X50634500Y-50508500D01*
X149365500Y-50508500D01*
X149433621Y-50528502D01*
G37*
G04 #@! TD.AperFunction*
M02*
